G04 (created by PCBNEW-RS274X (2012-apr-16-27)-stable) date Втр 01 Янв 2013 22:40:23*
G01*
G70*
G90*
%MOIN*%
G04 Gerber Fmt 3.4, Leading zero omitted, Abs format*
%FSLAX34Y34*%
G04 APERTURE LIST*
%ADD10C,0.006000*%
%ADD11C,0.012000*%
%ADD12C,0.015000*%
%ADD13C,0.008000*%
%ADD14C,0.011300*%
%ADD15C,0.010000*%
%ADD16C,0.010600*%
G04 APERTURE END LIST*
G54D10*
G54D11*
X68250Y-27750D02*
X68250Y-28250D01*
X68250Y-28250D02*
X67250Y-28250D01*
X67250Y-28250D02*
X67250Y-27750D01*
X68750Y-27750D02*
X68750Y-42750D01*
X69750Y-27750D02*
X69750Y-27750D01*
X69750Y-27750D02*
X69750Y-28250D01*
X69750Y-28250D02*
X68750Y-28250D01*
X68750Y-28250D02*
X68750Y-27750D01*
X71750Y-27750D02*
X71750Y-42750D01*
X71750Y-42750D02*
X66750Y-42750D01*
X66750Y-42750D02*
X66750Y-27750D01*
X66750Y-27750D02*
X71750Y-27750D01*
G54D12*
X38500Y-14250D02*
X38476Y-14492D01*
X38405Y-14726D01*
X38291Y-14941D01*
X38136Y-15130D01*
X37948Y-15286D01*
X37734Y-15402D01*
X37501Y-15474D01*
X37258Y-15499D01*
X37016Y-15477D01*
X36782Y-15408D01*
X36566Y-15295D01*
X36376Y-15143D01*
X36219Y-14956D01*
X36102Y-14742D01*
X36028Y-14509D01*
X36001Y-14267D01*
X36021Y-14025D01*
X36088Y-13790D01*
X36200Y-13573D01*
X36351Y-13382D01*
X36537Y-13224D01*
X36750Y-13105D01*
X36982Y-13030D01*
X37224Y-13001D01*
X37467Y-13019D01*
X37702Y-13085D01*
X37919Y-13195D01*
X38112Y-13345D01*
X38271Y-13530D01*
X38391Y-13742D01*
X38468Y-13974D01*
X38499Y-14216D01*
X38500Y-14250D01*
X78500Y-14250D02*
X78476Y-14492D01*
X78405Y-14726D01*
X78291Y-14941D01*
X78136Y-15130D01*
X77948Y-15286D01*
X77734Y-15402D01*
X77501Y-15474D01*
X77258Y-15499D01*
X77016Y-15477D01*
X76782Y-15408D01*
X76566Y-15295D01*
X76376Y-15143D01*
X76219Y-14956D01*
X76102Y-14742D01*
X76028Y-14509D01*
X76001Y-14267D01*
X76021Y-14025D01*
X76088Y-13790D01*
X76200Y-13573D01*
X76351Y-13382D01*
X76537Y-13224D01*
X76750Y-13105D01*
X76982Y-13030D01*
X77224Y-13001D01*
X77467Y-13019D01*
X77702Y-13085D01*
X77919Y-13195D01*
X78112Y-13345D01*
X78271Y-13530D01*
X78391Y-13742D01*
X78468Y-13974D01*
X78499Y-14216D01*
X78500Y-14250D01*
X78500Y-53500D02*
X78476Y-53742D01*
X78405Y-53976D01*
X78291Y-54191D01*
X78136Y-54380D01*
X77948Y-54536D01*
X77734Y-54652D01*
X77501Y-54724D01*
X77258Y-54749D01*
X77016Y-54727D01*
X76782Y-54658D01*
X76566Y-54545D01*
X76376Y-54393D01*
X76219Y-54206D01*
X76102Y-53992D01*
X76028Y-53759D01*
X76001Y-53517D01*
X76021Y-53275D01*
X76088Y-53040D01*
X76200Y-52823D01*
X76351Y-52632D01*
X76537Y-52474D01*
X76750Y-52355D01*
X76982Y-52280D01*
X77224Y-52251D01*
X77467Y-52269D01*
X77702Y-52335D01*
X77919Y-52445D01*
X78112Y-52595D01*
X78271Y-52780D01*
X78391Y-52992D01*
X78468Y-53224D01*
X78499Y-53466D01*
X78500Y-53500D01*
X38500Y-53500D02*
X38476Y-53742D01*
X38405Y-53976D01*
X38291Y-54191D01*
X38136Y-54380D01*
X37948Y-54536D01*
X37734Y-54652D01*
X37501Y-54724D01*
X37258Y-54749D01*
X37016Y-54727D01*
X36782Y-54658D01*
X36566Y-54545D01*
X36376Y-54393D01*
X36219Y-54206D01*
X36102Y-53992D01*
X36028Y-53759D01*
X36001Y-53517D01*
X36021Y-53275D01*
X36088Y-53040D01*
X36200Y-52823D01*
X36351Y-52632D01*
X36537Y-52474D01*
X36750Y-52355D01*
X36982Y-52280D01*
X37224Y-52251D01*
X37467Y-52269D01*
X37702Y-52335D01*
X37919Y-52445D01*
X38112Y-52595D01*
X38271Y-52780D01*
X38391Y-52992D01*
X38468Y-53224D01*
X38499Y-53466D01*
X38500Y-53500D01*
G54D11*
X63500Y-58250D02*
X56750Y-58250D01*
X56500Y-54000D02*
X63750Y-54000D01*
X56250Y-54000D02*
X56500Y-54000D01*
X56250Y-55250D02*
X64000Y-55250D01*
X54000Y-55250D02*
X56250Y-55250D01*
X66250Y-55750D02*
X54000Y-55750D01*
X56750Y-55750D02*
X56750Y-58250D01*
X54000Y-55250D02*
X54000Y-55750D01*
X56250Y-54000D02*
X56250Y-55250D01*
X57250Y-53500D02*
X56500Y-53500D01*
X56500Y-53500D02*
X56500Y-54000D01*
X63500Y-55750D02*
X63500Y-58250D01*
X64000Y-55250D02*
X66250Y-55250D01*
X66250Y-55250D02*
X66250Y-55750D01*
X63750Y-54000D02*
X64000Y-54000D01*
X64000Y-54000D02*
X64000Y-55250D01*
X63000Y-53500D02*
X63750Y-53500D01*
X63750Y-53500D02*
X63750Y-54000D01*
X72250Y-46250D02*
X75250Y-46250D01*
X72250Y-52250D02*
X75250Y-52250D01*
X72750Y-46250D02*
X72750Y-52250D01*
X75250Y-46250D02*
X75250Y-52250D01*
X72250Y-46250D02*
X72250Y-52250D01*
X46250Y-15500D02*
X46250Y-15900D01*
X46250Y-15900D02*
X46650Y-15900D01*
X46650Y-15900D02*
X46650Y-19100D01*
X46650Y-19100D02*
X45850Y-19100D01*
X45850Y-19100D02*
X45850Y-15900D01*
X45850Y-15900D02*
X46250Y-15900D01*
X46450Y-15900D02*
X46650Y-16100D01*
X46250Y-19500D02*
X46250Y-19100D01*
X53000Y-16500D02*
X53400Y-16500D01*
X53400Y-16500D02*
X53400Y-16100D01*
X53400Y-16100D02*
X56600Y-16100D01*
X56600Y-16100D02*
X56600Y-16900D01*
X56600Y-16900D02*
X53400Y-16900D01*
X53400Y-16900D02*
X53400Y-16500D01*
X53400Y-16300D02*
X53600Y-16100D01*
X57000Y-16500D02*
X56600Y-16500D01*
X73750Y-20500D02*
X73750Y-20100D01*
X73750Y-20100D02*
X73350Y-20100D01*
X73350Y-20100D02*
X73350Y-16900D01*
X73350Y-16900D02*
X74150Y-16900D01*
X74150Y-16900D02*
X74150Y-20100D01*
X74150Y-20100D02*
X73750Y-20100D01*
X73550Y-20100D02*
X73350Y-19900D01*
X73750Y-16500D02*
X73750Y-16900D01*
X53000Y-18500D02*
X53400Y-18500D01*
X53400Y-18500D02*
X53400Y-18100D01*
X53400Y-18100D02*
X56600Y-18100D01*
X56600Y-18100D02*
X56600Y-18900D01*
X56600Y-18900D02*
X53400Y-18900D01*
X53400Y-18900D02*
X53400Y-18500D01*
X53400Y-18300D02*
X53600Y-18100D01*
X57000Y-18500D02*
X56600Y-18500D01*
X53000Y-17500D02*
X53400Y-17500D01*
X53400Y-17500D02*
X53400Y-17100D01*
X53400Y-17100D02*
X56600Y-17100D01*
X56600Y-17100D02*
X56600Y-17900D01*
X56600Y-17900D02*
X53400Y-17900D01*
X53400Y-17900D02*
X53400Y-17500D01*
X53400Y-17300D02*
X53600Y-17100D01*
X57000Y-17500D02*
X56600Y-17500D01*
X76500Y-42250D02*
X76500Y-41750D01*
X76500Y-41750D02*
X77000Y-41750D01*
X77000Y-41750D02*
X77000Y-37750D01*
X77000Y-37750D02*
X76500Y-37750D01*
X76500Y-37750D02*
X76500Y-37250D01*
X76500Y-37750D02*
X76000Y-37750D01*
X76000Y-37750D02*
X76000Y-41750D01*
X76000Y-41750D02*
X76500Y-41750D01*
X77000Y-41250D02*
X76000Y-41250D01*
X77000Y-41350D02*
X76000Y-41350D01*
X65750Y-17250D02*
X65350Y-17250D01*
X65150Y-17050D02*
X65350Y-17050D01*
X65350Y-17050D02*
X65350Y-17450D01*
X65350Y-17450D02*
X65150Y-17450D01*
X59750Y-17250D02*
X60150Y-17250D01*
X60150Y-17250D02*
X60150Y-17850D01*
X60150Y-17850D02*
X65150Y-17850D01*
X65150Y-17850D02*
X65150Y-16650D01*
X65150Y-16650D02*
X60150Y-16650D01*
X60150Y-16650D02*
X60150Y-17250D01*
X51000Y-19750D02*
X51400Y-19750D01*
X51600Y-19950D02*
X51400Y-19950D01*
X51400Y-19950D02*
X51400Y-19550D01*
X51400Y-19550D02*
X51600Y-19550D01*
X57000Y-19750D02*
X56600Y-19750D01*
X56600Y-19750D02*
X56600Y-19150D01*
X56600Y-19150D02*
X51600Y-19150D01*
X51600Y-19150D02*
X51600Y-20350D01*
X51600Y-20350D02*
X56600Y-20350D01*
X56600Y-20350D02*
X56600Y-19750D01*
G54D12*
X47500Y-16500D02*
X48000Y-16500D01*
X48000Y-16500D02*
X48000Y-17500D01*
X48000Y-17500D02*
X47500Y-17500D01*
X47500Y-16000D02*
X51500Y-16000D01*
X51500Y-16000D02*
X51500Y-18000D01*
X51500Y-18000D02*
X47500Y-18000D01*
X47500Y-18000D02*
X47500Y-16000D01*
G54D11*
X45250Y-33500D02*
X45250Y-35500D01*
X45250Y-35500D02*
X43250Y-35500D01*
X43250Y-35500D02*
X43250Y-33500D01*
X43250Y-33500D02*
X45250Y-33500D01*
X59250Y-25250D02*
X59250Y-24850D01*
X59250Y-24850D02*
X58850Y-24850D01*
X58850Y-24850D02*
X58850Y-21650D01*
X58850Y-21650D02*
X59650Y-21650D01*
X59650Y-21650D02*
X59650Y-24850D01*
X59650Y-24850D02*
X59250Y-24850D01*
X59050Y-24850D02*
X58850Y-24650D01*
X59250Y-21250D02*
X59250Y-21650D01*
X58250Y-25250D02*
X58250Y-24850D01*
X58250Y-24850D02*
X57850Y-24850D01*
X57850Y-24850D02*
X57850Y-21650D01*
X57850Y-21650D02*
X58650Y-21650D01*
X58650Y-21650D02*
X58650Y-24850D01*
X58650Y-24850D02*
X58250Y-24850D01*
X58050Y-24850D02*
X57850Y-24650D01*
X58250Y-21250D02*
X58250Y-21650D01*
X45250Y-20750D02*
X45250Y-21150D01*
X45250Y-21150D02*
X45650Y-21150D01*
X45650Y-21150D02*
X45650Y-24350D01*
X45650Y-24350D02*
X44850Y-24350D01*
X44850Y-24350D02*
X44850Y-21150D01*
X44850Y-21150D02*
X45250Y-21150D01*
X45450Y-21150D02*
X45650Y-21350D01*
X45250Y-24750D02*
X45250Y-24350D01*
X46250Y-20750D02*
X46250Y-21150D01*
X46250Y-21150D02*
X46650Y-21150D01*
X46650Y-21150D02*
X46650Y-24350D01*
X46650Y-24350D02*
X45850Y-24350D01*
X45850Y-24350D02*
X45850Y-21150D01*
X45850Y-21150D02*
X46250Y-21150D01*
X46450Y-21150D02*
X46650Y-21350D01*
X46250Y-24750D02*
X46250Y-24350D01*
X44250Y-23750D02*
X44230Y-23944D01*
X44174Y-24131D01*
X44082Y-24303D01*
X43959Y-24454D01*
X43809Y-24579D01*
X43637Y-24671D01*
X43451Y-24729D01*
X43256Y-24749D01*
X43063Y-24732D01*
X42876Y-24677D01*
X42703Y-24586D01*
X42551Y-24464D01*
X42425Y-24314D01*
X42331Y-24143D01*
X42272Y-23957D01*
X42251Y-23763D01*
X42267Y-23570D01*
X42321Y-23382D01*
X42410Y-23209D01*
X42531Y-23056D01*
X42680Y-22929D01*
X42850Y-22834D01*
X43036Y-22774D01*
X43230Y-22751D01*
X43423Y-22766D01*
X43611Y-22818D01*
X43785Y-22906D01*
X43939Y-23026D01*
X44067Y-23174D01*
X44163Y-23344D01*
X44225Y-23529D01*
X44249Y-23723D01*
X44250Y-23750D01*
X42250Y-24000D02*
X42500Y-24000D01*
X42500Y-24000D02*
X42500Y-23500D01*
X42500Y-23500D02*
X42250Y-23500D01*
X44250Y-20750D02*
X44230Y-20944D01*
X44174Y-21131D01*
X44082Y-21303D01*
X43959Y-21454D01*
X43809Y-21579D01*
X43637Y-21671D01*
X43451Y-21729D01*
X43256Y-21749D01*
X43063Y-21732D01*
X42876Y-21677D01*
X42703Y-21586D01*
X42551Y-21464D01*
X42425Y-21314D01*
X42331Y-21143D01*
X42272Y-20957D01*
X42251Y-20763D01*
X42267Y-20570D01*
X42321Y-20382D01*
X42410Y-20209D01*
X42531Y-20056D01*
X42680Y-19929D01*
X42850Y-19834D01*
X43036Y-19774D01*
X43230Y-19751D01*
X43423Y-19766D01*
X43611Y-19818D01*
X43785Y-19906D01*
X43939Y-20026D01*
X44067Y-20174D01*
X44163Y-20344D01*
X44225Y-20529D01*
X44249Y-20723D01*
X44250Y-20750D01*
X42250Y-21000D02*
X42500Y-21000D01*
X42500Y-21000D02*
X42500Y-20500D01*
X42500Y-20500D02*
X42250Y-20500D01*
X72750Y-26250D02*
X72750Y-22250D01*
X72250Y-26250D02*
X75250Y-26250D01*
X75250Y-26250D02*
X75250Y-22250D01*
X75250Y-22250D02*
X72250Y-22250D01*
X72250Y-22250D02*
X72250Y-26250D01*
X67750Y-25750D02*
X67750Y-26750D01*
X67750Y-26750D02*
X64750Y-26750D01*
X64750Y-26750D02*
X64750Y-25750D01*
X64750Y-25750D02*
X67750Y-25750D01*
X66750Y-26750D02*
X66750Y-25750D01*
X49250Y-49750D02*
X49650Y-49750D01*
X49650Y-49750D02*
X49650Y-49350D01*
X49650Y-49350D02*
X52850Y-49350D01*
X52850Y-49350D02*
X52850Y-50150D01*
X52850Y-50150D02*
X49650Y-50150D01*
X49650Y-50150D02*
X49650Y-49750D01*
X49650Y-49550D02*
X49850Y-49350D01*
X53250Y-49750D02*
X52850Y-49750D01*
X61250Y-46250D02*
X63250Y-46250D01*
X61250Y-47250D02*
X63250Y-47250D01*
X61250Y-48250D02*
X63250Y-48250D01*
X63250Y-45750D02*
X63250Y-49250D01*
X63250Y-49250D02*
X69250Y-49250D01*
X69250Y-49250D02*
X69250Y-45250D01*
X63250Y-45750D02*
X63250Y-45250D01*
X66250Y-48750D02*
X66250Y-45250D01*
X66250Y-48750D02*
X66250Y-49250D01*
X63250Y-45250D02*
X69250Y-45250D01*
X46650Y-51250D02*
X46650Y-46250D01*
X46650Y-51050D02*
X41750Y-51050D01*
X46650Y-46250D02*
X46950Y-46250D01*
X46650Y-51250D02*
X46950Y-51250D01*
X46950Y-51250D02*
X46950Y-46250D01*
X47750Y-47750D02*
X46950Y-47750D01*
X47750Y-49750D02*
X46950Y-49750D01*
X46650Y-46450D02*
X41750Y-46450D01*
X41750Y-51050D02*
X41550Y-50850D01*
X41550Y-50850D02*
X41550Y-46650D01*
X41550Y-46650D02*
X41750Y-46450D01*
X35250Y-24250D02*
X40750Y-24250D01*
X37250Y-27250D02*
X40750Y-27250D01*
X35250Y-26500D02*
X37250Y-26500D01*
X35250Y-43000D02*
X37250Y-43000D01*
X37250Y-42250D02*
X40750Y-42250D01*
X40750Y-45250D02*
X35250Y-45250D01*
X37250Y-24250D02*
X37250Y-27250D01*
X37250Y-45250D02*
X37250Y-42250D01*
X36500Y-26750D02*
X35250Y-26750D01*
X36500Y-42750D02*
X35250Y-42750D01*
X32500Y-26750D02*
X34750Y-26750D01*
X32500Y-42750D02*
X34750Y-42750D01*
X35250Y-24250D02*
X34750Y-24250D01*
X34750Y-24250D02*
X34750Y-45250D01*
X34750Y-45250D02*
X35250Y-45250D01*
X35250Y-45250D02*
X35250Y-24250D01*
X40750Y-27250D02*
X40750Y-24250D01*
X36500Y-42750D02*
X36500Y-26750D01*
X32500Y-42750D02*
X32500Y-26750D01*
X40750Y-45250D02*
X40750Y-42250D01*
X70750Y-44250D02*
X71250Y-44250D01*
X71250Y-44250D02*
X71250Y-44750D01*
X71250Y-44750D02*
X75250Y-44750D01*
X75250Y-44750D02*
X75250Y-44250D01*
X75250Y-44250D02*
X75750Y-44250D01*
X75250Y-44250D02*
X75250Y-43750D01*
X75250Y-43750D02*
X71250Y-43750D01*
X71250Y-43750D02*
X71250Y-44250D01*
X71750Y-44750D02*
X71750Y-43750D01*
X71650Y-44750D02*
X71650Y-43750D01*
X51000Y-21250D02*
X51400Y-21250D01*
X51600Y-21450D02*
X51400Y-21450D01*
X51400Y-21450D02*
X51400Y-21050D01*
X51400Y-21050D02*
X51600Y-21050D01*
X57000Y-21250D02*
X56600Y-21250D01*
X56600Y-21250D02*
X56600Y-20650D01*
X56600Y-20650D02*
X51600Y-20650D01*
X51600Y-20650D02*
X51600Y-21850D01*
X51600Y-21850D02*
X56600Y-21850D01*
X56600Y-21850D02*
X56600Y-21250D01*
X64500Y-42000D02*
X64100Y-42000D01*
X63900Y-41800D02*
X64100Y-41800D01*
X64100Y-41800D02*
X64100Y-42200D01*
X64100Y-42200D02*
X63900Y-42200D01*
X58500Y-42000D02*
X58900Y-42000D01*
X58900Y-42000D02*
X58900Y-42600D01*
X58900Y-42600D02*
X63900Y-42600D01*
X63900Y-42600D02*
X63900Y-41400D01*
X63900Y-41400D02*
X58900Y-41400D01*
X58900Y-41400D02*
X58900Y-42000D01*
X74250Y-32000D02*
X74250Y-32400D01*
X74050Y-32600D02*
X74050Y-32400D01*
X74050Y-32400D02*
X74450Y-32400D01*
X74450Y-32400D02*
X74450Y-32600D01*
X74250Y-38000D02*
X74250Y-37600D01*
X74250Y-37600D02*
X74850Y-37600D01*
X74850Y-37600D02*
X74850Y-32600D01*
X74850Y-32600D02*
X73650Y-32600D01*
X73650Y-32600D02*
X73650Y-37600D01*
X73650Y-37600D02*
X74250Y-37600D01*
G54D12*
X47750Y-23750D02*
X47750Y-23750D01*
X47750Y-23750D02*
X48250Y-23750D01*
X48250Y-23750D02*
X48250Y-24750D01*
X48250Y-24750D02*
X47750Y-24750D01*
X47750Y-23250D02*
X56750Y-23250D01*
X56750Y-23250D02*
X56750Y-25250D01*
X56750Y-25250D02*
X47750Y-25250D01*
X47750Y-25250D02*
X47750Y-23250D01*
X47750Y-43750D02*
X55750Y-43750D01*
X55750Y-45750D02*
X47750Y-45750D01*
X47750Y-45750D02*
X47750Y-43750D01*
X47750Y-44250D02*
X48250Y-44250D01*
X48250Y-44250D02*
X48250Y-45250D01*
X48250Y-45250D02*
X47750Y-45250D01*
X55750Y-43750D02*
X55750Y-45750D01*
X49250Y-36750D02*
X50250Y-38250D01*
X50250Y-38250D02*
X57250Y-38250D01*
X57250Y-38250D02*
X57250Y-30250D01*
X57250Y-30250D02*
X49250Y-30250D01*
X46750Y-27750D02*
X46750Y-40750D01*
X46750Y-40750D02*
X59750Y-40750D01*
X59750Y-40750D02*
X59750Y-27750D01*
X59750Y-27750D02*
X46750Y-27750D01*
X49250Y-30250D02*
X49250Y-36750D01*
G54D13*
X70750Y-19000D02*
X70750Y-23500D01*
X70750Y-23500D02*
X70500Y-23750D01*
X70500Y-23750D02*
X66000Y-23750D01*
X66000Y-23750D02*
X65750Y-23500D01*
X65750Y-23500D02*
X65750Y-19000D01*
X66000Y-18750D02*
X70500Y-18750D01*
X70500Y-18750D02*
X70750Y-19000D01*
X65750Y-19000D02*
X66000Y-18750D01*
X65250Y-19000D02*
X65250Y-23500D01*
X65250Y-23500D02*
X65000Y-23750D01*
X65000Y-23750D02*
X60500Y-23750D01*
X60500Y-23750D02*
X60250Y-23500D01*
X60250Y-23500D02*
X60250Y-19000D01*
X60500Y-18750D02*
X65000Y-18750D01*
X65000Y-18750D02*
X65250Y-19000D01*
X60250Y-19000D02*
X60500Y-18750D01*
G54D14*
X70333Y-30593D02*
X70900Y-30593D01*
X70967Y-30571D01*
X71000Y-30550D01*
X71033Y-30507D01*
X71033Y-30421D01*
X71000Y-30379D01*
X70967Y-30357D01*
X70900Y-30336D01*
X70333Y-30336D01*
X70333Y-29908D02*
X70333Y-30122D01*
X70667Y-30143D01*
X70633Y-30122D01*
X70600Y-30079D01*
X70600Y-29972D01*
X70633Y-29929D01*
X70667Y-29908D01*
X70733Y-29886D01*
X70900Y-29886D01*
X70967Y-29908D01*
X71000Y-29929D01*
X71033Y-29972D01*
X71033Y-30079D01*
X71000Y-30122D01*
X70967Y-30143D01*
G54D11*
X67883Y-37333D02*
X67550Y-37567D01*
X67883Y-37733D02*
X67183Y-37733D01*
X67183Y-37467D01*
X67217Y-37400D01*
X67250Y-37367D01*
X67317Y-37333D01*
X67417Y-37333D01*
X67483Y-37367D01*
X67517Y-37400D01*
X67550Y-37467D01*
X67550Y-37733D01*
X67683Y-37067D02*
X67683Y-36733D01*
X67883Y-37133D02*
X67183Y-36900D01*
X67883Y-36667D01*
X67883Y-36433D02*
X67183Y-36433D01*
X67683Y-36200D01*
X67183Y-35967D01*
X67883Y-35967D01*
X67950Y-35800D02*
X67950Y-35267D01*
X67183Y-35167D02*
X67183Y-34734D01*
X67450Y-34967D01*
X67450Y-34867D01*
X67483Y-34800D01*
X67517Y-34767D01*
X67583Y-34734D01*
X67750Y-34734D01*
X67817Y-34767D01*
X67850Y-34800D01*
X67883Y-34867D01*
X67883Y-35067D01*
X67850Y-35134D01*
X67817Y-35167D01*
X67250Y-34467D02*
X67217Y-34433D01*
X67183Y-34367D01*
X67183Y-34200D01*
X67217Y-34133D01*
X67250Y-34100D01*
X67317Y-34067D01*
X67383Y-34067D01*
X67483Y-34100D01*
X67883Y-34500D01*
X67883Y-34067D01*
X67883Y-33766D02*
X67183Y-33766D01*
X67883Y-33366D02*
X67483Y-33666D01*
X67183Y-33366D02*
X67583Y-33766D01*
X67183Y-32933D02*
X67183Y-32800D01*
X67217Y-32733D01*
X67283Y-32666D01*
X67417Y-32633D01*
X67650Y-32633D01*
X67783Y-32666D01*
X67850Y-32733D01*
X67883Y-32800D01*
X67883Y-32933D01*
X67850Y-33000D01*
X67783Y-33066D01*
X67650Y-33100D01*
X67417Y-33100D01*
X67283Y-33066D01*
X67217Y-33000D01*
X67183Y-32933D01*
X59950Y-53143D02*
X59950Y-53571D01*
X59922Y-53657D01*
X59865Y-53714D01*
X59779Y-53743D01*
X59722Y-53743D01*
X60207Y-53200D02*
X60236Y-53171D01*
X60293Y-53143D01*
X60436Y-53143D01*
X60493Y-53171D01*
X60522Y-53200D01*
X60550Y-53257D01*
X60550Y-53314D01*
X60522Y-53400D01*
X60179Y-53743D01*
X60550Y-53743D01*
X58536Y-51393D02*
X58536Y-50793D01*
X58679Y-50793D01*
X58764Y-50821D01*
X58822Y-50879D01*
X58850Y-50936D01*
X58879Y-51050D01*
X58879Y-51136D01*
X58850Y-51250D01*
X58822Y-51307D01*
X58764Y-51364D01*
X58679Y-51393D01*
X58536Y-51393D01*
X59336Y-51079D02*
X59422Y-51107D01*
X59450Y-51136D01*
X59479Y-51193D01*
X59479Y-51279D01*
X59450Y-51336D01*
X59422Y-51364D01*
X59364Y-51393D01*
X59136Y-51393D01*
X59136Y-50793D01*
X59336Y-50793D01*
X59393Y-50821D01*
X59422Y-50850D01*
X59450Y-50907D01*
X59450Y-50964D01*
X59422Y-51021D01*
X59393Y-51050D01*
X59336Y-51079D01*
X59136Y-51079D01*
X59764Y-51393D02*
X59879Y-51393D01*
X59936Y-51364D01*
X59964Y-51336D01*
X60022Y-51250D01*
X60050Y-51136D01*
X60050Y-50907D01*
X60022Y-50850D01*
X59993Y-50821D01*
X59936Y-50793D01*
X59822Y-50793D01*
X59764Y-50821D01*
X59736Y-50850D01*
X59707Y-50907D01*
X59707Y-51050D01*
X59736Y-51107D01*
X59764Y-51136D01*
X59822Y-51164D01*
X59936Y-51164D01*
X59993Y-51136D01*
X60022Y-51107D01*
X60050Y-51050D01*
X60507Y-51079D02*
X60307Y-51079D01*
X60307Y-51393D02*
X60307Y-50793D01*
X60593Y-50793D01*
X60821Y-51079D02*
X61021Y-51079D01*
X61107Y-51393D02*
X60821Y-51393D01*
X60821Y-50793D01*
X61107Y-50793D01*
X61364Y-51393D02*
X61364Y-50793D01*
X61564Y-51221D01*
X61764Y-50793D01*
X61764Y-51393D01*
X75993Y-49692D02*
X75393Y-49692D01*
X75393Y-49464D01*
X75421Y-49406D01*
X75450Y-49378D01*
X75507Y-49349D01*
X75593Y-49349D01*
X75650Y-49378D01*
X75679Y-49406D01*
X75707Y-49464D01*
X75707Y-49692D01*
X75450Y-49121D02*
X75421Y-49092D01*
X75393Y-49035D01*
X75393Y-48892D01*
X75421Y-48835D01*
X75450Y-48806D01*
X75507Y-48778D01*
X75564Y-48778D01*
X75650Y-48806D01*
X75993Y-49149D01*
X75993Y-48778D01*
X71936Y-50521D02*
X71964Y-50550D01*
X71993Y-50636D01*
X71993Y-50693D01*
X71964Y-50778D01*
X71907Y-50836D01*
X71850Y-50864D01*
X71736Y-50893D01*
X71650Y-50893D01*
X71536Y-50864D01*
X71479Y-50836D01*
X71421Y-50778D01*
X71393Y-50693D01*
X71393Y-50636D01*
X71421Y-50550D01*
X71450Y-50521D01*
X71393Y-50150D02*
X71393Y-50036D01*
X71421Y-49978D01*
X71479Y-49921D01*
X71593Y-49893D01*
X71793Y-49893D01*
X71907Y-49921D01*
X71964Y-49978D01*
X71993Y-50036D01*
X71993Y-50150D01*
X71964Y-50207D01*
X71907Y-50264D01*
X71793Y-50293D01*
X71593Y-50293D01*
X71479Y-50264D01*
X71421Y-50207D01*
X71393Y-50150D01*
X71993Y-49635D02*
X71393Y-49635D01*
X71993Y-49292D01*
X71393Y-49292D01*
X71993Y-49006D02*
X71393Y-49006D01*
X71993Y-48663D01*
X71393Y-48663D01*
X72050Y-48520D02*
X72050Y-48063D01*
X71393Y-47977D02*
X71393Y-47606D01*
X71621Y-47806D01*
X71621Y-47720D01*
X71650Y-47663D01*
X71679Y-47634D01*
X71736Y-47606D01*
X71879Y-47606D01*
X71936Y-47634D01*
X71964Y-47663D01*
X71993Y-47720D01*
X71993Y-47892D01*
X71964Y-47949D01*
X71936Y-47977D01*
G54D13*
X46473Y-17583D02*
X46211Y-17750D01*
X46473Y-17869D02*
X45923Y-17869D01*
X45923Y-17678D01*
X45949Y-17631D01*
X45975Y-17607D01*
X46027Y-17583D01*
X46106Y-17583D01*
X46158Y-17607D01*
X46185Y-17631D01*
X46211Y-17678D01*
X46211Y-17869D01*
X45923Y-17155D02*
X45923Y-17250D01*
X45949Y-17298D01*
X45975Y-17321D01*
X46054Y-17369D01*
X46158Y-17393D01*
X46368Y-17393D01*
X46420Y-17369D01*
X46446Y-17345D01*
X46473Y-17298D01*
X46473Y-17202D01*
X46446Y-17155D01*
X46420Y-17131D01*
X46368Y-17107D01*
X46237Y-17107D01*
X46185Y-17131D01*
X46158Y-17155D01*
X46132Y-17202D01*
X46132Y-17298D01*
X46158Y-17345D01*
X46185Y-17369D01*
X46237Y-17393D01*
X54917Y-16723D02*
X54750Y-16461D01*
X54631Y-16723D02*
X54631Y-16173D01*
X54822Y-16173D01*
X54869Y-16199D01*
X54893Y-16225D01*
X54917Y-16277D01*
X54917Y-16356D01*
X54893Y-16408D01*
X54869Y-16435D01*
X54822Y-16461D01*
X54631Y-16461D01*
X55083Y-16173D02*
X55417Y-16173D01*
X55202Y-16723D01*
X73973Y-18821D02*
X73711Y-18988D01*
X73973Y-19107D02*
X73423Y-19107D01*
X73423Y-18916D01*
X73449Y-18869D01*
X73475Y-18845D01*
X73527Y-18821D01*
X73606Y-18821D01*
X73658Y-18845D01*
X73685Y-18869D01*
X73711Y-18916D01*
X73711Y-19107D01*
X73973Y-18345D02*
X73973Y-18631D01*
X73973Y-18488D02*
X73423Y-18488D01*
X73501Y-18536D01*
X73554Y-18583D01*
X73580Y-18631D01*
X73423Y-18036D02*
X73423Y-17988D01*
X73449Y-17940D01*
X73475Y-17917D01*
X73527Y-17893D01*
X73632Y-17869D01*
X73763Y-17869D01*
X73868Y-17893D01*
X73920Y-17917D01*
X73946Y-17940D01*
X73973Y-17988D01*
X73973Y-18036D01*
X73946Y-18083D01*
X73920Y-18107D01*
X73868Y-18131D01*
X73763Y-18155D01*
X73632Y-18155D01*
X73527Y-18131D01*
X73475Y-18107D01*
X73449Y-18083D01*
X73423Y-18036D01*
X54917Y-18723D02*
X54750Y-18461D01*
X54631Y-18723D02*
X54631Y-18173D01*
X54822Y-18173D01*
X54869Y-18199D01*
X54893Y-18225D01*
X54917Y-18277D01*
X54917Y-18356D01*
X54893Y-18408D01*
X54869Y-18435D01*
X54822Y-18461D01*
X54631Y-18461D01*
X55155Y-18723D02*
X55250Y-18723D01*
X55298Y-18696D01*
X55322Y-18670D01*
X55369Y-18592D01*
X55393Y-18487D01*
X55393Y-18277D01*
X55369Y-18225D01*
X55345Y-18199D01*
X55298Y-18173D01*
X55202Y-18173D01*
X55155Y-18199D01*
X55131Y-18225D01*
X55107Y-18277D01*
X55107Y-18408D01*
X55131Y-18461D01*
X55155Y-18487D01*
X55202Y-18513D01*
X55298Y-18513D01*
X55345Y-18487D01*
X55369Y-18461D01*
X55393Y-18408D01*
X54917Y-17723D02*
X54750Y-17461D01*
X54631Y-17723D02*
X54631Y-17173D01*
X54822Y-17173D01*
X54869Y-17199D01*
X54893Y-17225D01*
X54917Y-17277D01*
X54917Y-17356D01*
X54893Y-17408D01*
X54869Y-17435D01*
X54822Y-17461D01*
X54631Y-17461D01*
X55202Y-17408D02*
X55155Y-17382D01*
X55131Y-17356D01*
X55107Y-17304D01*
X55107Y-17277D01*
X55131Y-17225D01*
X55155Y-17199D01*
X55202Y-17173D01*
X55298Y-17173D01*
X55345Y-17199D01*
X55369Y-17225D01*
X55393Y-17277D01*
X55393Y-17304D01*
X55369Y-17356D01*
X55345Y-17382D01*
X55298Y-17408D01*
X55202Y-17408D01*
X55155Y-17435D01*
X55131Y-17461D01*
X55107Y-17513D01*
X55107Y-17618D01*
X55131Y-17670D01*
X55155Y-17696D01*
X55202Y-17723D01*
X55298Y-17723D01*
X55345Y-17696D01*
X55369Y-17670D01*
X55393Y-17618D01*
X55393Y-17513D01*
X55369Y-17461D01*
X55345Y-17435D01*
X55298Y-17408D01*
G54D15*
X76743Y-40045D02*
X76143Y-40045D01*
X76143Y-39950D01*
X76171Y-39892D01*
X76229Y-39854D01*
X76286Y-39835D01*
X76400Y-39816D01*
X76486Y-39816D01*
X76600Y-39835D01*
X76657Y-39854D01*
X76714Y-39892D01*
X76743Y-39950D01*
X76743Y-40045D01*
X76343Y-39473D02*
X76743Y-39473D01*
X76114Y-39569D02*
X76543Y-39664D01*
X76543Y-39416D01*
G54D11*
X62365Y-17436D02*
X62336Y-17464D01*
X62250Y-17493D01*
X62193Y-17493D01*
X62108Y-17464D01*
X62050Y-17407D01*
X62022Y-17350D01*
X61993Y-17236D01*
X61993Y-17150D01*
X62022Y-17036D01*
X62050Y-16979D01*
X62108Y-16921D01*
X62193Y-16893D01*
X62250Y-16893D01*
X62336Y-16921D01*
X62365Y-16950D01*
X62936Y-17493D02*
X62593Y-17493D01*
X62765Y-17493D02*
X62765Y-16893D01*
X62708Y-16979D01*
X62650Y-17036D01*
X62593Y-17064D01*
X63136Y-16893D02*
X63507Y-16893D01*
X63307Y-17121D01*
X63393Y-17121D01*
X63450Y-17150D01*
X63479Y-17179D01*
X63507Y-17236D01*
X63507Y-17379D01*
X63479Y-17436D01*
X63450Y-17464D01*
X63393Y-17493D01*
X63221Y-17493D01*
X63164Y-17464D01*
X63136Y-17436D01*
X53615Y-19936D02*
X53586Y-19964D01*
X53500Y-19993D01*
X53443Y-19993D01*
X53358Y-19964D01*
X53300Y-19907D01*
X53272Y-19850D01*
X53243Y-19736D01*
X53243Y-19650D01*
X53272Y-19536D01*
X53300Y-19479D01*
X53358Y-19421D01*
X53443Y-19393D01*
X53500Y-19393D01*
X53586Y-19421D01*
X53615Y-19450D01*
X54186Y-19993D02*
X53843Y-19993D01*
X54015Y-19993D02*
X54015Y-19393D01*
X53958Y-19479D01*
X53900Y-19536D01*
X53843Y-19564D01*
X54700Y-19593D02*
X54700Y-19993D01*
X54557Y-19364D02*
X54414Y-19793D01*
X54786Y-19793D01*
G54D14*
X46583Y-17343D02*
X47150Y-17343D01*
X47217Y-17321D01*
X47250Y-17300D01*
X47283Y-17257D01*
X47283Y-17171D01*
X47250Y-17129D01*
X47217Y-17107D01*
X47150Y-17086D01*
X46583Y-17086D01*
X46583Y-16679D02*
X46583Y-16765D01*
X46617Y-16808D01*
X46650Y-16829D01*
X46750Y-16872D01*
X46883Y-16893D01*
X47150Y-16893D01*
X47217Y-16872D01*
X47250Y-16850D01*
X47283Y-16808D01*
X47283Y-16722D01*
X47250Y-16679D01*
X47217Y-16658D01*
X47150Y-16636D01*
X46983Y-16636D01*
X46917Y-16658D01*
X46883Y-16679D01*
X46850Y-16722D01*
X46850Y-16808D01*
X46883Y-16850D01*
X46917Y-16872D01*
X46983Y-16893D01*
G54D15*
X48615Y-17283D02*
X48424Y-17283D01*
X48424Y-16583D01*
X48748Y-17283D02*
X48748Y-16583D01*
X48882Y-17083D01*
X49015Y-16583D01*
X49015Y-17283D01*
X49167Y-16583D02*
X49415Y-16583D01*
X49281Y-16850D01*
X49339Y-16850D01*
X49377Y-16883D01*
X49396Y-16917D01*
X49415Y-16983D01*
X49415Y-17150D01*
X49396Y-17217D01*
X49377Y-17250D01*
X49339Y-17283D01*
X49224Y-17283D01*
X49186Y-17250D01*
X49167Y-17217D01*
X49796Y-17283D02*
X49567Y-17283D01*
X49681Y-17283D02*
X49681Y-16583D01*
X49643Y-16683D01*
X49605Y-16750D01*
X49567Y-16783D01*
X50024Y-16883D02*
X49986Y-16850D01*
X49967Y-16817D01*
X49948Y-16750D01*
X49948Y-16717D01*
X49967Y-16650D01*
X49986Y-16617D01*
X50024Y-16583D01*
X50101Y-16583D01*
X50139Y-16617D01*
X50158Y-16650D01*
X50177Y-16717D01*
X50177Y-16750D01*
X50158Y-16817D01*
X50139Y-16850D01*
X50101Y-16883D01*
X50024Y-16883D01*
X49986Y-16917D01*
X49967Y-16950D01*
X49948Y-17017D01*
X49948Y-17150D01*
X49967Y-17217D01*
X49986Y-17250D01*
X50024Y-17283D01*
X50101Y-17283D01*
X50139Y-17250D01*
X50158Y-17217D01*
X50177Y-17150D01*
X50177Y-17017D01*
X50158Y-16950D01*
X50139Y-16917D01*
X50101Y-16883D01*
X50348Y-17283D02*
X50348Y-16583D01*
X50577Y-17283D01*
X50577Y-16583D01*
G54D11*
X46153Y-35102D02*
X45453Y-35102D01*
X45453Y-34874D01*
X45487Y-34816D01*
X45520Y-34788D01*
X45587Y-34759D01*
X45687Y-34759D01*
X45753Y-34788D01*
X45787Y-34816D01*
X45820Y-34874D01*
X45820Y-35102D01*
X45687Y-34245D02*
X46153Y-34245D01*
X45420Y-34388D02*
X45920Y-34531D01*
X45920Y-34159D01*
G54D13*
X59473Y-23333D02*
X59211Y-23500D01*
X59473Y-23619D02*
X58923Y-23619D01*
X58923Y-23428D01*
X58949Y-23381D01*
X58975Y-23357D01*
X59027Y-23333D01*
X59106Y-23333D01*
X59158Y-23357D01*
X59185Y-23381D01*
X59211Y-23428D01*
X59211Y-23619D01*
X59106Y-22905D02*
X59473Y-22905D01*
X58896Y-23024D02*
X59289Y-23143D01*
X59289Y-22833D01*
X58473Y-23333D02*
X58211Y-23500D01*
X58473Y-23619D02*
X57923Y-23619D01*
X57923Y-23428D01*
X57949Y-23381D01*
X57975Y-23357D01*
X58027Y-23333D01*
X58106Y-23333D01*
X58158Y-23357D01*
X58185Y-23381D01*
X58211Y-23428D01*
X58211Y-23619D01*
X57923Y-22881D02*
X57923Y-23119D01*
X58185Y-23143D01*
X58158Y-23119D01*
X58132Y-23071D01*
X58132Y-22952D01*
X58158Y-22905D01*
X58185Y-22881D01*
X58237Y-22857D01*
X58368Y-22857D01*
X58420Y-22881D01*
X58446Y-22905D01*
X58473Y-22952D01*
X58473Y-23071D01*
X58446Y-23119D01*
X58420Y-23143D01*
X45473Y-22833D02*
X45211Y-23000D01*
X45473Y-23119D02*
X44923Y-23119D01*
X44923Y-22928D01*
X44949Y-22881D01*
X44975Y-22857D01*
X45027Y-22833D01*
X45106Y-22833D01*
X45158Y-22857D01*
X45185Y-22881D01*
X45211Y-22928D01*
X45211Y-23119D01*
X44975Y-22643D02*
X44949Y-22619D01*
X44923Y-22571D01*
X44923Y-22452D01*
X44949Y-22405D01*
X44975Y-22381D01*
X45027Y-22357D01*
X45080Y-22357D01*
X45158Y-22381D01*
X45473Y-22667D01*
X45473Y-22357D01*
X46473Y-22833D02*
X46211Y-23000D01*
X46473Y-23119D02*
X45923Y-23119D01*
X45923Y-22928D01*
X45949Y-22881D01*
X45975Y-22857D01*
X46027Y-22833D01*
X46106Y-22833D01*
X46158Y-22857D01*
X46185Y-22881D01*
X46211Y-22928D01*
X46211Y-23119D01*
X45923Y-22667D02*
X45923Y-22357D01*
X46132Y-22524D01*
X46132Y-22452D01*
X46158Y-22405D01*
X46185Y-22381D01*
X46237Y-22357D01*
X46368Y-22357D01*
X46420Y-22381D01*
X46446Y-22405D01*
X46473Y-22452D01*
X46473Y-22595D01*
X46446Y-22643D01*
X46420Y-22667D01*
G54D11*
X42808Y-25493D02*
X42808Y-24893D01*
X42951Y-24893D01*
X43036Y-24921D01*
X43094Y-24979D01*
X43122Y-25036D01*
X43151Y-25150D01*
X43151Y-25236D01*
X43122Y-25350D01*
X43094Y-25407D01*
X43036Y-25464D01*
X42951Y-25493D01*
X42808Y-25493D01*
X43379Y-24950D02*
X43408Y-24921D01*
X43465Y-24893D01*
X43608Y-24893D01*
X43665Y-24921D01*
X43694Y-24950D01*
X43722Y-25007D01*
X43722Y-25064D01*
X43694Y-25150D01*
X43351Y-25493D01*
X43722Y-25493D01*
X42808Y-22493D02*
X42808Y-21893D01*
X42951Y-21893D01*
X43036Y-21921D01*
X43094Y-21979D01*
X43122Y-22036D01*
X43151Y-22150D01*
X43151Y-22236D01*
X43122Y-22350D01*
X43094Y-22407D01*
X43036Y-22464D01*
X42951Y-22493D01*
X42808Y-22493D01*
X43351Y-21893D02*
X43722Y-21893D01*
X43522Y-22121D01*
X43608Y-22121D01*
X43665Y-22150D01*
X43694Y-22179D01*
X43722Y-22236D01*
X43722Y-22379D01*
X43694Y-22436D01*
X43665Y-22464D01*
X43608Y-22493D01*
X43436Y-22493D01*
X43379Y-22464D01*
X43351Y-22436D01*
X75993Y-24692D02*
X75393Y-24692D01*
X75393Y-24464D01*
X75421Y-24406D01*
X75450Y-24378D01*
X75507Y-24349D01*
X75593Y-24349D01*
X75650Y-24378D01*
X75679Y-24406D01*
X75707Y-24464D01*
X75707Y-24692D01*
X75393Y-24149D02*
X75393Y-23778D01*
X75621Y-23978D01*
X75621Y-23892D01*
X75650Y-23835D01*
X75679Y-23806D01*
X75736Y-23778D01*
X75879Y-23778D01*
X75936Y-23806D01*
X75964Y-23835D01*
X75993Y-23892D01*
X75993Y-24064D01*
X75964Y-24121D01*
X75936Y-24149D01*
X71936Y-25521D02*
X71964Y-25550D01*
X71993Y-25636D01*
X71993Y-25693D01*
X71964Y-25778D01*
X71907Y-25836D01*
X71850Y-25864D01*
X71736Y-25893D01*
X71650Y-25893D01*
X71536Y-25864D01*
X71479Y-25836D01*
X71421Y-25778D01*
X71393Y-25693D01*
X71393Y-25636D01*
X71421Y-25550D01*
X71450Y-25521D01*
X71393Y-25150D02*
X71393Y-25036D01*
X71421Y-24978D01*
X71479Y-24921D01*
X71593Y-24893D01*
X71793Y-24893D01*
X71907Y-24921D01*
X71964Y-24978D01*
X71993Y-25036D01*
X71993Y-25150D01*
X71964Y-25207D01*
X71907Y-25264D01*
X71793Y-25293D01*
X71593Y-25293D01*
X71479Y-25264D01*
X71421Y-25207D01*
X71393Y-25150D01*
X71993Y-24635D02*
X71393Y-24635D01*
X71993Y-24292D01*
X71393Y-24292D01*
X71993Y-24006D02*
X71393Y-24006D01*
X71993Y-23663D01*
X71393Y-23663D01*
X72050Y-23520D02*
X72050Y-23063D01*
X71450Y-22949D02*
X71421Y-22920D01*
X71393Y-22863D01*
X71393Y-22720D01*
X71421Y-22663D01*
X71450Y-22634D01*
X71507Y-22606D01*
X71564Y-22606D01*
X71650Y-22634D01*
X71993Y-22977D01*
X71993Y-22606D01*
G54D16*
X65937Y-27535D02*
X65937Y-26830D01*
X66179Y-27535D02*
X65998Y-27132D01*
X66179Y-26830D02*
X65937Y-27233D01*
X66583Y-27535D02*
X66341Y-27535D01*
X66462Y-27535D02*
X66462Y-26830D01*
X66422Y-26931D01*
X66381Y-26998D01*
X66341Y-27031D01*
G54D13*
X51167Y-49973D02*
X51000Y-49711D01*
X50881Y-49973D02*
X50881Y-49423D01*
X51072Y-49423D01*
X51119Y-49449D01*
X51143Y-49475D01*
X51167Y-49527D01*
X51167Y-49606D01*
X51143Y-49658D01*
X51119Y-49685D01*
X51072Y-49711D01*
X50881Y-49711D01*
X51643Y-49973D02*
X51357Y-49973D01*
X51500Y-49973D02*
X51500Y-49423D01*
X51452Y-49501D01*
X51405Y-49554D01*
X51357Y-49580D01*
X63893Y-47555D02*
X64379Y-47555D01*
X64436Y-47536D01*
X64464Y-47517D01*
X64493Y-47479D01*
X64493Y-47402D01*
X64464Y-47364D01*
X64436Y-47345D01*
X64379Y-47326D01*
X63893Y-47326D01*
X63893Y-47174D02*
X63893Y-46926D01*
X64121Y-47060D01*
X64121Y-47002D01*
X64150Y-46964D01*
X64179Y-46945D01*
X64236Y-46926D01*
X64379Y-46926D01*
X64436Y-46945D01*
X64464Y-46964D01*
X64493Y-47002D01*
X64493Y-47117D01*
X64464Y-47155D01*
X64436Y-47174D01*
X65693Y-48166D02*
X65693Y-48357D01*
X65093Y-48357D01*
X65693Y-48033D02*
X65093Y-48033D01*
X65521Y-47899D01*
X65093Y-47766D01*
X65693Y-47766D01*
X65093Y-47614D02*
X65093Y-47347D01*
X65693Y-47519D01*
X65350Y-47138D02*
X65321Y-47176D01*
X65293Y-47195D01*
X65236Y-47214D01*
X65207Y-47214D01*
X65150Y-47195D01*
X65121Y-47176D01*
X65093Y-47138D01*
X65093Y-47061D01*
X65121Y-47023D01*
X65150Y-47004D01*
X65207Y-46985D01*
X65236Y-46985D01*
X65293Y-47004D01*
X65321Y-47023D01*
X65350Y-47061D01*
X65350Y-47138D01*
X65379Y-47176D01*
X65407Y-47195D01*
X65464Y-47214D01*
X65579Y-47214D01*
X65636Y-47195D01*
X65664Y-47176D01*
X65693Y-47138D01*
X65693Y-47061D01*
X65664Y-47023D01*
X65636Y-47004D01*
X65579Y-46985D01*
X65464Y-46985D01*
X65407Y-47004D01*
X65379Y-47023D01*
X65350Y-47061D01*
X65093Y-46738D02*
X65093Y-46699D01*
X65121Y-46661D01*
X65150Y-46642D01*
X65207Y-46623D01*
X65321Y-46604D01*
X65464Y-46604D01*
X65579Y-46623D01*
X65636Y-46642D01*
X65664Y-46661D01*
X65693Y-46699D01*
X65693Y-46738D01*
X65664Y-46776D01*
X65636Y-46795D01*
X65579Y-46814D01*
X65464Y-46833D01*
X65321Y-46833D01*
X65207Y-46814D01*
X65150Y-46795D01*
X65121Y-46776D01*
X65093Y-46738D01*
X65093Y-46242D02*
X65093Y-46433D01*
X65379Y-46452D01*
X65350Y-46433D01*
X65321Y-46395D01*
X65321Y-46299D01*
X65350Y-46261D01*
X65379Y-46242D01*
X65436Y-46223D01*
X65579Y-46223D01*
X65636Y-46242D01*
X65664Y-46261D01*
X65693Y-46299D01*
X65693Y-46395D01*
X65664Y-46433D01*
X65636Y-46452D01*
G54D11*
X44893Y-49235D02*
X45493Y-48835D01*
X44893Y-48835D02*
X45493Y-49235D01*
X45493Y-48293D02*
X45493Y-48636D01*
X45493Y-48464D02*
X44893Y-48464D01*
X44979Y-48521D01*
X45036Y-48579D01*
X45064Y-48636D01*
X43493Y-49764D02*
X43493Y-50107D01*
X43493Y-49935D02*
X42893Y-49935D01*
X42979Y-49992D01*
X43036Y-50050D01*
X43064Y-50107D01*
X42893Y-49393D02*
X42893Y-49336D01*
X42921Y-49279D01*
X42950Y-49250D01*
X43007Y-49221D01*
X43121Y-49193D01*
X43264Y-49193D01*
X43379Y-49221D01*
X43436Y-49250D01*
X43464Y-49279D01*
X43493Y-49336D01*
X43493Y-49393D01*
X43464Y-49450D01*
X43436Y-49479D01*
X43379Y-49507D01*
X43264Y-49536D01*
X43121Y-49536D01*
X43007Y-49507D01*
X42950Y-49479D01*
X42921Y-49450D01*
X42893Y-49393D01*
X43493Y-48936D02*
X42893Y-48936D01*
X43321Y-48736D01*
X42893Y-48536D01*
X43493Y-48536D01*
X43493Y-48250D02*
X42893Y-48250D01*
X43179Y-48250D02*
X43179Y-47907D01*
X43493Y-47907D02*
X42893Y-47907D01*
X43093Y-47678D02*
X43093Y-47364D01*
X43493Y-47678D01*
X43493Y-47364D01*
X33393Y-34950D02*
X33821Y-34950D01*
X33907Y-34978D01*
X33964Y-35035D01*
X33993Y-35121D01*
X33993Y-35178D01*
X33993Y-34350D02*
X33993Y-34693D01*
X33993Y-34521D02*
X33393Y-34521D01*
X33479Y-34578D01*
X33536Y-34636D01*
X33564Y-34693D01*
X37493Y-35778D02*
X36893Y-35778D01*
X36893Y-35635D01*
X36921Y-35550D01*
X36979Y-35492D01*
X37036Y-35464D01*
X37150Y-35435D01*
X37236Y-35435D01*
X37350Y-35464D01*
X37407Y-35492D01*
X37464Y-35550D01*
X37493Y-35635D01*
X37493Y-35778D01*
X37179Y-34978D02*
X37207Y-34892D01*
X37236Y-34864D01*
X37293Y-34835D01*
X37379Y-34835D01*
X37436Y-34864D01*
X37464Y-34892D01*
X37493Y-34950D01*
X37493Y-35178D01*
X36893Y-35178D01*
X36893Y-34978D01*
X36921Y-34921D01*
X36950Y-34892D01*
X37007Y-34864D01*
X37064Y-34864D01*
X37121Y-34892D01*
X37150Y-34921D01*
X37179Y-34978D01*
X37179Y-35178D01*
X36950Y-34607D02*
X36921Y-34578D01*
X36893Y-34521D01*
X36893Y-34378D01*
X36921Y-34321D01*
X36950Y-34292D01*
X37007Y-34264D01*
X37064Y-34264D01*
X37150Y-34292D01*
X37493Y-34635D01*
X37493Y-34264D01*
X36893Y-33721D02*
X36893Y-34007D01*
X37179Y-34036D01*
X37150Y-34007D01*
X37121Y-33950D01*
X37121Y-33807D01*
X37150Y-33750D01*
X37179Y-33721D01*
X37236Y-33693D01*
X37379Y-33693D01*
X37436Y-33721D01*
X37464Y-33750D01*
X37493Y-33807D01*
X37493Y-33950D01*
X37464Y-34007D01*
X37436Y-34036D01*
G54D15*
X72955Y-44493D02*
X72955Y-43893D01*
X73050Y-43893D01*
X73108Y-43921D01*
X73146Y-43979D01*
X73165Y-44036D01*
X73184Y-44150D01*
X73184Y-44236D01*
X73165Y-44350D01*
X73146Y-44407D01*
X73108Y-44464D01*
X73050Y-44493D01*
X72955Y-44493D01*
X73565Y-44493D02*
X73336Y-44493D01*
X73450Y-44493D02*
X73450Y-43893D01*
X73412Y-43979D01*
X73374Y-44036D01*
X73336Y-44064D01*
G54D11*
X53901Y-21436D02*
X53872Y-21464D01*
X53786Y-21493D01*
X53729Y-21493D01*
X53644Y-21464D01*
X53586Y-21407D01*
X53558Y-21350D01*
X53529Y-21236D01*
X53529Y-21150D01*
X53558Y-21036D01*
X53586Y-20979D01*
X53644Y-20921D01*
X53729Y-20893D01*
X53786Y-20893D01*
X53872Y-20921D01*
X53901Y-20950D01*
X54129Y-20950D02*
X54158Y-20921D01*
X54215Y-20893D01*
X54358Y-20893D01*
X54415Y-20921D01*
X54444Y-20950D01*
X54472Y-21007D01*
X54472Y-21064D01*
X54444Y-21150D01*
X54101Y-21493D01*
X54472Y-21493D01*
X61401Y-42186D02*
X61372Y-42214D01*
X61286Y-42243D01*
X61229Y-42243D01*
X61144Y-42214D01*
X61086Y-42157D01*
X61058Y-42100D01*
X61029Y-41986D01*
X61029Y-41900D01*
X61058Y-41786D01*
X61086Y-41729D01*
X61144Y-41671D01*
X61229Y-41643D01*
X61286Y-41643D01*
X61372Y-41671D01*
X61401Y-41700D01*
X61915Y-41643D02*
X61801Y-41643D01*
X61744Y-41671D01*
X61715Y-41700D01*
X61658Y-41786D01*
X61629Y-41900D01*
X61629Y-42129D01*
X61658Y-42186D01*
X61686Y-42214D01*
X61744Y-42243D01*
X61858Y-42243D01*
X61915Y-42214D01*
X61944Y-42186D01*
X61972Y-42129D01*
X61972Y-41986D01*
X61944Y-41929D01*
X61915Y-41900D01*
X61858Y-41871D01*
X61744Y-41871D01*
X61686Y-41900D01*
X61658Y-41929D01*
X61629Y-41986D01*
X74436Y-35099D02*
X74464Y-35128D01*
X74493Y-35214D01*
X74493Y-35271D01*
X74464Y-35356D01*
X74407Y-35414D01*
X74350Y-35442D01*
X74236Y-35471D01*
X74150Y-35471D01*
X74036Y-35442D01*
X73979Y-35414D01*
X73921Y-35356D01*
X73893Y-35271D01*
X73893Y-35214D01*
X73921Y-35128D01*
X73950Y-35099D01*
X73893Y-34899D02*
X73893Y-34528D01*
X74121Y-34728D01*
X74121Y-34642D01*
X74150Y-34585D01*
X74179Y-34556D01*
X74236Y-34528D01*
X74379Y-34528D01*
X74436Y-34556D01*
X74464Y-34585D01*
X74493Y-34642D01*
X74493Y-34814D01*
X74464Y-34871D01*
X74436Y-34899D01*
G54D14*
X49407Y-23393D02*
X49407Y-23879D01*
X49429Y-23936D01*
X49450Y-23964D01*
X49493Y-23993D01*
X49579Y-23993D01*
X49621Y-23964D01*
X49643Y-23936D01*
X49664Y-23879D01*
X49664Y-23393D01*
X50114Y-23993D02*
X49857Y-23993D01*
X49985Y-23993D02*
X49985Y-23393D01*
X49942Y-23479D01*
X49900Y-23536D01*
X49857Y-23564D01*
X51346Y-24393D02*
X51603Y-24393D01*
X51474Y-24993D02*
X51474Y-24393D01*
X51753Y-24993D02*
X51753Y-24393D01*
X51860Y-24393D01*
X51925Y-24421D01*
X51967Y-24479D01*
X51989Y-24536D01*
X52010Y-24650D01*
X52010Y-24736D01*
X51989Y-24850D01*
X51967Y-24907D01*
X51925Y-24964D01*
X51860Y-24993D01*
X51753Y-24993D01*
X52182Y-24821D02*
X52396Y-24821D01*
X52139Y-24993D02*
X52289Y-24393D01*
X52439Y-24993D01*
X52653Y-24650D02*
X52611Y-24621D01*
X52589Y-24593D01*
X52568Y-24536D01*
X52568Y-24507D01*
X52589Y-24450D01*
X52611Y-24421D01*
X52653Y-24393D01*
X52739Y-24393D01*
X52782Y-24421D01*
X52803Y-24450D01*
X52825Y-24507D01*
X52825Y-24536D01*
X52803Y-24593D01*
X52782Y-24621D01*
X52739Y-24650D01*
X52653Y-24650D01*
X52611Y-24679D01*
X52589Y-24707D01*
X52568Y-24764D01*
X52568Y-24879D01*
X52589Y-24936D01*
X52611Y-24964D01*
X52653Y-24993D01*
X52739Y-24993D01*
X52782Y-24964D01*
X52803Y-24936D01*
X52825Y-24879D01*
X52825Y-24764D01*
X52803Y-24707D01*
X52782Y-24679D01*
X52739Y-24650D01*
X52975Y-24393D02*
X53275Y-24393D01*
X53082Y-24993D01*
X53533Y-24393D02*
X53576Y-24393D01*
X53619Y-24421D01*
X53640Y-24450D01*
X53661Y-24507D01*
X53683Y-24621D01*
X53683Y-24764D01*
X53661Y-24879D01*
X53640Y-24936D01*
X53619Y-24964D01*
X53576Y-24993D01*
X53533Y-24993D01*
X53490Y-24964D01*
X53469Y-24936D01*
X53447Y-24879D01*
X53426Y-24764D01*
X53426Y-24621D01*
X53447Y-24507D01*
X53469Y-24450D01*
X53490Y-24421D01*
X53533Y-24393D01*
X53855Y-24450D02*
X53876Y-24421D01*
X53919Y-24393D01*
X54026Y-24393D01*
X54069Y-24421D01*
X54090Y-24450D01*
X54112Y-24507D01*
X54112Y-24564D01*
X54090Y-24650D01*
X53833Y-24993D01*
X54112Y-24993D01*
X49407Y-43893D02*
X49407Y-44379D01*
X49429Y-44436D01*
X49450Y-44464D01*
X49493Y-44493D01*
X49579Y-44493D01*
X49621Y-44464D01*
X49643Y-44436D01*
X49664Y-44379D01*
X49664Y-43893D01*
X50071Y-44093D02*
X50071Y-44493D01*
X49964Y-43864D02*
X49857Y-44293D01*
X50135Y-44293D01*
X50996Y-44893D02*
X51296Y-44893D01*
X51103Y-45493D01*
X51661Y-45093D02*
X51661Y-45493D01*
X51554Y-44864D02*
X51447Y-45293D01*
X51725Y-45293D01*
X51897Y-45493D02*
X51897Y-44893D01*
X51897Y-45179D02*
X52154Y-45179D01*
X52154Y-45493D02*
X52154Y-44893D01*
X52625Y-45436D02*
X52604Y-45464D01*
X52540Y-45493D01*
X52497Y-45493D01*
X52432Y-45464D01*
X52390Y-45407D01*
X52368Y-45350D01*
X52347Y-45236D01*
X52347Y-45150D01*
X52368Y-45036D01*
X52390Y-44979D01*
X52432Y-44921D01*
X52497Y-44893D01*
X52540Y-44893D01*
X52604Y-44921D01*
X52625Y-44950D01*
X52904Y-44893D02*
X52947Y-44893D01*
X52990Y-44921D01*
X53011Y-44950D01*
X53032Y-45007D01*
X53054Y-45121D01*
X53054Y-45264D01*
X53032Y-45379D01*
X53011Y-45436D01*
X52990Y-45464D01*
X52947Y-45493D01*
X52904Y-45493D01*
X52861Y-45464D01*
X52840Y-45436D01*
X52818Y-45379D01*
X52797Y-45264D01*
X52797Y-45121D01*
X52818Y-45007D01*
X52840Y-44950D01*
X52861Y-44921D01*
X52904Y-44893D01*
X53440Y-45093D02*
X53440Y-45493D01*
X53333Y-44864D02*
X53226Y-45293D01*
X53504Y-45293D01*
G54D11*
X52666Y-32468D02*
X52666Y-33532D01*
X52702Y-33657D01*
X52739Y-33719D01*
X52812Y-33782D01*
X52958Y-33782D01*
X53031Y-33719D01*
X53067Y-33657D01*
X53104Y-33532D01*
X53104Y-32468D01*
X53433Y-32593D02*
X53470Y-32530D01*
X53543Y-32468D01*
X53725Y-32468D01*
X53798Y-32530D01*
X53835Y-32593D01*
X53871Y-32718D01*
X53871Y-32843D01*
X53835Y-33031D01*
X53397Y-33782D01*
X53871Y-33782D01*
X49799Y-35069D02*
X50245Y-36213D01*
X50245Y-35069D02*
X49799Y-36213D01*
X50881Y-36104D02*
X50849Y-36159D01*
X50754Y-36213D01*
X50690Y-36213D01*
X50594Y-36159D01*
X50531Y-36050D01*
X50499Y-35941D01*
X50467Y-35723D01*
X50467Y-35559D01*
X50499Y-35341D01*
X50531Y-35232D01*
X50594Y-35124D01*
X50690Y-35069D01*
X50754Y-35069D01*
X50849Y-35124D01*
X50881Y-35178D01*
X51199Y-36213D02*
X51326Y-36213D01*
X51390Y-36159D01*
X51422Y-36104D01*
X51485Y-35941D01*
X51517Y-35723D01*
X51517Y-35287D01*
X51485Y-35178D01*
X51453Y-35124D01*
X51390Y-35069D01*
X51262Y-35069D01*
X51199Y-35124D01*
X51167Y-35178D01*
X51135Y-35287D01*
X51135Y-35559D01*
X51167Y-35668D01*
X51199Y-35723D01*
X51262Y-35777D01*
X51390Y-35777D01*
X51453Y-35723D01*
X51485Y-35668D01*
X51517Y-35559D01*
X52121Y-35069D02*
X51803Y-35069D01*
X51771Y-35614D01*
X51803Y-35559D01*
X51867Y-35505D01*
X52026Y-35505D01*
X52089Y-35559D01*
X52121Y-35614D01*
X52153Y-35723D01*
X52153Y-35995D01*
X52121Y-36104D01*
X52089Y-36159D01*
X52026Y-36213D01*
X51867Y-36213D01*
X51803Y-36159D01*
X51771Y-36104D01*
X52789Y-36213D02*
X52407Y-36213D01*
X52598Y-36213D02*
X52598Y-35069D01*
X52534Y-35232D01*
X52471Y-35341D01*
X52407Y-35396D01*
X53202Y-35069D02*
X53266Y-35069D01*
X53330Y-35124D01*
X53361Y-35178D01*
X53393Y-35287D01*
X53425Y-35505D01*
X53425Y-35777D01*
X53393Y-35995D01*
X53361Y-36104D01*
X53330Y-36159D01*
X53266Y-36213D01*
X53202Y-36213D01*
X53139Y-36159D01*
X53107Y-36104D01*
X53075Y-35995D01*
X53043Y-35777D01*
X53043Y-35505D01*
X53075Y-35287D01*
X53107Y-35178D01*
X53139Y-35124D01*
X53202Y-35069D01*
X53806Y-35559D02*
X53743Y-35505D01*
X53711Y-35450D01*
X53679Y-35341D01*
X53679Y-35287D01*
X53711Y-35178D01*
X53743Y-35124D01*
X53806Y-35069D01*
X53934Y-35069D01*
X53997Y-35124D01*
X54029Y-35178D01*
X54061Y-35287D01*
X54061Y-35341D01*
X54029Y-35450D01*
X53997Y-35505D01*
X53934Y-35559D01*
X53806Y-35559D01*
X53743Y-35614D01*
X53711Y-35668D01*
X53679Y-35777D01*
X53679Y-35995D01*
X53711Y-36104D01*
X53743Y-36159D01*
X53806Y-36213D01*
X53934Y-36213D01*
X53997Y-36159D01*
X54029Y-36104D01*
X54061Y-35995D01*
X54061Y-35777D01*
X54029Y-35668D01*
X53997Y-35614D01*
X53934Y-35559D01*
X54347Y-36213D02*
X54347Y-35069D01*
X54602Y-35069D01*
X54665Y-35124D01*
X54697Y-35178D01*
X54729Y-35287D01*
X54729Y-35450D01*
X54697Y-35559D01*
X54665Y-35614D01*
X54602Y-35668D01*
X54347Y-35668D01*
X55397Y-36104D02*
X55365Y-36159D01*
X55270Y-36213D01*
X55206Y-36213D01*
X55110Y-36159D01*
X55047Y-36050D01*
X55015Y-35941D01*
X54983Y-35723D01*
X54983Y-35559D01*
X55015Y-35341D01*
X55047Y-35232D01*
X55110Y-35124D01*
X55206Y-35069D01*
X55270Y-35069D01*
X55365Y-35124D01*
X55397Y-35178D01*
X55778Y-35559D02*
X55715Y-35505D01*
X55683Y-35450D01*
X55651Y-35341D01*
X55651Y-35287D01*
X55683Y-35178D01*
X55715Y-35124D01*
X55778Y-35069D01*
X55906Y-35069D01*
X55969Y-35124D01*
X56001Y-35178D01*
X56033Y-35287D01*
X56033Y-35341D01*
X56001Y-35450D01*
X55969Y-35505D01*
X55906Y-35559D01*
X55778Y-35559D01*
X55715Y-35614D01*
X55683Y-35668D01*
X55651Y-35777D01*
X55651Y-35995D01*
X55683Y-36104D01*
X55715Y-36159D01*
X55778Y-36213D01*
X55906Y-36213D01*
X55969Y-36159D01*
X56001Y-36104D01*
X56033Y-35995D01*
X56033Y-35777D01*
X56001Y-35668D01*
X55969Y-35614D01*
X55906Y-35559D01*
X56605Y-35450D02*
X56605Y-36213D01*
X56446Y-35015D02*
X56287Y-35832D01*
X56701Y-35832D01*
G54D15*
X68084Y-19429D02*
X68156Y-19452D01*
X68275Y-19452D01*
X68322Y-19429D01*
X68346Y-19405D01*
X68370Y-19357D01*
X68370Y-19310D01*
X68346Y-19262D01*
X68322Y-19238D01*
X68275Y-19214D01*
X68179Y-19190D01*
X68132Y-19167D01*
X68108Y-19143D01*
X68084Y-19095D01*
X68084Y-19048D01*
X68108Y-19000D01*
X68132Y-18976D01*
X68179Y-18952D01*
X68299Y-18952D01*
X68370Y-18976D01*
X68536Y-18952D02*
X68655Y-19452D01*
X68751Y-19095D01*
X68846Y-19452D01*
X68965Y-18952D01*
X69131Y-19000D02*
X69155Y-18976D01*
X69203Y-18952D01*
X69322Y-18952D01*
X69369Y-18976D01*
X69393Y-19000D01*
X69417Y-19048D01*
X69417Y-19095D01*
X69393Y-19167D01*
X69107Y-19452D01*
X69417Y-19452D01*
X66619Y-21429D02*
X66691Y-21452D01*
X66810Y-21452D01*
X66857Y-21429D01*
X66881Y-21405D01*
X66905Y-21357D01*
X66905Y-21310D01*
X66881Y-21262D01*
X66857Y-21238D01*
X66810Y-21214D01*
X66714Y-21190D01*
X66667Y-21167D01*
X66643Y-21143D01*
X66619Y-21095D01*
X66619Y-21048D01*
X66643Y-21000D01*
X66667Y-20976D01*
X66714Y-20952D01*
X66834Y-20952D01*
X66905Y-20976D01*
X67071Y-20952D02*
X67190Y-21452D01*
X67286Y-21095D01*
X67381Y-21452D01*
X67500Y-20952D01*
X67571Y-21500D02*
X67952Y-21500D01*
X68071Y-21452D02*
X68071Y-20952D01*
X68262Y-20952D01*
X68309Y-20976D01*
X68333Y-21000D01*
X68357Y-21048D01*
X68357Y-21119D01*
X68333Y-21167D01*
X68309Y-21190D01*
X68262Y-21214D01*
X68071Y-21214D01*
X68571Y-20952D02*
X68571Y-21357D01*
X68595Y-21405D01*
X68619Y-21429D01*
X68666Y-21452D01*
X68762Y-21452D01*
X68809Y-21429D01*
X68833Y-21405D01*
X68857Y-21357D01*
X68857Y-20952D01*
X69071Y-21429D02*
X69143Y-21452D01*
X69262Y-21452D01*
X69309Y-21429D01*
X69333Y-21405D01*
X69357Y-21357D01*
X69357Y-21310D01*
X69333Y-21262D01*
X69309Y-21238D01*
X69262Y-21214D01*
X69166Y-21190D01*
X69119Y-21167D01*
X69095Y-21143D01*
X69071Y-21095D01*
X69071Y-21048D01*
X69095Y-21000D01*
X69119Y-20976D01*
X69166Y-20952D01*
X69286Y-20952D01*
X69357Y-20976D01*
X69571Y-21452D02*
X69571Y-20952D01*
X69571Y-21190D02*
X69857Y-21190D01*
X69857Y-21452D02*
X69857Y-20952D01*
X62584Y-19429D02*
X62656Y-19452D01*
X62775Y-19452D01*
X62822Y-19429D01*
X62846Y-19405D01*
X62870Y-19357D01*
X62870Y-19310D01*
X62846Y-19262D01*
X62822Y-19238D01*
X62775Y-19214D01*
X62679Y-19190D01*
X62632Y-19167D01*
X62608Y-19143D01*
X62584Y-19095D01*
X62584Y-19048D01*
X62608Y-19000D01*
X62632Y-18976D01*
X62679Y-18952D01*
X62799Y-18952D01*
X62870Y-18976D01*
X63036Y-18952D02*
X63155Y-19452D01*
X63251Y-19095D01*
X63346Y-19452D01*
X63465Y-18952D01*
X63917Y-19452D02*
X63631Y-19452D01*
X63774Y-19452D02*
X63774Y-18952D01*
X63726Y-19024D01*
X63679Y-19071D01*
X63631Y-19095D01*
X61119Y-21429D02*
X61191Y-21452D01*
X61310Y-21452D01*
X61357Y-21429D01*
X61381Y-21405D01*
X61405Y-21357D01*
X61405Y-21310D01*
X61381Y-21262D01*
X61357Y-21238D01*
X61310Y-21214D01*
X61214Y-21190D01*
X61167Y-21167D01*
X61143Y-21143D01*
X61119Y-21095D01*
X61119Y-21048D01*
X61143Y-21000D01*
X61167Y-20976D01*
X61214Y-20952D01*
X61334Y-20952D01*
X61405Y-20976D01*
X61571Y-20952D02*
X61690Y-21452D01*
X61786Y-21095D01*
X61881Y-21452D01*
X62000Y-20952D01*
X62071Y-21500D02*
X62452Y-21500D01*
X62571Y-21452D02*
X62571Y-20952D01*
X62762Y-20952D01*
X62809Y-20976D01*
X62833Y-21000D01*
X62857Y-21048D01*
X62857Y-21119D01*
X62833Y-21167D01*
X62809Y-21190D01*
X62762Y-21214D01*
X62571Y-21214D01*
X63071Y-20952D02*
X63071Y-21357D01*
X63095Y-21405D01*
X63119Y-21429D01*
X63166Y-21452D01*
X63262Y-21452D01*
X63309Y-21429D01*
X63333Y-21405D01*
X63357Y-21357D01*
X63357Y-20952D01*
X63571Y-21429D02*
X63643Y-21452D01*
X63762Y-21452D01*
X63809Y-21429D01*
X63833Y-21405D01*
X63857Y-21357D01*
X63857Y-21310D01*
X63833Y-21262D01*
X63809Y-21238D01*
X63762Y-21214D01*
X63666Y-21190D01*
X63619Y-21167D01*
X63595Y-21143D01*
X63571Y-21095D01*
X63571Y-21048D01*
X63595Y-21000D01*
X63619Y-20976D01*
X63666Y-20952D01*
X63786Y-20952D01*
X63857Y-20976D01*
X64071Y-21452D02*
X64071Y-20952D01*
X64071Y-21190D02*
X64357Y-21190D01*
X64357Y-21452D02*
X64357Y-20952D01*
M02*
