M48
;DRILL file {Pcbnew (2012-apr-16-27)-stable} date Втр 01 Янв 2013 22:45:35
;FORMAT={-:-/ absolute / inch / decimal}
FMAT,2
INCH,TZ
T1C0.002
T2C0.025
T3C0.032
T4C0.040
T5C0.045
T6C0.060
T7C0.120
%
G90
G05
M72
T1
X3.725Y1.425
X3.725Y5.350
X7.725Y1.425
X7.725Y5.350
T2
X4.725Y2.675
X4.800Y2.675
X4.875Y4.225
X4.975Y2.675
X5.225Y4.175
X5.325Y4.225
X5.350Y2.700
X5.400Y4.175
X5.550Y4.150
X5.550Y5.250
X5.600Y4.835
X5.800Y4.925
X5.900Y5.050
X6.075Y2.600
X6.150Y3.100
X6.250Y4.975
X6.925Y2.575
T3
X4.275Y2.075
X4.275Y2.375
X4.375Y2.075
X4.375Y2.375
X4.525Y2.075
X4.525Y2.475
X4.625Y1.550
X4.625Y1.950
X4.625Y2.075
X4.625Y2.475
X4.725Y2.925
X4.725Y3.025
X4.725Y3.125
X4.725Y3.225
X4.725Y3.325
X4.725Y3.425
X4.725Y3.525
X4.725Y3.625
X4.725Y3.725
X4.725Y3.825
X4.725Y3.925
X4.775Y4.775
X4.775Y4.975
X4.800Y1.550
X4.800Y1.850
X4.825Y2.825
X4.825Y2.925
X4.825Y3.025
X4.825Y3.125
X4.825Y3.225
X4.825Y3.325
X4.825Y3.425
X4.825Y3.525
X4.825Y3.625
X4.825Y3.725
X4.825Y3.825
X4.825Y3.925
X4.825Y4.025
X4.875Y2.275
X4.875Y2.575
X4.875Y4.325
X4.875Y4.625
X4.900Y1.550
X4.900Y1.850
X4.925Y2.825
X4.925Y2.925
X4.925Y3.925
X4.925Y4.025
X4.925Y4.975
X4.975Y2.275
X4.975Y2.575
X4.975Y4.325
X4.975Y4.625
X5.000Y1.550
X5.000Y1.850
X5.025Y2.825
X5.025Y2.925
X5.025Y3.925
X5.025Y4.025
X5.075Y2.275
X5.075Y2.575
X5.075Y4.325
X5.075Y4.625
X5.100Y1.550
X5.100Y1.850
X5.100Y1.975
X5.100Y2.125
X5.125Y2.825
X5.125Y2.925
X5.125Y3.925
X5.125Y4.025
X5.175Y2.275
X5.175Y2.575
X5.175Y4.325
X5.175Y4.625
X5.225Y2.825
X5.225Y2.925
X5.225Y3.925
X5.225Y4.025
X5.275Y2.275
X5.275Y2.575
X5.275Y4.325
X5.275Y4.625
X5.300Y1.650
X5.300Y1.750
X5.300Y1.850
X5.325Y2.825
X5.325Y2.925
X5.325Y3.925
X5.325Y4.025
X5.325Y4.975
X5.375Y2.275
X5.375Y2.575
X5.375Y4.325
X5.375Y4.625
X5.425Y2.825
X5.425Y2.925
X5.425Y3.925
X5.425Y4.025
X5.475Y2.275
X5.475Y2.575
X5.475Y4.325
X5.475Y4.625
X5.525Y2.825
X5.525Y2.925
X5.525Y3.925
X5.525Y4.025
X5.575Y2.275
X5.575Y2.575
X5.625Y2.825
X5.625Y2.925
X5.625Y3.925
X5.625Y4.025
X5.700Y1.650
X5.700Y1.750
X5.700Y1.850
X5.700Y1.975
X5.700Y2.125
X5.725Y2.825
X5.725Y2.925
X5.725Y3.925
X5.725Y4.025
X5.825Y2.125
X5.825Y2.525
X5.825Y2.825
X5.825Y2.925
X5.825Y3.025
X5.825Y3.125
X5.825Y3.225
X5.825Y3.325
X5.825Y3.425
X5.825Y3.525
X5.825Y3.625
X5.825Y3.725
X5.825Y3.825
X5.825Y3.925
X5.825Y4.025
X5.850Y4.200
X5.925Y2.125
X5.925Y2.525
X5.925Y2.925
X5.925Y3.025
X5.925Y3.125
X5.925Y3.225
X5.925Y3.325
X5.925Y3.425
X5.925Y3.525
X5.925Y3.625
X5.925Y3.725
X5.925Y3.825
X5.925Y3.925
X5.975Y1.725
X6.450Y4.200
X6.525Y2.625
X6.575Y1.725
X6.625Y2.625
X6.625Y2.875
X6.625Y2.975
X6.625Y3.075
X6.625Y3.175
X6.625Y3.275
X6.625Y3.375
X6.625Y3.475
X6.625Y3.575
X6.625Y3.675
X6.625Y3.775
X6.625Y3.875
X6.625Y3.975
X6.625Y4.075
X6.625Y4.175
X6.725Y2.625
X6.925Y2.875
X6.925Y2.975
X6.925Y3.075
X6.925Y3.175
X6.925Y3.275
X6.925Y3.375
X6.925Y3.475
X6.925Y3.575
X6.925Y3.675
X6.925Y3.775
X6.925Y3.875
X6.925Y3.975
X6.925Y4.075
X6.925Y4.175
X7.225Y2.875
X7.225Y2.975
X7.225Y3.075
X7.225Y3.175
X7.225Y3.275
X7.225Y3.375
X7.225Y3.475
X7.225Y3.575
X7.225Y3.675
X7.225Y3.775
X7.225Y3.875
X7.225Y3.975
X7.225Y4.075
X7.225Y4.175
X7.375Y1.650
X7.375Y2.050
X7.425Y3.200
X7.425Y3.800
T4
X3.925Y2.875
X3.925Y2.985
X3.925Y3.093
X3.925Y3.199
X3.925Y3.311
X3.925Y3.419
X3.925Y3.527
X3.925Y3.637
X3.925Y3.745
X3.925Y3.853
X3.925Y3.963
X3.925Y4.063
X4.025Y2.820
X4.025Y2.930
X4.025Y3.040
X4.025Y3.145
X4.025Y3.255
X4.025Y3.365
X4.025Y3.475
X4.025Y3.580
X4.025Y3.690
X4.025Y3.800
X4.025Y3.910
X4.025Y4.015
X4.025Y4.125
X4.375Y3.400
X4.375Y3.500
X4.475Y3.400
X4.475Y3.500
T5
X6.075Y2.025
X6.125Y4.625
X6.125Y4.725
X6.125Y4.825
X6.475Y2.225
X6.625Y2.025
X7.025Y2.225
X7.075Y4.425
X7.575Y4.425
X7.650Y3.725
X7.650Y4.225
T6
X7.375Y2.325
X7.375Y2.525
X7.375Y4.725
X7.375Y4.925
X7.375Y5.125
T7
X3.925Y2.550
X3.925Y4.400
X6.775Y4.725
T0
M30
