M48
;DRILL file {Pcbnew (2012-apr-16-27)-stable} date Чтв 03 Янв 2013 20:36:52
;FORMAT={-:-/ absolute / inch / decimal}
FMAT,2
INCH,TZ
T1C0.002
T2C0.025
T3C0.032
T4C0.040
T5C0.045
T6C0.060
T7C0.120
%
G90
G05
M72
T1
X3.725Y-1.425
X3.725Y-5.350
X7.725Y-1.425
X7.725Y-5.350
T2
X4.725Y-2.675
X4.800Y-2.675
X4.875Y-4.225
X4.975Y-2.675
X5.225Y-4.175
X5.325Y-4.225
X5.350Y-2.700
X5.400Y-4.175
X5.550Y-4.150
X5.550Y-5.250
X5.600Y-4.835
X5.800Y-4.925
X5.900Y-5.050
X6.075Y-2.600
X6.150Y-3.100
X6.250Y-4.975
X6.925Y-2.575
T3
X4.275Y-2.075
X4.275Y-2.375
X4.375Y-2.075
X4.375Y-2.375
X4.525Y-2.075
X4.525Y-2.475
X4.625Y-1.550
X4.625Y-1.950
X4.625Y-2.075
X4.625Y-2.475
X4.725Y-2.925
X4.725Y-3.025
X4.725Y-3.125
X4.725Y-3.225
X4.725Y-3.325
X4.725Y-3.425
X4.725Y-3.525
X4.725Y-3.625
X4.725Y-3.725
X4.725Y-3.825
X4.725Y-3.925
X4.775Y-4.775
X4.775Y-4.975
X4.800Y-1.550
X4.800Y-1.850
X4.825Y-2.825
X4.825Y-2.925
X4.825Y-3.025
X4.825Y-3.125
X4.825Y-3.225
X4.825Y-3.325
X4.825Y-3.425
X4.825Y-3.525
X4.825Y-3.625
X4.825Y-3.725
X4.825Y-3.825
X4.825Y-3.925
X4.825Y-4.025
X4.875Y-2.275
X4.875Y-2.575
X4.875Y-4.325
X4.875Y-4.625
X4.900Y-1.550
X4.900Y-1.850
X4.925Y-2.825
X4.925Y-2.925
X4.925Y-3.925
X4.925Y-4.025
X4.925Y-4.975
X4.975Y-2.275
X4.975Y-2.575
X4.975Y-4.325
X4.975Y-4.625
X5.000Y-1.550
X5.000Y-1.850
X5.025Y-2.825
X5.025Y-2.925
X5.025Y-3.925
X5.025Y-4.025
X5.075Y-2.275
X5.075Y-2.575
X5.075Y-4.325
X5.075Y-4.625
X5.100Y-1.550
X5.100Y-1.850
X5.100Y-1.975
X5.100Y-2.125
X5.125Y-2.825
X5.125Y-2.925
X5.125Y-3.925
X5.125Y-4.025
X5.175Y-2.275
X5.175Y-2.575
X5.175Y-4.325
X5.175Y-4.625
X5.225Y-2.825
X5.225Y-2.925
X5.225Y-3.925
X5.225Y-4.025
X5.275Y-2.275
X5.275Y-2.575
X5.275Y-4.325
X5.275Y-4.625
X5.300Y-1.650
X5.300Y-1.750
X5.300Y-1.850
X5.325Y-2.825
X5.325Y-2.925
X5.325Y-3.925
X5.325Y-4.025
X5.325Y-4.975
X5.375Y-2.275
X5.375Y-2.575
X5.375Y-4.325
X5.375Y-4.625
X5.425Y-2.825
X5.425Y-2.925
X5.425Y-3.925
X5.425Y-4.025
X5.475Y-2.275
X5.475Y-2.575
X5.475Y-4.325
X5.475Y-4.625
X5.525Y-2.825
X5.525Y-2.925
X5.525Y-3.925
X5.525Y-4.025
X5.575Y-2.275
X5.575Y-2.575
X5.625Y-2.825
X5.625Y-2.925
X5.625Y-3.925
X5.625Y-4.025
X5.700Y-1.650
X5.700Y-1.750
X5.700Y-1.850
X5.700Y-1.975
X5.700Y-2.125
X5.725Y-2.825
X5.725Y-2.925
X5.725Y-3.925
X5.725Y-4.025
X5.825Y-2.125
X5.825Y-2.525
X5.825Y-2.825
X5.825Y-2.925
X5.825Y-3.025
X5.825Y-3.125
X5.825Y-3.225
X5.825Y-3.325
X5.825Y-3.425
X5.825Y-3.525
X5.825Y-3.625
X5.825Y-3.725
X5.825Y-3.825
X5.825Y-3.925
X5.825Y-4.025
X5.850Y-4.200
X5.925Y-2.125
X5.925Y-2.525
X5.925Y-2.925
X5.925Y-3.025
X5.925Y-3.125
X5.925Y-3.225
X5.925Y-3.325
X5.925Y-3.425
X5.925Y-3.525
X5.925Y-3.625
X5.925Y-3.725
X5.925Y-3.825
X5.925Y-3.925
X5.975Y-1.725
X6.450Y-4.200
X6.525Y-2.625
X6.575Y-1.725
X6.625Y-2.625
X6.625Y-2.875
X6.625Y-2.975
X6.625Y-3.075
X6.625Y-3.175
X6.625Y-3.275
X6.625Y-3.375
X6.625Y-3.475
X6.625Y-3.575
X6.625Y-3.675
X6.625Y-3.775
X6.625Y-3.875
X6.625Y-3.975
X6.625Y-4.075
X6.625Y-4.175
X6.725Y-2.625
X6.925Y-2.875
X6.925Y-2.975
X6.925Y-3.075
X6.925Y-3.175
X6.925Y-3.275
X6.925Y-3.375
X6.925Y-3.475
X6.925Y-3.575
X6.925Y-3.675
X6.925Y-3.775
X6.925Y-3.875
X6.925Y-3.975
X6.925Y-4.075
X6.925Y-4.175
X7.225Y-2.875
X7.225Y-2.975
X7.225Y-3.075
X7.225Y-3.175
X7.225Y-3.275
X7.225Y-3.375
X7.225Y-3.475
X7.225Y-3.575
X7.225Y-3.675
X7.225Y-3.775
X7.225Y-3.875
X7.225Y-3.975
X7.225Y-4.075
X7.225Y-4.175
X7.375Y-1.650
X7.375Y-2.050
X7.425Y-3.200
X7.425Y-3.800
T4
X3.925Y-2.875
X3.925Y-2.985
X3.925Y-3.093
X3.925Y-3.199
X3.925Y-3.311
X3.925Y-3.419
X3.925Y-3.527
X3.925Y-3.637
X3.925Y-3.745
X3.925Y-3.853
X3.925Y-3.963
X3.925Y-4.063
X4.025Y-2.820
X4.025Y-2.930
X4.025Y-3.040
X4.025Y-3.145
X4.025Y-3.255
X4.025Y-3.365
X4.025Y-3.475
X4.025Y-3.580
X4.025Y-3.690
X4.025Y-3.800
X4.025Y-3.910
X4.025Y-4.015
X4.025Y-4.125
X4.375Y-3.400
X4.375Y-3.500
X4.475Y-3.400
X4.475Y-3.500
T5
X6.075Y-2.025
X6.125Y-4.625
X6.125Y-4.725
X6.125Y-4.825
X6.475Y-2.225
X6.625Y-2.025
X7.025Y-2.225
X7.075Y-4.425
X7.575Y-4.425
X7.650Y-3.725
X7.650Y-4.225
T6
X7.375Y-2.325
X7.375Y-2.525
X7.375Y-4.725
X7.375Y-4.925
X7.375Y-5.125
T7
X3.925Y-2.550
X3.925Y-4.400
X6.775Y-4.725
T0
M30
