G04 (created by PCBNEW-RS274X (2012-apr-16-27)-stable) date Птн 04 Янв 2013 14:58:56*
G01*
G70*
G90*
%MOIN*%
G04 Gerber Fmt 3.4, Leading zero omitted, Abs format*
%FSLAX34Y34*%
G04 APERTURE LIST*
%ADD10C,0.006000*%
%ADD11C,0.060000*%
%ADD12C,0.120000*%
%ADD13R,0.045000X0.045000*%
%ADD14C,0.045000*%
%ADD15R,0.055000X0.055000*%
%ADD16C,0.055000*%
%ADD17C,0.070000*%
%ADD18O,0.200000X0.150000*%
%ADD19C,0.150000*%
%ADD20R,0.060000X0.060000*%
%ADD21C,0.035000*%
%ADD22C,0.008000*%
G04 APERTURE END LIST*
G54D10*
G54D11*
X28650Y-38550D03*
X28650Y-39550D03*
X28650Y-46550D03*
X28650Y-48550D03*
G54D12*
X92250Y-46250D03*
X70250Y-46250D03*
X114250Y-46250D03*
G54D13*
X111000Y-46750D03*
G54D14*
X110500Y-45750D03*
X110000Y-46750D03*
X109500Y-45750D03*
X109000Y-46750D03*
X108500Y-45750D03*
X108000Y-46750D03*
X107500Y-45750D03*
X107000Y-46750D03*
X106500Y-45750D03*
X106000Y-46750D03*
X105500Y-45750D03*
X105000Y-46750D03*
X104500Y-45750D03*
X104000Y-46750D03*
X103500Y-45750D03*
X103000Y-46750D03*
X102500Y-45750D03*
X102000Y-46750D03*
X101500Y-45750D03*
X101000Y-46750D03*
X100500Y-45750D03*
X100000Y-46750D03*
X99500Y-45750D03*
X99000Y-46750D03*
X98500Y-45750D03*
X98000Y-46750D03*
X97500Y-45750D03*
X97000Y-46750D03*
X96500Y-45750D03*
X96000Y-46750D03*
X95500Y-45750D03*
X95000Y-46750D03*
X94500Y-45750D03*
X94000Y-46750D03*
X93500Y-45750D03*
X91000Y-46750D03*
X90500Y-45750D03*
X90000Y-46750D03*
X89500Y-45750D03*
X89000Y-46750D03*
X88500Y-45750D03*
X88000Y-46750D03*
X87500Y-45750D03*
X87000Y-46750D03*
X86500Y-45750D03*
X86000Y-46750D03*
X85500Y-45750D03*
X85000Y-46750D03*
X84500Y-45750D03*
X84000Y-46750D03*
X83500Y-45750D03*
X83000Y-46750D03*
X82500Y-45750D03*
X82000Y-46750D03*
X81500Y-45750D03*
X81000Y-46750D03*
X80500Y-45750D03*
X80000Y-46750D03*
X79500Y-45750D03*
X79000Y-46750D03*
X78500Y-45750D03*
X78000Y-46750D03*
X77500Y-45750D03*
X77000Y-46750D03*
X76500Y-45750D03*
X76000Y-46750D03*
X75500Y-45750D03*
X75000Y-46750D03*
X74500Y-45750D03*
X74000Y-46750D03*
X73500Y-45750D03*
G54D12*
X92250Y-35750D03*
X70250Y-35750D03*
X114250Y-35750D03*
G54D13*
X111000Y-36250D03*
G54D14*
X110500Y-35250D03*
X110000Y-36250D03*
X109500Y-35250D03*
X109000Y-36250D03*
X108500Y-35250D03*
X108000Y-36250D03*
X107500Y-35250D03*
X107000Y-36250D03*
X106500Y-35250D03*
X106000Y-36250D03*
X105500Y-35250D03*
X105000Y-36250D03*
X104500Y-35250D03*
X104000Y-36250D03*
X103500Y-35250D03*
X103000Y-36250D03*
X102500Y-35250D03*
X102000Y-36250D03*
X101500Y-35250D03*
X101000Y-36250D03*
X100500Y-35250D03*
X100000Y-36250D03*
X99500Y-35250D03*
X99000Y-36250D03*
X98500Y-35250D03*
X98000Y-36250D03*
X97500Y-35250D03*
X97000Y-36250D03*
X96500Y-35250D03*
X96000Y-36250D03*
X95500Y-35250D03*
X95000Y-36250D03*
X94500Y-35250D03*
X94000Y-36250D03*
X93500Y-35250D03*
X91000Y-36250D03*
X90500Y-35250D03*
X90000Y-36250D03*
X89500Y-35250D03*
X89000Y-36250D03*
X88500Y-35250D03*
X88000Y-36250D03*
X87500Y-35250D03*
X87000Y-36250D03*
X86500Y-35250D03*
X86000Y-36250D03*
X85500Y-35250D03*
X85000Y-36250D03*
X84500Y-35250D03*
X84000Y-36250D03*
X83500Y-35250D03*
X83000Y-36250D03*
X82500Y-35250D03*
X82000Y-36250D03*
X81500Y-35250D03*
X81000Y-36250D03*
X80500Y-35250D03*
X80000Y-36250D03*
X79500Y-35250D03*
X79000Y-36250D03*
X78500Y-35250D03*
X78000Y-36250D03*
X77500Y-35250D03*
X77000Y-36250D03*
X76500Y-35250D03*
X76000Y-36250D03*
X75500Y-35250D03*
X75000Y-36250D03*
X74500Y-35250D03*
X74000Y-36250D03*
X73500Y-35250D03*
G54D12*
X92250Y-42750D03*
X70250Y-42750D03*
X114250Y-42750D03*
G54D13*
X111000Y-43250D03*
G54D14*
X110500Y-42250D03*
X110000Y-43250D03*
X109500Y-42250D03*
X109000Y-43250D03*
X108500Y-42250D03*
X108000Y-43250D03*
X107500Y-42250D03*
X107000Y-43250D03*
X106500Y-42250D03*
X106000Y-43250D03*
X105500Y-42250D03*
X105000Y-43250D03*
X104500Y-42250D03*
X104000Y-43250D03*
X103500Y-42250D03*
X103000Y-43250D03*
X102500Y-42250D03*
X102000Y-43250D03*
X101500Y-42250D03*
X101000Y-43250D03*
X100500Y-42250D03*
X100000Y-43250D03*
X99500Y-42250D03*
X99000Y-43250D03*
X98500Y-42250D03*
X98000Y-43250D03*
X97500Y-42250D03*
X97000Y-43250D03*
X96500Y-42250D03*
X96000Y-43250D03*
X95500Y-42250D03*
X95000Y-43250D03*
X94500Y-42250D03*
X94000Y-43250D03*
X93500Y-42250D03*
X91000Y-43250D03*
X90500Y-42250D03*
X90000Y-43250D03*
X89500Y-42250D03*
X89000Y-43250D03*
X88500Y-42250D03*
X88000Y-43250D03*
X87500Y-42250D03*
X87000Y-43250D03*
X86500Y-42250D03*
X86000Y-43250D03*
X85500Y-42250D03*
X85000Y-43250D03*
X84500Y-42250D03*
X84000Y-43250D03*
X83500Y-42250D03*
X83000Y-43250D03*
X82500Y-42250D03*
X82000Y-43250D03*
X81500Y-42250D03*
X81000Y-43250D03*
X80500Y-42250D03*
X80000Y-43250D03*
X79500Y-42250D03*
X79000Y-43250D03*
X78500Y-42250D03*
X78000Y-43250D03*
X77500Y-42250D03*
X77000Y-43250D03*
X76500Y-42250D03*
X76000Y-43250D03*
X75500Y-42250D03*
X75000Y-43250D03*
X74500Y-42250D03*
X74000Y-43250D03*
X73500Y-42250D03*
G54D12*
X92250Y-28750D03*
X70250Y-28750D03*
X114250Y-28750D03*
G54D13*
X111000Y-29250D03*
G54D14*
X110500Y-28250D03*
X110000Y-29250D03*
X109500Y-28250D03*
X109000Y-29250D03*
X108500Y-28250D03*
X108000Y-29250D03*
X107500Y-28250D03*
X107000Y-29250D03*
X106500Y-28250D03*
X106000Y-29250D03*
X105500Y-28250D03*
X105000Y-29250D03*
X104500Y-28250D03*
X104000Y-29250D03*
X103500Y-28250D03*
X103000Y-29250D03*
X102500Y-28250D03*
X102000Y-29250D03*
X101500Y-28250D03*
X101000Y-29250D03*
X100500Y-28250D03*
X100000Y-29250D03*
X99500Y-28250D03*
X99000Y-29250D03*
X98500Y-28250D03*
X98000Y-29250D03*
X97500Y-28250D03*
X97000Y-29250D03*
X96500Y-28250D03*
X96000Y-29250D03*
X95500Y-28250D03*
X95000Y-29250D03*
X94500Y-28250D03*
X94000Y-29250D03*
X93500Y-28250D03*
X91000Y-29250D03*
X90500Y-28250D03*
X90000Y-29250D03*
X89500Y-28250D03*
X89000Y-29250D03*
X88500Y-28250D03*
X88000Y-29250D03*
X87500Y-28250D03*
X87000Y-29250D03*
X86500Y-28250D03*
X86000Y-29250D03*
X85500Y-28250D03*
X85000Y-29250D03*
X84500Y-28250D03*
X84000Y-29250D03*
X83500Y-28250D03*
X83000Y-29250D03*
X82500Y-28250D03*
X82000Y-29250D03*
X81500Y-28250D03*
X81000Y-29250D03*
X80500Y-28250D03*
X80000Y-29250D03*
X79500Y-28250D03*
X79000Y-29250D03*
X78500Y-28250D03*
X78000Y-29250D03*
X77500Y-28250D03*
X77000Y-29250D03*
X76500Y-28250D03*
X76000Y-29250D03*
X75500Y-28250D03*
X75000Y-29250D03*
X74500Y-28250D03*
X74000Y-29250D03*
X73500Y-28250D03*
G54D12*
X92250Y-25250D03*
X70250Y-25250D03*
X114250Y-25250D03*
G54D13*
X111000Y-25750D03*
G54D14*
X110500Y-24750D03*
X110000Y-25750D03*
X109500Y-24750D03*
X109000Y-25750D03*
X108500Y-24750D03*
X108000Y-25750D03*
X107500Y-24750D03*
X107000Y-25750D03*
X106500Y-24750D03*
X106000Y-25750D03*
X105500Y-24750D03*
X105000Y-25750D03*
X104500Y-24750D03*
X104000Y-25750D03*
X103500Y-24750D03*
X103000Y-25750D03*
X102500Y-24750D03*
X102000Y-25750D03*
X101500Y-24750D03*
X101000Y-25750D03*
X100500Y-24750D03*
X100000Y-25750D03*
X99500Y-24750D03*
X99000Y-25750D03*
X98500Y-24750D03*
X98000Y-25750D03*
X97500Y-24750D03*
X97000Y-25750D03*
X96500Y-24750D03*
X96000Y-25750D03*
X95500Y-24750D03*
X95000Y-25750D03*
X94500Y-24750D03*
X94000Y-25750D03*
X93500Y-24750D03*
X91000Y-25750D03*
X90500Y-24750D03*
X90000Y-25750D03*
X89500Y-24750D03*
X89000Y-25750D03*
X88500Y-24750D03*
X88000Y-25750D03*
X87500Y-24750D03*
X87000Y-25750D03*
X86500Y-24750D03*
X86000Y-25750D03*
X85500Y-24750D03*
X85000Y-25750D03*
X84500Y-24750D03*
X84000Y-25750D03*
X83500Y-24750D03*
X83000Y-25750D03*
X82500Y-24750D03*
X82000Y-25750D03*
X81500Y-24750D03*
X81000Y-25750D03*
X80500Y-24750D03*
X80000Y-25750D03*
X79500Y-24750D03*
X79000Y-25750D03*
X78500Y-24750D03*
X78000Y-25750D03*
X77500Y-24750D03*
X77000Y-25750D03*
X76500Y-24750D03*
X76000Y-25750D03*
X75500Y-24750D03*
X75000Y-25750D03*
X74500Y-24750D03*
X74000Y-25750D03*
X73500Y-24750D03*
G54D12*
X92250Y-32250D03*
X70250Y-32250D03*
X114250Y-32250D03*
G54D13*
X111000Y-32750D03*
G54D14*
X110500Y-31750D03*
X110000Y-32750D03*
X109500Y-31750D03*
X109000Y-32750D03*
X108500Y-31750D03*
X108000Y-32750D03*
X107500Y-31750D03*
X107000Y-32750D03*
X106500Y-31750D03*
X106000Y-32750D03*
X105500Y-31750D03*
X105000Y-32750D03*
X104500Y-31750D03*
X104000Y-32750D03*
X103500Y-31750D03*
X103000Y-32750D03*
X102500Y-31750D03*
X102000Y-32750D03*
X101500Y-31750D03*
X101000Y-32750D03*
X100500Y-31750D03*
X100000Y-32750D03*
X99500Y-31750D03*
X99000Y-32750D03*
X98500Y-31750D03*
X98000Y-32750D03*
X97500Y-31750D03*
X97000Y-32750D03*
X96500Y-31750D03*
X96000Y-32750D03*
X95500Y-31750D03*
X95000Y-32750D03*
X94500Y-31750D03*
X94000Y-32750D03*
X93500Y-31750D03*
X91000Y-32750D03*
X90500Y-31750D03*
X90000Y-32750D03*
X89500Y-31750D03*
X89000Y-32750D03*
X88500Y-31750D03*
X88000Y-32750D03*
X87500Y-31750D03*
X87000Y-32750D03*
X86500Y-31750D03*
X86000Y-32750D03*
X85500Y-31750D03*
X85000Y-32750D03*
X84500Y-31750D03*
X84000Y-32750D03*
X83500Y-31750D03*
X83000Y-32750D03*
X82500Y-31750D03*
X82000Y-32750D03*
X81500Y-31750D03*
X81000Y-32750D03*
X80500Y-31750D03*
X80000Y-32750D03*
X79500Y-31750D03*
X79000Y-32750D03*
X78500Y-31750D03*
X78000Y-32750D03*
X77500Y-31750D03*
X77000Y-32750D03*
X76500Y-31750D03*
X76000Y-32750D03*
X75500Y-31750D03*
X75000Y-32750D03*
X74500Y-31750D03*
X74000Y-32750D03*
X73500Y-31750D03*
G54D12*
X92250Y-39250D03*
X70250Y-39250D03*
X114250Y-39250D03*
G54D13*
X111000Y-39750D03*
G54D14*
X110500Y-38750D03*
X110000Y-39750D03*
X109500Y-38750D03*
X109000Y-39750D03*
X108500Y-38750D03*
X108000Y-39750D03*
X107500Y-38750D03*
X107000Y-39750D03*
X106500Y-38750D03*
X106000Y-39750D03*
X105500Y-38750D03*
X105000Y-39750D03*
X104500Y-38750D03*
X104000Y-39750D03*
X103500Y-38750D03*
X103000Y-39750D03*
X102500Y-38750D03*
X102000Y-39750D03*
X101500Y-38750D03*
X101000Y-39750D03*
X100500Y-38750D03*
X100000Y-39750D03*
X99500Y-38750D03*
X99000Y-39750D03*
X98500Y-38750D03*
X98000Y-39750D03*
X97500Y-38750D03*
X97000Y-39750D03*
X96500Y-38750D03*
X96000Y-39750D03*
X95500Y-38750D03*
X95000Y-39750D03*
X94500Y-38750D03*
X94000Y-39750D03*
X93500Y-38750D03*
X91000Y-39750D03*
X90500Y-38750D03*
X90000Y-39750D03*
X89500Y-38750D03*
X89000Y-39750D03*
X88500Y-38750D03*
X88000Y-39750D03*
X87500Y-38750D03*
X87000Y-39750D03*
X86500Y-38750D03*
X86000Y-39750D03*
X85500Y-38750D03*
X85000Y-39750D03*
X84500Y-38750D03*
X84000Y-39750D03*
X83500Y-38750D03*
X83000Y-39750D03*
X82500Y-38750D03*
X82000Y-39750D03*
X81500Y-38750D03*
X81000Y-39750D03*
X80500Y-38750D03*
X80000Y-39750D03*
X79500Y-38750D03*
X79000Y-39750D03*
X78500Y-38750D03*
X78000Y-39750D03*
X77500Y-38750D03*
X77000Y-39750D03*
X76500Y-38750D03*
X76000Y-39750D03*
X75500Y-38750D03*
X75000Y-39750D03*
X74500Y-38750D03*
X74000Y-39750D03*
X73500Y-38750D03*
G54D12*
X92250Y-49750D03*
X70250Y-49750D03*
X114250Y-49750D03*
G54D13*
X111000Y-50250D03*
G54D14*
X110500Y-49250D03*
X110000Y-50250D03*
X109500Y-49250D03*
X109000Y-50250D03*
X108500Y-49250D03*
X108000Y-50250D03*
X107500Y-49250D03*
X107000Y-50250D03*
X106500Y-49250D03*
X106000Y-50250D03*
X105500Y-49250D03*
X105000Y-50250D03*
X104500Y-49250D03*
X104000Y-50250D03*
X103500Y-49250D03*
X103000Y-50250D03*
X102500Y-49250D03*
X102000Y-50250D03*
X101500Y-49250D03*
X101000Y-50250D03*
X100500Y-49250D03*
X100000Y-50250D03*
X99500Y-49250D03*
X99000Y-50250D03*
X98500Y-49250D03*
X98000Y-50250D03*
X97500Y-49250D03*
X97000Y-50250D03*
X96500Y-49250D03*
X96000Y-50250D03*
X95500Y-49250D03*
X95000Y-50250D03*
X94500Y-49250D03*
X94000Y-50250D03*
X93500Y-49250D03*
X91000Y-50250D03*
X90500Y-49250D03*
X90000Y-50250D03*
X89500Y-49250D03*
X89000Y-50250D03*
X88500Y-49250D03*
X88000Y-50250D03*
X87500Y-49250D03*
X87000Y-50250D03*
X86500Y-49250D03*
X86000Y-50250D03*
X85500Y-49250D03*
X85000Y-50250D03*
X84500Y-49250D03*
X84000Y-50250D03*
X83500Y-49250D03*
X83000Y-50250D03*
X82500Y-49250D03*
X82000Y-50250D03*
X81500Y-49250D03*
X81000Y-50250D03*
X80500Y-49250D03*
X80000Y-50250D03*
X79500Y-49250D03*
X79000Y-50250D03*
X78500Y-49250D03*
X78000Y-50250D03*
X77500Y-49250D03*
X77000Y-50250D03*
X76500Y-49250D03*
X76000Y-50250D03*
X75500Y-49250D03*
X75000Y-50250D03*
X74500Y-49250D03*
X74000Y-50250D03*
X73500Y-49250D03*
G54D15*
X41450Y-27700D03*
G54D16*
X41450Y-26700D03*
G54D15*
X122550Y-50350D03*
G54D16*
X122550Y-49350D03*
X123550Y-50350D03*
X123550Y-49350D03*
X124550Y-50350D03*
X124550Y-49350D03*
X125550Y-50350D03*
X125550Y-49350D03*
X126550Y-50350D03*
X126550Y-49350D03*
X127550Y-50350D03*
X128550Y-49350D03*
X127550Y-49350D03*
X128550Y-48350D03*
X127550Y-48350D03*
X128550Y-47350D03*
X127550Y-47350D03*
X128550Y-46350D03*
X127550Y-46350D03*
X128550Y-45350D03*
X127550Y-45350D03*
X128550Y-44350D03*
X127550Y-44350D03*
X128550Y-43350D03*
X127550Y-43350D03*
X128550Y-42350D03*
X127550Y-42350D03*
X128550Y-41350D03*
X127550Y-41350D03*
X128550Y-40350D03*
X127550Y-40350D03*
X128550Y-39350D03*
X127550Y-38350D03*
X127550Y-39350D03*
X126550Y-38350D03*
X126550Y-39350D03*
X125550Y-38350D03*
X125550Y-39350D03*
X124550Y-38350D03*
X124550Y-39350D03*
X123550Y-38350D03*
X123550Y-39350D03*
X122550Y-38350D03*
X122550Y-39350D03*
X121550Y-38350D03*
X121550Y-39350D03*
X120550Y-38350D03*
X120550Y-39350D03*
X119550Y-38350D03*
X119550Y-39350D03*
X118550Y-38350D03*
X118550Y-39350D03*
X117550Y-38350D03*
X116550Y-39350D03*
X117550Y-39350D03*
X116550Y-40350D03*
X117550Y-40350D03*
X116550Y-41350D03*
X117550Y-41350D03*
X116550Y-42350D03*
X117550Y-42350D03*
X116550Y-43350D03*
X117550Y-43350D03*
X116550Y-44350D03*
X117550Y-44350D03*
X116550Y-45350D03*
X117550Y-45350D03*
X116550Y-46350D03*
X117550Y-46350D03*
X116550Y-47350D03*
X117550Y-47350D03*
X116550Y-48350D03*
X117550Y-48350D03*
X116550Y-49350D03*
X117550Y-50350D03*
X117550Y-49350D03*
X118550Y-50350D03*
X118550Y-49350D03*
X119550Y-50350D03*
X119550Y-49350D03*
X120550Y-50350D03*
X120550Y-49350D03*
X121550Y-50350D03*
X121550Y-49350D03*
G54D15*
X135250Y-40250D03*
G54D16*
X135250Y-41250D03*
X134250Y-40250D03*
X134250Y-41250D03*
X133250Y-40250D03*
X133250Y-41250D03*
X132250Y-40250D03*
X132250Y-41250D03*
X131250Y-40250D03*
X130250Y-41250D03*
X131250Y-41250D03*
X130250Y-42250D03*
X131250Y-42250D03*
X130250Y-43250D03*
X131250Y-43250D03*
X130250Y-44250D03*
X131250Y-44250D03*
X130250Y-45250D03*
X131250Y-45250D03*
X130250Y-46250D03*
X131250Y-46250D03*
X130250Y-47250D03*
X131250Y-47250D03*
X130250Y-48250D03*
X131250Y-48250D03*
X130250Y-49250D03*
X131250Y-50250D03*
X131250Y-49250D03*
X132250Y-50250D03*
X132250Y-49250D03*
X133250Y-50250D03*
X133250Y-49250D03*
X134250Y-50250D03*
X134250Y-49250D03*
X135250Y-50250D03*
X135250Y-49250D03*
X136250Y-50250D03*
X136250Y-49250D03*
X137250Y-50250D03*
X137250Y-49250D03*
X138250Y-50250D03*
X138250Y-49250D03*
X139250Y-50250D03*
X140250Y-49250D03*
X139250Y-49250D03*
X140250Y-48250D03*
X139250Y-48250D03*
X140250Y-47250D03*
X139250Y-47250D03*
X140250Y-46250D03*
X139250Y-46250D03*
X140250Y-45250D03*
X139250Y-45250D03*
X140250Y-44250D03*
X139250Y-44250D03*
X140250Y-43250D03*
X139250Y-43250D03*
X140250Y-42250D03*
X139250Y-42250D03*
X140250Y-41250D03*
X139250Y-40250D03*
X139250Y-41250D03*
X138250Y-40250D03*
X138250Y-41250D03*
X137250Y-40250D03*
X137250Y-41250D03*
X136250Y-40250D03*
X136250Y-41250D03*
G54D17*
X140800Y-36200D03*
X140800Y-38200D03*
X29750Y-28750D03*
X27750Y-28750D03*
G54D18*
X26750Y-49550D03*
G54D19*
X26750Y-59550D03*
G54D20*
X27750Y-56750D03*
G54D11*
X27750Y-55650D03*
X27750Y-54600D03*
X27750Y-53500D03*
X27750Y-52400D03*
X26750Y-56200D03*
X26750Y-55100D03*
X26750Y-54050D03*
X26750Y-52950D03*
G54D15*
X142350Y-33250D03*
G54D16*
X139350Y-33250D03*
G54D15*
X125450Y-23150D03*
G54D16*
X122450Y-23150D03*
G54D15*
X125450Y-23950D03*
G54D16*
X122450Y-23950D03*
G54D15*
X142350Y-34050D03*
G54D16*
X139350Y-34050D03*
G54D11*
X32250Y-27250D03*
X34250Y-27250D03*
G54D15*
X37250Y-28750D03*
G54D16*
X38250Y-28750D03*
X39250Y-28750D03*
X40250Y-28750D03*
X40250Y-25750D03*
X39250Y-25750D03*
X38250Y-25750D03*
X37250Y-25750D03*
G54D15*
X34750Y-31250D03*
G54D16*
X34750Y-32250D03*
X34750Y-33250D03*
X34750Y-34250D03*
X34750Y-35250D03*
X34750Y-36250D03*
X34750Y-37250D03*
X34750Y-38250D03*
X34750Y-39250D03*
G54D15*
X33500Y-50000D03*
G54D16*
X34500Y-50000D03*
X35500Y-50000D03*
X36500Y-50000D03*
X37500Y-50000D03*
X38500Y-50000D03*
X39500Y-50000D03*
X40500Y-50000D03*
X41500Y-50000D03*
G54D15*
X74250Y-53050D03*
G54D16*
X73250Y-53050D03*
X72250Y-53050D03*
X71250Y-53050D03*
X70250Y-53050D03*
X69250Y-53050D03*
X68250Y-53050D03*
X67250Y-53050D03*
X66250Y-53050D03*
G54D15*
X74250Y-54250D03*
G54D16*
X73250Y-54250D03*
X72250Y-54250D03*
X71250Y-54250D03*
X70250Y-54250D03*
X69250Y-54250D03*
X68250Y-54250D03*
X67250Y-54250D03*
X66250Y-54250D03*
G54D15*
X74250Y-56150D03*
G54D16*
X73250Y-56150D03*
X72250Y-56150D03*
X71250Y-56150D03*
X70250Y-56150D03*
X69250Y-56150D03*
X68250Y-56150D03*
X67250Y-56150D03*
X66250Y-56150D03*
G54D15*
X35500Y-29750D03*
G54D16*
X36500Y-29750D03*
X42350Y-25450D03*
X43350Y-25450D03*
X43000Y-56250D03*
X43000Y-57250D03*
X45850Y-25450D03*
X44850Y-25450D03*
X35000Y-58250D03*
X36000Y-58250D03*
X47750Y-48500D03*
X47750Y-49500D03*
X46750Y-48500D03*
X46750Y-49500D03*
G54D15*
X42750Y-49500D03*
G54D16*
X43750Y-49500D03*
X44750Y-49500D03*
X45750Y-49500D03*
X45750Y-46500D03*
X44750Y-46500D03*
X43750Y-46500D03*
X42750Y-46500D03*
G54D17*
X45100Y-23700D03*
X43100Y-23700D03*
G54D14*
X35250Y-25000D03*
X35250Y-23250D03*
X45000Y-29500D03*
G54D15*
X36250Y-47250D03*
G54D16*
X36250Y-46250D03*
X36250Y-45250D03*
X36250Y-44250D03*
X36250Y-43250D03*
X36250Y-42250D03*
X36250Y-41250D03*
X36250Y-40250D03*
X36250Y-39250D03*
G54D15*
X33500Y-53500D03*
G54D16*
X34500Y-53500D03*
X35500Y-53500D03*
X36500Y-53500D03*
X37500Y-53500D03*
X38500Y-53500D03*
X39500Y-53500D03*
X40500Y-53500D03*
X41500Y-53500D03*
G54D15*
X33500Y-56250D03*
G54D16*
X34500Y-56250D03*
X35500Y-56250D03*
X36500Y-56250D03*
X37500Y-56250D03*
X38500Y-56250D03*
X39500Y-56250D03*
X40500Y-56250D03*
X41500Y-56250D03*
G54D17*
X23250Y-32250D03*
G54D12*
X24250Y-33250D03*
X22250Y-33250D03*
X22250Y-31250D03*
X24250Y-31250D03*
G54D17*
X23250Y-36750D03*
G54D12*
X24250Y-37750D03*
X22250Y-37750D03*
X22250Y-35750D03*
X24250Y-35750D03*
G54D17*
X23250Y-45750D03*
G54D12*
X24250Y-46750D03*
X22250Y-46750D03*
X22250Y-44750D03*
X24250Y-44750D03*
G54D17*
X23250Y-41250D03*
G54D12*
X24250Y-42250D03*
X22250Y-42250D03*
X22250Y-40250D03*
X24250Y-40250D03*
G54D20*
X36750Y-24250D03*
G54D11*
X37750Y-24250D03*
X38750Y-24250D03*
X39750Y-24250D03*
X40750Y-24250D03*
G54D16*
X31950Y-22800D03*
X32950Y-22800D03*
G54D21*
X56500Y-59750D03*
X53500Y-59750D03*
X57250Y-59750D03*
X49000Y-59750D03*
X63500Y-59750D03*
X59500Y-59750D03*
X58000Y-59750D03*
X55000Y-59750D03*
X52750Y-59750D03*
X50500Y-59750D03*
X64250Y-59750D03*
X47500Y-59750D03*
X30550Y-50150D03*
X28750Y-40850D03*
X118250Y-27150D03*
X60750Y-53500D03*
X79350Y-52400D03*
X50750Y-48500D03*
X118250Y-28500D03*
X65450Y-53000D03*
X67650Y-49900D03*
X59800Y-26750D03*
X120250Y-27150D03*
X134500Y-37250D03*
X49500Y-40450D03*
X40550Y-38450D03*
X117690Y-31800D03*
X28000Y-44050D03*
X126650Y-34050D03*
X41000Y-60250D03*
X42000Y-60250D03*
X58250Y-45800D03*
X66500Y-60250D03*
X130750Y-26050D03*
X132350Y-35400D03*
X56100Y-29450D03*
X126650Y-29190D03*
X129630Y-35400D03*
X42500Y-32300D03*
X53250Y-55450D03*
X128750Y-52000D03*
X58500Y-55700D03*
X132800Y-37250D03*
X122200Y-28750D03*
X48500Y-35000D03*
X60950Y-34700D03*
X122800Y-32350D03*
X68000Y-60250D03*
X44500Y-47500D03*
X122400Y-27150D03*
X57800Y-24750D03*
X50250Y-28350D03*
X39750Y-59750D03*
X37550Y-38000D03*
X61400Y-40650D03*
X55500Y-41700D03*
X60900Y-28500D03*
X119900Y-31800D03*
X62750Y-39700D03*
X44000Y-36500D03*
X38400Y-34350D03*
X50750Y-53750D03*
X67500Y-60250D03*
X44000Y-34250D03*
X125150Y-26120D03*
X129370Y-22950D03*
X46250Y-59750D03*
X49400Y-25350D03*
X60750Y-48400D03*
X44500Y-59750D03*
X67450Y-38300D03*
X36700Y-37800D03*
X67450Y-44200D03*
X135010Y-35400D03*
X53000Y-46000D03*
X41350Y-58550D03*
X80300Y-56650D03*
X33550Y-39750D03*
X61450Y-58550D03*
X26350Y-41900D03*
X114950Y-51800D03*
X63800Y-58000D03*
X42150Y-57200D03*
X34450Y-41900D03*
X61450Y-43700D03*
X55700Y-43950D03*
X129050Y-45000D03*
X40750Y-41250D03*
X55000Y-39250D03*
X55000Y-38750D03*
X40250Y-41250D03*
X61450Y-43200D03*
X56000Y-43600D03*
X129250Y-44300D03*
X39600Y-41400D03*
X55500Y-38500D03*
X56300Y-43200D03*
X61450Y-42700D03*
X56500Y-38500D03*
X66150Y-45100D03*
X39290Y-40700D03*
X56850Y-42500D03*
X65950Y-41700D03*
X63250Y-42150D03*
X62250Y-41200D03*
X66550Y-41200D03*
X129550Y-50350D03*
X38750Y-40750D03*
X66550Y-39700D03*
X130950Y-38000D03*
X57000Y-38500D03*
X132000Y-37100D03*
X57800Y-42400D03*
X65900Y-38700D03*
X37460Y-39250D03*
X130450Y-50350D03*
X61550Y-41150D03*
X65900Y-40200D03*
X38850Y-43650D03*
X33600Y-57050D03*
X33500Y-38050D03*
X46100Y-57350D03*
X41100Y-57050D03*
X34400Y-57050D03*
X134750Y-50850D03*
X33500Y-41250D03*
X40400Y-58700D03*
X62000Y-58150D03*
X124250Y-52250D03*
X141100Y-52350D03*
X116900Y-50200D03*
X126100Y-23750D03*
X41350Y-23200D03*
X127850Y-37150D03*
X41400Y-31650D03*
X71950Y-31550D03*
X126950Y-41450D03*
X72400Y-41550D03*
X125350Y-43050D03*
X69100Y-32000D03*
X72300Y-39650D03*
X39250Y-31800D03*
X112200Y-39300D03*
X112200Y-43600D03*
X120550Y-47850D03*
X127900Y-28200D03*
X129050Y-37050D03*
X126800Y-27850D03*
X126950Y-37050D03*
X120550Y-45350D03*
X121100Y-33500D03*
X121100Y-34150D03*
X120950Y-41750D03*
X121500Y-33250D03*
X121550Y-42250D03*
X121500Y-34400D03*
X122000Y-34350D03*
X122000Y-33050D03*
X138550Y-39600D03*
X124350Y-32450D03*
X124350Y-35550D03*
X124700Y-32200D03*
X124700Y-35250D03*
X119300Y-30500D03*
X116050Y-49750D03*
X116900Y-36100D03*
X118200Y-48300D03*
X119800Y-30200D03*
X117350Y-36250D03*
X116550Y-35750D03*
X118950Y-30100D03*
X115400Y-48600D03*
X121000Y-29200D03*
X118700Y-36950D03*
X119350Y-45350D03*
X119350Y-36950D03*
X119700Y-47100D03*
X121050Y-28550D03*
X119950Y-43600D03*
X119850Y-37000D03*
X121100Y-28000D03*
X135300Y-46050D03*
X122000Y-46350D03*
X134700Y-47650D03*
X135300Y-42400D03*
X127450Y-51300D03*
X67750Y-39550D03*
X89500Y-39950D03*
X71350Y-42600D03*
X63000Y-34300D03*
X48400Y-25950D03*
X48750Y-27000D03*
X100950Y-25200D03*
X100900Y-27050D03*
X102000Y-26600D03*
X53560Y-27200D03*
X49150Y-26600D03*
X104000Y-31000D03*
X50550Y-31250D03*
X59550Y-30500D03*
X93400Y-25450D03*
X69250Y-28300D03*
X71250Y-24850D03*
X99950Y-25100D03*
X91300Y-25050D03*
X49150Y-27850D03*
X52400Y-25200D03*
X102500Y-23950D03*
X52700Y-24800D03*
X97500Y-23900D03*
X96000Y-26600D03*
X52750Y-26700D03*
X95500Y-26850D03*
X52700Y-27200D03*
X87000Y-32000D03*
X64650Y-31290D03*
X72000Y-42250D03*
X119900Y-25100D03*
X110500Y-44000D03*
X119000Y-24950D03*
X109500Y-43600D03*
X117500Y-28550D03*
X117850Y-28850D03*
X81800Y-34150D03*
X81000Y-33800D03*
X116050Y-29450D03*
X79000Y-33800D03*
X117450Y-29700D03*
X116500Y-29900D03*
X115500Y-30250D03*
X117500Y-30150D03*
X110000Y-31000D03*
X118000Y-30350D03*
X109000Y-31000D03*
X108000Y-31400D03*
X116300Y-30750D03*
X107000Y-31900D03*
X117500Y-30850D03*
X118550Y-24800D03*
X101000Y-48650D03*
X117950Y-30850D03*
X116400Y-31550D03*
X100000Y-48250D03*
X99000Y-33400D03*
X118200Y-31830D03*
X115850Y-36050D03*
X118450Y-33200D03*
X84500Y-33600D03*
X118050Y-33550D03*
X83500Y-33800D03*
X118450Y-33850D03*
X82500Y-33800D03*
X81500Y-33800D03*
X118000Y-34200D03*
X80500Y-34600D03*
X118450Y-34550D03*
X118000Y-34850D03*
X119450Y-24600D03*
X117900Y-24600D03*
X107500Y-40400D03*
X118450Y-35150D03*
X117950Y-35450D03*
X116450Y-27330D03*
X101500Y-27100D03*
X101500Y-40400D03*
X100500Y-40400D03*
X117450Y-27530D03*
X100500Y-27300D03*
X99500Y-27350D03*
X99500Y-40400D03*
X116080Y-27850D03*
X117500Y-28120D03*
X98500Y-40350D03*
X85000Y-28450D03*
X116500Y-28320D03*
X116050Y-28650D03*
X86000Y-34400D03*
X69900Y-34700D03*
X46400Y-34550D03*
X46400Y-46400D03*
X46400Y-35950D03*
X48500Y-48750D03*
X50750Y-46000D03*
X50750Y-48000D03*
X50750Y-49750D03*
X51250Y-54750D03*
X50750Y-54250D03*
X61500Y-45000D03*
X57250Y-47250D03*
X57350Y-49700D03*
X56350Y-49700D03*
X56250Y-47250D03*
X55750Y-47250D03*
X55850Y-49700D03*
X52750Y-49750D03*
X50600Y-57800D03*
X52750Y-56000D03*
X54750Y-56000D03*
X56000Y-56000D03*
X57900Y-56100D03*
X59300Y-55750D03*
X60900Y-55800D03*
X60950Y-53900D03*
X52250Y-49750D03*
X51750Y-43250D03*
X42750Y-42750D03*
X44250Y-42750D03*
X49750Y-42750D03*
X46050Y-38300D03*
X47750Y-38300D03*
X51750Y-49750D03*
X51250Y-43250D03*
X43250Y-42750D03*
X66500Y-59250D03*
X60250Y-59250D03*
X59500Y-59250D03*
X58750Y-59250D03*
X53500Y-59250D03*
X52750Y-59250D03*
X65750Y-59250D03*
X52000Y-59250D03*
X51250Y-59250D03*
X49000Y-59250D03*
X48250Y-59250D03*
X47500Y-59250D03*
X46750Y-59250D03*
X65000Y-59250D03*
X64250Y-59250D03*
X61000Y-59250D03*
X63500Y-59250D03*
X54250Y-59250D03*
X45500Y-59250D03*
X49750Y-59250D03*
X52500Y-55150D03*
X58000Y-59250D03*
X50750Y-56000D03*
X55750Y-59250D03*
X55000Y-59250D03*
X54840Y-49700D03*
X55350Y-49700D03*
X53250Y-49750D03*
X53400Y-26800D03*
X57500Y-26800D03*
X55300Y-33850D03*
X60250Y-47250D03*
X47750Y-33650D03*
X47750Y-32150D03*
X54900Y-34150D03*
X59750Y-47250D03*
X54350Y-34350D03*
X59250Y-47250D03*
X58750Y-47250D03*
X54000Y-34700D03*
X52750Y-35300D03*
X58000Y-49750D03*
X52250Y-35650D03*
X59750Y-50500D03*
X51900Y-35950D03*
X60250Y-50750D03*
X51250Y-36050D03*
X60750Y-51000D03*
X131400Y-24800D03*
X65100Y-25150D03*
X130150Y-26250D03*
X65100Y-32650D03*
X121200Y-25100D03*
X131900Y-37950D03*
X62900Y-36600D03*
X39150Y-22950D03*
X131050Y-26950D03*
X128700Y-27450D03*
X128300Y-26250D03*
X39750Y-23050D03*
X63750Y-23100D03*
X121350Y-23450D03*
X122150Y-25450D03*
X124000Y-34100D03*
X67000Y-37050D03*
X67000Y-35300D03*
X69050Y-41750D03*
X124450Y-40000D03*
X123000Y-25750D03*
X64500Y-23350D03*
X123800Y-31300D03*
X123650Y-34400D03*
X121850Y-24350D03*
X64250Y-24000D03*
X113200Y-26800D03*
X113200Y-40950D03*
X120550Y-27850D03*
X113200Y-25100D03*
X124950Y-41550D03*
X50850Y-36300D03*
X48150Y-31900D03*
X42400Y-27300D03*
X48000Y-27300D03*
X45750Y-40300D03*
X41900Y-32100D03*
X43550Y-31950D03*
X49050Y-40300D03*
X115550Y-49300D03*
X66600Y-36650D03*
X65150Y-36800D03*
X72400Y-49650D03*
X38750Y-27500D03*
X43950Y-27650D03*
X53600Y-35000D03*
X50500Y-25200D03*
X51000Y-25200D03*
X53150Y-35000D03*
X51600Y-33300D03*
X60750Y-52000D03*
X41900Y-23200D03*
X127950Y-35250D03*
X43450Y-28750D03*
X53750Y-49750D03*
X45100Y-42050D03*
X40750Y-42200D03*
X53950Y-42250D03*
X43750Y-42750D03*
X50250Y-42750D03*
X49250Y-42750D03*
X44750Y-42750D03*
X44600Y-40350D03*
X48050Y-40500D03*
X52250Y-43250D03*
X42250Y-42750D03*
X48300Y-38300D03*
X45550Y-38300D03*
X41750Y-42750D03*
X53250Y-43250D03*
X64650Y-25550D03*
X64800Y-27900D03*
X64650Y-30850D03*
X87050Y-33400D03*
X69200Y-33700D03*
X71650Y-45400D03*
X72000Y-49100D03*
X65850Y-38250D03*
X66150Y-34200D03*
X51900Y-32850D03*
X75850Y-30150D03*
X39100Y-28150D03*
X125950Y-40700D03*
X76050Y-38100D03*
X61050Y-38940D03*
X51650Y-38350D03*
X42400Y-29950D03*
X58000Y-38750D03*
X52200Y-29850D03*
X60750Y-47250D03*
X55800Y-33750D03*
X129250Y-24750D03*
X129250Y-33450D03*
X121350Y-27600D03*
X123050Y-24450D03*
X54000Y-27300D03*
X74850Y-38250D03*
X54100Y-29450D03*
X74850Y-29950D03*
X126950Y-41000D03*
X51250Y-24250D03*
X52700Y-32400D03*
X75200Y-37900D03*
X40700Y-27900D03*
X75400Y-29650D03*
X126250Y-40350D03*
X125700Y-41400D03*
X72950Y-41500D03*
X72500Y-31500D03*
X38800Y-31700D03*
X122200Y-31850D03*
X51250Y-29850D03*
X51000Y-26550D03*
X35550Y-32750D03*
X51750Y-29850D03*
X37150Y-33050D03*
X116400Y-23300D03*
X62550Y-22800D03*
X37150Y-32600D03*
X60250Y-29800D03*
X33950Y-41300D03*
X41600Y-57500D03*
X63300Y-58250D03*
X135450Y-51250D03*
X32550Y-30550D03*
X31350Y-30950D03*
X31450Y-47100D03*
X41200Y-41750D03*
X134800Y-24900D03*
X35150Y-39800D03*
X120850Y-23250D03*
X133900Y-25250D03*
X35050Y-26300D03*
X40550Y-39000D03*
X132850Y-37950D03*
X53820Y-41750D03*
X28450Y-34200D03*
X29750Y-47150D03*
X67850Y-42950D03*
X65850Y-37800D03*
X67850Y-37800D03*
X78850Y-52900D03*
X67850Y-43700D03*
X67800Y-35350D03*
X67850Y-49400D03*
X67800Y-33350D03*
X120050Y-25550D03*
X106000Y-23900D03*
X61750Y-26900D03*
X65350Y-38300D03*
X65550Y-44200D03*
X65550Y-49900D03*
X73150Y-52200D03*
X63750Y-36800D03*
X39000Y-36250D03*
X58000Y-37000D03*
X63750Y-36300D03*
X39500Y-36250D03*
X58000Y-36500D03*
X58000Y-36000D03*
X40000Y-36250D03*
X65150Y-35800D03*
X40500Y-36250D03*
X65150Y-35300D03*
X58000Y-35500D03*
X63950Y-34800D03*
X58000Y-35000D03*
X41000Y-36250D03*
X63950Y-34300D03*
X58000Y-34500D03*
X41000Y-35750D03*
X65650Y-54550D03*
X50750Y-54750D03*
X65100Y-49400D03*
X51750Y-54750D03*
X65100Y-48900D03*
X52050Y-53450D03*
X59100Y-50700D03*
X50750Y-49000D03*
X60550Y-47900D03*
X65100Y-48400D03*
X65100Y-47900D03*
X58050Y-47600D03*
X50750Y-47000D03*
X51250Y-49750D03*
X65100Y-47400D03*
X58050Y-46650D03*
X51650Y-46650D03*
X58050Y-47150D03*
X54250Y-47250D03*
X54250Y-49750D03*
X64150Y-46900D03*
X56750Y-47250D03*
X56850Y-49700D03*
X65200Y-46400D03*
X57250Y-46000D03*
X65200Y-45900D03*
X58300Y-50350D03*
X59800Y-46350D03*
X63500Y-46500D03*
X60750Y-53000D03*
X75350Y-53900D03*
X61000Y-54900D03*
X59960Y-55500D03*
X57000Y-56000D03*
X56550Y-42850D03*
X129750Y-42950D03*
X69050Y-43700D03*
X38450Y-42050D03*
X61450Y-42200D03*
X56000Y-38500D03*
X67150Y-43350D03*
X53750Y-56000D03*
X51750Y-56000D03*
X131500Y-37400D03*
X125750Y-37550D03*
X66200Y-40700D03*
X62600Y-40700D03*
X66200Y-39050D03*
X38050Y-40250D03*
X57500Y-38500D03*
X126550Y-45950D03*
X38000Y-36250D03*
X58000Y-38000D03*
X64050Y-37900D03*
X38500Y-36250D03*
X63750Y-37500D03*
X58000Y-37500D03*
X127900Y-28750D03*
X128550Y-37050D03*
X125000Y-28550D03*
X127400Y-37050D03*
X129550Y-37050D03*
X137650Y-41650D03*
X127850Y-27550D03*
X125050Y-35500D03*
X138900Y-39250D03*
X124700Y-31750D03*
X125150Y-31600D03*
X125500Y-35500D03*
X121700Y-31850D03*
X51650Y-26350D03*
X72950Y-30200D03*
X37850Y-32300D03*
X63400Y-29700D03*
X116410Y-32000D03*
X72950Y-32850D03*
X140200Y-31950D03*
X65600Y-25150D03*
X130800Y-24850D03*
X63000Y-39150D03*
X65600Y-32650D03*
X61050Y-37100D03*
X61050Y-32050D03*
X62200Y-26900D03*
X63300Y-26800D03*
X131850Y-34000D03*
X129650Y-26650D03*
X126700Y-26500D03*
X132400Y-37950D03*
X40850Y-58950D03*
X62500Y-58400D03*
X134800Y-51550D03*
X141500Y-51500D03*
X141200Y-30750D03*
X47050Y-45500D03*
X126750Y-23250D03*
X128850Y-26200D03*
X47300Y-31950D03*
X118800Y-23050D03*
X38250Y-44750D03*
X47200Y-36050D03*
X47300Y-23350D03*
X122600Y-27900D03*
X122900Y-34300D03*
X122200Y-42350D03*
X123800Y-27050D03*
X122900Y-42050D03*
X123300Y-34100D03*
X134550Y-43100D03*
X123500Y-26700D03*
X121650Y-43450D03*
X122450Y-34350D03*
X118650Y-47550D03*
X120200Y-29650D03*
X117550Y-36900D03*
X118950Y-48250D03*
X120650Y-29500D03*
X118150Y-36950D03*
X139050Y-29700D03*
X128200Y-32900D03*
X137350Y-27900D03*
X139550Y-25100D03*
X127900Y-25450D03*
X139050Y-32650D03*
X139050Y-27910D03*
X136950Y-32260D03*
X126850Y-34850D03*
X126800Y-25350D03*
X60850Y-39450D03*
X60350Y-32400D03*
X61200Y-28150D03*
X62700Y-28150D03*
X139100Y-26900D03*
X136200Y-22870D03*
X38500Y-59750D03*
X54900Y-29450D03*
X51500Y-24750D03*
X58200Y-29300D03*
X63250Y-37250D03*
X127150Y-29600D03*
X59500Y-60250D03*
X52000Y-60250D03*
X62250Y-41750D03*
X63000Y-48500D03*
X44210Y-33250D03*
X61000Y-60250D03*
X63000Y-53750D03*
X58250Y-58250D03*
X54250Y-60250D03*
X37500Y-36550D03*
X44280Y-33850D03*
X40370Y-32000D03*
X48800Y-32200D03*
X61050Y-33500D03*
X50750Y-35000D03*
X42750Y-36250D03*
X118080Y-26700D03*
X65750Y-60250D03*
X37500Y-32000D03*
X37500Y-34330D03*
X65000Y-60250D03*
X48500Y-48250D03*
X63000Y-32000D03*
X47500Y-60250D03*
X58000Y-60250D03*
X61050Y-58250D03*
X53500Y-53750D03*
X136950Y-31240D03*
X140950Y-25050D03*
X59200Y-23250D03*
X33200Y-40450D03*
X28550Y-32950D03*
X75250Y-56900D03*
X65200Y-39700D03*
X65200Y-33800D03*
X50000Y-23750D03*
X53000Y-58250D03*
X28100Y-45350D03*
X33750Y-32200D03*
X56500Y-55000D03*
X56250Y-46000D03*
X29850Y-32200D03*
X137450Y-34300D03*
X55750Y-60250D03*
X132700Y-35100D03*
X128860Y-34900D03*
X136550Y-35400D03*
X118550Y-29250D03*
X53250Y-29750D03*
X50750Y-29850D03*
X51250Y-60250D03*
X48500Y-53500D03*
X136050Y-24650D03*
X132500Y-32650D03*
X137700Y-36000D03*
X126800Y-25860D03*
X32900Y-44050D03*
X137350Y-28420D03*
X54400Y-39750D03*
X55350Y-39750D03*
X50100Y-40750D03*
X136200Y-42700D03*
X53000Y-47900D03*
X133200Y-25550D03*
X129650Y-25450D03*
X131700Y-25550D03*
X137300Y-25850D03*
X135750Y-51850D03*
X122750Y-46300D03*
X125650Y-46200D03*
X136150Y-44000D03*
X30900Y-56250D03*
X30900Y-57450D03*
X30900Y-55050D03*
X58000Y-42000D03*
X31250Y-34650D03*
X44500Y-60250D03*
X57750Y-53500D03*
X58750Y-49250D03*
X49000Y-60250D03*
X122400Y-26700D03*
X63000Y-24150D03*
X131420Y-34900D03*
X58250Y-43500D03*
X122500Y-31500D03*
X140950Y-50250D03*
X122550Y-47900D03*
X55250Y-55000D03*
X65200Y-45400D03*
X127150Y-31500D03*
X45500Y-60250D03*
X122200Y-29200D03*
X63000Y-30000D03*
X118550Y-31500D03*
X120250Y-31500D03*
X127100Y-33750D03*
X120600Y-26750D03*
X32350Y-25350D03*
X28050Y-30450D03*
X28650Y-36300D03*
X30950Y-40450D03*
X32650Y-31250D03*
X31850Y-32150D03*
X29050Y-36700D03*
X28350Y-32200D03*
X30250Y-38100D03*
X29950Y-41600D03*
X26750Y-33650D03*
X31000Y-33500D03*
X30550Y-37600D03*
X29900Y-33050D03*
X31000Y-43450D03*
X30700Y-36150D03*
X31150Y-34200D03*
X28850Y-34800D03*
X135700Y-33350D03*
X135400Y-29500D03*
X139050Y-29190D03*
X137250Y-29200D03*
X134250Y-33350D03*
X133650Y-35300D03*
X134240Y-35300D03*
X136500Y-37100D03*
X137500Y-22840D03*
X141000Y-28750D03*
X135750Y-36950D03*
X137250Y-31550D03*
X43400Y-34700D03*
X43050Y-33600D03*
X62650Y-51350D03*
X48700Y-47850D03*
X48150Y-47850D03*
X39000Y-60250D03*
X130500Y-51600D03*
X126050Y-45850D03*
X126550Y-48050D03*
X124550Y-46750D03*
X137250Y-47400D03*
G54D22*
X119000Y-23650D02*
X119750Y-22900D01*
X125900Y-23550D02*
X126100Y-23750D01*
X41800Y-22750D02*
X62050Y-22750D01*
X65450Y-25950D02*
X66450Y-24950D01*
X41350Y-23200D02*
X41800Y-22750D01*
X63850Y-24250D02*
X64050Y-24450D01*
X66450Y-24950D02*
X66450Y-23150D01*
X115700Y-23050D02*
X116300Y-23650D01*
X119750Y-22900D02*
X121650Y-22900D01*
X121650Y-22900D02*
X121900Y-23150D01*
X121900Y-23150D02*
X121900Y-23450D01*
X121900Y-23450D02*
X122000Y-23550D01*
X122000Y-23550D02*
X125900Y-23550D01*
X64050Y-24450D02*
X64050Y-25700D01*
X64050Y-25700D02*
X64300Y-25950D01*
X66450Y-23150D02*
X66550Y-23050D01*
X64300Y-25950D02*
X65450Y-25950D01*
X63350Y-23200D02*
X63850Y-23700D01*
X62500Y-23200D02*
X63350Y-23200D01*
X62050Y-22750D02*
X62500Y-23200D01*
X66550Y-23050D02*
X115700Y-23050D01*
X63850Y-23700D02*
X63850Y-24250D01*
X116300Y-23650D02*
X119000Y-23650D01*
X65850Y-22900D02*
X65850Y-24400D01*
X130800Y-22450D02*
X131400Y-23050D01*
X117900Y-22600D02*
X66150Y-22600D01*
X118000Y-22450D02*
X130800Y-22450D01*
X118000Y-22450D02*
X117900Y-22600D01*
X66150Y-22600D02*
X65850Y-22900D01*
X65850Y-24400D02*
X65100Y-25150D01*
X131400Y-24800D02*
X131400Y-23050D01*
X122600Y-27600D02*
X121350Y-27600D01*
X122700Y-27500D02*
X122600Y-27600D01*
X123050Y-24450D02*
X122700Y-24800D01*
X122700Y-24800D02*
X122700Y-27500D01*
X129750Y-40950D02*
X127300Y-40950D01*
X131250Y-41250D02*
X130850Y-40850D01*
X129850Y-40850D02*
X129750Y-40950D01*
X127300Y-40950D02*
X127250Y-41000D01*
X130850Y-40850D02*
X129850Y-40850D01*
X126950Y-41000D02*
X127250Y-41000D01*
X130350Y-22650D02*
X130800Y-23100D01*
X66250Y-22800D02*
X118200Y-22800D01*
X118350Y-22650D02*
X130350Y-22650D01*
X118200Y-22800D02*
X118350Y-22650D01*
X66100Y-24650D02*
X66100Y-22950D01*
X66100Y-22950D02*
X66250Y-22800D01*
X130800Y-24850D02*
X130800Y-23100D01*
X65600Y-25150D02*
X66100Y-24650D01*
X58000Y-60250D02*
X55750Y-60250D01*
X55800Y-29800D02*
X56350Y-29800D01*
X55750Y-29750D02*
X55800Y-29800D01*
X54900Y-29750D02*
X55750Y-29750D01*
X34250Y-27250D02*
X34250Y-31750D01*
X50000Y-24750D02*
X51500Y-24750D01*
X58550Y-29250D02*
X63000Y-29250D01*
X54900Y-29450D02*
X54900Y-29750D01*
X58550Y-29250D02*
X58500Y-29300D01*
X58500Y-29300D02*
X58200Y-29300D01*
X65500Y-35950D02*
X65500Y-33900D01*
X65150Y-36200D02*
X65250Y-36200D01*
X135500Y-25850D02*
X136050Y-25300D01*
X65200Y-39700D02*
X64600Y-39100D01*
X64600Y-39100D02*
X64600Y-37150D01*
X64600Y-37150D02*
X64600Y-36750D01*
X64600Y-36750D02*
X65150Y-36200D01*
X65250Y-36200D02*
X65500Y-35950D01*
X126800Y-25860D02*
X127150Y-25860D01*
X48500Y-58250D02*
X53000Y-58250D01*
X50000Y-24750D02*
X50000Y-23750D01*
X133100Y-26150D02*
X133200Y-26050D01*
X44210Y-33250D02*
X44250Y-33250D01*
X53000Y-58250D02*
X58250Y-58250D01*
X61050Y-58250D02*
X58250Y-58250D01*
X57750Y-55000D02*
X56500Y-55000D01*
X53000Y-46750D02*
X56250Y-46750D01*
X53000Y-49250D02*
X53000Y-47900D01*
X69250Y-59700D02*
X70200Y-58750D01*
X42250Y-49500D02*
X42250Y-55550D01*
X50750Y-34250D02*
X48500Y-34250D01*
X53000Y-47900D02*
X53000Y-46750D01*
X58000Y-60250D02*
X59500Y-60250D01*
X53250Y-29750D02*
X54900Y-29750D01*
X50750Y-30250D02*
X53250Y-30250D01*
X57750Y-53500D02*
X57750Y-55000D01*
X56250Y-46000D02*
X56250Y-44300D01*
X63000Y-53750D02*
X63000Y-56300D01*
X44280Y-33850D02*
X44500Y-33850D01*
X49000Y-53500D02*
X48500Y-53500D01*
X40370Y-32000D02*
X40350Y-32000D01*
X22250Y-44750D02*
X24250Y-44750D01*
X48500Y-32200D02*
X48800Y-32200D01*
X38150Y-32000D02*
X38600Y-32450D01*
X38600Y-32450D02*
X40350Y-32450D01*
X22250Y-42250D02*
X22250Y-44750D01*
X40350Y-32450D02*
X40350Y-32000D01*
X24250Y-46750D02*
X22250Y-46750D01*
X22250Y-33250D02*
X22250Y-35750D01*
X54400Y-40250D02*
X50250Y-40250D01*
X61750Y-48500D02*
X61750Y-49250D01*
X38500Y-59750D02*
X35000Y-59750D01*
X58250Y-43500D02*
X57650Y-44100D01*
X73500Y-38750D02*
X73500Y-42250D01*
X73500Y-35250D02*
X73500Y-38750D01*
X73500Y-35250D02*
X73500Y-31750D01*
X73500Y-28250D02*
X73500Y-31750D01*
X73500Y-24750D02*
X73500Y-28250D01*
X65200Y-41750D02*
X65200Y-45400D01*
X42750Y-36250D02*
X42750Y-35000D01*
X49000Y-49350D02*
X49000Y-53500D01*
X42750Y-35000D02*
X44500Y-35000D01*
X37500Y-34330D02*
X37500Y-34350D01*
X37500Y-34350D02*
X37500Y-36550D01*
X37500Y-32000D02*
X37500Y-34350D01*
X58250Y-43500D02*
X58250Y-42000D01*
X65200Y-33800D02*
X65400Y-33800D01*
X131700Y-25550D02*
X131400Y-25550D01*
X65000Y-60250D02*
X61000Y-60250D01*
X43500Y-60250D02*
X43500Y-56750D01*
X42750Y-49500D02*
X43750Y-49500D01*
X55250Y-55000D02*
X53500Y-55000D01*
X48500Y-32200D02*
X48500Y-29850D01*
X49000Y-48250D02*
X49000Y-49350D01*
X55250Y-55000D02*
X56500Y-55000D01*
X58750Y-49250D02*
X58750Y-53500D01*
X50750Y-29850D02*
X50750Y-30250D01*
X24250Y-42250D02*
X22250Y-42250D01*
X43350Y-25450D02*
X44850Y-25450D01*
X63000Y-48500D02*
X61750Y-48500D01*
X65750Y-60250D02*
X65000Y-60250D01*
X43500Y-60250D02*
X43000Y-60250D01*
X53500Y-55000D02*
X53500Y-53750D01*
X73900Y-56900D02*
X75250Y-56900D01*
X73800Y-56800D02*
X73900Y-56900D01*
X73800Y-51850D02*
X73800Y-56800D01*
X73500Y-51550D02*
X73800Y-51850D01*
X73500Y-49250D02*
X73500Y-51550D01*
X65200Y-39700D02*
X65200Y-41750D01*
X34250Y-27250D02*
X35650Y-27250D01*
X50100Y-40750D02*
X49000Y-40750D01*
X117900Y-43350D02*
X118000Y-43450D01*
X73500Y-42250D02*
X73500Y-45750D01*
X117900Y-45350D02*
X117550Y-45350D01*
X118000Y-45250D02*
X117900Y-45350D01*
X118000Y-43450D02*
X118000Y-45250D01*
X117550Y-42350D02*
X117550Y-43350D01*
X111000Y-50700D02*
X111000Y-50250D01*
X110900Y-50800D02*
X111000Y-50700D01*
X90100Y-50800D02*
X110900Y-50800D01*
X90000Y-50700D02*
X90100Y-50800D01*
X90000Y-50250D02*
X90000Y-50700D01*
X122550Y-49350D02*
X123550Y-50350D01*
X117550Y-43350D02*
X117900Y-43350D01*
X63000Y-30000D02*
X63000Y-29250D01*
X43150Y-36650D02*
X43150Y-40750D01*
X42750Y-36250D02*
X43150Y-36650D01*
X90000Y-25750D02*
X90000Y-29250D01*
X25350Y-33250D02*
X25650Y-32950D01*
X25350Y-33250D02*
X24250Y-33250D01*
X28550Y-32950D02*
X25650Y-32950D01*
X48500Y-48250D02*
X49000Y-48250D01*
X61750Y-49250D02*
X58750Y-49250D01*
X140850Y-49950D02*
X140850Y-50250D01*
X141400Y-25050D02*
X140950Y-25050D01*
X40450Y-33250D02*
X40350Y-33150D01*
X45500Y-60250D02*
X47500Y-60250D01*
X47500Y-60250D02*
X49000Y-60250D01*
X22250Y-31250D02*
X24250Y-31250D01*
X33750Y-32200D02*
X34200Y-31750D01*
X34200Y-31750D02*
X34250Y-31750D01*
X34250Y-31750D02*
X37250Y-31750D01*
X24250Y-37750D02*
X22250Y-37750D01*
X117550Y-42350D02*
X119500Y-42350D01*
X44500Y-60250D02*
X45500Y-60250D01*
X58750Y-53500D02*
X57750Y-53500D01*
X54250Y-60250D02*
X55750Y-60250D01*
X56250Y-46750D02*
X56250Y-46000D01*
X44500Y-35000D02*
X44500Y-33850D01*
X44500Y-33850D02*
X44500Y-33250D01*
X45750Y-49500D02*
X45750Y-48500D01*
X22250Y-40250D02*
X24250Y-40250D01*
X22250Y-37750D02*
X22250Y-40250D01*
X28650Y-39550D02*
X32800Y-39550D01*
X32800Y-39550D02*
X33200Y-39950D01*
X33200Y-39950D02*
X33200Y-40450D01*
X22250Y-35750D02*
X24250Y-35750D01*
X48500Y-48250D02*
X47750Y-48250D01*
X47750Y-48250D02*
X47750Y-48500D01*
X44750Y-49500D02*
X45750Y-49500D01*
X52000Y-60250D02*
X54250Y-60250D01*
X47400Y-40750D02*
X43150Y-40750D01*
X54400Y-40250D02*
X54400Y-39750D01*
X35000Y-59750D02*
X35000Y-58250D01*
X44500Y-33250D02*
X44250Y-33250D01*
X50250Y-35500D02*
X50250Y-40250D01*
X52000Y-60250D02*
X51250Y-60250D01*
X50750Y-34250D02*
X50750Y-35000D01*
X42750Y-49500D02*
X42250Y-49500D01*
X50100Y-40400D02*
X50250Y-40250D01*
X132500Y-31090D02*
X132500Y-26250D01*
X132500Y-26250D02*
X132600Y-26150D01*
X132600Y-26150D02*
X133100Y-26150D01*
X141500Y-25150D02*
X141400Y-25050D01*
X133200Y-26050D02*
X133200Y-25550D01*
X136800Y-31090D02*
X132500Y-31090D01*
X50100Y-40750D02*
X50100Y-40400D01*
X132500Y-31500D02*
X132500Y-31090D01*
X53250Y-30250D02*
X53250Y-29750D01*
X56850Y-29300D02*
X58200Y-29300D01*
X56350Y-29800D02*
X56850Y-29300D01*
X69250Y-59700D02*
X69250Y-59750D01*
X69250Y-59750D02*
X66250Y-59750D01*
X65750Y-60250D02*
X66250Y-59750D01*
X75250Y-56900D02*
X73400Y-58750D01*
X70200Y-58750D02*
X73400Y-58750D01*
X63000Y-30000D02*
X63000Y-32000D01*
X58750Y-49250D02*
X53000Y-49250D01*
X136050Y-24650D02*
X136050Y-25300D01*
X134250Y-40250D02*
X134250Y-39450D01*
X134250Y-39450D02*
X135000Y-38700D01*
X135000Y-38700D02*
X135000Y-36150D01*
X135000Y-36150D02*
X135500Y-35650D01*
X135500Y-35650D02*
X135500Y-34450D01*
X123550Y-50350D02*
X124900Y-51700D01*
X124900Y-51700D02*
X129650Y-51700D01*
X131400Y-51700D02*
X133250Y-51700D01*
X141500Y-35400D02*
X141500Y-49300D01*
X141500Y-49300D02*
X140850Y-49950D01*
X123550Y-50350D02*
X122800Y-51100D01*
X122800Y-51100D02*
X111750Y-51100D01*
X111750Y-51100D02*
X111650Y-51000D01*
X111650Y-51000D02*
X111650Y-50350D01*
X111550Y-50250D02*
X111000Y-50250D01*
X111650Y-50350D02*
X111550Y-50250D01*
X111000Y-25750D02*
X112800Y-23950D01*
X122450Y-23950D02*
X112800Y-23950D01*
X122450Y-23950D02*
X124100Y-23950D01*
X129550Y-23900D02*
X129650Y-24000D01*
X129650Y-24000D02*
X129650Y-25450D01*
X132500Y-32650D02*
X132500Y-31500D01*
X136550Y-35400D02*
X137600Y-35400D01*
X137600Y-35400D02*
X137700Y-35500D01*
X137700Y-35500D02*
X137700Y-36000D01*
X129650Y-25860D02*
X129650Y-25450D01*
X127150Y-25860D02*
X129650Y-25860D01*
X136050Y-25300D02*
X136600Y-25850D01*
X137050Y-28420D02*
X136950Y-28520D01*
X32900Y-44050D02*
X33100Y-43850D01*
X33100Y-43850D02*
X33100Y-41050D01*
X33100Y-41050D02*
X33200Y-40950D01*
X33200Y-40950D02*
X33200Y-40450D01*
X61250Y-24450D02*
X61550Y-24150D01*
X61550Y-24150D02*
X63000Y-24150D01*
X24375Y-56250D02*
X26750Y-56250D01*
X37500Y-32000D02*
X37250Y-31750D01*
X137350Y-28420D02*
X137050Y-28420D01*
X136950Y-28520D02*
X136950Y-31240D01*
X136950Y-31240D02*
X136800Y-31090D01*
X140300Y-51850D02*
X135750Y-51850D01*
X47750Y-48500D02*
X46750Y-48500D01*
X63250Y-37250D02*
X63350Y-37150D01*
X63350Y-37150D02*
X64600Y-37150D01*
X63250Y-34800D02*
X63250Y-37250D01*
X63350Y-32100D02*
X63350Y-34700D01*
X63250Y-34800D02*
X63350Y-34700D01*
X65400Y-33800D02*
X65500Y-33900D01*
X53000Y-49250D02*
X51500Y-49250D01*
X51500Y-49250D02*
X51400Y-49350D01*
X58000Y-39750D02*
X58000Y-42000D01*
X51400Y-49350D02*
X49000Y-49350D01*
X58000Y-39750D02*
X55350Y-39750D01*
X24250Y-35750D02*
X24250Y-37750D01*
X134250Y-40250D02*
X134250Y-41250D01*
X134250Y-41250D02*
X134250Y-42250D01*
X134250Y-42250D02*
X134250Y-42600D01*
X134250Y-42600D02*
X134350Y-42700D01*
X134350Y-42700D02*
X136200Y-42700D01*
X131250Y-42250D02*
X130250Y-42250D01*
X131250Y-42250D02*
X134250Y-42250D01*
X127550Y-44350D02*
X128550Y-44350D01*
X127550Y-44350D02*
X127550Y-45000D01*
X73500Y-45750D02*
X73500Y-49250D01*
X127550Y-45000D02*
X127550Y-45350D01*
X62250Y-41750D02*
X58500Y-41750D01*
X58250Y-42000D02*
X58500Y-41750D01*
X57650Y-44100D02*
X56450Y-44100D01*
X56250Y-44300D02*
X56450Y-44100D01*
X48500Y-53500D02*
X48500Y-58250D01*
X55350Y-39750D02*
X54400Y-39750D01*
X137000Y-34300D02*
X137450Y-34300D01*
X137450Y-34300D02*
X138500Y-33250D01*
X138500Y-33250D02*
X139350Y-33250D01*
X131400Y-25550D02*
X131300Y-25450D01*
X131300Y-25450D02*
X129650Y-25450D01*
X136850Y-34450D02*
X137000Y-34300D01*
X133200Y-25550D02*
X133500Y-25850D01*
X137300Y-25850D02*
X136600Y-25850D01*
X135500Y-25850D02*
X133500Y-25850D01*
X58250Y-42000D02*
X58000Y-42000D01*
X117550Y-45350D02*
X118150Y-45350D01*
X122750Y-46300D02*
X122750Y-45000D01*
X125650Y-46200D02*
X125650Y-45000D01*
X122550Y-47850D02*
X122550Y-49350D01*
X122750Y-46300D02*
X122750Y-47150D01*
X122550Y-47850D02*
X122550Y-47350D01*
X122550Y-47350D02*
X122750Y-47150D01*
X133250Y-49250D02*
X133250Y-50250D01*
X133250Y-50250D02*
X133250Y-51700D01*
X133400Y-51850D02*
X135750Y-51850D01*
X136150Y-44000D02*
X136150Y-43150D01*
X136150Y-43150D02*
X136200Y-43100D01*
X136200Y-43100D02*
X136200Y-42700D01*
X128860Y-34900D02*
X131400Y-34900D01*
X131400Y-34900D02*
X132100Y-34900D01*
X132100Y-34900D02*
X132300Y-35100D01*
X132300Y-35100D02*
X132700Y-35100D01*
X132700Y-35100D02*
X133350Y-34450D01*
X133350Y-34450D02*
X135500Y-34450D01*
X135500Y-34450D02*
X136850Y-34450D01*
X43250Y-26700D02*
X43350Y-26600D01*
X38500Y-59750D02*
X38950Y-59300D01*
X30900Y-55050D02*
X30900Y-56250D01*
X43350Y-26600D02*
X43350Y-25450D01*
X36750Y-25000D02*
X36850Y-25100D01*
X30900Y-56250D02*
X30900Y-57450D01*
X40250Y-25750D02*
X40250Y-26600D01*
X36850Y-25100D02*
X40150Y-25100D01*
X41450Y-26700D02*
X43250Y-26700D01*
X40350Y-26700D02*
X41450Y-26700D01*
X40250Y-26600D02*
X40350Y-26700D01*
X40150Y-25100D02*
X40250Y-25200D01*
X40250Y-25200D02*
X40250Y-25750D01*
X35850Y-24250D02*
X36750Y-24250D01*
X35750Y-27150D02*
X35750Y-24350D01*
X36750Y-24250D02*
X36750Y-25000D01*
X35650Y-27250D02*
X35750Y-27150D01*
X35750Y-24350D02*
X35850Y-24250D01*
X42700Y-59300D02*
X43000Y-59600D01*
X63000Y-24150D02*
X63000Y-29250D01*
X61250Y-24450D02*
X51600Y-24450D01*
X51600Y-24450D02*
X51500Y-24550D01*
X51500Y-24550D02*
X51500Y-24750D01*
X126900Y-23900D02*
X129550Y-23900D01*
X44250Y-33250D02*
X40450Y-33250D01*
X43000Y-56250D02*
X43500Y-56750D01*
X30900Y-57450D02*
X34900Y-57450D01*
X34900Y-57450D02*
X35000Y-57550D01*
X35000Y-57550D02*
X35000Y-58250D01*
X43000Y-56250D02*
X42250Y-55550D01*
X111000Y-46750D02*
X111000Y-50250D01*
X24250Y-44750D02*
X24250Y-46750D01*
X24250Y-40250D02*
X24250Y-42250D01*
X46750Y-48500D02*
X45750Y-48500D01*
X37500Y-32000D02*
X38150Y-32000D01*
X59500Y-60250D02*
X61000Y-60250D01*
X24250Y-31250D02*
X24250Y-33250D01*
X22250Y-33250D02*
X24250Y-33250D01*
X43000Y-60250D02*
X43000Y-59600D01*
X111000Y-43250D02*
X111000Y-46750D01*
X111000Y-36250D02*
X111000Y-39750D01*
X111000Y-39750D02*
X111000Y-43250D01*
X111000Y-32750D02*
X111000Y-36250D01*
X111000Y-29250D02*
X111000Y-32750D01*
X111000Y-25750D02*
X111000Y-29250D01*
X90000Y-49700D02*
X90000Y-50250D01*
X90000Y-46750D02*
X90000Y-49700D01*
X90000Y-43250D02*
X90000Y-46750D01*
X90000Y-39750D02*
X90000Y-43250D01*
X90000Y-36250D02*
X90000Y-39750D01*
X90000Y-32750D02*
X90000Y-36250D01*
X90000Y-29250D02*
X90000Y-32750D01*
X62250Y-41750D02*
X65200Y-41750D01*
X119500Y-42350D02*
X120500Y-41350D01*
X120500Y-41350D02*
X123300Y-41350D01*
X123300Y-41350D02*
X123550Y-41100D01*
X40350Y-33150D02*
X40350Y-32450D01*
X43750Y-49500D02*
X44750Y-49500D01*
X48500Y-34250D02*
X48500Y-32200D01*
X50750Y-29850D02*
X48500Y-29850D01*
X24250Y-56125D02*
X24375Y-56250D01*
X24250Y-46750D02*
X24250Y-56125D01*
X27250Y-54500D02*
X26750Y-55000D01*
X27250Y-54000D02*
X27250Y-54500D01*
X26750Y-55000D02*
X26750Y-55100D01*
X27750Y-53500D02*
X27250Y-54000D01*
X26750Y-56250D02*
X26750Y-56200D01*
X26750Y-55100D02*
X26750Y-56250D01*
X27750Y-52400D02*
X27750Y-53500D01*
X118500Y-45000D02*
X122750Y-45000D01*
X122750Y-45000D02*
X125650Y-45000D01*
X125650Y-45000D02*
X127550Y-45000D01*
X127150Y-31500D02*
X132500Y-31500D01*
X127150Y-25860D02*
X127150Y-29600D01*
X127150Y-29600D02*
X127150Y-31500D01*
X118150Y-45350D02*
X118500Y-45000D01*
X118080Y-26700D02*
X118550Y-26700D01*
X118550Y-26700D02*
X120600Y-26700D01*
X122400Y-26700D02*
X120600Y-26700D01*
X122450Y-26400D02*
X122450Y-23950D01*
X122400Y-26450D02*
X122450Y-26400D01*
X73500Y-49250D02*
X73950Y-49700D01*
X73950Y-49700D02*
X90000Y-49700D01*
X131420Y-34900D02*
X131400Y-34900D01*
X63000Y-48500D02*
X63000Y-53750D01*
X123550Y-39350D02*
X123550Y-38350D01*
X122400Y-26700D02*
X122400Y-26450D01*
X141500Y-35400D02*
X141500Y-25150D01*
X140850Y-50250D02*
X140950Y-50250D01*
X140300Y-51850D02*
X140300Y-50350D01*
X140300Y-50350D02*
X140400Y-50250D01*
X140400Y-50250D02*
X140850Y-50250D01*
X122550Y-47900D02*
X122550Y-47850D01*
X127150Y-32100D02*
X127150Y-31500D01*
X47550Y-40900D02*
X48850Y-40900D01*
X63350Y-32100D02*
X63250Y-32000D01*
X61050Y-58250D02*
X63000Y-56300D01*
X38950Y-59300D02*
X42700Y-59300D01*
X129650Y-51700D02*
X129950Y-52000D01*
X127100Y-33750D02*
X127100Y-32150D01*
X129950Y-52000D02*
X131100Y-52000D01*
X120250Y-31500D02*
X118550Y-31500D01*
X123550Y-41100D02*
X123550Y-39350D01*
X122200Y-29200D02*
X122200Y-31500D01*
X131100Y-52000D02*
X131400Y-51700D01*
X126900Y-23900D02*
X126400Y-24400D01*
X126400Y-24400D02*
X124550Y-24400D01*
X124550Y-24400D02*
X124100Y-23950D01*
X49000Y-60250D02*
X51250Y-60250D01*
X118550Y-31500D02*
X118550Y-29250D01*
X118550Y-29250D02*
X118550Y-26700D01*
X44500Y-60250D02*
X43500Y-60250D01*
X122500Y-31500D02*
X122200Y-31500D01*
X47400Y-40750D02*
X47550Y-40900D01*
X122200Y-31500D02*
X120250Y-31500D01*
X63250Y-32000D02*
X63000Y-32000D01*
X139350Y-33250D02*
X141500Y-35400D01*
X133250Y-51700D02*
X133400Y-51850D01*
X127100Y-32150D02*
X127150Y-32100D01*
X120600Y-26750D02*
X120600Y-26700D01*
X50750Y-35000D02*
X50250Y-35500D01*
X48850Y-40900D02*
X49000Y-40750D01*
M02*
