M48
;DRILL file {Pcbnew (2012-apr-16-27)-stable} date Втр 01 Янв 2013 22:44:47
;FORMAT={-:-/ absolute / inch / decimal}
FMAT,2
INCH,TZ
T1C0.025
T2C0.032
T3C0.040
T4C0.060
T5C0.100
T6C0.120
%
G90
G05
M72
T1
X2.635Y4.190
X2.675Y3.365
X2.800Y4.405
X2.805Y3.045
X2.810Y4.535
X2.835Y3.220
X2.845Y3.420
X2.855Y3.295
X2.865Y3.630
X2.875Y4.085
X2.885Y3.480
X2.905Y3.670
X2.975Y4.715
X2.985Y3.220
X2.990Y3.305
X2.995Y4.160
X3.025Y3.810
X3.055Y3.760
X3.055Y5.015
X3.070Y3.615
X3.090Y5.505
X3.090Y5.625
X3.090Y5.745
X3.095Y4.045
X3.100Y3.350
X3.100Y4.345
X3.115Y3.420
X3.125Y3.465
X3.135Y3.095
X3.145Y4.710
X3.185Y3.215
X3.235Y2.535
X3.255Y3.055
X3.265Y3.125
X3.290Y4.405
X3.320Y4.045
X3.350Y3.805
X3.350Y4.125
X3.355Y3.975
X3.360Y5.705
X3.375Y3.220
X3.395Y4.130
X3.440Y5.705
X3.445Y4.190
X3.505Y2.630
X3.515Y3.980
X3.525Y2.325
X3.525Y2.500
X3.555Y3.275
X3.670Y3.780
X3.715Y3.260
X3.715Y3.305
X3.746Y3.925
X3.750Y3.200
X3.750Y3.433
X3.750Y3.655
X3.755Y3.800
X3.785Y3.230
X3.800Y3.625
X3.805Y4.025
X3.825Y4.475
X3.840Y3.435
X3.845Y4.205
X3.850Y3.625
X3.850Y5.975
X3.875Y2.750
X3.875Y4.075
X3.880Y3.170
X3.885Y4.365
X3.900Y3.625
X3.900Y6.025
X3.910Y2.815
X3.915Y2.295
X3.925Y3.180
X3.929Y4.070
X3.950Y3.625
X3.960Y4.140
X3.975Y2.305
X3.975Y5.975
X4.000Y3.625
X4.025Y4.125
X4.037Y3.200
X4.040Y5.870
X4.050Y3.625
X4.055Y3.845
X4.055Y3.900
X4.070Y2.790
X4.075Y4.125
X4.075Y4.220
X4.085Y5.895
X4.100Y3.575
X4.100Y3.625
X4.100Y6.025
X4.110Y5.705
X4.120Y4.175
X4.135Y2.320
X4.135Y5.855
X4.140Y3.165
X4.160Y5.750
X4.175Y4.275
X4.190Y2.320
X4.190Y3.210
X4.200Y6.025
X4.215Y5.720
X4.225Y4.275
X4.240Y2.730
X4.240Y2.995
X4.250Y3.230
X4.275Y3.625
X4.275Y4.275
X4.305Y3.360
X4.325Y4.275
X4.340Y3.470
X4.345Y2.875
X4.355Y3.195
X4.375Y4.275
X4.395Y2.765
X4.400Y3.425
X4.400Y3.650
X4.421Y3.325
X4.425Y4.275
X4.428Y3.385
X4.450Y4.750
X4.450Y5.975
X4.450Y6.025
X4.460Y4.035
X4.475Y4.275
X4.500Y2.950
X4.510Y4.205
X4.550Y5.925
X4.550Y6.025
X4.555Y3.830
X4.575Y4.030
X4.605Y3.830
X4.610Y5.735
X4.625Y5.975
X4.640Y3.455
X4.640Y3.595
X4.640Y4.640
X4.675Y5.925
X4.705Y4.550
X4.720Y3.605
X4.730Y2.335
X4.730Y3.195
X4.750Y5.925
X4.750Y5.975
X4.750Y6.025
X4.775Y3.215
X4.775Y3.365
X4.775Y3.830
X4.800Y2.730
X4.805Y4.050
X4.815Y3.190
X4.815Y4.785
X4.825Y5.925
X4.830Y3.830
X4.840Y2.595
X4.850Y3.500
X4.850Y4.825
X4.850Y4.875
X4.850Y5.350
X4.870Y4.785
X4.875Y2.700
X4.880Y3.220
X4.900Y5.925
X4.900Y5.975
X4.900Y6.025
X4.905Y4.030
X4.915Y2.660
X4.915Y2.785
X4.925Y4.275
X4.940Y2.535
X4.950Y4.045
X4.975Y4.275
X4.975Y5.925
X5.000Y2.375
X5.010Y4.075
X5.025Y2.835
X5.025Y4.275
X5.050Y2.520
X5.050Y5.975
X5.055Y3.125
X5.060Y5.780
X5.075Y2.985
X5.075Y3.500
X5.075Y4.600
X5.075Y4.700
X5.075Y4.800
X5.075Y4.850
X5.075Y4.900
X5.075Y4.975
X5.075Y5.375
X5.075Y5.425
X5.075Y5.475
X5.075Y5.600
X5.085Y3.630
X5.100Y2.520
X5.100Y2.655
X5.125Y2.425
X5.125Y2.985
X5.125Y3.605
X5.125Y4.325
X5.125Y4.975
X5.125Y5.475
X5.125Y5.925
X5.125Y6.025
X5.150Y2.475
X5.160Y3.330
X5.165Y2.635
X5.165Y3.835
X5.165Y4.665
X5.175Y2.985
X5.175Y4.325
X5.175Y4.975
X5.175Y5.475
X5.175Y5.600
X5.190Y3.285
X5.190Y3.595
X5.200Y5.925
X5.200Y6.025
X5.205Y5.345
X5.220Y2.985
X5.225Y3.565
X5.225Y4.325
X5.225Y4.975
X5.240Y2.520
X5.250Y5.515
X5.270Y2.480
X5.270Y2.720
X5.270Y3.240
X5.275Y2.670
X5.275Y3.530
X5.275Y4.975
X5.275Y5.600
X5.275Y5.925
X5.275Y5.975
X5.300Y4.600
X5.300Y4.790
X5.300Y5.825
X5.315Y3.500
X5.325Y2.975
X5.325Y4.325
X5.325Y4.975
X5.325Y5.545
X5.340Y2.680
X5.350Y5.375
X5.350Y5.925
X5.350Y5.975
X5.356Y2.720
X5.360Y3.500
X5.375Y4.975
X5.375Y5.600
X5.382Y4.175
X5.395Y4.225
X5.400Y2.730
X5.400Y3.470
X5.410Y2.945
X5.425Y4.725
X5.425Y4.975
X5.425Y5.925
X5.425Y6.025
X5.435Y3.435
X5.440Y3.975
X5.475Y5.600
X5.484Y4.970
X5.490Y2.945
X5.490Y3.415
X5.500Y3.875
X5.500Y3.925
X5.500Y5.925
X5.500Y5.975
X5.525Y5.500
X5.530Y3.385
X5.535Y3.975
X5.535Y4.970
X5.550Y3.850
X5.550Y4.170
X5.570Y4.395
X5.575Y4.725
X5.575Y5.925
X5.575Y6.025
X5.580Y3.375
X5.585Y4.970
X5.600Y3.850
X5.600Y4.360
X5.600Y5.600
X5.610Y2.945
X5.625Y4.600
X5.625Y4.725
X5.630Y4.320
X5.635Y4.970
X5.650Y3.850
X5.650Y5.500
X5.650Y5.975
X5.655Y4.285
X5.675Y4.725
X5.685Y4.250
X5.685Y4.970
X5.700Y3.850
X5.700Y5.600
X5.725Y4.600
X5.725Y4.725
X5.725Y5.975
X5.735Y4.970
X5.750Y2.680
X5.750Y3.850
X5.775Y5.350
X5.780Y2.475
X5.780Y4.240
X5.790Y5.610
X5.800Y3.450
X5.800Y3.500
X5.800Y3.550
X5.800Y3.600
X5.800Y3.650
X5.800Y3.700
X5.800Y3.750
X5.800Y3.800
X5.800Y3.875
X5.800Y4.200
X5.800Y4.975
X5.800Y5.925
X5.800Y5.975
X5.800Y6.025
X5.805Y4.665
X5.805Y4.715
X5.805Y4.760
X5.820Y2.930
X5.825Y4.350
X5.825Y4.580
X5.825Y5.825
X5.830Y5.035
X5.850Y5.570
X5.875Y4.725
X5.875Y4.925
X5.875Y5.925
X5.910Y5.070
X5.920Y2.325
X5.925Y4.725
X5.930Y5.575
X5.950Y5.925
X5.950Y5.975
X5.950Y6.025
X5.955Y3.050
X5.975Y4.725
X5.975Y5.050
X5.980Y2.675
X5.980Y4.635
X5.996Y5.550
X6.025Y2.980
X6.025Y4.725
X6.025Y5.075
X6.025Y5.925
X6.035Y3.240
X6.055Y4.790
X6.075Y4.725
X6.075Y4.840
X6.075Y5.100
X6.075Y5.200
X6.075Y5.300
X6.075Y5.350
X6.085Y3.945
X6.090Y2.850
X6.090Y5.580
X6.095Y3.470
X6.095Y5.390
X6.100Y5.490
X6.100Y5.925
X6.100Y6.025
X6.105Y3.205
X6.105Y3.350
X6.105Y3.710
X6.105Y3.894
X6.105Y5.825
X6.120Y2.815
X6.140Y4.065
X6.145Y4.220
X6.145Y4.270
X6.145Y4.320
X6.145Y4.370
X6.145Y5.855
X6.150Y4.500
X6.155Y4.115
X6.175Y2.690
X6.200Y5.815
X6.220Y2.690
X6.225Y4.120
X6.225Y4.175
X6.250Y5.840
X6.255Y2.280
X6.260Y4.070
X6.265Y5.135
X6.270Y2.815
X6.275Y3.970
X6.290Y3.660
X6.300Y2.415
X6.300Y3.000
X6.300Y3.200
X6.300Y3.430
X6.300Y3.915
X6.300Y4.850
X6.300Y5.375
X6.325Y3.725
X6.325Y4.215
X6.330Y2.680
X6.330Y5.825
X6.340Y2.970
X6.350Y4.650
X6.350Y5.925
X6.350Y5.975
X6.375Y2.310
X6.375Y3.630
X6.375Y3.680
X6.375Y3.750
X6.380Y5.800
X6.395Y3.430
X6.395Y3.480
X6.405Y3.790
X6.415Y4.690
X6.425Y2.400
X6.425Y5.925
X6.425Y5.975
X6.450Y2.335
X6.465Y2.555
X6.465Y3.085
X6.465Y3.129
X6.480Y2.790
X6.500Y5.925
X6.500Y6.025
X6.510Y2.515
X6.510Y3.265
X6.510Y4.740
X6.510Y4.790
X6.510Y4.840
X6.510Y4.890
X6.510Y4.940
X6.515Y3.530
X6.515Y3.580
X6.515Y3.680
X6.520Y3.380
X6.520Y3.970
X6.520Y4.540
X6.520Y4.590
X6.520Y4.640
X6.535Y3.830
X6.545Y5.300
X6.555Y4.420
X6.555Y4.990
X6.560Y2.515
X6.560Y3.265
X6.565Y5.455
X6.575Y5.925
X6.575Y6.025
X6.585Y3.780
X6.585Y3.825
X6.590Y3.870
X6.590Y4.020
X6.595Y4.170
X6.615Y3.420
X6.615Y4.510
X6.620Y3.905
X6.620Y4.070
X6.650Y5.925
X6.650Y6.025
X6.655Y3.970
X6.655Y4.120
X6.660Y3.665
X6.700Y3.530
X6.700Y3.705
X6.715Y4.335
X6.745Y3.830
X6.745Y4.420
X6.750Y6.025
X6.765Y4.990
X6.775Y3.955
X6.780Y3.335
X6.780Y3.535
X6.785Y3.780
X6.785Y4.295
X6.785Y4.370
X6.785Y4.940
X6.800Y6.025
X6.905Y4.175
X6.905Y4.370
X6.910Y3.200
X6.920Y3.370
X6.925Y2.830
X6.990Y3.470
X7.125Y2.485
X7.135Y4.260
X7.165Y4.540
X7.195Y3.155
X7.200Y4.225
X7.200Y4.910
X7.230Y3.965
X7.240Y4.155
X7.240Y4.965
X7.250Y3.150
X7.295Y3.020
X7.295Y3.285
X7.295Y4.150
X7.315Y5.220
X7.350Y2.475
X7.350Y2.825
X7.350Y3.175
X7.350Y3.525
X7.350Y3.875
X7.350Y4.225
X7.350Y4.575
X7.350Y4.925
X7.400Y2.575
X7.400Y2.925
X7.400Y3.275
X7.400Y3.625
X7.400Y3.975
X7.400Y4.325
X7.400Y4.675
X7.400Y5.025
X7.450Y2.475
X7.450Y2.825
X7.450Y3.175
X7.450Y3.525
X7.450Y3.875
X7.450Y4.225
X7.450Y4.575
X7.450Y4.925
X7.485Y2.995
X7.485Y3.825
X7.500Y2.575
X7.500Y2.925
X7.500Y3.275
X7.500Y3.625
X7.500Y3.975
X7.500Y4.325
X7.500Y4.675
X7.500Y5.025
X7.520Y3.790
X7.525Y5.690
X7.535Y5.390
X7.540Y2.965
X7.550Y2.475
X7.550Y2.825
X7.550Y3.175
X7.550Y3.525
X7.550Y3.875
X7.550Y4.225
X7.550Y4.575
X7.550Y4.925
X7.585Y3.015
X7.600Y2.575
X7.600Y2.925
X7.600Y3.275
X7.600Y3.625
X7.600Y3.975
X7.600Y4.325
X7.600Y4.675
X7.600Y5.025
X7.605Y3.810
X7.650Y2.475
X7.650Y2.825
X7.650Y3.175
X7.650Y3.525
X7.650Y3.875
X7.650Y4.225
X7.650Y4.575
X7.650Y4.925
X7.700Y2.575
X7.700Y2.925
X7.700Y3.275
X7.700Y3.625
X7.700Y3.975
X7.700Y4.325
X7.700Y4.675
X7.700Y5.025
X7.750Y2.475
X7.750Y2.825
X7.750Y3.175
X7.750Y3.525
X7.750Y3.875
X7.750Y4.225
X7.750Y4.575
X7.750Y4.925
X7.800Y2.575
X7.800Y2.925
X7.800Y3.275
X7.800Y3.625
X7.800Y3.975
X7.800Y4.325
X7.800Y4.675
X7.800Y5.025
X7.850Y2.475
X7.850Y2.825
X7.850Y3.175
X7.850Y3.525
X7.850Y3.875
X7.850Y4.225
X7.850Y4.575
X7.850Y4.925
X7.885Y5.290
X7.900Y2.575
X7.900Y2.925
X7.900Y3.275
X7.900Y3.380
X7.900Y3.625
X7.900Y3.975
X7.900Y4.325
X7.900Y4.675
X7.900Y5.025
X7.935Y5.240
X7.950Y2.475
X7.950Y2.825
X7.950Y3.175
X7.950Y3.525
X7.950Y3.875
X7.950Y4.225
X7.950Y4.575
X7.950Y4.925
X8.000Y2.575
X8.000Y2.925
X8.000Y3.275
X8.000Y3.625
X8.000Y3.975
X8.000Y4.325
X8.000Y4.675
X8.000Y5.025
X8.030Y5.665
X8.050Y2.475
X8.050Y2.825
X8.050Y3.175
X8.050Y3.460
X8.050Y3.525
X8.050Y3.875
X8.050Y4.225
X8.050Y4.575
X8.050Y4.925
X8.100Y2.575
X8.100Y2.925
X8.100Y3.275
X8.100Y3.380
X8.100Y3.625
X8.100Y3.975
X8.100Y4.325
X8.100Y4.675
X8.100Y5.025
X8.150Y2.475
X8.150Y2.825
X8.150Y3.175
X8.150Y3.380
X8.150Y3.525
X8.150Y3.875
X8.150Y4.225
X8.150Y4.575
X8.150Y4.925
X8.180Y3.415
X8.200Y2.575
X8.200Y2.925
X8.200Y3.275
X8.200Y3.625
X8.200Y3.975
X8.200Y4.325
X8.200Y4.675
X8.200Y5.025
X8.250Y2.475
X8.250Y2.825
X8.250Y3.175
X8.250Y3.380
X8.250Y3.525
X8.250Y3.875
X8.250Y4.225
X8.250Y4.575
X8.250Y4.925
X8.300Y2.575
X8.300Y2.925
X8.300Y3.275
X8.300Y3.625
X8.300Y3.975
X8.300Y4.325
X8.300Y4.675
X8.300Y5.025
X8.350Y2.475
X8.350Y2.825
X8.350Y3.175
X8.350Y3.380
X8.350Y3.525
X8.350Y3.875
X8.350Y4.225
X8.350Y4.575
X8.350Y4.925
X8.400Y2.575
X8.400Y2.925
X8.400Y3.275
X8.400Y3.625
X8.400Y3.975
X8.400Y4.325
X8.400Y4.675
X8.400Y5.025
X8.450Y2.475
X8.450Y2.825
X8.450Y3.175
X8.450Y3.360
X8.450Y3.525
X8.450Y3.875
X8.450Y4.225
X8.450Y4.575
X8.450Y4.925
X8.500Y2.575
X8.500Y2.845
X8.500Y2.925
X8.500Y3.275
X8.500Y3.625
X8.500Y3.975
X8.500Y4.325
X8.500Y4.675
X8.500Y5.025
X8.550Y2.475
X8.550Y2.825
X8.550Y3.175
X8.550Y3.525
X8.550Y3.875
X8.550Y4.225
X8.550Y4.575
X8.550Y4.925
X8.600Y2.575
X8.600Y2.925
X8.600Y3.275
X8.600Y3.440
X8.600Y3.625
X8.600Y3.975
X8.600Y4.325
X8.600Y4.675
X8.600Y5.025
X8.650Y2.475
X8.650Y2.825
X8.650Y3.175
X8.650Y3.525
X8.650Y3.875
X8.650Y4.225
X8.650Y4.575
X8.650Y4.925
X8.700Y2.575
X8.700Y2.925
X8.700Y3.200
X8.700Y3.275
X8.700Y3.625
X8.700Y3.975
X8.700Y4.325
X8.700Y4.675
X8.700Y5.025
X8.705Y3.340
X8.750Y2.475
X8.750Y2.825
X8.750Y3.175
X8.750Y3.525
X8.750Y3.875
X8.750Y4.225
X8.750Y4.575
X8.750Y4.925
X8.800Y2.575
X8.800Y2.925
X8.800Y3.275
X8.800Y3.625
X8.800Y3.975
X8.800Y4.325
X8.800Y4.675
X8.800Y5.025
X8.850Y2.475
X8.850Y2.825
X8.850Y3.175
X8.850Y3.525
X8.850Y3.875
X8.850Y4.225
X8.850Y4.575
X8.850Y4.925
X8.900Y2.575
X8.900Y2.925
X8.900Y3.275
X8.900Y3.625
X8.900Y3.975
X8.900Y4.325
X8.900Y4.675
X8.900Y5.025
X8.950Y2.475
X8.950Y2.825
X8.950Y3.175
X8.950Y3.525
X8.950Y3.875
X8.950Y3.995
X8.950Y4.225
X8.950Y4.575
X8.950Y4.925
X9.000Y2.575
X9.000Y2.925
X9.000Y3.275
X9.000Y3.625
X9.000Y3.975
X9.000Y4.325
X9.000Y4.675
X9.000Y5.025
X9.050Y2.475
X9.050Y2.825
X9.050Y3.175
X9.050Y3.525
X9.050Y3.875
X9.050Y4.225
X9.050Y4.575
X9.050Y4.925
X9.100Y2.575
X9.100Y2.925
X9.100Y3.275
X9.100Y3.625
X9.100Y3.975
X9.100Y4.325
X9.100Y4.675
X9.100Y5.025
X9.130Y2.505
X9.340Y2.545
X9.350Y2.475
X9.350Y2.825
X9.350Y3.175
X9.350Y3.525
X9.350Y3.875
X9.350Y4.225
X9.350Y4.575
X9.350Y4.925
X9.400Y2.575
X9.400Y2.925
X9.400Y3.275
X9.400Y3.625
X9.400Y3.975
X9.400Y4.325
X9.400Y4.675
X9.400Y5.025
X9.450Y2.475
X9.450Y2.825
X9.450Y3.175
X9.450Y3.525
X9.450Y3.875
X9.450Y4.225
X9.450Y4.575
X9.450Y4.925
X9.500Y2.575
X9.500Y2.925
X9.500Y3.275
X9.500Y3.625
X9.500Y3.975
X9.500Y4.325
X9.500Y4.675
X9.500Y5.025
X9.550Y2.475
X9.550Y2.685
X9.550Y2.825
X9.550Y3.175
X9.550Y3.525
X9.550Y3.875
X9.550Y4.225
X9.550Y4.575
X9.550Y4.925
X9.600Y2.575
X9.600Y2.660
X9.600Y2.925
X9.600Y3.275
X9.600Y3.625
X9.600Y3.975
X9.600Y4.325
X9.600Y4.675
X9.600Y5.025
X9.650Y2.475
X9.650Y2.825
X9.650Y3.175
X9.650Y3.525
X9.650Y3.875
X9.650Y4.225
X9.650Y4.575
X9.650Y4.925
X9.700Y2.575
X9.700Y2.925
X9.700Y3.275
X9.700Y3.625
X9.700Y3.975
X9.700Y4.325
X9.700Y4.675
X9.700Y5.025
X9.750Y2.390
X9.750Y2.475
X9.750Y2.825
X9.750Y3.175
X9.750Y3.525
X9.750Y3.875
X9.750Y4.225
X9.750Y4.575
X9.750Y4.925
X9.800Y2.575
X9.800Y2.925
X9.800Y3.275
X9.800Y3.625
X9.800Y3.975
X9.800Y4.325
X9.800Y4.675
X9.800Y5.025
X9.850Y2.475
X9.850Y2.825
X9.850Y3.175
X9.850Y3.525
X9.850Y3.875
X9.850Y4.035
X9.850Y4.225
X9.850Y4.575
X9.850Y4.925
X9.900Y2.575
X9.900Y2.925
X9.900Y3.275
X9.900Y3.340
X9.900Y3.625
X9.900Y3.975
X9.900Y4.325
X9.900Y4.675
X9.900Y5.025
X9.950Y2.475
X9.950Y2.735
X9.950Y2.825
X9.950Y3.175
X9.950Y3.525
X9.950Y3.875
X9.950Y4.040
X9.950Y4.225
X9.950Y4.575
X9.950Y4.925
X9.995Y2.510
X10.000Y2.575
X10.000Y2.925
X10.000Y3.275
X10.000Y3.625
X10.000Y3.975
X10.000Y4.325
X10.000Y4.675
X10.000Y4.825
X10.000Y5.025
X10.050Y2.475
X10.050Y2.730
X10.050Y2.825
X10.050Y3.175
X10.050Y3.525
X10.050Y3.875
X10.050Y4.040
X10.050Y4.225
X10.050Y4.575
X10.050Y4.925
X10.090Y2.705
X10.095Y2.520
X10.100Y2.575
X10.100Y2.925
X10.100Y3.275
X10.100Y3.625
X10.100Y3.975
X10.100Y4.325
X10.100Y4.675
X10.100Y4.865
X10.100Y5.025
X10.150Y2.475
X10.150Y2.710
X10.150Y2.825
X10.150Y3.175
X10.150Y3.525
X10.150Y3.875
X10.150Y4.040
X10.150Y4.225
X10.150Y4.575
X10.150Y4.925
X10.200Y2.575
X10.200Y2.660
X10.200Y2.925
X10.200Y3.275
X10.200Y3.625
X10.200Y3.975
X10.200Y4.325
X10.200Y4.675
X10.200Y5.025
X10.250Y2.395
X10.250Y2.475
X10.250Y2.825
X10.250Y3.175
X10.250Y3.525
X10.250Y3.875
X10.250Y4.225
X10.250Y4.575
X10.250Y4.925
X10.300Y2.575
X10.300Y2.925
X10.300Y3.275
X10.300Y3.625
X10.300Y3.975
X10.300Y4.325
X10.300Y4.675
X10.300Y5.025
X10.350Y2.475
X10.350Y2.825
X10.350Y3.175
X10.350Y3.525
X10.350Y3.875
X10.350Y4.225
X10.350Y4.575
X10.350Y4.925
X10.400Y2.575
X10.400Y2.925
X10.400Y3.100
X10.400Y3.275
X10.400Y3.625
X10.400Y3.975
X10.400Y4.325
X10.400Y4.675
X10.400Y5.025
X10.450Y2.475
X10.450Y2.825
X10.450Y3.175
X10.450Y3.525
X10.450Y3.875
X10.450Y4.225
X10.450Y4.575
X10.450Y4.925
X10.500Y2.575
X10.500Y2.925
X10.500Y3.275
X10.500Y3.625
X10.500Y3.975
X10.500Y4.325
X10.500Y4.675
X10.500Y5.025
X10.550Y2.475
X10.550Y2.825
X10.550Y3.175
X10.550Y3.525
X10.550Y3.875
X10.550Y4.225
X10.550Y4.575
X10.550Y4.925
X10.600Y2.390
X10.600Y2.575
X10.600Y2.925
X10.600Y3.275
X10.600Y3.625
X10.600Y3.975
X10.600Y4.325
X10.600Y4.675
X10.600Y5.025
X10.650Y2.475
X10.650Y2.825
X10.650Y3.175
X10.650Y3.525
X10.650Y3.875
X10.650Y4.225
X10.650Y4.575
X10.650Y4.925
X10.700Y2.575
X10.700Y2.925
X10.700Y3.190
X10.700Y3.275
X10.700Y3.625
X10.700Y3.975
X10.700Y4.325
X10.700Y4.675
X10.700Y5.025
X10.750Y2.475
X10.750Y2.825
X10.750Y3.175
X10.750Y3.525
X10.750Y3.875
X10.750Y4.040
X10.750Y4.225
X10.750Y4.575
X10.750Y4.925
X10.800Y2.575
X10.800Y2.925
X10.800Y3.140
X10.800Y3.275
X10.800Y3.625
X10.800Y3.975
X10.800Y4.325
X10.800Y4.675
X10.800Y5.025
X10.850Y2.475
X10.850Y2.825
X10.850Y3.175
X10.850Y3.525
X10.850Y3.875
X10.850Y4.225
X10.850Y4.575
X10.850Y4.925
X10.900Y2.575
X10.900Y2.925
X10.900Y3.100
X10.900Y3.275
X10.900Y3.625
X10.900Y3.975
X10.900Y4.325
X10.900Y4.675
X10.900Y5.025
X10.950Y2.475
X10.950Y2.825
X10.950Y3.175
X10.950Y3.525
X10.950Y3.875
X10.950Y4.225
X10.950Y4.360
X10.950Y4.575
X10.950Y4.925
X11.000Y2.575
X11.000Y2.925
X11.000Y3.100
X11.000Y3.275
X11.000Y3.625
X11.000Y3.975
X11.000Y4.325
X11.000Y4.675
X11.000Y5.025
X11.050Y2.475
X11.050Y2.825
X11.050Y3.175
X11.050Y3.525
X11.050Y3.875
X11.050Y4.225
X11.050Y4.400
X11.050Y4.575
X11.050Y4.925
X11.100Y2.575
X11.100Y2.925
X11.100Y3.275
X11.100Y3.625
X11.100Y3.975
X11.100Y4.325
X11.100Y4.675
X11.100Y5.025
X11.220Y3.930
X11.220Y4.360
X11.320Y2.510
X11.320Y2.680
X11.320Y4.095
X11.495Y5.180
X11.540Y4.860
X11.550Y3.025
X11.555Y4.930
X11.585Y3.605
X11.605Y2.865
X11.605Y2.945
X11.605Y4.975
X11.608Y2.785
X11.630Y3.075
X11.640Y2.330
X11.640Y3.155
X11.641Y3.200
X11.645Y2.733
X11.650Y2.832
X11.650Y2.990
X11.655Y3.575
X11.690Y3.610
X11.690Y5.020
X11.735Y3.625
X11.745Y2.753
X11.745Y2.970
X11.750Y2.812
X11.750Y2.855
X11.750Y3.015
X11.750Y3.085
X11.755Y3.690
X11.769Y3.180
X11.785Y2.885
X11.790Y2.460
X11.795Y3.085
X11.795Y3.545
X11.800Y3.035
X11.800Y3.420
X11.800Y3.485
X11.805Y3.355
X11.808Y2.670
X11.815Y3.695
X11.820Y3.183
X11.820Y4.830
X11.825Y2.715
X11.825Y2.850
X11.845Y3.320
X11.845Y3.385
X11.845Y3.455
X11.845Y3.515
X11.855Y2.480
X11.855Y2.925
X11.855Y3.150
X11.865Y4.755
X11.870Y3.695
X11.880Y2.305
X11.895Y3.010
X11.895Y4.825
X11.900Y2.495
X11.930Y3.050
X11.935Y3.695
X11.935Y4.535
X11.945Y2.460
X11.970Y4.710
X11.980Y3.020
X11.985Y3.700
X11.990Y2.510
X11.990Y3.180
X11.995Y4.360
X12.005Y2.555
X12.020Y2.965
X12.025Y2.715
X12.025Y3.150
X12.055Y2.785
X12.055Y4.535
X12.055Y4.785
X12.060Y2.675
X12.065Y2.950
X12.085Y2.325
X12.095Y4.175
X12.100Y2.920
X12.105Y2.855
X12.110Y2.800
X12.110Y3.350
X12.110Y3.415
X12.120Y2.510
X12.135Y2.345
X12.135Y2.760
X12.150Y3.325
X12.150Y3.440
X12.155Y4.225
X12.165Y4.345
X12.170Y3.185
X12.185Y2.435
X12.200Y3.305
X12.200Y3.435
X12.200Y4.635
X12.215Y2.545
X12.220Y2.875
X12.220Y2.920
X12.220Y3.185
X12.220Y4.235
X12.240Y2.670
X12.240Y2.715
X12.245Y3.435
X12.250Y3.150
X12.255Y4.790
X12.260Y2.790
X12.275Y4.630
X12.280Y3.235
X12.290Y3.430
X12.290Y4.205
X12.300Y2.575
X12.305Y2.445
X12.330Y3.410
X12.350Y2.670
X12.365Y3.440
X12.380Y2.705
X12.380Y3.130
X12.400Y3.410
X12.425Y5.225
X12.435Y3.245
X12.435Y3.555
X12.445Y4.000
X12.455Y4.675
X12.470Y3.175
X12.470Y3.220
X12.470Y3.525
X12.495Y4.155
X12.500Y2.855
X12.505Y3.550
X12.515Y2.612
X12.515Y3.160
X12.535Y4.305
X12.550Y3.550
X12.565Y4.620
X12.570Y4.140
X12.575Y3.755
X12.595Y4.070
X12.605Y4.585
X12.610Y2.375
X12.625Y4.035
X12.655Y4.595
X12.655Y4.805
X12.665Y2.919
X12.665Y3.405
X12.670Y2.650
X12.675Y2.325
X12.680Y2.535
X12.680Y2.586
X12.680Y2.785
X12.685Y3.485
X12.695Y3.705
X12.695Y4.100
X12.695Y4.145
X12.710Y3.375
X12.715Y2.960
X12.715Y3.150
X12.740Y3.705
X12.745Y5.130
X12.785Y2.755
X12.785Y3.715
X12.790Y2.545
X12.790Y2.820
X12.790Y2.875
X12.795Y3.525
X12.820Y3.290
X12.830Y2.625
X12.855Y3.705
X12.870Y2.745
X12.875Y5.200
X12.885Y2.620
X12.886Y3.490
X12.905Y3.705
X12.905Y4.500
X12.925Y2.475
X12.925Y3.345
X12.925Y4.430
X12.937Y2.295
X12.955Y3.705
X12.955Y5.035
X12.963Y3.540
X12.965Y2.545
X12.965Y2.665
X12.975Y4.295
X13.015Y2.625
X13.045Y5.035
X13.050Y5.160
X13.075Y2.605
X13.080Y2.485
X13.095Y3.800
X13.105Y2.695
X13.140Y2.480
X13.142Y3.490
X13.150Y3.740
X13.170Y2.555
X13.185Y3.400
X13.190Y3.795
X13.200Y3.710
X13.235Y3.540
X13.240Y3.795
X13.250Y3.265
X13.270Y3.510
X13.280Y3.725
X13.285Y3.795
X13.320Y2.555
X13.365Y3.530
X13.390Y2.525
X13.424Y3.530
X13.425Y3.335
X13.450Y3.725
X13.455Y4.310
X13.470Y4.765
X13.475Y5.085
X13.480Y2.490
X13.480Y5.155
X13.501Y3.540
X13.530Y4.240
X13.530Y4.605
X13.540Y2.950
X13.545Y5.125
X13.570Y3.335
X13.575Y3.695
X13.575Y5.185
X13.605Y2.465
X13.615Y4.400
X13.620Y2.287
X13.620Y4.270
X13.650Y3.710
X13.655Y3.540
X13.695Y3.124
X13.695Y3.226
X13.725Y2.920
X13.725Y3.155
X13.725Y4.740
X13.730Y2.585
X13.735Y2.790
X13.735Y2.842
X13.745Y3.430
X13.750Y2.284
X13.765Y4.165
X13.770Y3.600
X13.855Y3.960
X13.890Y3.925
X13.905Y2.791
X13.905Y2.919
X13.905Y2.970
X13.905Y3.265
X13.910Y2.690
X13.955Y2.510
X14.020Y3.195
X14.095Y2.505
X14.095Y5.025
X14.100Y2.875
X14.110Y5.235
X14.120Y3.075
X14.150Y5.150
T2
X2.775Y2.875
X2.865Y3.855
X2.865Y3.955
X2.865Y4.655
X2.865Y4.855
X2.975Y2.875
X3.195Y2.280
X3.225Y2.725
X3.295Y2.280
X3.350Y5.000
X3.350Y5.350
X3.350Y5.625
X3.425Y2.725
X3.450Y5.000
X3.450Y5.350
X3.450Y5.625
X3.475Y3.125
X3.475Y3.225
X3.475Y3.325
X3.475Y3.425
X3.475Y3.525
X3.475Y3.625
X3.475Y3.725
X3.475Y3.825
X3.475Y3.925
X3.500Y5.825
X3.550Y2.975
X3.550Y5.000
X3.550Y5.350
X3.550Y5.625
X3.600Y5.825
X3.625Y3.925
X3.625Y4.025
X3.625Y4.125
X3.625Y4.225
X3.625Y4.325
X3.625Y4.425
X3.625Y4.525
X3.625Y4.625
X3.625Y4.725
X3.650Y2.975
X3.650Y5.000
X3.650Y5.350
X3.650Y5.625
X3.725Y2.575
X3.725Y2.875
X3.750Y5.000
X3.750Y5.350
X3.750Y5.625
X3.825Y2.575
X3.825Y2.875
X3.850Y5.000
X3.850Y5.350
X3.850Y5.625
X3.925Y2.575
X3.925Y2.875
X3.950Y5.000
X3.950Y5.350
X3.950Y5.625
X4.025Y2.575
X4.025Y2.875
X4.050Y5.000
X4.050Y5.350
X4.050Y5.625
X4.145Y2.670
X4.145Y2.770
X4.150Y5.000
X4.150Y5.350
X4.150Y5.625
X4.235Y2.545
X4.275Y4.650
X4.275Y4.950
X4.300Y5.625
X4.300Y5.725
X4.310Y2.370
X4.335Y2.545
X4.375Y4.650
X4.375Y4.950
X4.475Y4.650
X4.475Y4.950
X4.485Y2.545
X4.510Y2.370
X4.575Y4.650
X4.575Y4.950
X4.585Y2.545
X4.675Y4.850
X4.675Y4.950
X4.775Y4.850
X4.775Y4.950
X6.625Y5.305
X6.625Y5.425
X6.625Y5.615
X6.725Y5.305
X6.725Y5.425
X6.725Y5.615
X6.825Y5.305
X6.825Y5.425
X6.825Y5.615
X6.925Y5.305
X6.925Y5.425
X6.925Y5.615
X7.025Y5.305
X7.025Y5.425
X7.025Y5.615
X7.125Y5.305
X7.125Y5.425
X7.125Y5.615
X7.225Y5.305
X7.225Y5.425
X7.225Y5.615
X7.325Y5.305
X7.325Y5.425
X7.325Y5.615
X7.425Y5.305
X7.425Y5.425
X7.425Y5.615
X11.655Y3.935
X11.655Y4.035
X11.655Y4.135
X11.655Y4.235
X11.655Y4.335
X11.655Y4.435
X11.655Y4.535
X11.655Y4.635
X11.655Y4.735
X11.655Y4.835
X11.655Y4.935
X11.755Y3.835
X11.755Y3.935
X11.755Y4.035
X11.755Y4.135
X11.755Y4.235
X11.755Y4.335
X11.755Y4.435
X11.755Y4.535
X11.755Y4.635
X11.755Y4.735
X11.755Y4.835
X11.755Y4.935
X11.755Y5.035
X11.855Y3.835
X11.855Y3.935
X11.855Y4.935
X11.855Y5.035
X11.955Y3.835
X11.955Y3.935
X11.955Y4.935
X11.955Y5.035
X12.055Y3.835
X12.055Y3.935
X12.055Y4.935
X12.055Y5.035
X12.155Y3.835
X12.155Y3.935
X12.155Y4.935
X12.155Y5.035
X12.245Y2.315
X12.245Y2.395
X12.255Y3.835
X12.255Y3.935
X12.255Y4.935
X12.255Y5.035
X12.355Y3.835
X12.355Y3.935
X12.355Y4.935
X12.355Y5.035
X12.455Y3.835
X12.455Y3.935
X12.455Y4.935
X12.455Y5.035
X12.545Y2.315
X12.545Y2.395
X12.555Y3.835
X12.555Y3.935
X12.555Y4.935
X12.555Y5.035
X12.655Y3.835
X12.655Y3.935
X12.655Y4.935
X12.655Y5.035
X12.755Y3.835
X12.755Y3.935
X12.755Y4.035
X12.755Y4.135
X12.755Y4.235
X12.755Y4.335
X12.755Y4.435
X12.755Y4.535
X12.755Y4.635
X12.755Y4.735
X12.755Y4.835
X12.755Y4.935
X12.755Y5.035
X12.855Y3.935
X12.855Y4.035
X12.855Y4.135
X12.855Y4.235
X12.855Y4.335
X12.855Y4.435
X12.855Y4.535
X12.855Y4.635
X12.855Y4.735
X12.855Y4.835
X12.855Y4.935
X13.025Y4.125
X13.025Y4.225
X13.025Y4.325
X13.025Y4.425
X13.025Y4.525
X13.025Y4.625
X13.025Y4.725
X13.025Y4.825
X13.025Y4.925
X13.125Y4.025
X13.125Y4.125
X13.125Y4.225
X13.125Y4.325
X13.125Y4.425
X13.125Y4.525
X13.125Y4.625
X13.125Y4.725
X13.125Y4.825
X13.125Y4.925
X13.125Y5.025
X13.225Y4.025
X13.225Y4.125
X13.225Y4.925
X13.225Y5.025
X13.325Y4.025
X13.325Y4.125
X13.325Y4.925
X13.325Y5.025
X13.425Y4.025
X13.425Y4.125
X13.425Y4.925
X13.425Y5.025
X13.525Y4.025
X13.525Y4.125
X13.525Y4.925
X13.525Y5.025
X13.625Y4.025
X13.625Y4.125
X13.625Y4.925
X13.625Y5.025
X13.725Y4.025
X13.725Y4.125
X13.725Y4.925
X13.725Y5.025
X13.825Y4.025
X13.825Y4.125
X13.825Y4.925
X13.825Y5.025
X13.925Y4.025
X13.925Y4.125
X13.925Y4.225
X13.925Y4.325
X13.925Y4.425
X13.925Y4.525
X13.925Y4.625
X13.925Y4.725
X13.925Y4.825
X13.925Y4.925
X13.925Y5.025
X13.935Y3.325
X13.935Y3.405
X14.025Y4.125
X14.025Y4.225
X14.025Y4.325
X14.025Y4.425
X14.025Y4.525
X14.025Y4.625
X14.025Y4.725
X14.025Y4.825
X14.025Y4.925
X14.080Y3.620
X14.080Y3.820
X14.235Y3.325
X14.235Y3.405
T3
X2.325Y3.225
X2.325Y3.675
X2.325Y4.125
X2.325Y4.575
X2.675Y5.295
X2.675Y5.405
X2.675Y5.510
X2.675Y5.620
X2.775Y5.240
X2.775Y5.350
X2.775Y5.460
X2.775Y5.565
X2.775Y5.675
X3.675Y2.425
X3.775Y2.425
X3.875Y2.425
X3.975Y2.425
X4.075Y2.425
T4
X2.225Y3.125
X2.225Y3.325
X2.225Y3.575
X2.225Y3.775
X2.225Y4.025
X2.225Y4.225
X2.225Y4.475
X2.225Y4.675
X2.425Y3.125
X2.425Y3.325
X2.425Y3.575
X2.425Y3.775
X2.425Y4.025
X2.425Y4.225
X2.425Y4.475
X2.425Y4.675
T5
X7.025Y2.525
X7.025Y2.875
X7.025Y3.225
X7.025Y3.575
X7.025Y3.925
X7.025Y4.275
X7.025Y4.625
X7.025Y4.975
X9.225Y2.525
X9.225Y2.875
X9.225Y3.225
X9.225Y3.575
X9.225Y3.925
X9.225Y4.275
X9.225Y4.625
X9.225Y4.975
X11.425Y2.525
X11.425Y2.875
X11.425Y3.225
X11.425Y3.575
X11.425Y3.925
X11.425Y4.275
X11.425Y4.625
X11.425Y4.975
T6
X2.675Y4.955
X2.675Y5.955
T0
M30
