G04 (created by PCBNEW-RS274X (2012-apr-16-27)-stable) date Втр 01 Янв 2013 22:44:24*
G01*
G70*
G90*
%MOIN*%
G04 Gerber Fmt 3.4, Leading zero omitted, Abs format*
%FSLAX34Y34*%
G04 APERTURE LIST*
%ADD10C,0.006000*%
%ADD11C,0.008000*%
%ADD12C,0.060000*%
%ADD13R,0.050000X0.020000*%
%ADD14R,0.036000X0.036000*%
%ADD15R,0.110000X0.070000*%
%ADD16R,0.070000X0.110000*%
%ADD17C,0.120000*%
%ADD18R,0.045000X0.045000*%
%ADD19C,0.045000*%
%ADD20R,0.055000X0.055000*%
%ADD21C,0.055000*%
%ADD22C,0.070000*%
%ADD23O,0.200000X0.150000*%
%ADD24C,0.150000*%
%ADD25R,0.060000X0.060000*%
%ADD26R,0.080000X0.140000*%
%ADD27R,0.080000X0.060000*%
%ADD28R,0.060000X0.080000*%
%ADD29R,0.040000X0.180000*%
%ADD30R,0.020000X0.030000*%
%ADD31C,0.035000*%
%ADD32C,0.012000*%
%ADD33C,0.015000*%
G04 APERTURE END LIST*
G54D10*
G54D11*
X24668Y-59083D02*
X24325Y-59083D01*
X24496Y-59683D02*
X24496Y-59083D01*
X24125Y-59369D02*
X23925Y-59369D01*
X23839Y-59683D02*
X24125Y-59683D01*
X24125Y-59083D01*
X23839Y-59083D01*
X23639Y-59083D02*
X23239Y-59683D01*
X23239Y-59083D02*
X23639Y-59683D01*
X23097Y-59083D02*
X22754Y-59083D01*
X22925Y-59683D02*
X22925Y-59083D01*
X22554Y-59369D02*
X22354Y-59369D01*
X22268Y-59683D02*
X22554Y-59683D01*
X22554Y-59083D01*
X22268Y-59083D01*
G54D12*
X28650Y-38550D03*
X28650Y-39550D03*
X28650Y-46550D03*
X28650Y-48550D03*
G54D13*
X68350Y-39700D03*
X68350Y-40200D03*
X68350Y-40700D03*
X68350Y-41200D03*
X68350Y-41700D03*
X68350Y-42200D03*
X68350Y-42700D03*
X68350Y-43200D03*
X68350Y-43700D03*
X68350Y-44200D03*
X64550Y-44200D03*
X64550Y-43700D03*
X64550Y-43200D03*
X64550Y-42700D03*
X64550Y-42200D03*
X64550Y-41700D03*
X64550Y-41200D03*
X64550Y-40700D03*
X64550Y-40200D03*
X64550Y-39700D03*
X68350Y-33800D03*
X68350Y-34300D03*
X68350Y-34800D03*
X68350Y-35300D03*
X68350Y-35800D03*
X68350Y-36300D03*
X68350Y-36800D03*
X68350Y-37300D03*
X68350Y-37800D03*
X68350Y-38300D03*
X64550Y-38300D03*
X64550Y-37800D03*
X64550Y-37300D03*
X64550Y-36800D03*
X64550Y-36300D03*
X64550Y-35800D03*
X64550Y-35300D03*
X64550Y-34800D03*
X64550Y-34300D03*
X64550Y-33800D03*
X68350Y-45400D03*
X68350Y-45900D03*
X68350Y-46400D03*
X68350Y-46900D03*
X68350Y-47400D03*
X68350Y-47900D03*
X68350Y-48400D03*
X68350Y-48900D03*
X68350Y-49400D03*
X68350Y-49900D03*
X64550Y-49900D03*
X64550Y-49400D03*
X64550Y-48900D03*
X64550Y-48400D03*
X64550Y-47900D03*
X64550Y-47400D03*
X64550Y-46900D03*
X64550Y-46400D03*
X64550Y-45900D03*
X64550Y-45400D03*
G54D14*
X31000Y-50950D03*
X31700Y-50950D03*
X31350Y-50150D03*
X29200Y-37650D03*
X29900Y-37650D03*
X29550Y-36850D03*
X29200Y-50950D03*
X29900Y-50950D03*
X29550Y-50150D03*
G54D15*
X29900Y-38850D03*
X29900Y-40250D03*
G54D16*
X139550Y-26050D03*
X140950Y-26050D03*
X135300Y-42750D03*
X136700Y-42750D03*
G54D15*
X33150Y-34150D03*
X33150Y-35550D03*
G54D16*
X57800Y-24150D03*
X59200Y-24150D03*
X134700Y-47400D03*
X136100Y-47400D03*
G54D17*
X92250Y-46250D03*
X70250Y-46250D03*
X114250Y-46250D03*
G54D18*
X111000Y-46750D03*
G54D19*
X110500Y-45750D03*
X110000Y-46750D03*
X109500Y-45750D03*
X109000Y-46750D03*
X108500Y-45750D03*
X108000Y-46750D03*
X107500Y-45750D03*
X107000Y-46750D03*
X106500Y-45750D03*
X106000Y-46750D03*
X105500Y-45750D03*
X105000Y-46750D03*
X104500Y-45750D03*
X104000Y-46750D03*
X103500Y-45750D03*
X103000Y-46750D03*
X102500Y-45750D03*
X102000Y-46750D03*
X101500Y-45750D03*
X101000Y-46750D03*
X100500Y-45750D03*
X100000Y-46750D03*
X99500Y-45750D03*
X99000Y-46750D03*
X98500Y-45750D03*
X98000Y-46750D03*
X97500Y-45750D03*
X97000Y-46750D03*
X96500Y-45750D03*
X96000Y-46750D03*
X95500Y-45750D03*
X95000Y-46750D03*
X94500Y-45750D03*
X94000Y-46750D03*
X93500Y-45750D03*
X91000Y-46750D03*
X90500Y-45750D03*
X90000Y-46750D03*
X89500Y-45750D03*
X89000Y-46750D03*
X88500Y-45750D03*
X88000Y-46750D03*
X87500Y-45750D03*
X87000Y-46750D03*
X86500Y-45750D03*
X86000Y-46750D03*
X85500Y-45750D03*
X85000Y-46750D03*
X84500Y-45750D03*
X84000Y-46750D03*
X83500Y-45750D03*
X83000Y-46750D03*
X82500Y-45750D03*
X82000Y-46750D03*
X81500Y-45750D03*
X81000Y-46750D03*
X80500Y-45750D03*
X80000Y-46750D03*
X79500Y-45750D03*
X79000Y-46750D03*
X78500Y-45750D03*
X78000Y-46750D03*
X77500Y-45750D03*
X77000Y-46750D03*
X76500Y-45750D03*
X76000Y-46750D03*
X75500Y-45750D03*
X75000Y-46750D03*
X74500Y-45750D03*
X74000Y-46750D03*
X73500Y-45750D03*
G54D17*
X92250Y-35750D03*
X70250Y-35750D03*
X114250Y-35750D03*
G54D18*
X111000Y-36250D03*
G54D19*
X110500Y-35250D03*
X110000Y-36250D03*
X109500Y-35250D03*
X109000Y-36250D03*
X108500Y-35250D03*
X108000Y-36250D03*
X107500Y-35250D03*
X107000Y-36250D03*
X106500Y-35250D03*
X106000Y-36250D03*
X105500Y-35250D03*
X105000Y-36250D03*
X104500Y-35250D03*
X104000Y-36250D03*
X103500Y-35250D03*
X103000Y-36250D03*
X102500Y-35250D03*
X102000Y-36250D03*
X101500Y-35250D03*
X101000Y-36250D03*
X100500Y-35250D03*
X100000Y-36250D03*
X99500Y-35250D03*
X99000Y-36250D03*
X98500Y-35250D03*
X98000Y-36250D03*
X97500Y-35250D03*
X97000Y-36250D03*
X96500Y-35250D03*
X96000Y-36250D03*
X95500Y-35250D03*
X95000Y-36250D03*
X94500Y-35250D03*
X94000Y-36250D03*
X93500Y-35250D03*
X91000Y-36250D03*
X90500Y-35250D03*
X90000Y-36250D03*
X89500Y-35250D03*
X89000Y-36250D03*
X88500Y-35250D03*
X88000Y-36250D03*
X87500Y-35250D03*
X87000Y-36250D03*
X86500Y-35250D03*
X86000Y-36250D03*
X85500Y-35250D03*
X85000Y-36250D03*
X84500Y-35250D03*
X84000Y-36250D03*
X83500Y-35250D03*
X83000Y-36250D03*
X82500Y-35250D03*
X82000Y-36250D03*
X81500Y-35250D03*
X81000Y-36250D03*
X80500Y-35250D03*
X80000Y-36250D03*
X79500Y-35250D03*
X79000Y-36250D03*
X78500Y-35250D03*
X78000Y-36250D03*
X77500Y-35250D03*
X77000Y-36250D03*
X76500Y-35250D03*
X76000Y-36250D03*
X75500Y-35250D03*
X75000Y-36250D03*
X74500Y-35250D03*
X74000Y-36250D03*
X73500Y-35250D03*
G54D17*
X92250Y-42750D03*
X70250Y-42750D03*
X114250Y-42750D03*
G54D18*
X111000Y-43250D03*
G54D19*
X110500Y-42250D03*
X110000Y-43250D03*
X109500Y-42250D03*
X109000Y-43250D03*
X108500Y-42250D03*
X108000Y-43250D03*
X107500Y-42250D03*
X107000Y-43250D03*
X106500Y-42250D03*
X106000Y-43250D03*
X105500Y-42250D03*
X105000Y-43250D03*
X104500Y-42250D03*
X104000Y-43250D03*
X103500Y-42250D03*
X103000Y-43250D03*
X102500Y-42250D03*
X102000Y-43250D03*
X101500Y-42250D03*
X101000Y-43250D03*
X100500Y-42250D03*
X100000Y-43250D03*
X99500Y-42250D03*
X99000Y-43250D03*
X98500Y-42250D03*
X98000Y-43250D03*
X97500Y-42250D03*
X97000Y-43250D03*
X96500Y-42250D03*
X96000Y-43250D03*
X95500Y-42250D03*
X95000Y-43250D03*
X94500Y-42250D03*
X94000Y-43250D03*
X93500Y-42250D03*
X91000Y-43250D03*
X90500Y-42250D03*
X90000Y-43250D03*
X89500Y-42250D03*
X89000Y-43250D03*
X88500Y-42250D03*
X88000Y-43250D03*
X87500Y-42250D03*
X87000Y-43250D03*
X86500Y-42250D03*
X86000Y-43250D03*
X85500Y-42250D03*
X85000Y-43250D03*
X84500Y-42250D03*
X84000Y-43250D03*
X83500Y-42250D03*
X83000Y-43250D03*
X82500Y-42250D03*
X82000Y-43250D03*
X81500Y-42250D03*
X81000Y-43250D03*
X80500Y-42250D03*
X80000Y-43250D03*
X79500Y-42250D03*
X79000Y-43250D03*
X78500Y-42250D03*
X78000Y-43250D03*
X77500Y-42250D03*
X77000Y-43250D03*
X76500Y-42250D03*
X76000Y-43250D03*
X75500Y-42250D03*
X75000Y-43250D03*
X74500Y-42250D03*
X74000Y-43250D03*
X73500Y-42250D03*
G54D17*
X92250Y-28750D03*
X70250Y-28750D03*
X114250Y-28750D03*
G54D18*
X111000Y-29250D03*
G54D19*
X110500Y-28250D03*
X110000Y-29250D03*
X109500Y-28250D03*
X109000Y-29250D03*
X108500Y-28250D03*
X108000Y-29250D03*
X107500Y-28250D03*
X107000Y-29250D03*
X106500Y-28250D03*
X106000Y-29250D03*
X105500Y-28250D03*
X105000Y-29250D03*
X104500Y-28250D03*
X104000Y-29250D03*
X103500Y-28250D03*
X103000Y-29250D03*
X102500Y-28250D03*
X102000Y-29250D03*
X101500Y-28250D03*
X101000Y-29250D03*
X100500Y-28250D03*
X100000Y-29250D03*
X99500Y-28250D03*
X99000Y-29250D03*
X98500Y-28250D03*
X98000Y-29250D03*
X97500Y-28250D03*
X97000Y-29250D03*
X96500Y-28250D03*
X96000Y-29250D03*
X95500Y-28250D03*
X95000Y-29250D03*
X94500Y-28250D03*
X94000Y-29250D03*
X93500Y-28250D03*
X91000Y-29250D03*
X90500Y-28250D03*
X90000Y-29250D03*
X89500Y-28250D03*
X89000Y-29250D03*
X88500Y-28250D03*
X88000Y-29250D03*
X87500Y-28250D03*
X87000Y-29250D03*
X86500Y-28250D03*
X86000Y-29250D03*
X85500Y-28250D03*
X85000Y-29250D03*
X84500Y-28250D03*
X84000Y-29250D03*
X83500Y-28250D03*
X83000Y-29250D03*
X82500Y-28250D03*
X82000Y-29250D03*
X81500Y-28250D03*
X81000Y-29250D03*
X80500Y-28250D03*
X80000Y-29250D03*
X79500Y-28250D03*
X79000Y-29250D03*
X78500Y-28250D03*
X78000Y-29250D03*
X77500Y-28250D03*
X77000Y-29250D03*
X76500Y-28250D03*
X76000Y-29250D03*
X75500Y-28250D03*
X75000Y-29250D03*
X74500Y-28250D03*
X74000Y-29250D03*
X73500Y-28250D03*
G54D17*
X92250Y-25250D03*
X70250Y-25250D03*
X114250Y-25250D03*
G54D18*
X111000Y-25750D03*
G54D19*
X110500Y-24750D03*
X110000Y-25750D03*
X109500Y-24750D03*
X109000Y-25750D03*
X108500Y-24750D03*
X108000Y-25750D03*
X107500Y-24750D03*
X107000Y-25750D03*
X106500Y-24750D03*
X106000Y-25750D03*
X105500Y-24750D03*
X105000Y-25750D03*
X104500Y-24750D03*
X104000Y-25750D03*
X103500Y-24750D03*
X103000Y-25750D03*
X102500Y-24750D03*
X102000Y-25750D03*
X101500Y-24750D03*
X101000Y-25750D03*
X100500Y-24750D03*
X100000Y-25750D03*
X99500Y-24750D03*
X99000Y-25750D03*
X98500Y-24750D03*
X98000Y-25750D03*
X97500Y-24750D03*
X97000Y-25750D03*
X96500Y-24750D03*
X96000Y-25750D03*
X95500Y-24750D03*
X95000Y-25750D03*
X94500Y-24750D03*
X94000Y-25750D03*
X93500Y-24750D03*
X91000Y-25750D03*
X90500Y-24750D03*
X90000Y-25750D03*
X89500Y-24750D03*
X89000Y-25750D03*
X88500Y-24750D03*
X88000Y-25750D03*
X87500Y-24750D03*
X87000Y-25750D03*
X86500Y-24750D03*
X86000Y-25750D03*
X85500Y-24750D03*
X85000Y-25750D03*
X84500Y-24750D03*
X84000Y-25750D03*
X83500Y-24750D03*
X83000Y-25750D03*
X82500Y-24750D03*
X82000Y-25750D03*
X81500Y-24750D03*
X81000Y-25750D03*
X80500Y-24750D03*
X80000Y-25750D03*
X79500Y-24750D03*
X79000Y-25750D03*
X78500Y-24750D03*
X78000Y-25750D03*
X77500Y-24750D03*
X77000Y-25750D03*
X76500Y-24750D03*
X76000Y-25750D03*
X75500Y-24750D03*
X75000Y-25750D03*
X74500Y-24750D03*
X74000Y-25750D03*
X73500Y-24750D03*
G54D17*
X92250Y-32250D03*
X70250Y-32250D03*
X114250Y-32250D03*
G54D18*
X111000Y-32750D03*
G54D19*
X110500Y-31750D03*
X110000Y-32750D03*
X109500Y-31750D03*
X109000Y-32750D03*
X108500Y-31750D03*
X108000Y-32750D03*
X107500Y-31750D03*
X107000Y-32750D03*
X106500Y-31750D03*
X106000Y-32750D03*
X105500Y-31750D03*
X105000Y-32750D03*
X104500Y-31750D03*
X104000Y-32750D03*
X103500Y-31750D03*
X103000Y-32750D03*
X102500Y-31750D03*
X102000Y-32750D03*
X101500Y-31750D03*
X101000Y-32750D03*
X100500Y-31750D03*
X100000Y-32750D03*
X99500Y-31750D03*
X99000Y-32750D03*
X98500Y-31750D03*
X98000Y-32750D03*
X97500Y-31750D03*
X97000Y-32750D03*
X96500Y-31750D03*
X96000Y-32750D03*
X95500Y-31750D03*
X95000Y-32750D03*
X94500Y-31750D03*
X94000Y-32750D03*
X93500Y-31750D03*
X91000Y-32750D03*
X90500Y-31750D03*
X90000Y-32750D03*
X89500Y-31750D03*
X89000Y-32750D03*
X88500Y-31750D03*
X88000Y-32750D03*
X87500Y-31750D03*
X87000Y-32750D03*
X86500Y-31750D03*
X86000Y-32750D03*
X85500Y-31750D03*
X85000Y-32750D03*
X84500Y-31750D03*
X84000Y-32750D03*
X83500Y-31750D03*
X83000Y-32750D03*
X82500Y-31750D03*
X82000Y-32750D03*
X81500Y-31750D03*
X81000Y-32750D03*
X80500Y-31750D03*
X80000Y-32750D03*
X79500Y-31750D03*
X79000Y-32750D03*
X78500Y-31750D03*
X78000Y-32750D03*
X77500Y-31750D03*
X77000Y-32750D03*
X76500Y-31750D03*
X76000Y-32750D03*
X75500Y-31750D03*
X75000Y-32750D03*
X74500Y-31750D03*
X74000Y-32750D03*
X73500Y-31750D03*
G54D17*
X92250Y-39250D03*
X70250Y-39250D03*
X114250Y-39250D03*
G54D18*
X111000Y-39750D03*
G54D19*
X110500Y-38750D03*
X110000Y-39750D03*
X109500Y-38750D03*
X109000Y-39750D03*
X108500Y-38750D03*
X108000Y-39750D03*
X107500Y-38750D03*
X107000Y-39750D03*
X106500Y-38750D03*
X106000Y-39750D03*
X105500Y-38750D03*
X105000Y-39750D03*
X104500Y-38750D03*
X104000Y-39750D03*
X103500Y-38750D03*
X103000Y-39750D03*
X102500Y-38750D03*
X102000Y-39750D03*
X101500Y-38750D03*
X101000Y-39750D03*
X100500Y-38750D03*
X100000Y-39750D03*
X99500Y-38750D03*
X99000Y-39750D03*
X98500Y-38750D03*
X98000Y-39750D03*
X97500Y-38750D03*
X97000Y-39750D03*
X96500Y-38750D03*
X96000Y-39750D03*
X95500Y-38750D03*
X95000Y-39750D03*
X94500Y-38750D03*
X94000Y-39750D03*
X93500Y-38750D03*
X91000Y-39750D03*
X90500Y-38750D03*
X90000Y-39750D03*
X89500Y-38750D03*
X89000Y-39750D03*
X88500Y-38750D03*
X88000Y-39750D03*
X87500Y-38750D03*
X87000Y-39750D03*
X86500Y-38750D03*
X86000Y-39750D03*
X85500Y-38750D03*
X85000Y-39750D03*
X84500Y-38750D03*
X84000Y-39750D03*
X83500Y-38750D03*
X83000Y-39750D03*
X82500Y-38750D03*
X82000Y-39750D03*
X81500Y-38750D03*
X81000Y-39750D03*
X80500Y-38750D03*
X80000Y-39750D03*
X79500Y-38750D03*
X79000Y-39750D03*
X78500Y-38750D03*
X78000Y-39750D03*
X77500Y-38750D03*
X77000Y-39750D03*
X76500Y-38750D03*
X76000Y-39750D03*
X75500Y-38750D03*
X75000Y-39750D03*
X74500Y-38750D03*
X74000Y-39750D03*
X73500Y-38750D03*
G54D17*
X92250Y-49750D03*
X70250Y-49750D03*
X114250Y-49750D03*
G54D18*
X111000Y-50250D03*
G54D19*
X110500Y-49250D03*
X110000Y-50250D03*
X109500Y-49250D03*
X109000Y-50250D03*
X108500Y-49250D03*
X108000Y-50250D03*
X107500Y-49250D03*
X107000Y-50250D03*
X106500Y-49250D03*
X106000Y-50250D03*
X105500Y-49250D03*
X105000Y-50250D03*
X104500Y-49250D03*
X104000Y-50250D03*
X103500Y-49250D03*
X103000Y-50250D03*
X102500Y-49250D03*
X102000Y-50250D03*
X101500Y-49250D03*
X101000Y-50250D03*
X100500Y-49250D03*
X100000Y-50250D03*
X99500Y-49250D03*
X99000Y-50250D03*
X98500Y-49250D03*
X98000Y-50250D03*
X97500Y-49250D03*
X97000Y-50250D03*
X96500Y-49250D03*
X96000Y-50250D03*
X95500Y-49250D03*
X95000Y-50250D03*
X94500Y-49250D03*
X94000Y-50250D03*
X93500Y-49250D03*
X91000Y-50250D03*
X90500Y-49250D03*
X90000Y-50250D03*
X89500Y-49250D03*
X89000Y-50250D03*
X88500Y-49250D03*
X88000Y-50250D03*
X87500Y-49250D03*
X87000Y-50250D03*
X86500Y-49250D03*
X86000Y-50250D03*
X85500Y-49250D03*
X85000Y-50250D03*
X84500Y-49250D03*
X84000Y-50250D03*
X83500Y-49250D03*
X83000Y-50250D03*
X82500Y-49250D03*
X82000Y-50250D03*
X81500Y-49250D03*
X81000Y-50250D03*
X80500Y-49250D03*
X80000Y-50250D03*
X79500Y-49250D03*
X79000Y-50250D03*
X78500Y-49250D03*
X78000Y-50250D03*
X77500Y-49250D03*
X77000Y-50250D03*
X76500Y-49250D03*
X76000Y-50250D03*
X75500Y-49250D03*
X75000Y-50250D03*
X74500Y-49250D03*
X74000Y-50250D03*
X73500Y-49250D03*
G54D20*
X41450Y-27700D03*
G54D21*
X41450Y-26700D03*
G54D20*
X122550Y-50350D03*
G54D21*
X122550Y-49350D03*
X123550Y-50350D03*
X123550Y-49350D03*
X124550Y-50350D03*
X124550Y-49350D03*
X125550Y-50350D03*
X125550Y-49350D03*
X126550Y-50350D03*
X126550Y-49350D03*
X127550Y-50350D03*
X128550Y-49350D03*
X127550Y-49350D03*
X128550Y-48350D03*
X127550Y-48350D03*
X128550Y-47350D03*
X127550Y-47350D03*
X128550Y-46350D03*
X127550Y-46350D03*
X128550Y-45350D03*
X127550Y-45350D03*
X128550Y-44350D03*
X127550Y-44350D03*
X128550Y-43350D03*
X127550Y-43350D03*
X128550Y-42350D03*
X127550Y-42350D03*
X128550Y-41350D03*
X127550Y-41350D03*
X128550Y-40350D03*
X127550Y-40350D03*
X128550Y-39350D03*
X127550Y-38350D03*
X127550Y-39350D03*
X126550Y-38350D03*
X126550Y-39350D03*
X125550Y-38350D03*
X125550Y-39350D03*
X124550Y-38350D03*
X124550Y-39350D03*
X123550Y-38350D03*
X123550Y-39350D03*
X122550Y-38350D03*
X122550Y-39350D03*
X121550Y-38350D03*
X121550Y-39350D03*
X120550Y-38350D03*
X120550Y-39350D03*
X119550Y-38350D03*
X119550Y-39350D03*
X118550Y-38350D03*
X118550Y-39350D03*
X117550Y-38350D03*
X116550Y-39350D03*
X117550Y-39350D03*
X116550Y-40350D03*
X117550Y-40350D03*
X116550Y-41350D03*
X117550Y-41350D03*
X116550Y-42350D03*
X117550Y-42350D03*
X116550Y-43350D03*
X117550Y-43350D03*
X116550Y-44350D03*
X117550Y-44350D03*
X116550Y-45350D03*
X117550Y-45350D03*
X116550Y-46350D03*
X117550Y-46350D03*
X116550Y-47350D03*
X117550Y-47350D03*
X116550Y-48350D03*
X117550Y-48350D03*
X116550Y-49350D03*
X117550Y-50350D03*
X117550Y-49350D03*
X118550Y-50350D03*
X118550Y-49350D03*
X119550Y-50350D03*
X119550Y-49350D03*
X120550Y-50350D03*
X120550Y-49350D03*
X121550Y-50350D03*
X121550Y-49350D03*
G54D20*
X135250Y-40250D03*
G54D21*
X135250Y-41250D03*
X134250Y-40250D03*
X134250Y-41250D03*
X133250Y-40250D03*
X133250Y-41250D03*
X132250Y-40250D03*
X132250Y-41250D03*
X131250Y-40250D03*
X130250Y-41250D03*
X131250Y-41250D03*
X130250Y-42250D03*
X131250Y-42250D03*
X130250Y-43250D03*
X131250Y-43250D03*
X130250Y-44250D03*
X131250Y-44250D03*
X130250Y-45250D03*
X131250Y-45250D03*
X130250Y-46250D03*
X131250Y-46250D03*
X130250Y-47250D03*
X131250Y-47250D03*
X130250Y-48250D03*
X131250Y-48250D03*
X130250Y-49250D03*
X131250Y-50250D03*
X131250Y-49250D03*
X132250Y-50250D03*
X132250Y-49250D03*
X133250Y-50250D03*
X133250Y-49250D03*
X134250Y-50250D03*
X134250Y-49250D03*
X135250Y-50250D03*
X135250Y-49250D03*
X136250Y-50250D03*
X136250Y-49250D03*
X137250Y-50250D03*
X137250Y-49250D03*
X138250Y-50250D03*
X138250Y-49250D03*
X139250Y-50250D03*
X140250Y-49250D03*
X139250Y-49250D03*
X140250Y-48250D03*
X139250Y-48250D03*
X140250Y-47250D03*
X139250Y-47250D03*
X140250Y-46250D03*
X139250Y-46250D03*
X140250Y-45250D03*
X139250Y-45250D03*
X140250Y-44250D03*
X139250Y-44250D03*
X140250Y-43250D03*
X139250Y-43250D03*
X140250Y-42250D03*
X139250Y-42250D03*
X140250Y-41250D03*
X139250Y-40250D03*
X139250Y-41250D03*
X138250Y-40250D03*
X138250Y-41250D03*
X137250Y-40250D03*
X137250Y-41250D03*
X136250Y-40250D03*
X136250Y-41250D03*
G54D22*
X140800Y-36200D03*
X140800Y-38200D03*
X29750Y-28750D03*
X27750Y-28750D03*
G54D23*
X26750Y-49550D03*
G54D24*
X26750Y-59550D03*
G54D25*
X27750Y-56750D03*
G54D12*
X27750Y-55650D03*
X27750Y-54600D03*
X27750Y-53500D03*
X27750Y-52400D03*
X26750Y-56200D03*
X26750Y-55100D03*
X26750Y-54050D03*
X26750Y-52950D03*
G54D20*
X142350Y-33250D03*
G54D21*
X139350Y-33250D03*
G54D20*
X125450Y-23150D03*
G54D21*
X122450Y-23150D03*
G54D20*
X125450Y-23950D03*
G54D21*
X122450Y-23950D03*
G54D20*
X142350Y-34050D03*
G54D21*
X139350Y-34050D03*
G54D12*
X32250Y-27250D03*
X34250Y-27250D03*
G54D20*
X37250Y-28750D03*
G54D21*
X38250Y-28750D03*
X39250Y-28750D03*
X40250Y-28750D03*
X40250Y-25750D03*
X39250Y-25750D03*
X38250Y-25750D03*
X37250Y-25750D03*
G54D20*
X34750Y-31250D03*
G54D21*
X34750Y-32250D03*
X34750Y-33250D03*
X34750Y-34250D03*
X34750Y-35250D03*
X34750Y-36250D03*
X34750Y-37250D03*
X34750Y-38250D03*
X34750Y-39250D03*
G54D20*
X33500Y-50000D03*
G54D21*
X34500Y-50000D03*
X35500Y-50000D03*
X36500Y-50000D03*
X37500Y-50000D03*
X38500Y-50000D03*
X39500Y-50000D03*
X40500Y-50000D03*
X41500Y-50000D03*
G54D20*
X74250Y-53050D03*
G54D21*
X73250Y-53050D03*
X72250Y-53050D03*
X71250Y-53050D03*
X70250Y-53050D03*
X69250Y-53050D03*
X68250Y-53050D03*
X67250Y-53050D03*
X66250Y-53050D03*
G54D20*
X74250Y-54250D03*
G54D21*
X73250Y-54250D03*
X72250Y-54250D03*
X71250Y-54250D03*
X70250Y-54250D03*
X69250Y-54250D03*
X68250Y-54250D03*
X67250Y-54250D03*
X66250Y-54250D03*
G54D20*
X74250Y-56150D03*
G54D21*
X73250Y-56150D03*
X72250Y-56150D03*
X71250Y-56150D03*
X70250Y-56150D03*
X69250Y-56150D03*
X68250Y-56150D03*
X67250Y-56150D03*
X66250Y-56150D03*
G54D26*
X59750Y-52000D03*
X57750Y-52000D03*
X48500Y-33500D03*
X50500Y-33500D03*
G54D20*
X35500Y-29750D03*
G54D21*
X36500Y-29750D03*
X42350Y-25450D03*
X43350Y-25450D03*
X43000Y-56250D03*
X43000Y-57250D03*
X45850Y-25450D03*
X44850Y-25450D03*
X35000Y-58250D03*
X36000Y-58250D03*
X47750Y-48500D03*
X47750Y-49500D03*
X46750Y-48500D03*
X46750Y-49500D03*
G54D20*
X42750Y-49500D03*
G54D21*
X43750Y-49500D03*
X44750Y-49500D03*
X45750Y-49500D03*
X45750Y-46500D03*
X44750Y-46500D03*
X43750Y-46500D03*
X42750Y-46500D03*
G54D27*
X125650Y-46600D03*
X125650Y-47900D03*
X29150Y-34250D03*
X29150Y-32950D03*
X123600Y-46600D03*
X123600Y-47900D03*
G54D28*
X30500Y-32650D03*
X31800Y-32650D03*
X30500Y-34650D03*
X31800Y-34650D03*
X31000Y-44050D03*
X32300Y-44050D03*
X30500Y-33650D03*
X31800Y-33650D03*
X138700Y-51850D03*
X140000Y-51850D03*
X31000Y-45250D03*
X32300Y-45250D03*
X31700Y-38050D03*
X33000Y-38050D03*
X134700Y-46300D03*
X136000Y-46300D03*
X135300Y-44000D03*
X136600Y-44000D03*
X137700Y-36650D03*
X139000Y-36650D03*
X137700Y-37750D03*
X139000Y-37750D03*
X50600Y-24250D03*
X51900Y-24250D03*
X133800Y-33350D03*
X132500Y-33350D03*
X127600Y-34350D03*
X128900Y-34350D03*
G54D27*
X127650Y-32900D03*
X127650Y-31600D03*
G54D28*
X127700Y-25450D03*
X129000Y-25450D03*
G54D27*
X136050Y-32300D03*
X136050Y-31000D03*
X125700Y-28200D03*
X125700Y-26900D03*
G54D28*
X141500Y-50250D03*
X140200Y-50250D03*
G54D27*
X26750Y-32900D03*
X26750Y-34200D03*
G54D28*
X31000Y-53850D03*
X32300Y-53850D03*
X31000Y-52650D03*
X32300Y-52650D03*
G54D27*
X136050Y-27200D03*
X136050Y-25900D03*
G54D28*
X134900Y-33350D03*
X136200Y-33350D03*
X139500Y-30750D03*
X140800Y-30750D03*
G54D27*
X136300Y-37650D03*
X136300Y-38950D03*
X136050Y-29500D03*
X136050Y-28200D03*
G54D28*
X134900Y-34550D03*
X136200Y-34550D03*
G54D27*
X139900Y-37900D03*
X139900Y-36600D03*
G54D28*
X133800Y-34550D03*
X132500Y-34550D03*
X130800Y-25550D03*
X132100Y-25550D03*
X139500Y-31950D03*
X140800Y-31950D03*
G54D27*
X141000Y-27800D03*
X141000Y-29100D03*
G54D28*
X42000Y-34150D03*
X43300Y-34150D03*
G54D27*
X140050Y-29100D03*
X140050Y-27800D03*
X126550Y-46600D03*
X126550Y-47900D03*
X31450Y-48900D03*
X31450Y-47600D03*
X29750Y-48900D03*
X29750Y-47600D03*
X27850Y-32900D03*
X27850Y-34200D03*
X135200Y-38950D03*
X135200Y-37650D03*
G54D28*
X134400Y-22850D03*
X135700Y-22850D03*
X32700Y-40450D03*
X31400Y-40450D03*
X122450Y-47750D03*
X121150Y-47750D03*
X119100Y-46350D03*
X120400Y-46350D03*
X26100Y-44900D03*
X27400Y-44900D03*
X31400Y-39150D03*
X32700Y-39150D03*
X28900Y-53850D03*
X30200Y-53850D03*
X138100Y-22850D03*
X136800Y-22850D03*
X30200Y-52650D03*
X28900Y-52650D03*
X27700Y-38950D03*
X26400Y-38950D03*
G54D27*
X124550Y-47900D03*
X124550Y-46600D03*
G54D28*
X26400Y-37650D03*
X27700Y-37650D03*
X30200Y-57450D03*
X28900Y-57450D03*
X30200Y-56250D03*
X28900Y-56250D03*
G54D27*
X26200Y-41750D03*
X26200Y-43050D03*
G54D28*
X30200Y-55050D03*
X28900Y-55050D03*
G54D22*
X45100Y-23700D03*
X43100Y-23700D03*
G54D19*
X35250Y-25000D03*
X35250Y-23250D03*
X45000Y-29500D03*
G54D20*
X36250Y-47250D03*
G54D21*
X36250Y-46250D03*
X36250Y-45250D03*
X36250Y-44250D03*
X36250Y-43250D03*
X36250Y-42250D03*
X36250Y-41250D03*
X36250Y-40250D03*
X36250Y-39250D03*
G54D20*
X33500Y-53500D03*
G54D21*
X34500Y-53500D03*
X35500Y-53500D03*
X36500Y-53500D03*
X37500Y-53500D03*
X38500Y-53500D03*
X39500Y-53500D03*
X40500Y-53500D03*
X41500Y-53500D03*
G54D20*
X33500Y-56250D03*
G54D21*
X34500Y-56250D03*
X35500Y-56250D03*
X36500Y-56250D03*
X37500Y-56250D03*
X38500Y-56250D03*
X39500Y-56250D03*
X40500Y-56250D03*
X41500Y-56250D03*
G54D22*
X23250Y-32250D03*
G54D17*
X24250Y-33250D03*
X22250Y-33250D03*
X22250Y-31250D03*
X24250Y-31250D03*
G54D22*
X23250Y-36750D03*
G54D17*
X24250Y-37750D03*
X22250Y-37750D03*
X22250Y-35750D03*
X24250Y-35750D03*
G54D22*
X23250Y-45750D03*
G54D17*
X24250Y-46750D03*
X22250Y-46750D03*
X22250Y-44750D03*
X24250Y-44750D03*
G54D22*
X23250Y-41250D03*
G54D17*
X24250Y-42250D03*
X22250Y-42250D03*
X22250Y-40250D03*
X24250Y-40250D03*
G54D28*
X65100Y-52000D03*
X63800Y-52000D03*
X48450Y-35750D03*
X49750Y-35750D03*
X49350Y-41000D03*
X50650Y-41000D03*
X53200Y-55000D03*
X54500Y-55000D03*
X58550Y-55000D03*
X57250Y-55000D03*
X59800Y-53500D03*
X58500Y-53500D03*
X59950Y-48400D03*
X58650Y-48400D03*
X58300Y-45250D03*
X57000Y-45250D03*
X53700Y-46000D03*
X55000Y-46000D03*
X51450Y-48500D03*
X52750Y-48500D03*
X51450Y-53750D03*
X52750Y-53750D03*
X47100Y-58450D03*
X45800Y-58450D03*
X50850Y-28750D03*
X52150Y-28750D03*
X56150Y-29000D03*
X54850Y-29000D03*
X59050Y-58450D03*
X60350Y-58450D03*
X121500Y-46350D03*
X122800Y-46350D03*
X39800Y-58950D03*
X38500Y-58950D03*
G54D27*
X30950Y-25350D03*
X30950Y-26650D03*
G54D28*
X36600Y-37250D03*
X37900Y-37250D03*
G54D27*
X38400Y-34150D03*
X38400Y-32850D03*
G54D28*
X42550Y-32750D03*
X41250Y-32750D03*
X44050Y-35750D03*
X42750Y-35750D03*
G54D27*
X62000Y-28600D03*
X62000Y-29900D03*
X61100Y-34250D03*
X61100Y-32950D03*
G54D28*
X63700Y-53000D03*
X65000Y-53000D03*
X45900Y-48500D03*
X44600Y-48500D03*
X47400Y-47500D03*
X46100Y-47500D03*
X33300Y-29750D03*
X34600Y-29750D03*
X43400Y-24450D03*
X44700Y-24450D03*
X43650Y-26600D03*
X42350Y-26600D03*
G54D25*
X36750Y-24250D03*
G54D12*
X37750Y-24250D03*
X38750Y-24250D03*
X39750Y-24250D03*
X40750Y-24250D03*
G54D21*
X31950Y-22800D03*
X32950Y-22800D03*
G54D29*
X37500Y-62400D03*
X38000Y-62400D03*
X38500Y-62400D03*
X39000Y-62400D03*
X39500Y-62400D03*
X40000Y-62400D03*
X40500Y-62400D03*
X41000Y-62400D03*
X41500Y-62400D03*
X42000Y-62400D03*
X42500Y-62400D03*
X43000Y-62400D03*
X43500Y-62400D03*
X44000Y-62400D03*
X44500Y-62400D03*
X45000Y-62400D03*
X45500Y-62400D03*
X46000Y-62400D03*
X46500Y-62400D03*
X47000Y-62400D03*
X47500Y-62400D03*
X48000Y-62400D03*
X48500Y-62400D03*
X49000Y-62400D03*
X49500Y-62400D03*
X50000Y-62400D03*
X50500Y-62400D03*
X51000Y-62400D03*
X51500Y-62400D03*
X52000Y-62400D03*
X52500Y-62400D03*
X53000Y-62400D03*
X53500Y-62400D03*
X54000Y-62400D03*
X54500Y-62400D03*
X55000Y-62400D03*
X55500Y-62400D03*
X56000Y-62400D03*
X56500Y-62400D03*
X57000Y-62400D03*
X57500Y-62400D03*
X58000Y-62400D03*
X58500Y-62400D03*
X59000Y-62400D03*
X59500Y-62400D03*
X60000Y-62400D03*
X60500Y-62400D03*
X61000Y-62400D03*
X61500Y-62400D03*
X63000Y-62400D03*
X63500Y-62400D03*
X64000Y-62400D03*
X64500Y-62400D03*
X65000Y-62400D03*
X65500Y-62400D03*
X66000Y-62400D03*
X66500Y-62400D03*
X67000Y-62400D03*
X67500Y-62400D03*
X68000Y-62400D03*
G54D30*
X37500Y-63450D03*
X38000Y-63450D03*
X38500Y-63450D03*
X39000Y-63450D03*
X39500Y-63450D03*
X40000Y-63450D03*
X40500Y-63450D03*
X41000Y-63450D03*
X41500Y-63450D03*
X42000Y-63450D03*
X42500Y-63450D03*
X43000Y-63450D03*
X43500Y-63450D03*
X44000Y-63450D03*
X44500Y-63450D03*
X45000Y-63450D03*
X45500Y-63450D03*
X46000Y-63450D03*
X46500Y-63450D03*
X47000Y-63450D03*
X47500Y-63450D03*
X48000Y-63450D03*
X48500Y-63450D03*
X49000Y-63450D03*
X49500Y-63450D03*
X50000Y-63450D03*
X50500Y-63450D03*
X51000Y-63450D03*
X51500Y-63450D03*
X52000Y-63450D03*
X52500Y-63450D03*
X53000Y-63450D03*
X53500Y-63450D03*
X54000Y-63450D03*
X54500Y-63450D03*
X55000Y-63450D03*
X55500Y-63450D03*
X56000Y-63450D03*
X56500Y-63450D03*
X57000Y-63450D03*
X57500Y-63450D03*
X58000Y-63450D03*
X58500Y-63450D03*
X59000Y-63450D03*
X59500Y-63450D03*
X60000Y-63450D03*
X60500Y-63450D03*
X61000Y-63450D03*
X61500Y-63450D03*
X63000Y-63450D03*
X63500Y-63450D03*
X64000Y-63450D03*
X64500Y-63450D03*
X65000Y-63450D03*
X65500Y-63450D03*
X66000Y-63450D03*
X66500Y-63450D03*
X67000Y-63450D03*
X67500Y-63450D03*
X68000Y-63450D03*
G54D31*
X56500Y-59750D03*
X53500Y-59750D03*
X57250Y-59750D03*
X49000Y-59750D03*
X63500Y-59750D03*
X59500Y-59750D03*
X58000Y-59750D03*
X55000Y-59750D03*
X52750Y-59750D03*
X50500Y-59750D03*
X64250Y-59750D03*
X47500Y-59750D03*
X30550Y-50150D03*
X28750Y-40850D03*
X118250Y-27150D03*
X60750Y-53500D03*
X79350Y-52400D03*
X50750Y-48500D03*
X118250Y-28500D03*
X65450Y-53000D03*
X67650Y-49900D03*
X59800Y-26750D03*
X120250Y-27150D03*
X134500Y-37250D03*
X49500Y-40450D03*
X40550Y-38450D03*
X117690Y-31800D03*
X28000Y-44050D03*
X126650Y-34050D03*
X41000Y-60250D03*
X42000Y-60250D03*
X58250Y-45800D03*
X66500Y-60250D03*
X130750Y-26050D03*
X132350Y-35400D03*
X56100Y-29450D03*
X126650Y-29190D03*
X129630Y-35400D03*
X42500Y-32300D03*
X53250Y-55450D03*
X128750Y-52000D03*
X58500Y-55700D03*
X132800Y-37250D03*
X122200Y-28750D03*
X48500Y-35000D03*
X60950Y-34700D03*
X122800Y-32350D03*
X68000Y-60250D03*
X44500Y-47500D03*
X122400Y-27150D03*
X57800Y-24750D03*
X50250Y-28350D03*
X39750Y-59750D03*
X37550Y-38000D03*
X61400Y-40650D03*
X55500Y-41700D03*
X60900Y-28500D03*
X119900Y-31800D03*
X62750Y-39700D03*
X44000Y-36500D03*
X38400Y-34350D03*
X50750Y-53750D03*
X67500Y-60250D03*
X44000Y-34250D03*
X125150Y-26120D03*
X129370Y-22950D03*
X46250Y-59750D03*
X49400Y-25350D03*
X60750Y-48400D03*
X44500Y-59750D03*
X67450Y-38300D03*
X36700Y-37800D03*
X67450Y-44200D03*
X135010Y-35400D03*
X53000Y-46000D03*
X41350Y-58550D03*
X80300Y-56650D03*
X33550Y-39750D03*
X61450Y-58550D03*
X26350Y-41900D03*
X114950Y-51800D03*
X63800Y-58000D03*
X42150Y-57200D03*
X34450Y-41900D03*
X61450Y-43700D03*
X55700Y-43950D03*
X129050Y-45000D03*
X40750Y-41250D03*
X55000Y-39250D03*
X55000Y-38750D03*
X40250Y-41250D03*
X61450Y-43200D03*
X56000Y-43600D03*
X129250Y-44300D03*
X39600Y-41400D03*
X55500Y-38500D03*
X56300Y-43200D03*
X61450Y-42700D03*
X56500Y-38500D03*
X66150Y-45100D03*
X39290Y-40700D03*
X56850Y-42500D03*
X65950Y-41700D03*
X63250Y-42150D03*
X62250Y-41200D03*
X66550Y-41200D03*
X129550Y-50350D03*
X38750Y-40750D03*
X66550Y-39700D03*
X130950Y-38000D03*
X57000Y-38500D03*
X132000Y-37100D03*
X57800Y-42400D03*
X65900Y-38700D03*
X37460Y-39250D03*
X130450Y-50350D03*
X61550Y-41150D03*
X65900Y-40200D03*
X38850Y-43650D03*
X33600Y-57050D03*
X33500Y-38050D03*
X46100Y-57350D03*
X41100Y-57050D03*
X34400Y-57050D03*
X134750Y-50850D03*
X33500Y-41250D03*
X40400Y-58700D03*
X62000Y-58150D03*
X124250Y-52250D03*
X141100Y-52350D03*
X116900Y-50200D03*
X126100Y-23750D03*
X41350Y-23200D03*
X127850Y-37150D03*
X41400Y-31650D03*
X71950Y-31550D03*
X126950Y-41450D03*
X72400Y-41550D03*
X125350Y-43050D03*
X69100Y-32000D03*
X72300Y-39650D03*
X39250Y-31800D03*
X112200Y-39300D03*
X112200Y-43600D03*
X120550Y-47850D03*
X127900Y-28200D03*
X129050Y-37050D03*
X126800Y-27850D03*
X126950Y-37050D03*
X120550Y-45350D03*
X121100Y-33500D03*
X121100Y-34150D03*
X120950Y-41750D03*
X121500Y-33250D03*
X121550Y-42250D03*
X121500Y-34400D03*
X122000Y-34350D03*
X122000Y-33050D03*
X138550Y-39600D03*
X124350Y-32450D03*
X124350Y-35550D03*
X124700Y-32200D03*
X124700Y-35250D03*
X119300Y-30500D03*
X116050Y-49750D03*
X116900Y-36100D03*
X118200Y-48300D03*
X119800Y-30200D03*
X117350Y-36250D03*
X116550Y-35750D03*
X118950Y-30100D03*
X115400Y-48600D03*
X121000Y-29200D03*
X118700Y-36950D03*
X119350Y-45350D03*
X119350Y-36950D03*
X119700Y-47100D03*
X121050Y-28550D03*
X119950Y-43600D03*
X119850Y-37000D03*
X121100Y-28000D03*
X135300Y-46050D03*
X122000Y-46350D03*
X134700Y-47650D03*
X135300Y-42400D03*
X127450Y-51300D03*
X67750Y-39550D03*
X89500Y-39950D03*
X71350Y-42600D03*
X63000Y-34300D03*
X48400Y-25950D03*
X48750Y-27000D03*
X100950Y-25200D03*
X100900Y-27050D03*
X102000Y-26600D03*
X53560Y-27200D03*
X49150Y-26600D03*
X104000Y-31000D03*
X50550Y-31250D03*
X59550Y-30500D03*
X93400Y-25450D03*
X69250Y-28300D03*
X71250Y-24850D03*
X99950Y-25100D03*
X91300Y-25050D03*
X49150Y-27850D03*
X52400Y-25200D03*
X102500Y-23950D03*
X52700Y-24800D03*
X97500Y-23900D03*
X96000Y-26600D03*
X52750Y-26700D03*
X95500Y-26850D03*
X52700Y-27200D03*
X87000Y-32000D03*
X64650Y-31290D03*
X72000Y-42250D03*
X119900Y-25100D03*
X110500Y-44000D03*
X119000Y-24950D03*
X109500Y-43600D03*
X117500Y-28550D03*
X117850Y-28850D03*
X81800Y-34150D03*
X81000Y-33800D03*
X116050Y-29450D03*
X79000Y-33800D03*
X117450Y-29700D03*
X116500Y-29900D03*
X115500Y-30250D03*
X117500Y-30150D03*
X110000Y-31000D03*
X118000Y-30350D03*
X109000Y-31000D03*
X108000Y-31400D03*
X116300Y-30750D03*
X107000Y-31900D03*
X117500Y-30850D03*
X118550Y-24800D03*
X101000Y-48650D03*
X117950Y-30850D03*
X116400Y-31550D03*
X100000Y-48250D03*
X99000Y-33400D03*
X118200Y-31830D03*
X115850Y-36050D03*
X118450Y-33200D03*
X84500Y-33600D03*
X118050Y-33550D03*
X83500Y-33800D03*
X118450Y-33850D03*
X82500Y-33800D03*
X81500Y-33800D03*
X118000Y-34200D03*
X80500Y-34600D03*
X118450Y-34550D03*
X118000Y-34850D03*
X119450Y-24600D03*
X117900Y-24600D03*
X107500Y-40400D03*
X118450Y-35150D03*
X117950Y-35450D03*
X116450Y-27330D03*
X101500Y-27100D03*
X101500Y-40400D03*
X100500Y-40400D03*
X117450Y-27530D03*
X100500Y-27300D03*
X99500Y-27350D03*
X99500Y-40400D03*
X116080Y-27850D03*
X117500Y-28120D03*
X98500Y-40350D03*
X85000Y-28450D03*
X116500Y-28320D03*
X116050Y-28650D03*
X86000Y-34400D03*
X69900Y-34700D03*
X46400Y-34550D03*
X46400Y-46400D03*
X46400Y-35950D03*
X48500Y-48750D03*
X50750Y-46000D03*
X50750Y-48000D03*
X50750Y-49750D03*
X51250Y-54750D03*
X50750Y-54250D03*
X61500Y-45000D03*
X57250Y-47250D03*
X57350Y-49700D03*
X56350Y-49700D03*
X56250Y-47250D03*
X55750Y-47250D03*
X55850Y-49700D03*
X52750Y-49750D03*
X50600Y-57800D03*
X52750Y-56000D03*
X54750Y-56000D03*
X56000Y-56000D03*
X57900Y-56100D03*
X59300Y-55750D03*
X60900Y-55800D03*
X60950Y-53900D03*
X52250Y-49750D03*
X51750Y-43250D03*
X42750Y-42750D03*
X44250Y-42750D03*
X49750Y-42750D03*
X46050Y-38300D03*
X47750Y-38300D03*
X51750Y-49750D03*
X51250Y-43250D03*
X43250Y-42750D03*
X66500Y-59250D03*
X60250Y-59250D03*
X59500Y-59250D03*
X58750Y-59250D03*
X53500Y-59250D03*
X52750Y-59250D03*
X65750Y-59250D03*
X52000Y-59250D03*
X51250Y-59250D03*
X49000Y-59250D03*
X48250Y-59250D03*
X47500Y-59250D03*
X46750Y-59250D03*
X65000Y-59250D03*
X64250Y-59250D03*
X61000Y-59250D03*
X63500Y-59250D03*
X54250Y-59250D03*
X45500Y-59250D03*
X49750Y-59250D03*
X52500Y-55150D03*
X58000Y-59250D03*
X50750Y-56000D03*
X55750Y-59250D03*
X55000Y-59250D03*
X54840Y-49700D03*
X55350Y-49700D03*
X53250Y-49750D03*
X53400Y-26800D03*
X57500Y-26800D03*
X55300Y-33850D03*
X60250Y-47250D03*
X47750Y-33650D03*
X47750Y-32150D03*
X54900Y-34150D03*
X59750Y-47250D03*
X54350Y-34350D03*
X59250Y-47250D03*
X58750Y-47250D03*
X54000Y-34700D03*
X52750Y-35300D03*
X58000Y-49750D03*
X52250Y-35650D03*
X59750Y-50500D03*
X51900Y-35950D03*
X60250Y-50750D03*
X51250Y-36050D03*
X60750Y-51000D03*
X131400Y-24800D03*
X65100Y-25150D03*
X130150Y-26250D03*
X65100Y-32650D03*
X121200Y-25100D03*
X131900Y-37950D03*
X62900Y-36600D03*
X39150Y-22950D03*
X131050Y-26950D03*
X128700Y-27450D03*
X128300Y-26250D03*
X39750Y-23050D03*
X63750Y-23100D03*
X121350Y-23450D03*
X122150Y-25450D03*
X124000Y-34100D03*
X67000Y-37050D03*
X67000Y-35300D03*
X69050Y-41750D03*
X124450Y-40000D03*
X123000Y-25750D03*
X64500Y-23350D03*
X123800Y-31300D03*
X123650Y-34400D03*
X121850Y-24350D03*
X64250Y-24000D03*
X113200Y-26800D03*
X113200Y-40950D03*
X120550Y-27850D03*
X113200Y-25100D03*
X124950Y-41550D03*
X50850Y-36300D03*
X48150Y-31900D03*
X42400Y-27300D03*
X48000Y-27300D03*
X45750Y-40300D03*
X41900Y-32100D03*
X43550Y-31950D03*
X49050Y-40300D03*
X115550Y-49300D03*
X66600Y-36650D03*
X65150Y-36800D03*
X72400Y-49650D03*
X38750Y-27500D03*
X43950Y-27650D03*
X53600Y-35000D03*
X50500Y-25200D03*
X51000Y-25200D03*
X53150Y-35000D03*
X51600Y-33300D03*
X60750Y-52000D03*
X41900Y-23200D03*
X127950Y-35250D03*
X43450Y-28750D03*
X53750Y-49750D03*
X45100Y-42050D03*
X40750Y-42200D03*
X53950Y-42250D03*
X43750Y-42750D03*
X50250Y-42750D03*
X49250Y-42750D03*
X44750Y-42750D03*
X44600Y-40350D03*
X48050Y-40500D03*
X52250Y-43250D03*
X42250Y-42750D03*
X48300Y-38300D03*
X45550Y-38300D03*
X41750Y-42750D03*
X53250Y-43250D03*
X64650Y-25550D03*
X64800Y-27900D03*
X64650Y-30850D03*
X87050Y-33400D03*
X69200Y-33700D03*
X71650Y-45400D03*
X72000Y-49100D03*
X65850Y-38250D03*
X66150Y-34200D03*
X51900Y-32850D03*
X75850Y-30150D03*
X39100Y-28150D03*
X125950Y-40700D03*
X76050Y-38100D03*
X61050Y-38940D03*
X51650Y-38350D03*
X42400Y-29950D03*
X58000Y-38750D03*
X52200Y-29850D03*
X60750Y-47250D03*
X55800Y-33750D03*
X129250Y-24750D03*
X129250Y-33450D03*
X121350Y-27600D03*
X123050Y-24450D03*
X54000Y-27300D03*
X74850Y-38250D03*
X54100Y-29450D03*
X74850Y-29950D03*
X126950Y-41000D03*
X51250Y-24250D03*
X52700Y-32400D03*
X75200Y-37900D03*
X40700Y-27900D03*
X75400Y-29650D03*
X126250Y-40350D03*
X125700Y-41400D03*
X72950Y-41500D03*
X72500Y-31500D03*
X38800Y-31700D03*
X122200Y-31850D03*
X51250Y-29850D03*
X51000Y-26550D03*
X35550Y-32750D03*
X51750Y-29850D03*
X37150Y-33050D03*
X116400Y-23300D03*
X62550Y-22800D03*
X37150Y-32600D03*
X60250Y-29800D03*
X33950Y-41300D03*
X41600Y-57500D03*
X63300Y-58250D03*
X135450Y-51250D03*
X32550Y-30550D03*
X31350Y-30950D03*
X31450Y-47100D03*
X41200Y-41750D03*
X134800Y-24900D03*
X35150Y-39800D03*
X120850Y-23250D03*
X133900Y-25250D03*
X35050Y-26300D03*
X40550Y-39000D03*
X132850Y-37950D03*
X53820Y-41750D03*
X28450Y-34200D03*
X29750Y-47150D03*
X67850Y-42950D03*
X65850Y-37800D03*
X67850Y-37800D03*
X78850Y-52900D03*
X67850Y-43700D03*
X67800Y-35350D03*
X67850Y-49400D03*
X67800Y-33350D03*
X120050Y-25550D03*
X106000Y-23900D03*
X61750Y-26900D03*
X65350Y-38300D03*
X65550Y-44200D03*
X65550Y-49900D03*
X73150Y-52200D03*
X63750Y-36800D03*
X39000Y-36250D03*
X58000Y-37000D03*
X63750Y-36300D03*
X39500Y-36250D03*
X58000Y-36500D03*
X58000Y-36000D03*
X40000Y-36250D03*
X65150Y-35800D03*
X40500Y-36250D03*
X65150Y-35300D03*
X58000Y-35500D03*
X63950Y-34800D03*
X58000Y-35000D03*
X41000Y-36250D03*
X63950Y-34300D03*
X58000Y-34500D03*
X41000Y-35750D03*
X65650Y-54550D03*
X50750Y-54750D03*
X65100Y-49400D03*
X51750Y-54750D03*
X65100Y-48900D03*
X52050Y-53450D03*
X59100Y-50700D03*
X50750Y-49000D03*
X60550Y-47900D03*
X65100Y-48400D03*
X65100Y-47900D03*
X58050Y-47600D03*
X50750Y-47000D03*
X51250Y-49750D03*
X65100Y-47400D03*
X58050Y-46650D03*
X51650Y-46650D03*
X58050Y-47150D03*
X54250Y-47250D03*
X54250Y-49750D03*
X64150Y-46900D03*
X56750Y-47250D03*
X56850Y-49700D03*
X65200Y-46400D03*
X57250Y-46000D03*
X65200Y-45900D03*
X58300Y-50350D03*
X59800Y-46350D03*
X63500Y-46500D03*
X60750Y-53000D03*
X75350Y-53900D03*
X61000Y-54900D03*
X59960Y-55500D03*
X57000Y-56000D03*
X56550Y-42850D03*
X129750Y-42950D03*
X69050Y-43700D03*
X38450Y-42050D03*
X61450Y-42200D03*
X56000Y-38500D03*
X67150Y-43350D03*
X53750Y-56000D03*
X51750Y-56000D03*
X131500Y-37400D03*
X125750Y-37550D03*
X66200Y-40700D03*
X62600Y-40700D03*
X66200Y-39050D03*
X38050Y-40250D03*
X57500Y-38500D03*
X126550Y-45950D03*
X38000Y-36250D03*
X58000Y-38000D03*
X64050Y-37900D03*
X38500Y-36250D03*
X63750Y-37500D03*
X58000Y-37500D03*
X127900Y-28750D03*
X128550Y-37050D03*
X125000Y-28550D03*
X127400Y-37050D03*
X129550Y-37050D03*
X137650Y-41650D03*
X127850Y-27550D03*
X125050Y-35500D03*
X138900Y-39250D03*
X124700Y-31750D03*
X125150Y-31600D03*
X125500Y-35500D03*
X121700Y-31850D03*
X51650Y-26350D03*
X72950Y-30200D03*
X37850Y-32300D03*
X63400Y-29700D03*
X116410Y-32000D03*
X72950Y-32850D03*
X140200Y-31950D03*
X65600Y-25150D03*
X130800Y-24850D03*
X63000Y-39150D03*
X65600Y-32650D03*
X61050Y-37100D03*
X61050Y-32050D03*
X62200Y-26900D03*
X63300Y-26800D03*
X131850Y-34000D03*
X129650Y-26650D03*
X126700Y-26500D03*
X132400Y-37950D03*
X40850Y-58950D03*
X62500Y-58400D03*
X134800Y-51550D03*
X141500Y-51500D03*
X141200Y-30750D03*
X47050Y-45500D03*
X126750Y-23250D03*
X128850Y-26200D03*
X47300Y-31950D03*
X118800Y-23050D03*
X38250Y-44750D03*
X47200Y-36050D03*
X47300Y-23350D03*
X122600Y-27900D03*
X122900Y-34300D03*
X122200Y-42350D03*
X123800Y-27050D03*
X122900Y-42050D03*
X123300Y-34100D03*
X134550Y-43100D03*
X123500Y-26700D03*
X121650Y-43450D03*
X122450Y-34350D03*
X118650Y-47550D03*
X120200Y-29650D03*
X117550Y-36900D03*
X118950Y-48250D03*
X120650Y-29500D03*
X118150Y-36950D03*
X139050Y-29700D03*
X128200Y-32900D03*
X137350Y-27900D03*
X139550Y-25100D03*
X127900Y-25450D03*
X139050Y-32650D03*
X139050Y-27910D03*
X136950Y-32260D03*
X126850Y-34850D03*
X126800Y-25350D03*
X60850Y-39450D03*
X60350Y-32400D03*
X61200Y-28150D03*
X62700Y-28150D03*
X139100Y-26900D03*
X136200Y-22870D03*
X38500Y-59750D03*
X54900Y-29450D03*
X51500Y-24750D03*
X58200Y-29300D03*
X63250Y-37250D03*
X127150Y-29600D03*
X59500Y-60250D03*
X52000Y-60250D03*
X62250Y-41750D03*
X63000Y-48500D03*
X44210Y-33250D03*
X61000Y-60250D03*
X63000Y-53750D03*
X58250Y-58250D03*
X54250Y-60250D03*
X37500Y-36550D03*
X44280Y-33850D03*
X40370Y-32000D03*
X48800Y-32200D03*
X61050Y-33500D03*
X50750Y-35000D03*
X42750Y-36250D03*
X118080Y-26700D03*
X65750Y-60250D03*
X37500Y-32000D03*
X37500Y-34330D03*
X65000Y-60250D03*
X48500Y-48250D03*
X63000Y-32000D03*
X47500Y-60250D03*
X58000Y-60250D03*
X61050Y-58250D03*
X53500Y-53750D03*
X136950Y-31240D03*
X140950Y-25050D03*
X59200Y-23250D03*
X33200Y-40450D03*
X28550Y-32950D03*
X75250Y-56900D03*
X65200Y-39700D03*
X65200Y-33800D03*
X50000Y-23750D03*
X53000Y-58250D03*
X28100Y-45350D03*
X33750Y-32200D03*
X56500Y-55000D03*
X56250Y-46000D03*
X29850Y-32200D03*
X137450Y-34300D03*
X55750Y-60250D03*
X132700Y-35100D03*
X128860Y-34900D03*
X136550Y-35400D03*
X118550Y-29250D03*
X53250Y-29750D03*
X50750Y-29850D03*
X51250Y-60250D03*
X48500Y-53500D03*
X136050Y-24650D03*
X132500Y-32650D03*
X137700Y-36000D03*
X126800Y-25860D03*
X32900Y-44050D03*
X137350Y-28420D03*
X54400Y-39750D03*
X55350Y-39750D03*
X50100Y-40750D03*
X136200Y-42700D03*
X53000Y-47900D03*
X133200Y-25550D03*
X129650Y-25450D03*
X131700Y-25550D03*
X137300Y-25850D03*
X135750Y-51850D03*
X122750Y-46300D03*
X125650Y-46200D03*
X136150Y-44000D03*
X30900Y-56250D03*
X30900Y-57450D03*
X30900Y-55050D03*
X58000Y-42000D03*
X31250Y-34650D03*
X44500Y-60250D03*
X57750Y-53500D03*
X58750Y-49250D03*
X49000Y-60250D03*
X122400Y-26700D03*
X63000Y-24150D03*
X131420Y-34900D03*
X58250Y-43500D03*
X122500Y-31500D03*
X140950Y-50250D03*
X122550Y-47900D03*
X55250Y-55000D03*
X65200Y-45400D03*
X127150Y-31500D03*
X45500Y-60250D03*
X122200Y-29200D03*
X63000Y-30000D03*
X118550Y-31500D03*
X120250Y-31500D03*
X127100Y-33750D03*
X120600Y-26750D03*
X32350Y-25350D03*
X28050Y-30450D03*
X28650Y-36300D03*
X30950Y-40450D03*
X32650Y-31250D03*
X31850Y-32150D03*
X29050Y-36700D03*
X28350Y-32200D03*
X30250Y-38100D03*
X29950Y-41600D03*
X26750Y-33650D03*
X31000Y-33500D03*
X30550Y-37600D03*
X29900Y-33050D03*
X31000Y-43450D03*
X30700Y-36150D03*
X31150Y-34200D03*
X28850Y-34800D03*
X135700Y-33350D03*
X135400Y-29500D03*
X139050Y-29190D03*
X137250Y-29200D03*
X134250Y-33350D03*
X133650Y-35300D03*
X134240Y-35300D03*
X136500Y-37100D03*
X137500Y-22840D03*
X141000Y-28750D03*
X135750Y-36950D03*
X137250Y-31550D03*
X43400Y-34700D03*
X43050Y-33600D03*
X62650Y-51350D03*
X48700Y-47850D03*
X48150Y-47850D03*
X39000Y-60250D03*
X130500Y-51600D03*
X126050Y-45850D03*
X126550Y-48050D03*
X124550Y-46750D03*
X137250Y-47400D03*
G54D32*
X38000Y-63450D02*
X38000Y-62400D01*
G54D33*
X59500Y-61000D02*
X59100Y-60600D01*
G54D11*
X59500Y-59750D02*
X59100Y-59350D01*
G54D33*
X59500Y-59750D02*
X59400Y-59750D01*
X59500Y-62400D02*
X59500Y-61000D01*
G54D11*
X59100Y-58450D02*
X59100Y-59350D01*
G54D33*
X47500Y-62400D02*
X47500Y-61000D01*
X47100Y-60600D02*
X47100Y-60050D01*
X47500Y-61000D02*
X47100Y-60600D01*
X63500Y-62400D02*
X63500Y-59750D01*
G54D11*
X47300Y-59750D02*
X47500Y-59750D01*
G54D32*
X59500Y-62400D02*
X59500Y-63450D01*
G54D33*
X50500Y-62400D02*
X50500Y-59750D01*
G54D11*
X59050Y-58450D02*
X59100Y-58450D01*
G54D33*
X47400Y-59750D02*
X47100Y-60050D01*
X56500Y-62400D02*
X56500Y-59750D01*
G54D11*
X47100Y-59550D02*
X47300Y-59750D01*
X47100Y-58450D02*
X47100Y-59550D01*
G54D32*
X53500Y-62400D02*
X53500Y-63450D01*
X47500Y-62400D02*
X47500Y-63450D01*
X50500Y-62400D02*
X50500Y-63450D01*
X56500Y-62400D02*
X56500Y-63450D01*
G54D33*
X47500Y-59750D02*
X47400Y-59750D01*
X59400Y-59750D02*
X59100Y-60050D01*
X59100Y-60600D02*
X59100Y-60050D01*
X53500Y-62400D02*
X53500Y-59750D01*
G54D32*
X63500Y-62400D02*
X63500Y-63450D01*
G54D11*
X30550Y-50150D02*
X31350Y-50150D01*
X29150Y-40050D02*
X29150Y-38950D01*
X29900Y-38850D02*
X29900Y-38300D01*
X29550Y-37950D02*
X29550Y-36850D01*
X29900Y-38300D02*
X29550Y-37950D01*
X29550Y-50150D02*
X30550Y-50150D01*
X28750Y-40850D02*
X28750Y-40450D01*
X29150Y-38950D02*
X29250Y-38850D01*
X29250Y-38850D02*
X29900Y-38850D01*
X28750Y-40450D02*
X29150Y-40050D01*
X39500Y-60000D02*
X39750Y-59750D01*
X130750Y-25550D02*
X130800Y-25550D01*
X67650Y-49900D02*
X68350Y-49900D01*
X67450Y-44200D02*
X68350Y-44200D01*
X67450Y-38300D02*
X68350Y-38300D01*
X49500Y-41000D02*
X49500Y-40450D01*
X37250Y-25750D02*
X38250Y-25750D01*
X42000Y-32850D02*
X42000Y-33000D01*
X126650Y-34050D02*
X127500Y-34050D01*
X127600Y-34150D02*
X127600Y-34350D01*
X48500Y-35000D02*
X48500Y-35750D01*
X55900Y-28250D02*
X56100Y-28450D01*
X56100Y-28450D02*
X56100Y-29000D01*
X53250Y-28250D02*
X55900Y-28250D01*
X50350Y-28750D02*
X50250Y-28650D01*
X50250Y-28650D02*
X50250Y-28350D01*
X33300Y-30550D02*
X34000Y-31250D01*
X34750Y-31250D02*
X34000Y-31250D01*
X130750Y-26050D02*
X130750Y-25550D01*
X44000Y-36500D02*
X44000Y-35750D01*
X125650Y-22950D02*
X129370Y-22950D01*
X125450Y-23150D02*
X125650Y-22950D01*
X53250Y-55450D02*
X53250Y-55000D01*
X58500Y-55700D02*
X58500Y-55000D01*
X57800Y-24750D02*
X57800Y-24150D01*
X126650Y-29100D02*
X126650Y-29190D01*
X126550Y-29000D02*
X126650Y-29100D01*
X125800Y-29000D02*
X126550Y-29000D01*
X125700Y-28900D02*
X125800Y-29000D01*
X125700Y-28200D02*
X125700Y-28900D01*
X45000Y-61000D02*
X45000Y-62400D01*
X44600Y-47900D02*
X44500Y-47800D01*
X44500Y-47500D02*
X46100Y-47500D01*
X42000Y-60250D02*
X42000Y-62400D01*
X58250Y-45800D02*
X58250Y-45250D01*
X127500Y-34050D02*
X127600Y-34150D01*
X142250Y-34500D02*
X142350Y-34400D01*
X130750Y-26950D02*
X130750Y-26050D01*
X130650Y-27050D02*
X130750Y-26950D01*
X127850Y-27050D02*
X130650Y-27050D01*
X127550Y-27350D02*
X127850Y-27050D01*
X60900Y-28500D02*
X61250Y-28500D01*
X61250Y-28500D02*
X61350Y-28600D01*
X42100Y-32750D02*
X42000Y-32850D01*
X42000Y-33000D02*
X42000Y-32900D01*
X42100Y-32800D02*
X42450Y-32800D01*
X42000Y-34150D02*
X42000Y-33000D01*
X44750Y-59750D02*
X44500Y-59750D01*
X42450Y-32800D02*
X42500Y-32750D01*
X62000Y-28600D02*
X61350Y-28600D01*
X58550Y-55000D02*
X58500Y-55000D01*
X39800Y-58950D02*
X39750Y-58950D01*
X44050Y-35750D02*
X44000Y-35750D01*
X48450Y-35750D02*
X48500Y-35750D01*
X53700Y-46000D02*
X53000Y-46000D01*
X58300Y-45250D02*
X58250Y-45250D01*
X38400Y-34150D02*
X38400Y-34350D01*
X42500Y-32300D02*
X42500Y-32750D01*
X42500Y-32750D02*
X42550Y-32750D01*
X42550Y-32750D02*
X42100Y-32750D01*
X65000Y-53000D02*
X65450Y-53000D01*
X45000Y-61000D02*
X44900Y-60900D01*
X42000Y-32900D02*
X42100Y-32800D01*
X60950Y-34250D02*
X60950Y-34700D01*
X50850Y-28750D02*
X50850Y-28250D01*
X53150Y-28150D02*
X53250Y-28250D01*
X61100Y-34250D02*
X60950Y-34250D01*
X44900Y-60900D02*
X44900Y-59900D01*
X48500Y-33500D02*
X48500Y-35000D01*
X56100Y-29000D02*
X56100Y-29450D01*
X66500Y-60250D02*
X66500Y-62400D01*
X36600Y-37250D02*
X36600Y-37500D01*
X59800Y-53500D02*
X59800Y-52000D01*
X59800Y-52000D02*
X59750Y-52000D01*
X59800Y-53500D02*
X60750Y-53500D01*
X33300Y-29750D02*
X33300Y-30550D01*
X53200Y-55000D02*
X53250Y-55000D01*
X44600Y-48500D02*
X44600Y-47900D01*
X51450Y-48500D02*
X50750Y-48500D01*
X56150Y-29000D02*
X56100Y-29000D01*
X36700Y-37600D02*
X36700Y-37800D01*
X36600Y-37500D02*
X36700Y-37600D01*
X50850Y-28750D02*
X50350Y-28750D01*
X49350Y-41000D02*
X49500Y-41000D01*
X67500Y-60250D02*
X67500Y-62400D01*
X127450Y-29190D02*
X127550Y-29090D01*
X127550Y-29090D02*
X127550Y-27350D01*
X44500Y-47500D02*
X44500Y-47800D01*
X126650Y-29190D02*
X127450Y-29190D01*
X44750Y-59750D02*
X44900Y-59900D01*
X39750Y-59750D02*
X39750Y-58950D01*
X135650Y-34450D02*
X135650Y-34150D01*
X135650Y-34150D02*
X135850Y-33950D01*
X135850Y-33950D02*
X138300Y-33950D01*
X59750Y-53500D02*
X59750Y-52000D01*
X60750Y-53500D02*
X59750Y-53500D01*
X41000Y-62400D02*
X41000Y-60250D01*
X135550Y-34550D02*
X135650Y-34450D01*
X134900Y-34550D02*
X135550Y-34550D01*
X68000Y-62400D02*
X68000Y-60250D01*
X138850Y-34500D02*
X142250Y-34500D01*
X138300Y-33950D02*
X138850Y-34500D01*
X135010Y-35400D02*
X135010Y-34550D01*
X60750Y-48400D02*
X59950Y-48400D01*
X50950Y-28150D02*
X53150Y-28150D01*
X50850Y-28250D02*
X50950Y-28150D01*
X142350Y-34400D02*
X142350Y-34050D01*
G54D32*
X66500Y-63450D02*
X66500Y-62400D01*
X67500Y-63450D02*
X67500Y-62400D01*
X68000Y-63450D02*
X68000Y-62400D01*
G54D11*
X45000Y-63450D02*
X45000Y-62400D01*
X39500Y-63450D02*
X39500Y-62400D01*
X42000Y-63450D02*
X42000Y-62400D01*
X41000Y-63450D02*
X41000Y-62400D01*
X135010Y-34550D02*
X134900Y-34550D01*
X39500Y-62400D02*
X39500Y-60000D01*
X50750Y-53750D02*
X51450Y-53750D01*
X32850Y-55550D02*
X32850Y-51000D01*
X32700Y-41450D02*
X33550Y-40600D01*
X27200Y-57800D02*
X27200Y-54700D01*
X61450Y-58850D02*
X61450Y-58550D01*
X80300Y-56650D02*
X79950Y-57000D01*
X37050Y-57850D02*
X37050Y-58700D01*
X61550Y-58950D02*
X64400Y-58950D01*
X27750Y-54600D02*
X27750Y-54650D01*
X64400Y-58950D02*
X64500Y-58850D01*
X61550Y-58950D02*
X61450Y-58850D01*
X64500Y-58850D02*
X74600Y-58850D01*
X27200Y-54700D02*
X27300Y-54600D01*
X37050Y-58700D02*
X36250Y-59500D01*
X28900Y-55050D02*
X29500Y-55650D01*
X28150Y-55050D02*
X28900Y-55050D01*
X41250Y-57750D02*
X37150Y-57750D01*
X27300Y-54600D02*
X27750Y-54600D01*
X31500Y-45900D02*
X31500Y-43500D01*
X32750Y-55650D02*
X32850Y-55550D01*
X33550Y-40600D02*
X33550Y-39750D01*
X28900Y-59500D02*
X27200Y-57800D01*
X29500Y-55650D02*
X32750Y-55650D01*
X32700Y-42300D02*
X32700Y-41450D01*
X37150Y-57750D02*
X37050Y-57850D01*
X79950Y-57000D02*
X76450Y-57000D01*
X32550Y-46950D02*
X31500Y-45900D01*
X41350Y-58550D02*
X41350Y-57850D01*
X32850Y-51000D02*
X32550Y-50700D01*
X36250Y-59500D02*
X28900Y-59500D01*
X76450Y-57000D02*
X74600Y-58850D01*
X27750Y-54650D02*
X28150Y-55050D01*
X32550Y-50700D02*
X32550Y-46950D01*
X41350Y-57850D02*
X41250Y-57750D01*
X31500Y-43500D02*
X32700Y-42300D01*
X114650Y-52100D02*
X79950Y-52100D01*
X75400Y-56100D02*
X73450Y-58050D01*
X114950Y-51800D02*
X114650Y-52100D01*
X79700Y-55400D02*
X79700Y-52850D01*
X34100Y-56550D02*
X34300Y-56750D01*
X41700Y-56750D02*
X34300Y-56750D01*
X79850Y-52700D02*
X79850Y-52200D01*
X79850Y-52200D02*
X79950Y-52100D01*
X24950Y-38900D02*
X25850Y-39800D01*
X79000Y-56100D02*
X75400Y-56100D01*
X26200Y-41750D02*
X26350Y-41900D01*
X25850Y-39800D02*
X25850Y-41000D01*
X79000Y-56100D02*
X79700Y-55400D01*
X23350Y-38900D02*
X24950Y-38900D01*
X34100Y-56550D02*
X34100Y-48950D01*
X34450Y-48600D02*
X34450Y-41900D01*
X79700Y-52850D02*
X79850Y-52700D01*
X42150Y-57200D02*
X41700Y-56750D01*
X23250Y-38800D02*
X23350Y-38900D01*
X26200Y-41350D02*
X25850Y-41000D01*
X73450Y-58050D02*
X64150Y-58050D01*
X26200Y-41750D02*
X26200Y-41350D01*
X64150Y-58050D02*
X64100Y-58000D01*
X64100Y-58000D02*
X63800Y-58000D01*
X34100Y-48950D02*
X34450Y-48600D01*
X23250Y-36750D02*
X23250Y-38800D01*
X37350Y-46150D02*
X37350Y-43900D01*
X41500Y-40500D02*
X42400Y-40500D01*
X40750Y-41250D02*
X41500Y-40500D01*
X65900Y-44350D02*
X65900Y-43950D01*
X42400Y-40500D02*
X42900Y-40000D01*
X65900Y-43950D02*
X65650Y-43700D01*
X54450Y-39250D02*
X55000Y-39250D01*
X54450Y-39250D02*
X53700Y-40000D01*
X64550Y-43700D02*
X61450Y-43700D01*
X37350Y-43900D02*
X38100Y-43150D01*
X53700Y-40000D02*
X42900Y-40000D01*
X66450Y-44900D02*
X65900Y-44350D01*
X128800Y-45000D02*
X129050Y-45000D01*
X69250Y-44850D02*
X69200Y-44900D01*
X128800Y-45000D02*
X128750Y-44950D01*
X64550Y-43700D02*
X65650Y-43700D01*
X36250Y-46250D02*
X37250Y-46250D01*
X38850Y-43150D02*
X40750Y-41250D01*
X69200Y-44900D02*
X66450Y-44900D01*
X94750Y-44850D02*
X69250Y-44850D01*
X94850Y-44950D02*
X94750Y-44850D01*
X128750Y-44950D02*
X94850Y-44950D01*
X38100Y-43150D02*
X38850Y-43150D01*
X37250Y-46250D02*
X37350Y-46150D01*
X37000Y-45250D02*
X37100Y-45150D01*
X128800Y-44750D02*
X95000Y-44750D01*
X41200Y-40300D02*
X42350Y-40300D01*
X55000Y-38750D02*
X54700Y-38750D01*
X66150Y-44250D02*
X66150Y-43750D01*
X36250Y-45250D02*
X37000Y-45250D01*
X65600Y-43200D02*
X64550Y-43200D01*
X37100Y-43800D02*
X37950Y-42950D01*
X54700Y-38750D02*
X53650Y-39800D01*
X40250Y-41250D02*
X38550Y-42950D01*
X69100Y-44650D02*
X69050Y-44700D01*
X38550Y-42950D02*
X37950Y-42950D01*
X95000Y-44750D02*
X94900Y-44650D01*
X66600Y-44700D02*
X66150Y-44250D01*
X69050Y-44700D02*
X66600Y-44700D01*
X42850Y-39800D02*
X53650Y-39800D01*
X37100Y-45150D02*
X37100Y-43800D01*
X41200Y-40300D02*
X40250Y-41250D01*
X129250Y-44300D02*
X128800Y-44750D01*
X66150Y-43750D02*
X65600Y-43200D01*
X94900Y-44650D02*
X69100Y-44650D01*
X42350Y-40300D02*
X42850Y-39800D01*
X64550Y-43200D02*
X61450Y-43200D01*
X36850Y-43600D02*
X37700Y-42750D01*
X129900Y-43900D02*
X129050Y-43900D01*
X95000Y-44450D02*
X68850Y-44450D01*
X129050Y-43900D02*
X129000Y-43950D01*
X53550Y-39600D02*
X42800Y-39600D01*
X37700Y-42750D02*
X38250Y-42750D01*
X36750Y-44250D02*
X36850Y-44150D01*
X66350Y-43650D02*
X65400Y-42700D01*
X130250Y-44250D02*
X129900Y-43900D01*
X42300Y-40100D02*
X42800Y-39600D01*
X64550Y-42700D02*
X61450Y-42700D01*
X39600Y-41400D02*
X40900Y-40100D01*
X66700Y-44500D02*
X66350Y-44150D01*
X115850Y-43950D02*
X115350Y-44450D01*
X95100Y-44550D02*
X95000Y-44450D01*
X38250Y-42750D02*
X39600Y-41400D01*
X129000Y-43950D02*
X115850Y-43950D01*
X65400Y-42700D02*
X64550Y-42700D01*
X36850Y-44150D02*
X36850Y-43600D01*
X66350Y-44150D02*
X66350Y-43650D01*
X55250Y-38250D02*
X54900Y-38250D01*
X68850Y-44450D02*
X68800Y-44500D01*
X115350Y-44450D02*
X111000Y-44450D01*
X55500Y-38500D02*
X55250Y-38250D01*
X110900Y-44550D02*
X95100Y-44550D01*
X54900Y-38250D02*
X53550Y-39600D01*
X68800Y-44500D02*
X66700Y-44500D01*
X111000Y-44450D02*
X110900Y-44550D01*
X36250Y-44250D02*
X36750Y-44250D01*
X40900Y-40100D02*
X42300Y-40100D01*
X94850Y-46300D02*
X94850Y-45200D01*
X99250Y-46400D02*
X99400Y-46550D01*
X99250Y-46400D02*
X94950Y-46400D01*
X93950Y-45050D02*
X69300Y-45050D01*
X125100Y-49500D02*
X125100Y-49250D01*
X128550Y-49350D02*
X128550Y-49650D01*
X94850Y-45200D02*
X94750Y-45100D01*
X94750Y-45100D02*
X94000Y-45100D01*
X99500Y-47750D02*
X99400Y-47650D01*
X101400Y-47750D02*
X99500Y-47750D01*
X99400Y-47650D02*
X99400Y-46550D01*
X53350Y-39200D02*
X42650Y-39200D01*
X125350Y-49750D02*
X125100Y-49500D01*
X128450Y-49750D02*
X125350Y-49750D01*
X94000Y-45100D02*
X93950Y-45050D01*
X65950Y-41700D02*
X64550Y-41700D01*
X101400Y-47750D02*
X102450Y-48800D01*
X94950Y-46400D02*
X94850Y-46300D01*
X111150Y-48800D02*
X102450Y-48800D01*
X56500Y-38500D02*
X55750Y-37750D01*
X39290Y-40700D02*
X39300Y-40700D01*
X42150Y-39700D02*
X42650Y-39200D01*
X55750Y-37750D02*
X54800Y-37750D01*
X69250Y-45100D02*
X69300Y-45050D01*
X39300Y-40700D02*
X40300Y-39700D01*
X37750Y-42250D02*
X39300Y-40700D01*
X64550Y-41700D02*
X63800Y-41700D01*
X40300Y-39700D02*
X42150Y-39700D01*
X66150Y-45100D02*
X69250Y-45100D01*
X36250Y-42250D02*
X37750Y-42250D01*
X124800Y-48950D02*
X125100Y-49250D01*
X53350Y-39200D02*
X54800Y-37750D01*
X128550Y-49650D02*
X128450Y-49750D01*
X111300Y-48950D02*
X111150Y-48800D01*
X124800Y-48950D02*
X111300Y-48950D01*
X63800Y-41700D02*
X63350Y-42150D01*
X63350Y-42150D02*
X63250Y-42150D01*
X85950Y-37350D02*
X85550Y-37750D01*
X94300Y-37350D02*
X85950Y-37350D01*
X94700Y-37750D02*
X94300Y-37350D01*
X84850Y-37750D02*
X85550Y-37750D01*
X67150Y-39100D02*
X69000Y-39100D01*
X36250Y-41250D02*
X38250Y-41250D01*
X69000Y-39100D02*
X70500Y-37600D01*
X38750Y-40750D02*
X40000Y-39500D01*
X94700Y-37750D02*
X122700Y-37750D01*
X64550Y-41200D02*
X66550Y-41200D01*
X64550Y-41200D02*
X62250Y-41200D01*
X122900Y-37950D02*
X122700Y-37750D01*
X130950Y-38000D02*
X130000Y-38000D01*
X66550Y-39700D02*
X67150Y-39100D01*
X84700Y-37600D02*
X84850Y-37750D01*
X129950Y-37950D02*
X122900Y-37950D01*
X40000Y-39500D02*
X42050Y-39500D01*
X53250Y-39000D02*
X54750Y-37500D01*
X57000Y-38500D02*
X56000Y-37500D01*
X56000Y-37500D02*
X54750Y-37500D01*
X38250Y-41250D02*
X38750Y-40750D01*
X130000Y-38000D02*
X129950Y-37950D01*
X42050Y-39500D02*
X42550Y-39000D01*
X127550Y-50350D02*
X129550Y-50350D01*
X42550Y-39000D02*
X53250Y-39000D01*
X70500Y-37600D02*
X84700Y-37600D01*
X50550Y-42400D02*
X41350Y-42400D01*
X65900Y-38700D02*
X68650Y-38700D01*
X126550Y-50350D02*
X126950Y-50750D01*
X64550Y-40200D02*
X65900Y-40200D01*
X68650Y-38700D02*
X70150Y-37200D01*
X94550Y-36950D02*
X94900Y-37300D01*
X41350Y-42400D02*
X40100Y-43650D01*
X61550Y-41150D02*
X62500Y-40200D01*
X125450Y-37250D02*
X125950Y-37250D01*
X85700Y-36950D02*
X94550Y-36950D01*
X130950Y-37100D02*
X132000Y-37100D01*
X36250Y-39250D02*
X37460Y-39250D01*
X57800Y-42400D02*
X57600Y-42400D01*
X64550Y-40200D02*
X62500Y-40200D01*
X85450Y-37200D02*
X85700Y-36950D01*
X56100Y-42150D02*
X57400Y-42150D01*
X40100Y-43650D02*
X38850Y-43650D01*
X94900Y-37300D02*
X125400Y-37300D01*
X55650Y-42600D02*
X56100Y-42150D01*
X130500Y-37550D02*
X130950Y-37100D01*
X130450Y-50350D02*
X130050Y-50750D01*
X70150Y-37200D02*
X85450Y-37200D01*
X57400Y-42150D02*
X57600Y-42400D01*
X125950Y-37250D02*
X126250Y-37550D01*
X50750Y-42600D02*
X50550Y-42400D01*
X126250Y-37550D02*
X130500Y-37550D01*
X55650Y-42600D02*
X50750Y-42600D01*
X126950Y-50750D02*
X130050Y-50750D01*
X125450Y-37250D02*
X125400Y-37300D01*
X31750Y-45800D02*
X31750Y-43550D01*
X129350Y-51550D02*
X128100Y-51550D01*
X33000Y-38050D02*
X33500Y-38050D01*
X33050Y-50850D02*
X32750Y-50550D01*
X115800Y-52100D02*
X115150Y-51450D01*
X32900Y-41850D02*
X33500Y-41250D01*
X32750Y-50550D02*
X32750Y-46800D01*
X28350Y-55650D02*
X27750Y-55650D01*
X79500Y-52800D02*
X79650Y-52650D01*
X33600Y-57050D02*
X33300Y-57050D01*
X32900Y-42400D02*
X32900Y-41850D01*
X75050Y-55900D02*
X74850Y-55700D01*
X58350Y-56150D02*
X61250Y-56150D01*
X52900Y-55650D02*
X53050Y-55800D01*
X51200Y-56050D02*
X49900Y-57350D01*
X78900Y-55900D02*
X79500Y-55300D01*
X33050Y-56800D02*
X33300Y-57050D01*
X53450Y-55800D02*
X53600Y-55650D01*
X58250Y-55900D02*
X58000Y-55650D01*
X79650Y-52000D02*
X79750Y-51900D01*
X58350Y-56150D02*
X58250Y-56050D01*
X53050Y-55800D02*
X53450Y-55800D01*
X134500Y-50850D02*
X133950Y-51400D01*
X28950Y-56250D02*
X28350Y-55650D01*
X41100Y-57050D02*
X34400Y-57050D01*
X79650Y-52650D02*
X79650Y-52000D01*
X114500Y-51450D02*
X114050Y-51900D01*
X127900Y-52100D02*
X125300Y-52100D01*
X58250Y-56050D02*
X58250Y-55900D01*
X51200Y-55900D02*
X51200Y-56050D01*
X61250Y-56150D02*
X61350Y-56050D01*
X131100Y-51900D02*
X131000Y-52000D01*
X133950Y-51400D02*
X131200Y-51400D01*
X49900Y-57350D02*
X46100Y-57350D01*
X131200Y-51400D02*
X131100Y-51500D01*
X53600Y-55650D02*
X58000Y-55650D01*
X79500Y-55300D02*
X79500Y-52800D01*
X32750Y-46800D02*
X31750Y-45800D01*
X61350Y-56050D02*
X65750Y-56050D01*
X78900Y-55900D02*
X75050Y-55900D01*
X28900Y-56250D02*
X29450Y-56800D01*
X131000Y-52000D02*
X129550Y-52000D01*
X134750Y-50850D02*
X134500Y-50850D01*
X123550Y-51550D02*
X124750Y-51550D01*
X51450Y-55650D02*
X52900Y-55650D01*
X131100Y-51500D02*
X131100Y-51900D01*
X51450Y-55650D02*
X51200Y-55900D01*
X129450Y-51900D02*
X129450Y-51650D01*
X29450Y-56800D02*
X33050Y-56800D01*
X123000Y-52100D02*
X115800Y-52100D01*
X128000Y-51650D02*
X128000Y-52000D01*
X128000Y-52000D02*
X127900Y-52100D01*
X129550Y-52000D02*
X129450Y-51900D01*
X28900Y-56250D02*
X28950Y-56250D01*
X123550Y-51550D02*
X123000Y-52100D01*
X31750Y-43550D02*
X32900Y-42400D01*
X125300Y-52100D02*
X124750Y-51550D01*
X115150Y-51450D02*
X114500Y-51450D01*
X128100Y-51550D02*
X128000Y-51650D01*
X33050Y-50850D02*
X33050Y-56800D01*
X129450Y-51650D02*
X129350Y-51550D01*
X74850Y-55700D02*
X66100Y-55700D01*
X66100Y-55700D02*
X65750Y-56050D01*
X114050Y-51900D02*
X79750Y-51900D01*
X40400Y-58500D02*
X40400Y-58700D01*
X76450Y-56700D02*
X74500Y-58650D01*
X28650Y-60000D02*
X26100Y-57450D01*
X80450Y-52800D02*
X80550Y-52700D01*
X79150Y-56700D02*
X80300Y-55550D01*
X79150Y-56700D02*
X76450Y-56700D01*
X80300Y-53050D02*
X80450Y-52900D01*
X80450Y-52900D02*
X80450Y-52800D01*
X40300Y-58400D02*
X40400Y-58500D01*
X37900Y-58400D02*
X36300Y-60000D01*
X25350Y-45750D02*
X23250Y-45750D01*
X25450Y-45850D02*
X25350Y-45750D01*
X25450Y-47700D02*
X25450Y-45850D01*
X141100Y-52350D02*
X140750Y-52700D01*
X80300Y-55550D02*
X80300Y-53050D01*
X40300Y-58400D02*
X37900Y-58400D01*
X124250Y-52700D02*
X124250Y-52250D01*
X124250Y-52700D02*
X80550Y-52700D01*
X26100Y-57450D02*
X26100Y-51250D01*
X62000Y-58650D02*
X62000Y-58150D01*
X62100Y-58750D02*
X62000Y-58650D01*
X64200Y-58750D02*
X64300Y-58650D01*
X62100Y-58750D02*
X64200Y-58750D01*
X74500Y-58650D02*
X64300Y-58650D01*
X36300Y-60000D02*
X28650Y-60000D01*
X25450Y-47750D02*
X25000Y-48200D01*
X25000Y-48200D02*
X25000Y-50150D01*
X25000Y-50150D02*
X26100Y-51250D01*
X25450Y-47700D02*
X25450Y-47750D01*
X140750Y-52700D02*
X124250Y-52700D01*
X124800Y-49950D02*
X124950Y-50100D01*
X132250Y-50850D02*
X132150Y-50950D01*
X117150Y-49950D02*
X116900Y-50200D01*
X132150Y-50950D02*
X125450Y-50950D01*
X124950Y-50450D02*
X124950Y-50100D01*
X124950Y-50450D02*
X125450Y-50950D01*
X132250Y-50250D02*
X132250Y-50850D01*
X117150Y-49950D02*
X124800Y-49950D01*
X41500Y-31350D02*
X41400Y-31450D01*
X113900Y-40750D02*
X113700Y-40550D01*
X72750Y-41900D02*
X72400Y-41550D01*
X73000Y-41900D02*
X72750Y-41900D01*
X65050Y-31800D02*
X64300Y-31800D01*
X125350Y-41600D02*
X125350Y-41250D01*
X71950Y-31550D02*
X71550Y-31550D01*
X122850Y-40650D02*
X122550Y-40350D01*
X71400Y-31400D02*
X65450Y-31400D01*
X65450Y-31400D02*
X65050Y-31800D01*
X123400Y-40650D02*
X122850Y-40650D01*
X123900Y-41150D02*
X123400Y-40650D01*
X73350Y-41550D02*
X73000Y-41900D01*
X117800Y-40750D02*
X113900Y-40750D01*
X97600Y-41550D02*
X73350Y-41550D01*
X125250Y-41150D02*
X123900Y-41150D01*
X126950Y-41450D02*
X126150Y-41450D01*
X113700Y-40550D02*
X108200Y-40550D01*
X51750Y-31750D02*
X50100Y-31750D01*
X61050Y-31250D02*
X63750Y-31250D01*
X61050Y-31250D02*
X60850Y-31050D01*
X118200Y-40350D02*
X117800Y-40750D01*
X71550Y-31550D02*
X71400Y-31400D01*
X125450Y-41700D02*
X125350Y-41600D01*
X107800Y-40950D02*
X102500Y-40950D01*
X108200Y-40550D02*
X107800Y-40950D01*
X54100Y-31150D02*
X52350Y-31150D01*
X54300Y-30950D02*
X54100Y-31150D01*
X59050Y-30950D02*
X54300Y-30950D01*
X60850Y-31050D02*
X59150Y-31050D01*
X101750Y-41700D02*
X97750Y-41700D01*
X97750Y-41700D02*
X97600Y-41550D01*
X102500Y-40950D02*
X101750Y-41700D01*
X50100Y-31750D02*
X49700Y-31350D01*
X122550Y-40350D02*
X118200Y-40350D01*
X64300Y-31800D02*
X63750Y-31250D01*
X126150Y-41450D02*
X125900Y-41700D01*
X125350Y-41250D02*
X125250Y-41150D01*
X125900Y-41700D02*
X125450Y-41700D01*
X59150Y-31050D02*
X59050Y-30950D01*
X41400Y-31450D02*
X41400Y-31650D01*
X49700Y-31350D02*
X41500Y-31350D01*
X52350Y-31150D02*
X51750Y-31750D01*
X122600Y-43050D02*
X122500Y-42950D01*
X63550Y-31450D02*
X60900Y-31450D01*
X111500Y-39300D02*
X111450Y-39350D01*
X111450Y-39350D02*
X93200Y-39350D01*
X93200Y-39350D02*
X92550Y-40000D01*
X92550Y-40000D02*
X91800Y-40000D01*
X91800Y-40000D02*
X91200Y-39400D01*
X91200Y-39400D02*
X73650Y-39400D01*
X125350Y-43050D02*
X122600Y-43050D01*
X73650Y-39400D02*
X73400Y-39650D01*
X64100Y-32000D02*
X69100Y-32000D01*
X40650Y-32300D02*
X39450Y-32300D01*
X40750Y-32200D02*
X40650Y-32300D01*
X41350Y-32200D02*
X40750Y-32200D01*
X41700Y-31850D02*
X41350Y-32200D01*
X112200Y-39300D02*
X111500Y-39300D01*
X73400Y-39650D02*
X72300Y-39650D01*
X54250Y-31250D02*
X54150Y-31350D01*
X60700Y-31250D02*
X54250Y-31250D01*
X64100Y-32000D02*
X63550Y-31450D01*
X51850Y-31950D02*
X50050Y-31950D01*
X115650Y-42950D02*
X115000Y-43600D01*
X122500Y-42950D02*
X115650Y-42950D01*
X39450Y-32300D02*
X39250Y-32100D01*
X54150Y-31350D02*
X52450Y-31350D01*
X50050Y-31950D02*
X49650Y-31550D01*
X52450Y-31350D02*
X51850Y-31950D01*
X115000Y-43600D02*
X112200Y-43600D01*
X60900Y-31450D02*
X60700Y-31250D01*
X39250Y-32100D02*
X39250Y-31800D01*
X41900Y-31550D02*
X41700Y-31750D01*
X41700Y-31750D02*
X41700Y-31850D01*
X49650Y-31550D02*
X41900Y-31550D01*
X118550Y-49350D02*
X119550Y-49350D01*
X120650Y-47600D02*
X121150Y-47600D01*
X120550Y-47700D02*
X120650Y-47600D01*
X117550Y-49350D02*
X118550Y-49350D01*
X120550Y-47850D02*
X120550Y-47700D01*
X119550Y-49350D02*
X120550Y-49350D01*
X121150Y-47600D02*
X121150Y-47750D01*
X116550Y-44350D02*
X117550Y-44350D01*
X128900Y-40350D02*
X129650Y-39600D01*
X129650Y-39600D02*
X133750Y-39600D01*
X128250Y-28200D02*
X128900Y-28850D01*
X138150Y-40650D02*
X138250Y-40550D01*
X129050Y-35250D02*
X129400Y-34900D01*
X133850Y-39700D02*
X133850Y-40500D01*
X129000Y-33800D02*
X128900Y-33700D01*
X129050Y-37050D02*
X129050Y-35250D01*
X128900Y-33700D02*
X128900Y-28850D01*
X128550Y-40350D02*
X128900Y-40350D01*
X129400Y-34900D02*
X129400Y-33850D01*
X128250Y-28200D02*
X127900Y-28200D01*
X133750Y-39600D02*
X133850Y-39700D01*
X138250Y-40550D02*
X138250Y-40250D01*
X133850Y-40500D02*
X134000Y-40650D01*
X129350Y-33800D02*
X129000Y-33800D01*
X134000Y-40650D02*
X138150Y-40650D01*
X129400Y-33850D02*
X129350Y-33800D01*
X134000Y-41850D02*
X137250Y-41850D01*
X133450Y-40850D02*
X129700Y-40850D01*
X126050Y-35300D02*
X126050Y-30000D01*
X126350Y-35600D02*
X126050Y-35300D01*
X126300Y-27700D02*
X126450Y-27850D01*
X125000Y-29900D02*
X124600Y-29500D01*
X126950Y-35700D02*
X126850Y-35600D01*
X128350Y-41750D02*
X128800Y-41750D01*
X127550Y-41350D02*
X127950Y-41350D01*
X133650Y-41500D02*
X133650Y-41050D01*
X124600Y-29500D02*
X124600Y-27900D01*
X133650Y-41050D02*
X133450Y-40850D01*
X137450Y-42050D02*
X138150Y-42050D01*
X126950Y-37050D02*
X126950Y-35700D01*
X134000Y-41850D02*
X133650Y-41500D01*
X126850Y-35600D02*
X126350Y-35600D01*
X138150Y-42050D02*
X138250Y-41950D01*
X126450Y-27850D02*
X126800Y-27850D01*
X137250Y-41850D02*
X137450Y-42050D01*
X138250Y-41950D02*
X138250Y-41250D01*
X124600Y-27900D02*
X124800Y-27700D01*
X126050Y-30000D02*
X125950Y-29900D01*
X127950Y-41350D02*
X128350Y-41750D01*
X124800Y-27700D02*
X126300Y-27700D01*
X125950Y-29900D02*
X125000Y-29900D01*
X128800Y-41750D02*
X129700Y-40850D01*
X138900Y-45250D02*
X139250Y-45250D01*
X126800Y-45200D02*
X127350Y-45750D01*
X134750Y-44950D02*
X138600Y-44950D01*
X120550Y-45350D02*
X120700Y-45200D01*
X128850Y-45750D02*
X129950Y-44650D01*
X127350Y-45750D02*
X128850Y-45750D01*
X138600Y-44950D02*
X138900Y-45250D01*
X129950Y-44650D02*
X134450Y-44650D01*
X134450Y-44650D02*
X134750Y-44950D01*
X120700Y-45200D02*
X126800Y-45200D01*
X140250Y-43750D02*
X140150Y-43650D01*
X140150Y-43650D02*
X139950Y-43650D01*
X129200Y-41650D02*
X133500Y-41650D01*
X123250Y-41750D02*
X123450Y-41950D01*
X121100Y-33500D02*
X121100Y-34150D01*
X139950Y-43650D02*
X139850Y-43550D01*
X123250Y-41750D02*
X120950Y-41750D01*
X139850Y-43550D02*
X139850Y-42800D01*
X139850Y-42800D02*
X139700Y-42650D01*
X137150Y-42050D02*
X137750Y-42650D01*
X137150Y-42050D02*
X133900Y-42050D01*
X128250Y-41950D02*
X128050Y-41750D01*
X128050Y-41750D02*
X127300Y-41750D01*
X127100Y-41950D02*
X127300Y-41750D01*
X123450Y-41950D02*
X127100Y-41950D01*
X140250Y-44250D02*
X140250Y-43750D01*
X133500Y-41650D02*
X133900Y-42050D01*
X128900Y-41950D02*
X128250Y-41950D01*
X128900Y-41950D02*
X129200Y-41650D01*
X139700Y-42650D02*
X137750Y-42650D01*
X129000Y-42650D02*
X129900Y-42650D01*
X129000Y-42650D02*
X128900Y-42750D01*
X134900Y-44550D02*
X134650Y-44300D01*
X130050Y-42800D02*
X133250Y-42800D01*
X139250Y-44250D02*
X137400Y-44250D01*
X134650Y-44200D02*
X133250Y-42800D01*
X129900Y-42650D02*
X130050Y-42800D01*
X121500Y-33250D02*
X121500Y-34400D01*
X137100Y-44550D02*
X134900Y-44550D01*
X128900Y-42750D02*
X122050Y-42750D01*
X122050Y-42750D02*
X121550Y-42250D01*
X137100Y-44550D02*
X137400Y-44250D01*
X134650Y-44300D02*
X134650Y-44200D01*
X139650Y-38850D02*
X139550Y-38750D01*
X138350Y-38750D02*
X138250Y-38850D01*
X139650Y-42300D02*
X139650Y-38850D01*
X121550Y-38350D02*
X121950Y-38750D01*
X140150Y-42650D02*
X140000Y-42650D01*
X140250Y-43250D02*
X140250Y-42750D01*
X136800Y-38500D02*
X134100Y-38500D01*
X122000Y-33050D02*
X122000Y-34350D01*
X140250Y-42750D02*
X140150Y-42650D01*
X137150Y-38850D02*
X136800Y-38500D01*
X121950Y-38750D02*
X126300Y-38750D01*
X138250Y-38850D02*
X137150Y-38850D01*
X128150Y-38950D02*
X126500Y-38950D01*
X126300Y-38750D02*
X126500Y-38950D01*
X139650Y-42300D02*
X140000Y-42650D01*
X133850Y-38750D02*
X128350Y-38750D01*
X134100Y-38500D02*
X133850Y-38750D01*
X128350Y-38750D02*
X128150Y-38950D01*
X139550Y-38750D02*
X138350Y-38750D01*
X138200Y-39800D02*
X138400Y-39600D01*
X134400Y-39800D02*
X138200Y-39800D01*
X126850Y-39350D02*
X127450Y-39950D01*
X128850Y-39950D02*
X129400Y-39400D01*
X124350Y-35550D02*
X124350Y-32450D01*
X138400Y-39600D02*
X138550Y-39600D01*
X134000Y-39400D02*
X134400Y-39800D01*
X126550Y-39350D02*
X126850Y-39350D01*
X129400Y-39400D02*
X134000Y-39400D01*
X127450Y-39950D02*
X128850Y-39950D01*
X139750Y-38550D02*
X139850Y-38650D01*
X128000Y-38750D02*
X128200Y-38550D01*
X136850Y-38300D02*
X137200Y-38650D01*
X133750Y-38550D02*
X134000Y-38300D01*
X138200Y-38650D02*
X138300Y-38550D01*
X139850Y-38650D02*
X139850Y-41850D01*
X126650Y-38750D02*
X128000Y-38750D01*
X137200Y-38650D02*
X138200Y-38650D01*
X126550Y-38350D02*
X126550Y-38650D01*
X126550Y-38650D02*
X126650Y-38750D01*
X128200Y-38550D02*
X133750Y-38550D01*
X140250Y-42250D02*
X139850Y-41850D01*
X138300Y-38550D02*
X139750Y-38550D01*
X134000Y-38300D02*
X136850Y-38300D01*
X124700Y-35250D02*
X124700Y-32200D01*
X125050Y-49750D02*
X116050Y-49750D01*
X118350Y-35950D02*
X119150Y-35150D01*
X119300Y-30600D02*
X119300Y-30500D01*
X130400Y-49850D02*
X130300Y-49950D01*
X139250Y-49250D02*
X138650Y-49850D01*
X117050Y-35950D02*
X118350Y-35950D01*
X125250Y-49950D02*
X125050Y-49750D01*
X116900Y-36100D02*
X117050Y-35950D01*
X130300Y-49950D02*
X125250Y-49950D01*
X138650Y-49850D02*
X130400Y-49850D01*
X119150Y-30750D02*
X119300Y-30600D01*
X119150Y-35150D02*
X119150Y-30750D01*
X119350Y-31100D02*
X119800Y-30650D01*
X125200Y-48550D02*
X125400Y-48750D01*
X118450Y-48550D02*
X118200Y-48300D01*
X117450Y-36150D02*
X118450Y-36150D01*
X129100Y-48750D02*
X129200Y-48650D01*
X117350Y-36250D02*
X117450Y-36150D01*
X139850Y-48250D02*
X139450Y-47850D01*
X140250Y-48250D02*
X139850Y-48250D01*
X138650Y-48250D02*
X138650Y-48450D01*
X125400Y-48750D02*
X129100Y-48750D01*
X129200Y-48650D02*
X138450Y-48650D01*
X119350Y-35250D02*
X119350Y-31100D01*
X125200Y-48550D02*
X118450Y-48550D01*
X118450Y-36150D02*
X119350Y-35250D01*
X119800Y-30650D02*
X119800Y-30200D01*
X138450Y-48650D02*
X138650Y-48450D01*
X139050Y-47850D02*
X138650Y-48250D01*
X139450Y-47850D02*
X139050Y-47850D01*
X129000Y-49550D02*
X129000Y-49200D01*
X125250Y-48950D02*
X125050Y-48750D01*
X138850Y-49300D02*
X138500Y-49650D01*
X115900Y-48750D02*
X115750Y-48600D01*
X139250Y-48250D02*
X138850Y-48650D01*
X115750Y-48600D02*
X115400Y-48600D01*
X125050Y-48750D02*
X115900Y-48750D01*
X118950Y-35100D02*
X118950Y-30100D01*
X128750Y-48950D02*
X125250Y-48950D01*
X118300Y-35750D02*
X118950Y-35100D01*
X138850Y-48650D02*
X138850Y-49300D01*
X129100Y-49650D02*
X129000Y-49550D01*
X116550Y-35750D02*
X118300Y-35750D01*
X128750Y-48950D02*
X129000Y-49200D01*
X138500Y-49650D02*
X129100Y-49650D01*
X126700Y-45400D02*
X120950Y-45400D01*
X118700Y-36750D02*
X119950Y-35500D01*
X128900Y-45950D02*
X127250Y-45950D01*
X140150Y-45700D02*
X138900Y-45700D01*
X138900Y-45700D02*
X138350Y-45150D01*
X119950Y-35500D02*
X119950Y-32700D01*
X120900Y-30100D02*
X121000Y-30000D01*
X138350Y-45150D02*
X134650Y-45150D01*
X127250Y-45950D02*
X126700Y-45400D01*
X118700Y-36950D02*
X118700Y-36750D01*
X134350Y-44850D02*
X130000Y-44850D01*
X130000Y-44850D02*
X128900Y-45950D01*
X120700Y-45650D02*
X120250Y-45650D01*
X119950Y-45350D02*
X119350Y-45350D01*
X134650Y-45150D02*
X134350Y-44850D01*
X121000Y-30000D02*
X121000Y-29200D01*
X120250Y-45650D02*
X119950Y-45350D01*
X140250Y-46250D02*
X140250Y-45800D01*
X140250Y-45800D02*
X140150Y-45700D01*
X120950Y-45400D02*
X120700Y-45650D01*
X119950Y-32700D02*
X120900Y-31750D01*
X120900Y-31750D02*
X120900Y-30100D01*
X121100Y-30200D02*
X121300Y-30000D01*
X121300Y-28800D02*
X121300Y-30000D01*
X121100Y-31850D02*
X121100Y-30200D01*
X120050Y-47100D02*
X120150Y-47000D01*
X122950Y-47000D02*
X123050Y-47100D01*
X120150Y-47000D02*
X122950Y-47000D01*
X119350Y-36400D02*
X120150Y-35600D01*
X119350Y-36950D02*
X119350Y-36400D01*
X130600Y-46650D02*
X129200Y-46650D01*
X138700Y-46250D02*
X137850Y-45400D01*
X130650Y-46600D02*
X130600Y-46650D01*
X127150Y-46950D02*
X127000Y-47100D01*
X129200Y-46650D02*
X128900Y-46950D01*
X128900Y-46950D02*
X127150Y-46950D01*
X130750Y-45650D02*
X130650Y-45750D01*
X139250Y-46250D02*
X138700Y-46250D01*
X131600Y-45650D02*
X130750Y-45650D01*
X137850Y-45400D02*
X131850Y-45400D01*
X130650Y-45750D02*
X130650Y-46600D01*
X127000Y-47100D02*
X123050Y-47100D01*
X131850Y-45400D02*
X131600Y-45650D01*
X120050Y-47100D02*
X119700Y-47100D01*
X120150Y-32800D02*
X121100Y-31850D01*
X120150Y-35600D02*
X120150Y-32800D01*
X121300Y-28800D02*
X121050Y-28550D01*
X133750Y-43650D02*
X129000Y-43650D01*
X120350Y-35700D02*
X120350Y-32900D01*
X137200Y-44750D02*
X137300Y-44650D01*
X140250Y-45250D02*
X139650Y-44650D01*
X139650Y-44650D02*
X137300Y-44650D01*
X119950Y-43600D02*
X120250Y-43600D01*
X119850Y-36200D02*
X120350Y-35700D01*
X134850Y-44750D02*
X133750Y-43650D01*
X129000Y-43650D02*
X128900Y-43750D01*
X128900Y-43750D02*
X120400Y-43750D01*
X120250Y-43600D02*
X120400Y-43750D01*
X119850Y-37000D02*
X119850Y-36200D01*
X137200Y-44750D02*
X134850Y-44750D01*
X120350Y-32900D02*
X121300Y-31950D01*
X121300Y-31950D02*
X121300Y-30300D01*
X121300Y-30300D02*
X121500Y-30100D01*
X121500Y-30100D02*
X121500Y-28400D01*
X121500Y-28400D02*
X121100Y-28000D01*
X134700Y-46300D02*
X134700Y-47400D01*
X121500Y-46350D02*
X122000Y-46350D01*
X138700Y-51200D02*
X138350Y-50850D01*
X135200Y-46300D02*
X135300Y-46200D01*
X133850Y-51150D02*
X134250Y-50750D01*
X135300Y-42750D02*
X135300Y-42400D01*
X135300Y-46200D02*
X135300Y-46050D01*
X127450Y-51300D02*
X127600Y-51150D01*
X134250Y-50750D02*
X134250Y-50250D01*
X135350Y-50850D02*
X135250Y-50750D01*
X135300Y-42750D02*
X135300Y-44000D01*
X122950Y-50750D02*
X124850Y-50750D01*
X134700Y-47400D02*
X134700Y-47650D01*
X122550Y-50350D02*
X122950Y-50750D01*
X138700Y-51850D02*
X138700Y-51200D01*
X125400Y-51300D02*
X127450Y-51300D01*
X134700Y-46300D02*
X135200Y-46300D01*
X127600Y-51150D02*
X133850Y-51150D01*
X138350Y-50850D02*
X135350Y-50850D01*
X124850Y-50750D02*
X125400Y-51300D01*
X134250Y-49250D02*
X135250Y-49250D01*
X134250Y-50250D02*
X135250Y-50250D01*
X135250Y-50750D02*
X135250Y-50250D01*
X89500Y-40000D02*
X89500Y-39950D01*
X89500Y-40000D02*
X89350Y-40150D01*
X89350Y-40150D02*
X69850Y-40150D01*
X67900Y-39400D02*
X69100Y-39400D01*
X67750Y-39550D02*
X67900Y-39400D01*
X69100Y-39400D02*
X69850Y-40150D01*
X88500Y-42250D02*
X88150Y-42600D01*
X88150Y-42600D02*
X71350Y-42600D01*
X63000Y-33850D02*
X63000Y-34300D01*
X65750Y-32350D02*
X64950Y-32350D01*
X70950Y-33000D02*
X66400Y-33000D01*
X64950Y-32350D02*
X64350Y-32950D01*
X71450Y-32500D02*
X70950Y-33000D01*
X88000Y-32750D02*
X87600Y-32350D01*
X87600Y-32350D02*
X78650Y-32350D01*
X64350Y-32950D02*
X63900Y-32950D01*
X66400Y-33000D02*
X65750Y-32350D01*
X73800Y-32200D02*
X73500Y-32500D01*
X78500Y-32200D02*
X73800Y-32200D01*
X78650Y-32350D02*
X78500Y-32200D01*
X73500Y-32500D02*
X71450Y-32500D01*
X63900Y-32950D02*
X63000Y-33850D01*
X52600Y-25450D02*
X52500Y-25550D01*
X105400Y-24400D02*
X105500Y-24500D01*
X97900Y-24400D02*
X98100Y-24200D01*
X64250Y-25450D02*
X65500Y-24200D01*
X96900Y-24200D02*
X97100Y-24400D01*
X102450Y-24400D02*
X105400Y-24400D01*
X48400Y-25950D02*
X49250Y-25950D01*
X64250Y-25450D02*
X52600Y-25450D01*
X102250Y-24200D02*
X102450Y-24400D01*
X105500Y-24500D02*
X105500Y-24750D01*
X98100Y-24200D02*
X102250Y-24200D01*
X49650Y-25550D02*
X49250Y-25950D01*
X65500Y-24200D02*
X96900Y-24200D01*
X52500Y-25550D02*
X49650Y-25550D01*
X97100Y-24400D02*
X97900Y-24400D01*
X105000Y-25550D02*
X105000Y-25750D01*
X96350Y-27600D02*
X97000Y-26950D01*
X97000Y-26950D02*
X100800Y-26950D01*
X52500Y-27550D02*
X53550Y-27550D01*
X100900Y-27050D02*
X100800Y-26950D01*
X104850Y-25400D02*
X105000Y-25550D01*
X53600Y-27600D02*
X96350Y-27600D01*
X51950Y-27000D02*
X52500Y-27550D01*
X53550Y-27550D02*
X53600Y-27600D01*
X48750Y-27000D02*
X51950Y-27000D01*
X101150Y-25400D02*
X104850Y-25400D01*
X100950Y-25200D02*
X101150Y-25400D01*
X57150Y-27100D02*
X60650Y-27100D01*
X95100Y-27150D02*
X96150Y-27150D01*
X53560Y-27200D02*
X53760Y-27000D01*
X95050Y-27100D02*
X95100Y-27150D01*
X60750Y-27200D02*
X60650Y-27100D01*
X53760Y-27000D02*
X57050Y-27000D01*
X57050Y-27000D02*
X57150Y-27100D01*
X60750Y-27200D02*
X63000Y-27200D01*
X96150Y-27150D02*
X96800Y-26500D01*
X63100Y-27100D02*
X95050Y-27100D01*
X101850Y-26600D02*
X102000Y-26600D01*
X96800Y-26500D02*
X101750Y-26500D01*
X101750Y-26500D02*
X101850Y-26600D01*
X63000Y-27200D02*
X63100Y-27100D01*
X52700Y-25650D02*
X52600Y-25750D01*
X49150Y-26350D02*
X49150Y-26600D01*
X104150Y-25100D02*
X101300Y-25100D01*
X71400Y-25350D02*
X70750Y-26000D01*
X91400Y-25500D02*
X91250Y-25350D01*
X101100Y-24700D02*
X100800Y-24400D01*
X98050Y-24550D02*
X98050Y-25050D01*
X91400Y-25850D02*
X91400Y-25500D01*
X49150Y-26350D02*
X49750Y-25750D01*
X91250Y-25350D02*
X71400Y-25350D01*
X101300Y-25100D02*
X101100Y-24900D01*
X91600Y-26050D02*
X91400Y-25850D01*
X98200Y-24400D02*
X98050Y-24550D01*
X98050Y-25050D02*
X98000Y-25100D01*
X70750Y-26000D02*
X64250Y-26000D01*
X63900Y-25650D02*
X52700Y-25650D01*
X92750Y-26050D02*
X91600Y-26050D01*
X93050Y-25750D02*
X92750Y-26050D01*
X104500Y-24750D02*
X104150Y-25100D01*
X93050Y-25250D02*
X93050Y-25750D01*
X93200Y-25100D02*
X93050Y-25250D01*
X100800Y-24400D02*
X98200Y-24400D01*
X101100Y-24900D02*
X101100Y-24700D01*
X63900Y-25650D02*
X64250Y-26000D01*
X52600Y-25750D02*
X49750Y-25750D01*
X98000Y-25100D02*
X93200Y-25100D01*
X72600Y-30300D02*
X72800Y-30500D01*
X61350Y-30600D02*
X63550Y-30600D01*
X53850Y-30750D02*
X52150Y-30750D01*
X54050Y-30550D02*
X53850Y-30750D01*
X57300Y-30050D02*
X56800Y-30550D01*
X56800Y-30550D02*
X54050Y-30550D01*
X61050Y-30300D02*
X60000Y-30300D01*
X51750Y-31150D02*
X50650Y-31150D01*
X52150Y-30750D02*
X51750Y-31150D01*
X59750Y-30050D02*
X57300Y-30050D01*
X103650Y-31000D02*
X103550Y-30900D01*
X103550Y-30900D02*
X82150Y-30900D01*
X81750Y-30500D02*
X72800Y-30500D01*
X63850Y-30300D02*
X72600Y-30300D01*
X61050Y-30300D02*
X61350Y-30600D01*
X63550Y-30600D02*
X63850Y-30300D01*
X60000Y-30300D02*
X59750Y-30050D01*
X82150Y-30900D02*
X81750Y-30500D01*
X50650Y-31150D02*
X50550Y-31250D01*
X104000Y-31000D02*
X103650Y-31000D01*
X72750Y-30750D02*
X72500Y-30500D01*
X82050Y-31100D02*
X81700Y-30750D01*
X81700Y-30750D02*
X72750Y-30750D01*
X61300Y-30850D02*
X60950Y-30500D01*
X82050Y-31100D02*
X102850Y-31100D01*
X103500Y-31750D02*
X102850Y-31100D01*
X72500Y-30500D02*
X64050Y-30500D01*
X60950Y-30500D02*
X59550Y-30500D01*
X61300Y-30850D02*
X63700Y-30850D01*
X63700Y-30850D02*
X64050Y-30500D01*
X64000Y-27850D02*
X53550Y-27850D01*
X71500Y-25100D02*
X71250Y-24850D01*
X50650Y-27750D02*
X53450Y-27750D01*
X69250Y-28300D02*
X64450Y-28300D01*
X98250Y-25100D02*
X98000Y-25350D01*
X90950Y-25050D02*
X90900Y-25100D01*
X98000Y-25350D02*
X93500Y-25350D01*
X50550Y-27850D02*
X49150Y-27850D01*
X53450Y-27750D02*
X53550Y-27850D01*
X64450Y-28300D02*
X64000Y-27850D01*
X99950Y-25100D02*
X98250Y-25100D01*
X90900Y-25100D02*
X71500Y-25100D01*
X93500Y-25350D02*
X93400Y-25450D01*
X91300Y-25050D02*
X90950Y-25050D01*
X50550Y-27850D02*
X50650Y-27750D01*
X64150Y-25250D02*
X65400Y-24000D01*
X53200Y-25200D02*
X52400Y-25200D01*
X97000Y-24000D02*
X97200Y-24200D01*
X64150Y-25250D02*
X53250Y-25250D01*
X65400Y-24000D02*
X97000Y-24000D01*
X97200Y-24200D02*
X97750Y-24200D01*
X97750Y-24200D02*
X98000Y-23950D01*
X53250Y-25250D02*
X53200Y-25200D01*
X98000Y-23950D02*
X102500Y-23950D01*
X65250Y-23800D02*
X97400Y-23800D01*
X65250Y-23800D02*
X64000Y-25050D01*
X97400Y-23800D02*
X97500Y-23900D01*
X53300Y-25050D02*
X64000Y-25050D01*
X53050Y-24800D02*
X52700Y-24800D01*
X53300Y-25050D02*
X53050Y-24800D01*
X63600Y-26250D02*
X53200Y-26250D01*
X95850Y-26500D02*
X96000Y-26600D01*
X95850Y-26500D02*
X95400Y-26500D01*
X63600Y-26250D02*
X64000Y-26650D01*
X95400Y-26500D02*
X95250Y-26650D01*
X95250Y-26650D02*
X64000Y-26650D01*
X52750Y-26700D02*
X53200Y-26250D01*
X53050Y-26700D02*
X53300Y-26450D01*
X52700Y-27200D02*
X53050Y-26850D01*
X63500Y-26450D02*
X63900Y-26850D01*
X95500Y-26850D02*
X63900Y-26850D01*
X63500Y-26450D02*
X53300Y-26450D01*
X53050Y-26850D02*
X53050Y-26700D01*
X93250Y-35600D02*
X92600Y-34950D01*
X86900Y-32000D02*
X87000Y-32000D01*
X93900Y-35600D02*
X93250Y-35600D01*
X82200Y-32100D02*
X86800Y-32100D01*
X94250Y-35250D02*
X94500Y-35250D01*
X92600Y-34950D02*
X91400Y-34950D01*
X82200Y-32100D02*
X82050Y-31950D01*
X87500Y-35500D02*
X87500Y-35250D01*
X91400Y-34950D02*
X90750Y-35600D01*
X82050Y-31650D02*
X81550Y-31150D01*
X64990Y-30950D02*
X72350Y-30950D01*
X90750Y-35600D02*
X87600Y-35600D01*
X86800Y-32100D02*
X86900Y-32000D01*
X72550Y-31150D02*
X81550Y-31150D01*
X82050Y-31950D02*
X82050Y-31650D01*
X94250Y-35250D02*
X93900Y-35600D01*
X72350Y-30950D02*
X72550Y-31150D01*
X64650Y-31290D02*
X64990Y-30950D01*
X87600Y-35600D02*
X87500Y-35500D01*
X94250Y-42250D02*
X94500Y-42250D01*
X72950Y-42250D02*
X72000Y-42250D01*
X87500Y-42250D02*
X87850Y-41900D01*
X87850Y-41900D02*
X93900Y-41900D01*
X87150Y-41900D02*
X73300Y-41900D01*
X72950Y-42250D02*
X73300Y-41900D01*
X93900Y-41900D02*
X94250Y-42250D01*
X87500Y-42250D02*
X87150Y-41900D01*
X68350Y-43200D02*
X69000Y-43200D01*
X69800Y-44000D02*
X110500Y-44000D01*
X116050Y-25350D02*
X119650Y-25350D01*
X119650Y-25350D02*
X119900Y-25100D01*
X69000Y-43200D02*
X69800Y-44000D01*
X113200Y-24750D02*
X110500Y-24750D01*
X114950Y-24250D02*
X116050Y-25350D01*
X113200Y-24750D02*
X113700Y-24250D01*
X113700Y-24250D02*
X114950Y-24250D01*
X113300Y-24350D02*
X113600Y-24050D01*
X109350Y-43600D02*
X109500Y-43600D01*
X118800Y-25000D02*
X118950Y-25000D01*
X113600Y-24050D02*
X115050Y-24050D01*
X109900Y-24350D02*
X113300Y-24350D01*
X118950Y-25000D02*
X119000Y-24950D01*
X109500Y-24750D02*
X109900Y-24350D01*
X69900Y-43800D02*
X109150Y-43800D01*
X118650Y-25150D02*
X118800Y-25000D01*
X68350Y-42700D02*
X68800Y-42700D01*
X116150Y-25150D02*
X118650Y-25150D01*
X69900Y-43800D02*
X68800Y-42700D01*
X115050Y-24050D02*
X116150Y-25150D01*
X109150Y-43800D02*
X109350Y-43600D01*
X68350Y-36300D02*
X69450Y-36300D01*
X83000Y-36500D02*
X83000Y-36250D01*
X116250Y-28950D02*
X115350Y-28950D01*
X82900Y-36600D02*
X83000Y-36500D01*
X114600Y-29700D02*
X83450Y-29700D01*
X114600Y-29700D02*
X115350Y-28950D01*
X117050Y-28700D02*
X116500Y-28700D01*
X116500Y-28700D02*
X116250Y-28950D01*
X69750Y-36600D02*
X82900Y-36600D01*
X117500Y-28550D02*
X117200Y-28550D01*
X83000Y-29250D02*
X83450Y-29700D01*
X117200Y-28550D02*
X117050Y-28700D01*
X69450Y-36300D02*
X69750Y-36600D01*
X116550Y-28950D02*
X116350Y-29150D01*
X69600Y-35100D02*
X69600Y-34500D01*
X116350Y-29150D02*
X115400Y-29150D01*
X114650Y-29900D02*
X82650Y-29900D01*
X79700Y-34000D02*
X80750Y-34000D01*
X69800Y-34300D02*
X69600Y-34500D01*
X69800Y-34300D02*
X79400Y-34300D01*
X82000Y-29250D02*
X82650Y-29900D01*
X117850Y-28850D02*
X117750Y-28950D01*
X115400Y-29150D02*
X114650Y-29900D01*
X80750Y-34000D02*
X80900Y-34150D01*
X68350Y-35800D02*
X68900Y-35800D01*
X79400Y-34300D02*
X79700Y-34000D01*
X117750Y-28950D02*
X116550Y-28950D01*
X68900Y-35800D02*
X69600Y-35100D01*
X80900Y-34150D02*
X81800Y-34150D01*
X115350Y-29450D02*
X114700Y-30100D01*
X82100Y-29700D02*
X82500Y-30100D01*
X69300Y-34950D02*
X69300Y-34500D01*
X69700Y-34100D02*
X69300Y-34500D01*
X69700Y-34100D02*
X79200Y-34100D01*
X116050Y-29450D02*
X115350Y-29450D01*
X79500Y-33800D02*
X81000Y-33800D01*
X68350Y-35300D02*
X68950Y-35300D01*
X114700Y-30100D02*
X82500Y-30100D01*
X82100Y-29700D02*
X81100Y-29700D01*
X81000Y-29600D02*
X81000Y-29250D01*
X79200Y-34100D02*
X79500Y-33800D01*
X81100Y-29700D02*
X81000Y-29600D01*
X68950Y-35300D02*
X69300Y-34950D01*
X79000Y-29800D02*
X79000Y-29250D01*
X117350Y-29600D02*
X116350Y-29600D01*
X117450Y-29700D02*
X117350Y-29600D01*
X69650Y-33900D02*
X78700Y-33900D01*
X78800Y-33800D02*
X79000Y-33800D01*
X78700Y-33900D02*
X78800Y-33800D01*
X82050Y-29900D02*
X79100Y-29900D01*
X79100Y-29900D02*
X79000Y-29800D01*
X69650Y-33900D02*
X69000Y-34550D01*
X82450Y-30300D02*
X82050Y-29900D01*
X116200Y-29750D02*
X115300Y-29750D01*
X68350Y-34800D02*
X68900Y-34800D01*
X116350Y-29600D02*
X116200Y-29750D01*
X69000Y-34700D02*
X69000Y-34550D01*
X114750Y-30300D02*
X82450Y-30300D01*
X68900Y-34800D02*
X69000Y-34700D01*
X115300Y-29750D02*
X114750Y-30300D01*
X116500Y-29900D02*
X116450Y-29950D01*
X68850Y-33400D02*
X77850Y-33400D01*
X78000Y-30000D02*
X78000Y-29250D01*
X82350Y-30500D02*
X81950Y-30100D01*
X68350Y-34300D02*
X68700Y-34300D01*
X78100Y-30100D02*
X78000Y-30000D01*
X81950Y-30100D02*
X78100Y-30100D01*
X68700Y-34300D02*
X68800Y-34200D01*
X77850Y-33400D02*
X78000Y-33250D01*
X114800Y-30500D02*
X82350Y-30500D01*
X68800Y-34200D02*
X68800Y-33450D01*
X116450Y-29950D02*
X115350Y-29950D01*
X78000Y-33250D02*
X78000Y-32750D01*
X115350Y-29950D02*
X114800Y-30500D01*
X68800Y-33450D02*
X68850Y-33400D01*
X82250Y-30700D02*
X81850Y-30300D01*
X68350Y-33400D02*
X68550Y-33200D01*
X115500Y-30250D02*
X115350Y-30250D01*
X77000Y-30200D02*
X77000Y-29250D01*
X81850Y-30300D02*
X77100Y-30300D01*
X76850Y-33200D02*
X77000Y-33050D01*
X68550Y-33200D02*
X76850Y-33200D01*
X68350Y-33800D02*
X68350Y-33400D01*
X77000Y-33050D02*
X77000Y-32750D01*
X77100Y-30300D02*
X77000Y-30200D01*
X115350Y-30250D02*
X114900Y-30700D01*
X114900Y-30700D02*
X82250Y-30700D01*
X116700Y-30150D02*
X116600Y-30250D01*
X69400Y-51000D02*
X73000Y-51000D01*
X115600Y-30600D02*
X115500Y-30600D01*
X110000Y-51300D02*
X110000Y-50250D01*
X73400Y-51400D02*
X109900Y-51400D01*
X68350Y-48900D02*
X68750Y-48900D01*
X69050Y-49200D02*
X69050Y-50650D01*
X69050Y-50650D02*
X69400Y-51000D01*
X115600Y-30600D02*
X115950Y-30250D01*
X116600Y-30250D02*
X115950Y-30250D01*
X115200Y-30900D02*
X110100Y-30900D01*
X68750Y-48900D02*
X69050Y-49200D01*
X115500Y-30600D02*
X115200Y-30900D01*
X117500Y-30150D02*
X116700Y-30150D01*
X73000Y-51000D02*
X73400Y-51400D01*
X109900Y-51400D02*
X110000Y-51300D01*
X110000Y-31000D02*
X110100Y-30900D01*
X109800Y-31300D02*
X109500Y-31000D01*
X69250Y-50600D02*
X69400Y-50750D01*
X115350Y-31100D02*
X110350Y-31100D01*
X108900Y-51200D02*
X109000Y-51100D01*
X68350Y-48400D02*
X69000Y-48400D01*
X109000Y-51100D02*
X109000Y-50250D01*
X117900Y-30450D02*
X116000Y-30450D01*
X110150Y-31300D02*
X109800Y-31300D01*
X69000Y-48400D02*
X69250Y-48650D01*
X110350Y-31100D02*
X110150Y-31300D01*
X109500Y-31000D02*
X109000Y-31000D01*
X118000Y-30350D02*
X117900Y-30450D01*
X73150Y-50750D02*
X73600Y-51200D01*
X69400Y-50750D02*
X73150Y-50750D01*
X69250Y-48650D02*
X69250Y-50600D01*
X73600Y-51200D02*
X108900Y-51200D01*
X116000Y-30450D02*
X115350Y-31100D01*
X73550Y-50900D02*
X107900Y-50900D01*
X110400Y-31300D02*
X110200Y-31500D01*
X115950Y-30750D02*
X115400Y-31300D01*
X70550Y-47900D02*
X71350Y-48700D01*
X109650Y-31400D02*
X108000Y-31400D01*
X108000Y-50800D02*
X108000Y-50250D01*
X116300Y-30750D02*
X115950Y-30750D01*
X109750Y-31500D02*
X109650Y-31400D01*
X73550Y-50900D02*
X73200Y-50550D01*
X71350Y-48700D02*
X71350Y-50450D01*
X107900Y-50900D02*
X108000Y-50800D01*
X71450Y-50550D02*
X71350Y-50450D01*
X110200Y-31500D02*
X109750Y-31500D01*
X115400Y-31300D02*
X110400Y-31300D01*
X73200Y-50550D02*
X71450Y-50550D01*
X68350Y-47900D02*
X70550Y-47900D01*
X70600Y-47550D02*
X69000Y-47550D01*
X116650Y-30850D02*
X116450Y-31050D01*
X110650Y-32100D02*
X107200Y-32100D01*
X107200Y-32100D02*
X107000Y-31900D01*
X71550Y-48500D02*
X71550Y-50250D01*
X71550Y-50250D02*
X71650Y-50350D01*
X116450Y-31050D02*
X115900Y-31050D01*
X115900Y-31050D02*
X115450Y-31500D01*
X73300Y-50350D02*
X73650Y-50700D01*
X107000Y-50600D02*
X107000Y-50250D01*
X117500Y-30850D02*
X116650Y-30850D01*
X110650Y-32100D02*
X111250Y-31500D01*
X69000Y-47550D02*
X68850Y-47400D01*
X71650Y-50350D02*
X73300Y-50350D01*
X70600Y-47550D02*
X71550Y-48500D01*
X73650Y-50700D02*
X106900Y-50700D01*
X115450Y-31500D02*
X111250Y-31500D01*
X68350Y-47400D02*
X68850Y-47400D01*
X106900Y-50700D02*
X107000Y-50600D01*
X118550Y-24800D02*
X118250Y-24800D01*
X118100Y-24950D02*
X118250Y-24800D01*
X69950Y-43600D02*
X108400Y-43600D01*
X109200Y-24050D02*
X113350Y-24050D01*
X108400Y-43600D02*
X108500Y-43500D01*
X108500Y-24750D02*
X109200Y-24050D01*
X115200Y-23850D02*
X116300Y-24950D01*
X113550Y-23850D02*
X115200Y-23850D01*
X116300Y-24950D02*
X118100Y-24950D01*
X113350Y-24050D02*
X113550Y-23850D01*
X68550Y-42200D02*
X68350Y-42200D01*
X108500Y-43500D02*
X108500Y-42250D01*
X69950Y-43600D02*
X68550Y-42200D01*
X72050Y-48550D02*
X99600Y-48550D01*
X112650Y-32300D02*
X101100Y-32300D01*
X70750Y-47250D02*
X72050Y-48550D01*
X117650Y-31150D02*
X116600Y-31150D01*
X116600Y-31150D02*
X116500Y-31250D01*
X116500Y-31250D02*
X115950Y-31250D01*
X68850Y-46900D02*
X69200Y-47250D01*
X115000Y-32900D02*
X114900Y-33000D01*
X99700Y-48650D02*
X101000Y-48650D01*
X99700Y-48650D02*
X99600Y-48550D01*
X115950Y-31250D02*
X115000Y-32200D01*
X101100Y-32300D02*
X101000Y-32400D01*
X113350Y-33000D02*
X112650Y-32300D01*
X117950Y-30850D02*
X117650Y-31150D01*
X68350Y-46900D02*
X68850Y-46900D01*
X114900Y-33000D02*
X113350Y-33000D01*
X101000Y-32400D02*
X101000Y-32750D01*
X115000Y-32200D02*
X115000Y-32900D01*
X69200Y-47250D02*
X70750Y-47250D01*
X99700Y-48250D02*
X100000Y-48250D01*
X100000Y-33100D02*
X113150Y-33100D01*
X113150Y-33100D02*
X113250Y-33200D01*
X99600Y-48350D02*
X99700Y-48250D01*
X115200Y-32950D02*
X114950Y-33200D01*
X70850Y-47000D02*
X72200Y-48350D01*
X116400Y-31550D02*
X115950Y-31550D01*
X68350Y-46400D02*
X69050Y-46400D01*
X114950Y-33200D02*
X113250Y-33200D01*
X72200Y-48350D02*
X99600Y-48350D01*
X115200Y-32300D02*
X115200Y-32950D01*
X115950Y-31550D02*
X115200Y-32300D01*
X100000Y-33100D02*
X100000Y-32750D01*
X69050Y-46400D02*
X69650Y-47000D01*
X69650Y-47000D02*
X70850Y-47000D01*
X99750Y-33500D02*
X99650Y-33400D01*
X99750Y-33500D02*
X112950Y-33500D01*
X68350Y-45900D02*
X69300Y-45900D01*
X73400Y-48150D02*
X98900Y-48150D01*
X98900Y-48150D02*
X99000Y-48050D01*
X112950Y-33500D02*
X113050Y-33600D01*
X69750Y-45450D02*
X70700Y-45450D01*
X69300Y-45900D02*
X69750Y-45450D01*
X99000Y-48050D02*
X99000Y-46750D01*
X99650Y-33400D02*
X99000Y-33400D01*
X70700Y-45450D02*
X73400Y-48150D01*
X117130Y-32900D02*
X115800Y-32900D01*
X115100Y-33600D02*
X113050Y-33600D01*
X115800Y-32900D02*
X115100Y-33600D01*
X118200Y-31830D02*
X117130Y-32900D01*
X113150Y-37050D02*
X115250Y-37050D01*
X98000Y-47800D02*
X98000Y-46750D01*
X98600Y-36850D02*
X112950Y-36850D01*
X73500Y-47900D02*
X97900Y-47900D01*
X69500Y-45250D02*
X70850Y-45250D01*
X98000Y-36250D02*
X98600Y-36850D01*
X69350Y-45400D02*
X69500Y-45250D01*
X115250Y-37050D02*
X115850Y-36450D01*
X112950Y-36850D02*
X113150Y-37050D01*
X97900Y-47900D02*
X98000Y-47800D01*
X68350Y-45400D02*
X69350Y-45400D01*
X70850Y-45250D02*
X73500Y-47900D01*
X115850Y-36450D02*
X115850Y-36050D01*
X115200Y-33800D02*
X112950Y-33800D01*
X84500Y-33600D02*
X84600Y-33500D01*
X86900Y-33750D02*
X112900Y-33750D01*
X118450Y-33200D02*
X115800Y-33200D01*
X112950Y-33800D02*
X112900Y-33750D01*
X115800Y-33200D02*
X115200Y-33800D01*
X86650Y-33500D02*
X86900Y-33750D01*
X84600Y-33500D02*
X86650Y-33500D01*
X115750Y-33550D02*
X115250Y-34050D01*
X84650Y-33900D02*
X84850Y-33700D01*
X118050Y-33550D02*
X115750Y-33550D01*
X84100Y-33900D02*
X84000Y-33800D01*
X84850Y-33700D02*
X86550Y-33700D01*
X115250Y-34050D02*
X112950Y-34050D01*
X112850Y-33950D02*
X86800Y-33950D01*
X112850Y-33950D02*
X112950Y-34050D01*
X83500Y-33800D02*
X84000Y-33800D01*
X84100Y-33900D02*
X84650Y-33900D01*
X86550Y-33700D02*
X86800Y-33950D01*
X84950Y-33900D02*
X86500Y-33900D01*
X84750Y-34100D02*
X84950Y-33900D01*
X82950Y-33800D02*
X82500Y-33800D01*
X115700Y-33850D02*
X115300Y-34250D01*
X118450Y-33850D02*
X115700Y-33850D01*
X112800Y-34150D02*
X86750Y-34150D01*
X112900Y-34250D02*
X112800Y-34150D01*
X115300Y-34250D02*
X112900Y-34250D01*
X86500Y-33900D02*
X86750Y-34150D01*
X83250Y-34100D02*
X82950Y-33800D01*
X83250Y-34100D02*
X84750Y-34100D01*
X118000Y-34200D02*
X115600Y-34200D01*
X86700Y-34350D02*
X112750Y-34350D01*
X112750Y-34350D02*
X112850Y-34450D01*
X86450Y-34100D02*
X86700Y-34350D01*
X85050Y-34100D02*
X86450Y-34100D01*
X84850Y-34300D02*
X85050Y-34100D01*
X115350Y-34450D02*
X112850Y-34450D01*
X83150Y-34300D02*
X84850Y-34300D01*
X82000Y-33800D02*
X81500Y-33800D01*
X82300Y-34100D02*
X82950Y-34100D01*
X115600Y-34200D02*
X115350Y-34450D01*
X82300Y-34100D02*
X82000Y-33800D01*
X82950Y-34100D02*
X83150Y-34300D01*
X112800Y-34650D02*
X112700Y-34550D01*
X115550Y-34550D02*
X115450Y-34650D01*
X112700Y-34550D02*
X91050Y-34550D01*
X115450Y-34650D02*
X112800Y-34650D01*
X80800Y-34600D02*
X80500Y-34600D01*
X80800Y-34600D02*
X80900Y-34700D01*
X80900Y-34700D02*
X90900Y-34700D01*
X90900Y-34700D02*
X91050Y-34550D01*
X118450Y-34550D02*
X115550Y-34550D01*
X91100Y-34900D02*
X91250Y-34750D01*
X91250Y-34750D02*
X112550Y-34750D01*
X112650Y-34850D02*
X118000Y-34850D01*
X79500Y-35000D02*
X79500Y-35250D01*
X91100Y-34900D02*
X79600Y-34900D01*
X79600Y-34900D02*
X79500Y-35000D01*
X112550Y-34750D02*
X112650Y-34850D01*
X102050Y-40700D02*
X102350Y-40400D01*
X117900Y-24600D02*
X118050Y-24450D01*
X119300Y-24600D02*
X119450Y-24600D01*
X107500Y-24750D02*
X108550Y-23700D01*
X119150Y-24450D02*
X119300Y-24600D01*
X100750Y-41100D02*
X101150Y-40700D01*
X118050Y-24450D02*
X119150Y-24450D01*
X116250Y-24600D02*
X115300Y-23650D01*
X69200Y-41150D02*
X68650Y-41700D01*
X108550Y-23700D02*
X113250Y-23700D01*
X99150Y-41300D02*
X99350Y-41100D01*
X68350Y-41700D02*
X68650Y-41700D01*
X116250Y-24600D02*
X117900Y-24600D01*
X99350Y-41100D02*
X100750Y-41100D01*
X69200Y-41150D02*
X97900Y-41150D01*
X98050Y-41300D02*
X99150Y-41300D01*
X97900Y-41150D02*
X98050Y-41300D01*
X115300Y-23650D02*
X113300Y-23650D01*
X102350Y-40400D02*
X107500Y-40400D01*
X101150Y-40700D02*
X102050Y-40700D01*
X113250Y-23700D02*
X113300Y-23650D01*
X91550Y-36500D02*
X91400Y-36350D01*
X87150Y-35600D02*
X78600Y-35600D01*
X118450Y-35150D02*
X115250Y-35150D01*
X87400Y-35850D02*
X87150Y-35600D01*
X92900Y-36500D02*
X91550Y-36500D01*
X93100Y-35800D02*
X93000Y-35900D01*
X91400Y-36350D02*
X91400Y-35950D01*
X78600Y-35600D02*
X78500Y-35500D01*
X78500Y-35500D02*
X78500Y-35250D01*
X94000Y-35800D02*
X93100Y-35800D01*
X113500Y-36400D02*
X113500Y-35750D01*
X91300Y-35850D02*
X87400Y-35850D01*
X114700Y-36500D02*
X115050Y-36150D01*
X93000Y-36400D02*
X92900Y-36500D01*
X115050Y-35350D02*
X115050Y-36150D01*
X113350Y-35600D02*
X113500Y-35750D01*
X93000Y-35900D02*
X93000Y-36400D01*
X91300Y-35850D02*
X91400Y-35950D01*
X113600Y-36500D02*
X113500Y-36400D01*
X114700Y-36500D02*
X113600Y-36500D01*
X94200Y-35600D02*
X113350Y-35600D01*
X115250Y-35150D02*
X115050Y-35350D01*
X94200Y-35600D02*
X94000Y-35800D01*
X94450Y-35800D02*
X94350Y-35900D01*
X77600Y-35850D02*
X77500Y-35750D01*
X117950Y-35450D02*
X115350Y-35450D01*
X94350Y-36500D02*
X94250Y-36600D01*
X113300Y-35900D02*
X113200Y-35800D01*
X113550Y-36700D02*
X113300Y-36450D01*
X114800Y-36700D02*
X113550Y-36700D01*
X93000Y-36700D02*
X91400Y-36700D01*
X87400Y-36500D02*
X87400Y-36100D01*
X115250Y-35550D02*
X115250Y-36250D01*
X115250Y-36250D02*
X114800Y-36700D01*
X91400Y-36700D02*
X91300Y-36600D01*
X87400Y-36100D02*
X87150Y-35850D01*
X115350Y-35450D02*
X115250Y-35550D01*
X77500Y-35750D02*
X77500Y-35250D01*
X113200Y-35800D02*
X94450Y-35800D01*
X93100Y-36600D02*
X93000Y-36700D01*
X113300Y-36450D02*
X113300Y-35900D01*
X94350Y-35900D02*
X94350Y-36500D01*
X94250Y-36600D02*
X93100Y-36600D01*
X87500Y-36600D02*
X87400Y-36500D01*
X87150Y-35850D02*
X77600Y-35850D01*
X91300Y-36600D02*
X87500Y-36600D01*
X101500Y-40400D02*
X101000Y-40400D01*
X97950Y-40950D02*
X69150Y-40950D01*
X100500Y-40900D02*
X99250Y-40900D01*
X101500Y-27100D02*
X116050Y-27100D01*
X116200Y-27330D02*
X116200Y-27250D01*
X99250Y-40900D02*
X99050Y-41100D01*
X69150Y-40950D02*
X68900Y-41200D01*
X99050Y-41100D02*
X98100Y-41100D01*
X68350Y-41200D02*
X68900Y-41200D01*
X116200Y-27250D02*
X116050Y-27100D01*
X116450Y-27330D02*
X116200Y-27330D01*
X98100Y-41100D02*
X97950Y-40950D01*
X101000Y-40400D02*
X100500Y-40900D01*
X116750Y-27530D02*
X116630Y-27650D01*
X101800Y-27450D02*
X100650Y-27450D01*
X116150Y-27550D02*
X115950Y-27350D01*
X98050Y-40750D02*
X98150Y-40850D01*
X116350Y-27650D02*
X116250Y-27550D01*
X101900Y-27350D02*
X101800Y-27450D01*
X116250Y-27550D02*
X116150Y-27550D01*
X100500Y-27300D02*
X100650Y-27450D01*
X115950Y-27350D02*
X101900Y-27350D01*
X69100Y-40700D02*
X69150Y-40750D01*
X99050Y-40700D02*
X99900Y-40700D01*
X98900Y-40850D02*
X99050Y-40700D01*
X68350Y-40700D02*
X69100Y-40700D01*
X99900Y-40700D02*
X100200Y-40400D01*
X100200Y-40400D02*
X100500Y-40400D01*
X98150Y-40850D02*
X98900Y-40850D01*
X116630Y-27650D02*
X116350Y-27650D01*
X69150Y-40750D02*
X98050Y-40750D01*
X117450Y-27530D02*
X116750Y-27530D01*
X98750Y-40650D02*
X99000Y-40400D01*
X98350Y-40650D02*
X98750Y-40650D01*
X102000Y-27600D02*
X101950Y-27650D01*
X69050Y-40200D02*
X69400Y-40550D01*
X99800Y-27650D02*
X99500Y-27350D01*
X98250Y-40550D02*
X69400Y-40550D01*
X115830Y-27600D02*
X102000Y-27600D01*
X98350Y-40650D02*
X98250Y-40550D01*
X116080Y-27850D02*
X115830Y-27600D01*
X99000Y-40400D02*
X99500Y-40400D01*
X101950Y-27650D02*
X99800Y-27650D01*
X68350Y-40200D02*
X69050Y-40200D01*
X115750Y-28150D02*
X115400Y-27800D01*
X98500Y-27950D02*
X98500Y-28250D01*
X116400Y-28000D02*
X117500Y-28000D01*
X69050Y-39700D02*
X69700Y-40350D01*
X113150Y-27850D02*
X98600Y-27850D01*
X113200Y-27800D02*
X113150Y-27850D01*
X116250Y-28150D02*
X115750Y-28150D01*
X116250Y-28150D02*
X116400Y-28000D01*
X98600Y-27850D02*
X98500Y-27950D01*
X115400Y-27800D02*
X113200Y-27800D01*
X69700Y-40350D02*
X98500Y-40350D01*
X117500Y-28120D02*
X117500Y-28000D01*
X68350Y-39700D02*
X69050Y-39700D01*
X91750Y-28000D02*
X91100Y-28650D01*
X69350Y-37000D02*
X84900Y-37000D01*
X69050Y-37300D02*
X69350Y-37000D01*
X85200Y-28650D02*
X85000Y-28450D01*
X91100Y-28650D02*
X85200Y-28650D01*
X114800Y-28020D02*
X114780Y-28000D01*
X85000Y-36900D02*
X85000Y-36250D01*
X112850Y-28650D02*
X93300Y-28650D01*
X115100Y-28320D02*
X114800Y-28020D01*
X68350Y-37300D02*
X69050Y-37300D01*
X84900Y-37000D02*
X85000Y-36900D01*
X114780Y-28000D02*
X113500Y-28000D01*
X91750Y-28000D02*
X92650Y-28000D01*
X93300Y-28650D02*
X92650Y-28000D01*
X115580Y-28320D02*
X115100Y-28320D01*
X116500Y-28320D02*
X115580Y-28320D01*
X113500Y-28000D02*
X112850Y-28650D01*
X115000Y-28750D02*
X115000Y-29050D01*
X93200Y-28850D02*
X93100Y-28950D01*
X93100Y-29400D02*
X93000Y-29500D01*
X68350Y-36800D02*
X83900Y-36800D01*
X113400Y-29400D02*
X113400Y-28900D01*
X83900Y-36800D02*
X84000Y-36700D01*
X113400Y-28900D02*
X113350Y-28850D01*
X84000Y-28950D02*
X84000Y-29250D01*
X114550Y-29500D02*
X113500Y-29500D01*
X93100Y-28950D02*
X93100Y-29400D01*
X113500Y-29500D02*
X113400Y-29400D01*
X91500Y-29400D02*
X91500Y-28850D01*
X114550Y-29500D02*
X115000Y-29050D01*
X84000Y-36700D02*
X84000Y-36250D01*
X93000Y-29500D02*
X91600Y-29500D01*
X113350Y-28850D02*
X93200Y-28850D01*
X91500Y-28850D02*
X84100Y-28850D01*
X84100Y-28850D02*
X84000Y-28950D01*
X91600Y-29500D02*
X91500Y-29400D01*
X116050Y-28650D02*
X115100Y-28650D01*
X115100Y-28650D02*
X115000Y-28750D01*
X80050Y-34250D02*
X80700Y-34250D01*
X69900Y-34700D02*
X70100Y-34500D01*
X85600Y-34500D02*
X85700Y-34400D01*
X79800Y-34500D02*
X80050Y-34250D01*
X80700Y-34250D02*
X80950Y-34500D01*
X85700Y-34400D02*
X86000Y-34400D01*
X80950Y-34500D02*
X85600Y-34500D01*
X70100Y-34500D02*
X79800Y-34500D01*
X49000Y-47550D02*
X49000Y-48500D01*
X48500Y-48750D02*
X48750Y-48750D01*
X48750Y-48750D02*
X49000Y-48500D01*
X46400Y-35950D02*
X46400Y-34550D01*
X49000Y-47550D02*
X47850Y-46400D01*
X47850Y-46400D02*
X46400Y-46400D01*
X48150Y-50000D02*
X41500Y-50000D01*
X50750Y-46000D02*
X49500Y-47250D01*
X49500Y-47250D02*
X49500Y-48650D01*
X48150Y-50000D02*
X49500Y-48650D01*
X40200Y-50700D02*
X39500Y-50000D01*
X48050Y-50700D02*
X40200Y-50700D01*
X50750Y-48000D02*
X48050Y-50700D01*
X37500Y-50000D02*
X38600Y-51100D01*
X38600Y-51100D02*
X48250Y-51100D01*
X48250Y-51100D02*
X49600Y-49750D01*
X50750Y-49750D02*
X49600Y-49750D01*
X49750Y-55450D02*
X41300Y-55450D01*
X41300Y-55450D02*
X40500Y-56250D01*
X49750Y-55450D02*
X50100Y-55100D01*
X50900Y-55100D02*
X50100Y-55100D01*
X51250Y-54750D02*
X50900Y-55100D01*
X38500Y-56250D02*
X39700Y-55050D01*
X39700Y-55050D02*
X49450Y-55050D01*
X49450Y-55050D02*
X50250Y-54250D01*
X50750Y-54250D02*
X50250Y-54250D01*
X68050Y-51750D02*
X67100Y-50800D01*
X63850Y-47550D02*
X63850Y-46200D01*
X64100Y-47800D02*
X63850Y-47550D01*
X64100Y-47800D02*
X64100Y-50450D01*
X64450Y-50800D02*
X67100Y-50800D01*
X72000Y-51750D02*
X68050Y-51750D01*
X73250Y-53050D02*
X72000Y-51750D01*
X64100Y-50450D02*
X64450Y-50800D01*
X61500Y-45000D02*
X62650Y-45000D01*
X63850Y-46200D02*
X62650Y-45000D01*
X36500Y-56250D02*
X38100Y-54650D01*
X38100Y-54650D02*
X48800Y-54650D01*
X50650Y-52800D02*
X54250Y-52800D01*
X50650Y-52800D02*
X48800Y-54650D01*
X57350Y-49700D02*
X54250Y-52800D01*
X48600Y-54250D02*
X36500Y-54250D01*
X34500Y-56250D02*
X36500Y-54250D01*
X50450Y-52400D02*
X48600Y-54250D01*
X50450Y-52400D02*
X53650Y-52400D01*
X53650Y-52400D02*
X56350Y-49700D01*
X53500Y-52200D02*
X55850Y-49850D01*
X43000Y-53500D02*
X43350Y-53150D01*
X53500Y-52200D02*
X50150Y-52200D01*
X49200Y-53150D02*
X43350Y-53150D01*
X55850Y-49700D02*
X55850Y-49850D01*
X41500Y-53500D02*
X43000Y-53500D01*
X49200Y-53150D02*
X50150Y-52200D01*
X35500Y-52250D02*
X35500Y-53500D01*
X35500Y-52250D02*
X35800Y-51950D01*
X35800Y-51950D02*
X48600Y-51950D01*
X52750Y-50250D02*
X52000Y-51000D01*
X49550Y-51000D02*
X48600Y-51950D01*
X52000Y-51000D02*
X49550Y-51000D01*
X52750Y-49750D02*
X52750Y-50250D01*
X71600Y-57800D02*
X65500Y-57800D01*
X73250Y-56150D02*
X71600Y-57800D01*
X62050Y-57650D02*
X61900Y-57800D01*
X65350Y-57650D02*
X62050Y-57650D01*
X65500Y-57800D02*
X65350Y-57650D01*
X61900Y-57800D02*
X50600Y-57800D01*
X61900Y-57250D02*
X61800Y-57350D01*
X71250Y-56150D02*
X70000Y-57400D01*
X65500Y-57250D02*
X61900Y-57250D01*
X61800Y-57350D02*
X54100Y-57350D01*
X65650Y-57400D02*
X65500Y-57250D01*
X70000Y-57400D02*
X65650Y-57400D01*
X52750Y-56000D02*
X54100Y-57350D01*
X68400Y-57000D02*
X65800Y-57000D01*
X54750Y-56000D02*
X55700Y-56950D01*
X61650Y-56950D02*
X55700Y-56950D01*
X65800Y-57000D02*
X65650Y-56850D01*
X61750Y-56850D02*
X61650Y-56950D01*
X65650Y-56850D02*
X61750Y-56850D01*
X69250Y-56150D02*
X68400Y-57000D01*
X65900Y-56800D02*
X67600Y-56800D01*
X61650Y-56650D02*
X65750Y-56650D01*
X65750Y-56650D02*
X65900Y-56800D01*
X56750Y-56750D02*
X61550Y-56750D01*
X61550Y-56750D02*
X61650Y-56650D01*
X68250Y-56150D02*
X67600Y-56800D01*
X56000Y-56000D02*
X56750Y-56750D01*
X61450Y-56250D02*
X65800Y-56250D01*
X61350Y-56350D02*
X61450Y-56250D01*
X58150Y-56350D02*
X57900Y-56100D01*
X65900Y-56150D02*
X66250Y-56150D01*
X58150Y-56350D02*
X61350Y-56350D01*
X65800Y-56250D02*
X65900Y-56150D01*
X59300Y-55750D02*
X59300Y-55100D01*
X66050Y-55000D02*
X65800Y-55250D01*
X60250Y-55100D02*
X60400Y-55250D01*
X59300Y-55100D02*
X60250Y-55100D01*
X71250Y-54250D02*
X70500Y-55000D01*
X60400Y-55250D02*
X65800Y-55250D01*
X70500Y-55000D02*
X66050Y-55000D01*
X73250Y-54250D02*
X72000Y-55500D01*
X60900Y-55800D02*
X65750Y-55800D01*
X66050Y-55500D02*
X65750Y-55800D01*
X66050Y-55500D02*
X72000Y-55500D01*
X61300Y-54250D02*
X66250Y-54250D01*
X60950Y-53900D02*
X61300Y-54250D01*
X48500Y-51750D02*
X35000Y-51750D01*
X49450Y-50800D02*
X48500Y-51750D01*
X34500Y-53500D02*
X34500Y-52250D01*
X52250Y-50250D02*
X51700Y-50800D01*
X51750Y-43250D02*
X50700Y-44300D01*
X51700Y-50800D02*
X49450Y-50800D01*
X34500Y-52250D02*
X35000Y-51750D01*
X52250Y-49750D02*
X52250Y-50250D01*
X42750Y-42750D02*
X44300Y-44300D01*
X50700Y-44300D02*
X44300Y-44300D01*
X49750Y-42750D02*
X48800Y-43700D01*
X45200Y-43700D02*
X44250Y-42750D01*
X45200Y-43700D02*
X48800Y-43700D01*
X46050Y-38300D02*
X47750Y-38300D01*
X44600Y-44100D02*
X50400Y-44100D01*
X51750Y-49750D02*
X51750Y-50250D01*
X44600Y-44100D02*
X43250Y-42750D01*
X51750Y-50250D02*
X51400Y-50600D01*
X51250Y-43250D02*
X50400Y-44100D01*
X36000Y-51500D02*
X48450Y-51500D01*
X34500Y-50000D02*
X36000Y-51500D01*
X48450Y-51500D02*
X49350Y-50600D01*
X51400Y-50600D02*
X49350Y-50600D01*
X66500Y-59250D02*
X66150Y-59600D01*
X66150Y-60850D02*
X66150Y-59600D01*
X66000Y-61000D02*
X66150Y-60850D01*
G54D32*
X66000Y-62400D02*
X66000Y-63450D01*
G54D11*
X66000Y-62400D02*
X66000Y-61000D01*
X60500Y-59500D02*
X60500Y-62400D01*
G54D32*
X60500Y-62400D02*
X60500Y-63450D01*
G54D11*
X60500Y-59500D02*
X60250Y-59250D01*
X60000Y-62400D02*
X60000Y-59750D01*
X60000Y-59750D02*
X59500Y-59250D01*
G54D32*
X60000Y-62400D02*
X60000Y-63450D01*
X59000Y-62400D02*
X59000Y-63450D01*
G54D11*
X59000Y-61000D02*
X58750Y-60750D01*
X59000Y-61000D02*
X59000Y-62400D01*
X58750Y-60750D02*
X58750Y-59250D01*
X53000Y-61000D02*
X53150Y-60850D01*
X53500Y-59250D02*
X53150Y-59600D01*
G54D32*
X53000Y-63450D02*
X53000Y-62400D01*
G54D11*
X53000Y-61000D02*
X53000Y-62400D01*
X53150Y-60850D02*
X53150Y-59600D01*
G54D32*
X52500Y-62400D02*
X52500Y-63450D01*
G54D11*
X52750Y-59250D02*
X52350Y-59650D01*
X52350Y-60850D02*
X52350Y-59650D01*
X52350Y-60850D02*
X52500Y-61000D01*
X52500Y-61000D02*
X52500Y-62400D01*
X65350Y-59650D02*
X65750Y-59250D01*
G54D32*
X65500Y-62400D02*
X65500Y-63450D01*
G54D11*
X65350Y-60850D02*
X65350Y-59650D01*
X65500Y-61000D02*
X65350Y-60850D01*
X65500Y-62400D02*
X65500Y-61000D01*
X51650Y-60850D02*
X51650Y-59600D01*
G54D32*
X51500Y-63450D02*
X51500Y-62400D01*
G54D11*
X51500Y-62400D02*
X51500Y-61000D01*
X52000Y-59250D02*
X51650Y-59600D01*
X51500Y-61000D02*
X51650Y-60850D01*
X51250Y-59250D02*
X50850Y-59650D01*
X51000Y-61000D02*
X50850Y-60850D01*
X50850Y-60850D02*
X50850Y-59650D01*
G54D32*
X51000Y-62400D02*
X51000Y-63450D01*
G54D11*
X51000Y-61000D02*
X51000Y-62400D01*
X49500Y-59750D02*
X49000Y-59250D01*
G54D32*
X49500Y-62400D02*
X49500Y-63450D01*
G54D11*
X49500Y-62400D02*
X49500Y-59750D01*
X48500Y-59500D02*
X48250Y-59250D01*
X48500Y-62400D02*
X48500Y-59500D01*
G54D32*
X48500Y-62400D02*
X48500Y-63450D01*
G54D11*
X48000Y-59750D02*
X47500Y-59250D01*
X48000Y-62400D02*
X48000Y-59750D01*
G54D32*
X48000Y-62400D02*
X48000Y-63450D01*
G54D11*
X47000Y-61000D02*
X46750Y-60750D01*
X46750Y-60750D02*
X46750Y-59250D01*
X47000Y-62400D02*
X47000Y-61000D01*
G54D32*
X47000Y-62400D02*
X47000Y-63450D01*
G54D11*
X64500Y-62400D02*
X64500Y-61000D01*
X64500Y-61000D02*
X64650Y-60850D01*
G54D32*
X64500Y-62400D02*
X64500Y-63450D01*
G54D11*
X64650Y-60850D02*
X64650Y-59600D01*
X65000Y-59250D02*
X64650Y-59600D01*
X63850Y-60850D02*
X63850Y-59650D01*
X64000Y-62400D02*
X64000Y-61000D01*
X64250Y-59250D02*
X63850Y-59650D01*
G54D32*
X64000Y-62400D02*
X64000Y-63450D01*
G54D11*
X64000Y-61000D02*
X63850Y-60850D01*
X61000Y-59250D02*
X61500Y-59750D01*
X61500Y-59750D02*
X61500Y-62400D01*
G54D32*
X61500Y-62400D02*
X61500Y-63450D01*
G54D11*
X63000Y-59750D02*
X63000Y-62400D01*
X63500Y-59250D02*
X63000Y-59750D01*
G54D32*
X63000Y-62400D02*
X63000Y-63450D01*
G54D11*
X54000Y-61000D02*
X54000Y-62400D01*
X54250Y-59250D02*
X53850Y-59650D01*
G54D32*
X54000Y-62400D02*
X54000Y-63450D01*
G54D11*
X53850Y-60850D02*
X53850Y-59650D01*
X54000Y-61000D02*
X53850Y-60850D01*
X45500Y-62400D02*
X45500Y-61000D01*
X45500Y-61000D02*
X45150Y-60650D01*
X45150Y-60650D02*
X45150Y-59600D01*
X45150Y-59600D02*
X45500Y-59250D01*
X45500Y-62400D02*
X45500Y-63450D01*
G54D32*
X50000Y-63450D02*
X50000Y-62400D01*
G54D11*
X50000Y-59500D02*
X49750Y-59250D01*
X50000Y-62400D02*
X50000Y-59500D01*
X51250Y-55500D02*
X51600Y-55150D01*
X49500Y-56500D02*
X45000Y-56500D01*
X40000Y-62400D02*
X40000Y-60500D01*
X40000Y-60500D02*
X42000Y-58500D01*
X51250Y-55500D02*
X50500Y-55500D01*
X51600Y-55150D02*
X52500Y-55150D01*
X50500Y-55500D02*
X49500Y-56500D01*
G54D32*
X40000Y-62400D02*
X40000Y-63450D01*
G54D11*
X42000Y-58500D02*
X43000Y-58500D01*
X43000Y-58500D02*
X45000Y-56500D01*
X58500Y-59750D02*
X58500Y-62400D01*
G54D32*
X58500Y-63450D02*
X58500Y-62400D01*
G54D11*
X58000Y-59250D02*
X58500Y-59750D01*
X50750Y-56000D02*
X49750Y-57000D01*
X49750Y-57000D02*
X45500Y-57000D01*
X44500Y-62400D02*
X44500Y-61000D01*
X44500Y-61000D02*
X44000Y-60500D01*
X44000Y-58500D02*
X45500Y-57000D01*
X44500Y-63450D02*
X44500Y-62400D01*
X44000Y-60500D02*
X44000Y-58500D01*
X56150Y-60850D02*
X56150Y-59650D01*
X56000Y-61000D02*
X56000Y-62400D01*
G54D32*
X56000Y-62400D02*
X56000Y-63450D01*
G54D11*
X56150Y-60850D02*
X56000Y-61000D01*
X55750Y-59250D02*
X56150Y-59650D01*
X55000Y-61000D02*
X54650Y-60650D01*
G54D32*
X55000Y-63450D02*
X55000Y-62400D01*
G54D11*
X54650Y-60650D02*
X54650Y-59600D01*
X54650Y-59600D02*
X55000Y-59250D01*
X55000Y-61000D02*
X55000Y-62400D01*
X54750Y-50240D02*
X54750Y-50250D01*
X54840Y-49700D02*
X54840Y-50150D01*
X54840Y-50150D02*
X54750Y-50240D01*
X53200Y-51800D02*
X49950Y-51800D01*
X40250Y-52750D02*
X49000Y-52750D01*
X39500Y-53500D02*
X40250Y-52750D01*
X49000Y-52750D02*
X49950Y-51800D01*
X54750Y-50250D02*
X53200Y-51800D01*
X40500Y-53500D02*
X41050Y-52950D01*
X50050Y-52000D02*
X49100Y-52950D01*
X49100Y-52950D02*
X41050Y-52950D01*
X50050Y-52000D02*
X53350Y-52000D01*
X55350Y-49700D02*
X55350Y-50000D01*
X53350Y-52000D02*
X55350Y-50000D01*
X36500Y-53500D02*
X37850Y-52150D01*
X49650Y-51200D02*
X48700Y-52150D01*
X49650Y-51200D02*
X52300Y-51200D01*
X48700Y-52150D02*
X37850Y-52150D01*
X53250Y-49750D02*
X53250Y-50250D01*
X53250Y-50250D02*
X52300Y-51200D01*
X57500Y-26800D02*
X53400Y-26800D01*
X56750Y-34100D02*
X57250Y-33600D01*
X59350Y-44600D02*
X59350Y-46700D01*
X60250Y-47250D02*
X59900Y-46900D01*
X58950Y-42850D02*
X59200Y-43100D01*
X59700Y-46900D02*
X59900Y-46900D01*
X59200Y-44450D02*
X59350Y-44600D01*
X55550Y-34100D02*
X56750Y-34100D01*
X57250Y-33600D02*
X58450Y-33600D01*
X55300Y-33850D02*
X55550Y-34100D01*
X59500Y-46700D02*
X59700Y-46900D01*
X59500Y-46700D02*
X59350Y-46700D01*
X58450Y-33600D02*
X58950Y-34100D01*
X58950Y-34100D02*
X58950Y-42850D01*
X59200Y-43100D02*
X59200Y-44450D01*
X47750Y-33650D02*
X47750Y-32150D01*
X58750Y-42900D02*
X58750Y-34200D01*
X54900Y-34150D02*
X55050Y-34300D01*
X59250Y-46900D02*
X59150Y-46800D01*
X58350Y-33800D02*
X58750Y-34200D01*
X59150Y-44650D02*
X59000Y-44500D01*
X57350Y-33800D02*
X58350Y-33800D01*
X56850Y-34300D02*
X57350Y-33800D01*
X59000Y-43150D02*
X58750Y-42900D01*
X59400Y-46900D02*
X59250Y-46900D01*
X59150Y-46800D02*
X59150Y-44650D01*
X55050Y-34300D02*
X56850Y-34300D01*
X59000Y-44500D02*
X59000Y-43150D01*
X59750Y-47250D02*
X59400Y-46900D01*
X59250Y-47250D02*
X58950Y-46950D01*
X57400Y-34000D02*
X56900Y-34500D01*
X58550Y-34300D02*
X58250Y-34000D01*
X58550Y-42950D02*
X58800Y-43200D01*
X58950Y-46950D02*
X58950Y-44750D01*
X58950Y-44750D02*
X58800Y-44600D01*
X58800Y-43200D02*
X58800Y-44600D01*
X58550Y-34300D02*
X58550Y-42950D01*
X58250Y-34000D02*
X57400Y-34000D01*
X54500Y-34500D02*
X54350Y-34350D01*
X56900Y-34500D02*
X54500Y-34500D01*
X57550Y-34200D02*
X58200Y-34200D01*
X58350Y-43000D02*
X58350Y-34350D01*
X58750Y-44800D02*
X58600Y-44650D01*
X58200Y-34200D02*
X58350Y-34350D01*
X58600Y-43250D02*
X58600Y-44650D01*
X57050Y-34700D02*
X54000Y-34700D01*
X58750Y-44800D02*
X58750Y-47250D01*
X58350Y-43000D02*
X58600Y-43250D01*
X57550Y-34200D02*
X57050Y-34700D01*
X60000Y-49750D02*
X58000Y-49750D01*
X59350Y-33700D02*
X59350Y-42750D01*
X59600Y-44350D02*
X59750Y-44500D01*
X52750Y-34700D02*
X54250Y-33200D01*
X59600Y-43000D02*
X59600Y-44350D01*
X52750Y-35300D02*
X52750Y-34700D01*
X61250Y-48500D02*
X61250Y-47100D01*
X59750Y-44500D02*
X59750Y-45700D01*
X59950Y-45800D02*
X59850Y-45800D01*
X58850Y-33200D02*
X59350Y-33700D01*
X61250Y-48500D02*
X60000Y-49750D01*
X59950Y-45800D02*
X61250Y-47100D01*
X58850Y-33200D02*
X54250Y-33200D01*
X59350Y-42750D02*
X59600Y-43000D01*
X59850Y-45800D02*
X59750Y-45700D01*
X59950Y-45550D02*
X61500Y-47100D01*
X61500Y-48750D02*
X61500Y-47100D01*
X59800Y-44300D02*
X59800Y-42950D01*
X59750Y-50500D02*
X61500Y-48750D01*
X52250Y-34850D02*
X52250Y-35650D01*
X59550Y-42700D02*
X59550Y-33650D01*
X59950Y-45550D02*
X59950Y-44450D01*
X59950Y-44450D02*
X59800Y-44300D01*
X54100Y-33000D02*
X52250Y-34850D01*
X59550Y-33650D02*
X58900Y-33000D01*
X54100Y-33000D02*
X58900Y-33000D01*
X59800Y-42950D02*
X59550Y-42700D01*
X53900Y-32800D02*
X51900Y-34800D01*
X59750Y-33600D02*
X59750Y-42600D01*
X58950Y-32800D02*
X53900Y-32800D01*
X61750Y-49250D02*
X61750Y-47050D01*
X60000Y-42850D02*
X60000Y-44250D01*
X60150Y-44400D02*
X60150Y-45450D01*
X60250Y-50750D02*
X61750Y-49250D01*
X60150Y-45450D02*
X61750Y-47050D01*
X60000Y-44250D02*
X60150Y-44400D01*
X58950Y-32800D02*
X59750Y-33600D01*
X59750Y-42600D02*
X60000Y-42850D01*
X51900Y-34800D02*
X51900Y-35950D01*
X59000Y-32600D02*
X53750Y-32600D01*
X60200Y-42750D02*
X60200Y-44200D01*
X60200Y-44200D02*
X60350Y-44350D01*
X59000Y-32600D02*
X59950Y-33550D01*
X60350Y-45350D02*
X62000Y-47000D01*
X60750Y-51000D02*
X62000Y-49750D01*
X59950Y-42500D02*
X60200Y-42750D01*
X62000Y-47000D02*
X62000Y-49750D01*
X53750Y-32600D02*
X51250Y-35100D01*
X59950Y-33550D02*
X59950Y-42500D01*
X51250Y-35100D02*
X51250Y-36050D01*
X60350Y-44350D02*
X60350Y-45350D01*
X121350Y-24950D02*
X127150Y-24950D01*
X131300Y-35450D02*
X131050Y-35200D01*
X131950Y-32750D02*
X131950Y-26250D01*
X131500Y-26150D02*
X131400Y-26050D01*
X131400Y-26050D02*
X131400Y-24800D01*
X127950Y-26150D02*
X128250Y-25850D01*
X128050Y-26550D02*
X129200Y-26550D01*
X129500Y-26250D02*
X130150Y-26250D01*
X131050Y-33650D02*
X131950Y-32750D01*
X128250Y-24950D02*
X128250Y-25850D01*
X131950Y-26250D02*
X131850Y-26150D01*
X63300Y-33850D02*
X63300Y-35750D01*
X127950Y-26450D02*
X128050Y-26550D01*
X129200Y-26550D02*
X129500Y-26250D01*
X62900Y-36150D02*
X62900Y-36600D01*
X63300Y-35750D02*
X62900Y-36150D01*
X127950Y-26150D02*
X127950Y-26450D01*
X127150Y-24950D02*
X127250Y-24850D01*
X65100Y-32650D02*
X64600Y-33150D01*
X64600Y-33150D02*
X64000Y-33150D01*
X64000Y-33150D02*
X63300Y-33850D01*
X131650Y-35450D02*
X131300Y-35450D01*
X131900Y-37950D02*
X131900Y-37650D01*
X131050Y-35200D02*
X131050Y-33650D01*
X131850Y-26150D02*
X131500Y-26150D01*
X132300Y-36100D02*
X131650Y-35450D01*
X128150Y-24850D02*
X128250Y-24950D01*
X121200Y-25100D02*
X121350Y-24950D01*
X131900Y-37650D02*
X132300Y-37250D01*
X127250Y-24850D02*
X128150Y-24850D01*
X132300Y-37250D02*
X132300Y-36100D01*
X130950Y-27450D02*
X131050Y-27350D01*
X131050Y-27350D02*
X131050Y-26950D01*
X128700Y-27450D02*
X130950Y-27450D01*
X128550Y-24750D02*
X128450Y-24650D01*
X63500Y-23650D02*
X63100Y-23250D01*
X116150Y-24200D02*
X115350Y-23400D01*
X120600Y-24750D02*
X120050Y-24200D01*
X126950Y-24650D02*
X126850Y-24750D01*
X128300Y-26250D02*
X128550Y-26000D01*
X48200Y-22800D02*
X48100Y-22900D01*
X64800Y-23650D02*
X65050Y-23400D01*
X63100Y-23250D02*
X62200Y-23250D01*
X64800Y-23650D02*
X63500Y-23650D01*
X62200Y-23250D02*
X61750Y-22800D01*
X126850Y-24750D02*
X120600Y-24750D01*
X40200Y-23050D02*
X39750Y-23050D01*
X116150Y-24200D02*
X120050Y-24200D01*
X128450Y-24650D02*
X126950Y-24650D01*
X61750Y-22800D02*
X48200Y-22800D01*
X115350Y-23400D02*
X65050Y-23400D01*
X48100Y-22900D02*
X40350Y-22900D01*
X128550Y-24750D02*
X128550Y-26000D01*
X40350Y-22900D02*
X40200Y-23050D01*
X124300Y-25700D02*
X124300Y-27400D01*
X122150Y-25450D02*
X124050Y-25450D01*
X124550Y-39350D02*
X125550Y-39350D01*
X64300Y-23100D02*
X64400Y-23000D01*
X124000Y-32100D02*
X124150Y-31950D01*
X124000Y-34100D02*
X124000Y-32100D01*
X64400Y-23000D02*
X115500Y-23000D01*
X124300Y-27400D02*
X124150Y-27550D01*
X124150Y-31950D02*
X124150Y-27550D01*
X115500Y-23000D02*
X116300Y-23800D01*
X116300Y-23800D02*
X121000Y-23800D01*
X63750Y-23100D02*
X64300Y-23100D01*
X124050Y-25450D02*
X124300Y-25700D01*
X121000Y-23800D02*
X121350Y-23450D01*
X70950Y-41750D02*
X69050Y-41750D01*
X67000Y-37050D02*
X67000Y-35300D01*
X73450Y-42850D02*
X73150Y-43150D01*
X71150Y-43150D02*
X71050Y-43050D01*
X73150Y-43150D02*
X71150Y-43150D01*
X89000Y-43250D02*
X88600Y-42850D01*
X88600Y-42850D02*
X73450Y-42850D01*
X71050Y-43050D02*
X71050Y-41850D01*
X71050Y-41850D02*
X70950Y-41750D01*
X123800Y-33750D02*
X123650Y-33900D01*
X64650Y-23200D02*
X64500Y-23350D01*
X124450Y-40000D02*
X126750Y-40000D01*
X126750Y-40000D02*
X127100Y-40350D01*
X123000Y-25750D02*
X123850Y-25750D01*
X121500Y-24000D02*
X121850Y-24350D01*
X115450Y-23200D02*
X116250Y-24000D01*
X127500Y-40950D02*
X128900Y-40950D01*
X123950Y-31150D02*
X123950Y-27450D01*
X127100Y-40350D02*
X127100Y-40550D01*
X123800Y-31300D02*
X123800Y-33750D01*
X128900Y-40950D02*
X129600Y-40250D01*
X115450Y-23200D02*
X64650Y-23200D01*
X127100Y-40550D02*
X127500Y-40950D01*
X124100Y-26000D02*
X124100Y-27300D01*
X123650Y-33900D02*
X123650Y-34400D01*
X124100Y-27300D02*
X123950Y-27450D01*
X116250Y-24000D02*
X121500Y-24000D01*
X123850Y-25750D02*
X124100Y-26000D01*
X129600Y-40250D02*
X131250Y-40250D01*
X123800Y-31300D02*
X123950Y-31150D01*
X65150Y-23600D02*
X64750Y-24000D01*
X124600Y-41650D02*
X124700Y-41550D01*
X117250Y-26800D02*
X117750Y-27300D01*
X113200Y-25100D02*
X107250Y-25100D01*
X113200Y-26800D02*
X117250Y-26800D01*
X120300Y-27700D02*
X120450Y-27850D01*
X120450Y-27850D02*
X120550Y-27850D01*
X117750Y-27550D02*
X117900Y-27700D01*
X117900Y-27700D02*
X120300Y-27700D01*
X123500Y-41650D02*
X124600Y-41650D01*
X124950Y-41550D02*
X124700Y-41550D01*
X107150Y-23700D02*
X107050Y-23600D01*
X117550Y-41350D02*
X121200Y-41350D01*
X107150Y-25000D02*
X107150Y-23700D01*
X117150Y-40950D02*
X113200Y-40950D01*
X64750Y-24000D02*
X64250Y-24000D01*
X123400Y-41550D02*
X123500Y-41650D01*
X123400Y-41550D02*
X121400Y-41550D01*
X107250Y-25100D02*
X107150Y-25000D01*
X117550Y-41350D02*
X117150Y-40950D01*
X117750Y-27300D02*
X117750Y-27550D01*
X107050Y-23600D02*
X65150Y-23600D01*
X121400Y-41550D02*
X121200Y-41350D01*
X42400Y-27300D02*
X42400Y-26600D01*
X50950Y-32600D02*
X48400Y-32600D01*
X48000Y-27300D02*
X42400Y-27300D01*
X50850Y-35450D02*
X51050Y-35250D01*
X42350Y-26600D02*
X42400Y-26600D01*
X51050Y-35250D02*
X51050Y-32700D01*
X51050Y-32700D02*
X50950Y-32600D01*
X50850Y-36300D02*
X50850Y-35450D01*
X48150Y-32350D02*
X48150Y-31900D01*
X48400Y-32600D02*
X48150Y-32350D01*
X48500Y-40200D02*
X48600Y-40300D01*
X47500Y-40200D02*
X48500Y-40200D01*
X42050Y-31950D02*
X43550Y-31950D01*
X47400Y-40300D02*
X45750Y-40300D01*
X41900Y-32100D02*
X42050Y-31950D01*
X47400Y-40300D02*
X47500Y-40200D01*
X49050Y-40300D02*
X48600Y-40300D01*
X114850Y-50550D02*
X113850Y-50550D01*
X92550Y-48950D02*
X91500Y-48950D01*
X90800Y-49650D02*
X72400Y-49650D01*
X112900Y-49600D02*
X93200Y-49600D01*
X115550Y-49850D02*
X114850Y-50550D01*
X91500Y-48950D02*
X90800Y-49650D01*
X93200Y-49600D02*
X92550Y-48950D01*
X113850Y-50550D02*
X112900Y-49600D01*
X115550Y-49300D02*
X115550Y-49850D01*
X37250Y-28750D02*
X37250Y-27750D01*
X37250Y-27750D02*
X37500Y-27500D01*
X37500Y-27500D02*
X38750Y-27500D01*
X41750Y-27150D02*
X42250Y-27650D01*
X42250Y-27650D02*
X43950Y-27650D01*
X39750Y-26850D02*
X40050Y-27150D01*
X39750Y-26850D02*
X39750Y-24250D01*
X41750Y-27150D02*
X40050Y-27150D01*
X51600Y-33300D02*
X52800Y-33300D01*
X60550Y-45250D02*
X60550Y-44300D01*
X60750Y-52000D02*
X62250Y-50500D01*
X60150Y-33500D02*
X59050Y-32400D01*
X60550Y-44300D02*
X60400Y-44150D01*
X62250Y-46950D02*
X62250Y-50500D01*
X59050Y-32400D02*
X53700Y-32400D01*
X60400Y-42650D02*
X60150Y-42400D01*
X52800Y-33300D02*
X53700Y-32400D01*
X60550Y-45250D02*
X62250Y-46950D01*
X60150Y-42400D02*
X60150Y-33500D01*
X60400Y-44150D02*
X60400Y-42650D01*
X39250Y-28750D02*
X40250Y-28750D01*
X40250Y-28750D02*
X43450Y-28750D01*
X50800Y-42400D02*
X50600Y-42200D01*
X48800Y-52350D02*
X49750Y-51400D01*
X52600Y-51400D02*
X49750Y-51400D01*
X37500Y-53500D02*
X38650Y-52350D01*
X53750Y-50250D02*
X52600Y-51400D01*
X53750Y-49750D02*
X53750Y-50250D01*
X41200Y-42200D02*
X40750Y-42200D01*
X53500Y-42250D02*
X53350Y-42400D01*
X45100Y-42050D02*
X45250Y-42200D01*
X50600Y-42200D02*
X45250Y-42200D01*
X53350Y-42400D02*
X50800Y-42400D01*
X53950Y-42250D02*
X53500Y-42250D01*
X41350Y-42050D02*
X41200Y-42200D01*
X45100Y-42050D02*
X41350Y-42050D01*
X38650Y-52350D02*
X48800Y-52350D01*
X50250Y-42750D02*
X49100Y-43900D01*
X49100Y-43900D02*
X44900Y-43900D01*
X44900Y-43900D02*
X43750Y-42750D01*
X48500Y-43500D02*
X45500Y-43500D01*
X44750Y-42750D02*
X45500Y-43500D01*
X49250Y-42750D02*
X48500Y-43500D01*
X46100Y-40500D02*
X46000Y-40600D01*
X44600Y-40350D02*
X45250Y-40350D01*
X45250Y-40350D02*
X45500Y-40600D01*
X48050Y-40500D02*
X46100Y-40500D01*
X46000Y-40600D02*
X45500Y-40600D01*
X44000Y-44500D02*
X42250Y-42750D01*
X44000Y-44500D02*
X51000Y-44500D01*
X52250Y-43250D02*
X51000Y-44500D01*
X45850Y-38600D02*
X48000Y-38600D01*
X45550Y-38300D02*
X45850Y-38600D01*
X48000Y-38600D02*
X48300Y-38300D01*
X51800Y-44700D02*
X43700Y-44700D01*
X43700Y-44700D02*
X41750Y-42750D01*
X53250Y-43250D02*
X51800Y-44700D01*
X69450Y-24400D02*
X87400Y-24400D01*
X64650Y-25550D02*
X68300Y-25550D01*
X69450Y-24400D02*
X68300Y-25550D01*
X87500Y-24500D02*
X87500Y-24750D01*
X87400Y-24400D02*
X87500Y-24500D01*
X87500Y-24750D02*
X87850Y-24400D01*
X94250Y-24750D02*
X94500Y-24750D01*
X93900Y-24400D02*
X94250Y-24750D01*
X93900Y-24400D02*
X87850Y-24400D01*
X87150Y-27900D02*
X64800Y-27900D01*
X94050Y-27800D02*
X88200Y-27800D01*
X88200Y-27800D02*
X87750Y-28250D01*
X94500Y-28250D02*
X94050Y-27800D01*
X87500Y-28250D02*
X87150Y-27900D01*
X87750Y-28250D02*
X87500Y-28250D01*
X64650Y-30850D02*
X64800Y-30700D01*
X81600Y-30950D02*
X81950Y-31300D01*
X64800Y-30700D02*
X72400Y-30700D01*
X81950Y-31300D02*
X87500Y-31300D01*
X94500Y-31750D02*
X94500Y-31300D01*
X72400Y-30700D02*
X72650Y-30950D01*
X87500Y-31750D02*
X87500Y-31300D01*
X72650Y-30950D02*
X81600Y-30950D01*
X94500Y-31300D02*
X87500Y-31300D01*
X84000Y-33500D02*
X84200Y-33300D01*
X78550Y-33700D02*
X78750Y-33500D01*
X93900Y-38150D02*
X88100Y-38150D01*
X94500Y-38750D02*
X93900Y-38150D01*
X78750Y-33500D02*
X84000Y-33500D01*
X87050Y-33400D02*
X86850Y-33400D01*
X86750Y-33300D02*
X86850Y-33400D01*
X87500Y-38750D02*
X88100Y-38150D01*
X69200Y-33700D02*
X78550Y-33700D01*
X84200Y-33300D02*
X86750Y-33300D01*
X94250Y-45750D02*
X94500Y-45750D01*
X87500Y-45750D02*
X88000Y-45250D01*
X87500Y-45750D02*
X87000Y-45250D01*
X71800Y-45250D02*
X71650Y-45400D01*
X88000Y-45250D02*
X93750Y-45250D01*
X93750Y-45250D02*
X94250Y-45750D01*
X87000Y-45250D02*
X71800Y-45250D01*
X94400Y-48750D02*
X94500Y-48850D01*
X87500Y-48750D02*
X87500Y-49250D01*
X65500Y-37350D02*
X65500Y-37900D01*
X65600Y-37250D02*
X65500Y-37350D01*
X65850Y-38250D02*
X65500Y-37900D01*
X72350Y-48750D02*
X72000Y-49100D01*
X66150Y-34200D02*
X66150Y-34550D01*
X94500Y-48850D02*
X94500Y-49250D01*
X87500Y-48750D02*
X94400Y-48750D01*
X66150Y-34550D02*
X65600Y-35100D01*
X87500Y-48750D02*
X72350Y-48750D01*
X65600Y-35100D02*
X65600Y-37250D01*
X53000Y-32850D02*
X53650Y-32200D01*
X53650Y-32200D02*
X59100Y-32200D01*
X63450Y-50750D02*
X64150Y-51450D01*
X60600Y-44100D02*
X60750Y-44250D01*
X60750Y-45150D02*
X62500Y-46900D01*
X60600Y-42550D02*
X60600Y-44100D01*
X62500Y-47250D02*
X63450Y-48200D01*
X63450Y-48200D02*
X63450Y-50750D01*
X62500Y-47250D02*
X62500Y-46900D01*
X60350Y-33450D02*
X60350Y-42300D01*
X59100Y-32200D02*
X60350Y-33450D01*
X68250Y-53050D02*
X66650Y-51450D01*
X64150Y-51450D02*
X66650Y-51450D01*
X60750Y-44250D02*
X60750Y-45150D01*
X60350Y-42300D02*
X60600Y-42550D01*
X51900Y-32850D02*
X53000Y-32850D01*
X116000Y-38150D02*
X94600Y-38150D01*
X121150Y-39050D02*
X121050Y-38950D01*
X53550Y-30050D02*
X53000Y-30050D01*
X60050Y-29450D02*
X59600Y-29000D01*
X85750Y-38150D02*
X84600Y-38150D01*
X39650Y-28350D02*
X39450Y-28150D01*
X73200Y-29900D02*
X64500Y-29900D01*
X116800Y-38950D02*
X116000Y-38150D01*
X75850Y-30150D02*
X75200Y-30150D01*
X43750Y-28350D02*
X39650Y-28350D01*
X50300Y-29250D02*
X50400Y-29350D01*
X122950Y-39750D02*
X121250Y-39750D01*
X94600Y-38150D02*
X94200Y-37750D01*
X50300Y-29100D02*
X50300Y-29250D01*
X56400Y-29950D02*
X53650Y-29950D01*
X50400Y-29350D02*
X52300Y-29350D01*
X75200Y-30150D02*
X75100Y-30250D01*
X49700Y-28500D02*
X43900Y-28500D01*
X39450Y-28150D02*
X39100Y-28150D01*
X50300Y-29100D02*
X49700Y-28500D01*
X75100Y-30250D02*
X73550Y-30250D01*
X62750Y-29450D02*
X60050Y-29450D01*
X53650Y-29950D02*
X53550Y-30050D01*
X64500Y-29900D02*
X63950Y-29350D01*
X57350Y-29000D02*
X56400Y-29950D01*
X86150Y-37750D02*
X85750Y-38150D01*
X73550Y-30250D02*
X73200Y-29900D01*
X125800Y-40550D02*
X125950Y-40700D01*
X94200Y-37750D02*
X86150Y-37750D01*
X63950Y-29350D02*
X62850Y-29350D01*
X121050Y-38950D02*
X116800Y-38950D01*
X53000Y-30050D02*
X52300Y-29350D01*
X59600Y-29000D02*
X57350Y-29000D01*
X43900Y-28500D02*
X43750Y-28350D01*
X76050Y-38100D02*
X84550Y-38100D01*
X124200Y-40550D02*
X125800Y-40550D01*
X84550Y-38100D02*
X84600Y-38150D01*
X62850Y-29350D02*
X62750Y-29450D01*
X123900Y-40100D02*
X123900Y-40250D01*
X121250Y-39750D02*
X121150Y-39650D01*
X123200Y-40000D02*
X122950Y-39750D01*
X123800Y-40000D02*
X123900Y-40100D01*
X123900Y-40250D02*
X124200Y-40550D01*
X121150Y-39650D02*
X121150Y-39050D01*
X123200Y-40000D02*
X123800Y-40000D01*
X43050Y-29950D02*
X42400Y-29950D01*
X50150Y-29550D02*
X49550Y-30050D01*
X53300Y-38350D02*
X51650Y-38350D01*
X51900Y-29550D02*
X50150Y-29550D01*
X52200Y-29850D02*
X51900Y-29550D01*
X56550Y-37000D02*
X54650Y-37000D01*
X54650Y-37000D02*
X53300Y-38350D01*
X49550Y-30050D02*
X43150Y-30050D01*
X58000Y-38750D02*
X58000Y-38450D01*
X43150Y-30050D02*
X43050Y-29950D01*
X58000Y-38450D02*
X56550Y-37000D01*
X59900Y-46000D02*
X59650Y-46000D01*
X59550Y-44550D02*
X59400Y-44400D01*
X57200Y-33400D02*
X58550Y-33400D01*
X60750Y-47250D02*
X60750Y-46850D01*
X59550Y-45900D02*
X59550Y-44550D01*
X55800Y-33750D02*
X55950Y-33900D01*
X59400Y-44400D02*
X59400Y-43050D01*
X59150Y-42800D02*
X59150Y-34000D01*
X55950Y-33900D02*
X56700Y-33900D01*
X58550Y-33400D02*
X59150Y-34000D01*
X59900Y-46000D02*
X60750Y-46850D01*
X59650Y-46000D02*
X59550Y-45900D01*
X56700Y-33900D02*
X57200Y-33400D01*
X59400Y-43050D02*
X59150Y-42800D01*
X56950Y-27200D02*
X57100Y-27350D01*
X60700Y-27400D02*
X60650Y-27350D01*
X117950Y-27400D02*
X117950Y-27100D01*
X129250Y-24750D02*
X129250Y-24550D01*
X120950Y-27500D02*
X121050Y-27600D01*
X96850Y-26750D02*
X101700Y-26750D01*
X121050Y-27600D02*
X121350Y-27600D01*
X117950Y-27400D02*
X118050Y-27500D01*
X129150Y-24450D02*
X129250Y-24550D01*
X57100Y-27350D02*
X60650Y-27350D01*
X101700Y-26750D02*
X101850Y-26900D01*
X117950Y-27100D02*
X117350Y-26500D01*
X63150Y-27400D02*
X63200Y-27350D01*
X117350Y-26500D02*
X102650Y-26500D01*
X102250Y-26900D02*
X102650Y-26500D01*
X54350Y-27300D02*
X54450Y-27200D01*
X60700Y-27400D02*
X63150Y-27400D01*
X63200Y-27350D02*
X96250Y-27350D01*
X118050Y-27500D02*
X120950Y-27500D01*
X129150Y-24450D02*
X123050Y-24450D01*
X96250Y-27350D02*
X96850Y-26750D01*
X54450Y-27200D02*
X56950Y-27200D01*
X101850Y-26900D02*
X102250Y-26900D01*
X54000Y-27300D02*
X54350Y-27300D01*
X73500Y-29700D02*
X64600Y-29700D01*
X123700Y-40400D02*
X124050Y-40750D01*
X123700Y-40300D02*
X123700Y-40400D01*
X75000Y-38400D02*
X74850Y-38250D01*
X76250Y-38400D02*
X75000Y-38400D01*
X120950Y-39950D02*
X120750Y-39750D01*
X73750Y-29950D02*
X73500Y-29700D01*
X125750Y-41000D02*
X126950Y-41000D01*
X122950Y-40200D02*
X123600Y-40200D01*
X123600Y-40200D02*
X123700Y-40300D01*
X54400Y-29750D02*
X56300Y-29750D01*
X74850Y-29950D02*
X73750Y-29950D01*
X54100Y-29450D02*
X54400Y-29750D01*
X59850Y-28800D02*
X57250Y-28800D01*
X57250Y-28800D02*
X56300Y-29750D01*
X60300Y-29250D02*
X59850Y-28800D01*
X125750Y-41000D02*
X125500Y-40750D01*
X60300Y-29250D02*
X62600Y-29250D01*
X124050Y-40750D02*
X125500Y-40750D01*
X116000Y-39750D02*
X114600Y-38350D01*
X120750Y-39750D02*
X116000Y-39750D01*
X85800Y-38350D02*
X76300Y-38350D01*
X62700Y-29150D02*
X64050Y-29150D01*
X122700Y-39950D02*
X120950Y-39950D01*
X94150Y-37950D02*
X94500Y-38350D01*
X64050Y-29150D02*
X64600Y-29700D01*
X62600Y-29250D02*
X62700Y-29150D01*
X85800Y-38350D02*
X86200Y-37950D01*
X114600Y-38350D02*
X94500Y-38350D01*
X76300Y-38350D02*
X76250Y-38400D01*
X86200Y-37950D02*
X94150Y-37950D01*
X122950Y-40200D02*
X122700Y-39950D01*
X50600Y-24250D02*
X51250Y-24250D01*
X52700Y-32400D02*
X53150Y-32400D01*
X60550Y-33400D02*
X59150Y-32000D01*
X60950Y-44200D02*
X60800Y-44050D01*
X59150Y-32000D02*
X53550Y-32000D01*
X60950Y-45050D02*
X60950Y-44200D01*
X53550Y-32000D02*
X53150Y-32400D01*
X66750Y-51200D02*
X67800Y-52250D01*
X60950Y-45050D02*
X62700Y-46800D01*
X67800Y-52250D02*
X69450Y-52250D01*
X60800Y-42500D02*
X60550Y-42250D01*
X62700Y-46800D02*
X62700Y-47150D01*
X63650Y-50600D02*
X64250Y-51200D01*
X60550Y-42250D02*
X60550Y-33400D01*
X64250Y-51200D02*
X66750Y-51200D01*
X63650Y-48100D02*
X63650Y-50600D01*
X70250Y-53050D02*
X69450Y-52250D01*
X62700Y-47150D02*
X63650Y-48100D01*
X60800Y-44050D02*
X60800Y-42500D01*
X60400Y-29050D02*
X62500Y-29050D01*
X121600Y-38750D02*
X117050Y-38750D01*
X62500Y-29050D02*
X62600Y-28950D01*
X86050Y-37550D02*
X94250Y-37550D01*
X64150Y-28950D02*
X64700Y-29500D01*
X40900Y-28100D02*
X40700Y-27900D01*
X73750Y-29650D02*
X73600Y-29500D01*
X75600Y-37800D02*
X84600Y-37800D01*
X59400Y-28050D02*
X53400Y-28050D01*
X123150Y-39050D02*
X123050Y-38950D01*
X123150Y-39700D02*
X123150Y-39050D01*
X49600Y-28050D02*
X49400Y-28250D01*
X53300Y-27950D02*
X53400Y-28050D01*
X126250Y-40350D02*
X124300Y-40350D01*
X73600Y-29500D02*
X64700Y-29500D01*
X75400Y-29650D02*
X73750Y-29650D01*
X121800Y-38950D02*
X121600Y-38750D01*
X62600Y-28950D02*
X64150Y-28950D01*
X50750Y-27950D02*
X53300Y-27950D01*
X117050Y-38750D02*
X116250Y-37950D01*
X75500Y-37900D02*
X75600Y-37800D01*
X84600Y-37800D02*
X84750Y-37950D01*
X43800Y-28100D02*
X40900Y-28100D01*
X75200Y-37900D02*
X75500Y-37900D01*
X94250Y-37550D02*
X94650Y-37950D01*
X116250Y-37950D02*
X94650Y-37950D01*
X124100Y-40150D02*
X124300Y-40350D01*
X124100Y-39900D02*
X124100Y-40150D01*
X50650Y-28050D02*
X49600Y-28050D01*
X60400Y-29050D02*
X59400Y-28050D01*
X85650Y-37950D02*
X84750Y-37950D01*
X49400Y-28250D02*
X43950Y-28250D01*
X123250Y-39800D02*
X123150Y-39700D01*
X123050Y-38950D02*
X121800Y-38950D01*
X124000Y-39800D02*
X123250Y-39800D01*
X50650Y-28050D02*
X50750Y-27950D01*
X85650Y-37950D02*
X86050Y-37550D01*
X43950Y-28250D02*
X43800Y-28100D01*
X124000Y-39800D02*
X124100Y-39900D01*
X64050Y-31050D02*
X64300Y-31300D01*
X120850Y-40150D02*
X122650Y-40150D01*
X38800Y-31700D02*
X38800Y-31250D01*
X99300Y-41500D02*
X99500Y-41300D01*
X113800Y-40000D02*
X116000Y-40000D01*
X116000Y-40000D02*
X116050Y-39950D01*
X52250Y-30950D02*
X54000Y-30950D01*
X64300Y-31300D02*
X64300Y-31500D01*
X107700Y-40700D02*
X108300Y-40100D01*
X125400Y-40950D02*
X125700Y-41250D01*
X54000Y-30950D02*
X54200Y-30750D01*
X51050Y-31350D02*
X51850Y-31350D01*
X49800Y-31150D02*
X50200Y-31550D01*
X108300Y-40100D02*
X113700Y-40100D01*
X102550Y-40600D02*
X107150Y-40600D01*
X72200Y-31200D02*
X72500Y-31500D01*
X116050Y-39950D02*
X120650Y-39950D01*
X107250Y-40700D02*
X107700Y-40700D01*
X100900Y-41300D02*
X101300Y-40900D01*
X124000Y-40950D02*
X125400Y-40950D01*
X122950Y-40450D02*
X123500Y-40450D01*
X97750Y-41350D02*
X97900Y-41500D01*
X101300Y-40900D02*
X102250Y-40900D01*
X72950Y-41500D02*
X73100Y-41350D01*
X120650Y-39950D02*
X120850Y-40150D01*
X73100Y-41350D02*
X97750Y-41350D01*
X50200Y-31550D02*
X50850Y-31550D01*
X122650Y-40150D02*
X122950Y-40450D01*
X97900Y-41500D02*
X99300Y-41500D01*
X125700Y-41250D02*
X125700Y-41400D01*
X61150Y-31050D02*
X64050Y-31050D01*
X61150Y-31050D02*
X60950Y-30850D01*
X113700Y-40100D02*
X113800Y-40000D01*
X107150Y-40600D02*
X107250Y-40700D01*
X99500Y-41300D02*
X100900Y-41300D01*
X51850Y-31350D02*
X52250Y-30950D01*
X102250Y-40900D02*
X102550Y-40600D01*
X123500Y-40450D02*
X124000Y-40950D01*
X50850Y-31550D02*
X51050Y-31350D01*
X59250Y-30850D02*
X60950Y-30850D01*
X38900Y-31150D02*
X49800Y-31150D01*
X65350Y-31200D02*
X72200Y-31200D01*
X64400Y-31600D02*
X64950Y-31600D01*
X64300Y-31500D02*
X64400Y-31600D01*
X64950Y-31600D02*
X65350Y-31200D01*
X54200Y-30750D02*
X59150Y-30750D01*
X59150Y-30750D02*
X59250Y-30850D01*
X38800Y-31250D02*
X38900Y-31150D01*
X43400Y-24450D02*
X43200Y-24450D01*
X42350Y-24450D02*
X42350Y-25450D01*
X43200Y-24450D02*
X43100Y-24350D01*
X43100Y-23700D02*
X42350Y-24450D01*
X43100Y-24350D02*
X43100Y-23700D01*
X51250Y-30000D02*
X51000Y-30250D01*
X95150Y-26100D02*
X121800Y-26100D01*
X52900Y-26050D02*
X51350Y-26050D01*
X37000Y-30250D02*
X36100Y-31150D01*
X52900Y-26050D02*
X53100Y-25850D01*
X53100Y-25850D02*
X63800Y-25850D01*
X51250Y-29850D02*
X51250Y-30000D01*
X35550Y-32750D02*
X36100Y-32200D01*
X121900Y-31550D02*
X121900Y-26200D01*
X95150Y-26100D02*
X95000Y-26250D01*
X51000Y-30250D02*
X37000Y-30250D01*
X121900Y-26200D02*
X121800Y-26100D01*
X51000Y-26400D02*
X51000Y-26550D01*
X122200Y-31850D02*
X121900Y-31550D01*
X95000Y-26250D02*
X64200Y-26250D01*
X63800Y-25850D02*
X64200Y-26250D01*
X36100Y-31150D02*
X36100Y-32200D01*
X51350Y-26050D02*
X51000Y-26400D01*
X51750Y-29850D02*
X51750Y-30000D01*
X51250Y-30500D02*
X37100Y-30500D01*
X37100Y-30500D02*
X36550Y-31050D01*
X36550Y-31050D02*
X36550Y-32450D01*
X51750Y-30000D02*
X51250Y-30500D01*
X37150Y-33050D02*
X36550Y-32450D01*
X62550Y-22800D02*
X115600Y-22800D01*
X53750Y-30250D02*
X53850Y-30150D01*
X37000Y-32450D02*
X36850Y-32450D01*
X51500Y-30750D02*
X37250Y-30750D01*
X36750Y-32350D02*
X36850Y-32450D01*
X37150Y-32600D02*
X37000Y-32450D01*
X59900Y-29600D02*
X60100Y-29800D01*
X56500Y-30150D02*
X57050Y-29600D01*
X115600Y-22800D02*
X116100Y-23300D01*
X53850Y-30150D02*
X56500Y-30150D01*
X37250Y-30750D02*
X36750Y-31250D01*
X60100Y-29800D02*
X60250Y-29800D01*
X57050Y-29600D02*
X59900Y-29600D01*
X36750Y-31250D02*
X36750Y-32350D01*
X52000Y-30250D02*
X53750Y-30250D01*
X116100Y-23300D02*
X116400Y-23300D01*
X51500Y-30750D02*
X52000Y-30250D01*
X28250Y-56750D02*
X27750Y-56750D01*
X33900Y-57500D02*
X33900Y-51350D01*
X41600Y-57500D02*
X33900Y-57500D01*
X28900Y-58200D02*
X29000Y-58300D01*
X76300Y-56300D02*
X74350Y-58250D01*
X32950Y-50400D02*
X32950Y-49550D01*
X29000Y-58300D02*
X31950Y-58300D01*
X80050Y-52400D02*
X80150Y-52300D01*
X134350Y-51350D02*
X134350Y-52200D01*
X33900Y-57500D02*
X32750Y-57500D01*
X123100Y-52300D02*
X80150Y-52300D01*
X123650Y-51750D02*
X124650Y-51750D01*
X79900Y-52900D02*
X79900Y-55450D01*
X74350Y-58250D02*
X64150Y-58250D01*
X79050Y-56300D02*
X76300Y-56300D01*
X135450Y-51250D02*
X134450Y-51250D01*
X28900Y-57450D02*
X28950Y-57450D01*
X79050Y-56300D02*
X79900Y-55450D01*
X123100Y-52300D02*
X123650Y-51750D01*
X64150Y-58250D02*
X64050Y-58350D01*
X28900Y-57450D02*
X28900Y-58200D01*
X33950Y-48550D02*
X32950Y-49550D01*
X33900Y-51350D02*
X32950Y-50400D01*
X134250Y-52300D02*
X125200Y-52300D01*
X134450Y-51250D02*
X134350Y-51350D01*
X64050Y-58350D02*
X63400Y-58350D01*
X33950Y-41300D02*
X33950Y-48550D01*
X28950Y-57450D02*
X28250Y-56750D01*
X80050Y-52750D02*
X79900Y-52900D01*
X134350Y-52200D02*
X134250Y-52300D01*
X80050Y-52750D02*
X80050Y-52400D01*
X124650Y-51750D02*
X125200Y-52300D01*
X63300Y-58250D02*
X63400Y-58350D01*
X31950Y-58300D02*
X32750Y-57500D01*
X31450Y-47100D02*
X31450Y-47600D01*
X32550Y-30550D02*
X31450Y-30550D01*
X31350Y-30650D02*
X31350Y-30950D01*
X31450Y-30550D02*
X31350Y-30650D01*
X28050Y-53950D02*
X28150Y-53850D01*
X28150Y-53850D02*
X28900Y-53850D01*
X26750Y-54050D02*
X26850Y-53950D01*
X26850Y-53950D02*
X28050Y-53950D01*
X120850Y-23250D02*
X120850Y-22500D01*
X35150Y-39800D02*
X37750Y-39800D01*
X50700Y-42000D02*
X45800Y-42000D01*
X133250Y-26250D02*
X133900Y-25600D01*
X53600Y-41750D02*
X53150Y-42200D01*
X134150Y-23800D02*
X132850Y-22500D01*
X36100Y-23300D02*
X36900Y-22500D01*
X36100Y-25250D02*
X36100Y-23300D01*
X120850Y-22500D02*
X36900Y-22500D01*
X35050Y-26300D02*
X36100Y-25250D01*
X40550Y-39000D02*
X38550Y-39000D01*
X50900Y-42200D02*
X50700Y-42000D01*
X53150Y-42200D02*
X50900Y-42200D01*
X45800Y-42000D02*
X45550Y-41750D01*
X133900Y-25600D02*
X133900Y-25250D01*
X53820Y-41750D02*
X53600Y-41750D01*
X133250Y-37550D02*
X133250Y-26250D01*
X132850Y-22500D02*
X120850Y-22500D01*
X134800Y-23900D02*
X134700Y-23800D01*
X132850Y-37950D02*
X133250Y-37550D01*
X134800Y-24900D02*
X134800Y-23900D01*
X35150Y-39800D02*
X34350Y-39800D01*
X37750Y-39800D02*
X38550Y-39000D01*
X32700Y-39150D02*
X33700Y-39150D01*
X45550Y-41750D02*
X41200Y-41750D01*
X33700Y-39150D02*
X34350Y-39800D01*
X134700Y-23800D02*
X134150Y-23800D01*
X28450Y-34200D02*
X27850Y-34200D01*
X26000Y-34850D02*
X26000Y-32350D01*
X26400Y-37650D02*
X26400Y-35250D01*
X26000Y-32350D02*
X25900Y-32250D01*
X26400Y-35250D02*
X26000Y-34850D01*
X25900Y-32250D02*
X23250Y-32250D01*
X29750Y-47600D02*
X29750Y-47150D01*
X28900Y-52650D02*
X28950Y-52650D01*
X28950Y-52650D02*
X28650Y-52950D01*
X28650Y-52950D02*
X26750Y-52950D01*
X68850Y-49500D02*
X68850Y-50750D01*
X65850Y-37800D02*
X67850Y-37800D01*
X68750Y-49400D02*
X68850Y-49500D01*
X67850Y-37800D02*
X68350Y-37800D01*
X78850Y-52900D02*
X75200Y-52900D01*
X72700Y-51250D02*
X69350Y-51250D01*
X74800Y-52500D02*
X73950Y-52500D01*
X68850Y-50750D02*
X69350Y-51250D01*
X73950Y-52500D02*
X72700Y-51250D01*
X67850Y-49400D02*
X68350Y-49400D01*
X67800Y-35350D02*
X67800Y-33350D01*
X67850Y-43700D02*
X67850Y-42950D01*
X75200Y-52900D02*
X74800Y-52500D01*
X67850Y-43700D02*
X68350Y-43700D01*
X68350Y-49400D02*
X68750Y-49400D01*
X113500Y-25300D02*
X113400Y-25400D01*
X120000Y-25550D02*
X120050Y-25550D01*
X116050Y-25700D02*
X114850Y-24500D01*
X106100Y-25300D02*
X106000Y-25200D01*
X119850Y-25700D02*
X116050Y-25700D01*
X106000Y-25200D02*
X106000Y-23900D01*
X120000Y-25550D02*
X119850Y-25700D01*
X113400Y-25400D02*
X111850Y-25400D01*
X111750Y-25300D02*
X106100Y-25300D01*
X111850Y-25400D02*
X111750Y-25300D01*
X113800Y-24500D02*
X113500Y-24800D01*
X113500Y-24800D02*
X113500Y-25300D01*
X114850Y-24500D02*
X113800Y-24500D01*
X65350Y-38300D02*
X64550Y-38300D01*
X72450Y-51500D02*
X68200Y-51500D01*
X65550Y-44200D02*
X64550Y-44200D01*
X73150Y-52200D02*
X72450Y-51500D01*
X65550Y-49900D02*
X66100Y-50450D01*
X68200Y-51500D02*
X67150Y-50450D01*
X64550Y-49900D02*
X65550Y-49900D01*
X67150Y-50450D02*
X66100Y-50450D01*
X35550Y-36450D02*
X35550Y-36200D01*
X44950Y-37600D02*
X53150Y-37600D01*
X39000Y-36250D02*
X38450Y-35700D01*
X40950Y-37750D02*
X40500Y-37750D01*
X39000Y-36250D02*
X40500Y-37750D01*
X36050Y-35700D02*
X35550Y-36200D01*
X53150Y-37600D02*
X54500Y-36250D01*
X44750Y-37800D02*
X41000Y-37800D01*
X34750Y-37250D02*
X35550Y-36450D01*
X40950Y-37750D02*
X41000Y-37800D01*
X44950Y-37600D02*
X44750Y-37800D01*
X64550Y-36800D02*
X63750Y-36800D01*
X57250Y-36250D02*
X54500Y-36250D01*
X38450Y-35700D02*
X36050Y-35700D01*
X58000Y-37000D02*
X57250Y-36250D01*
X58000Y-36500D02*
X57500Y-36000D01*
X41000Y-37550D02*
X41050Y-37600D01*
X40800Y-37550D02*
X39500Y-36250D01*
X53050Y-37400D02*
X54450Y-36000D01*
X35500Y-35500D02*
X38750Y-35500D01*
X64550Y-36300D02*
X63750Y-36300D01*
X34750Y-36250D02*
X35500Y-35500D01*
X44850Y-37400D02*
X53050Y-37400D01*
X41050Y-37600D02*
X44650Y-37600D01*
X39500Y-36250D02*
X38750Y-35500D01*
X40800Y-37550D02*
X41000Y-37550D01*
X44850Y-37400D02*
X44650Y-37600D01*
X57500Y-36000D02*
X54450Y-36000D01*
X44550Y-37400D02*
X41150Y-37400D01*
X57750Y-35750D02*
X54400Y-35750D01*
X40000Y-36250D02*
X41150Y-37400D01*
X52950Y-37200D02*
X54400Y-35750D01*
X44750Y-37200D02*
X52950Y-37200D01*
X44750Y-37200D02*
X44550Y-37400D01*
X65150Y-35800D02*
X64550Y-35800D01*
X58000Y-36000D02*
X57750Y-35750D01*
X35250Y-35250D02*
X35300Y-35300D01*
X35300Y-35300D02*
X39050Y-35300D01*
X34750Y-35250D02*
X35250Y-35250D01*
X40000Y-36250D02*
X39050Y-35300D01*
X40500Y-36250D02*
X41450Y-37200D01*
X34750Y-34250D02*
X35600Y-35100D01*
X52850Y-37000D02*
X54350Y-35500D01*
X41450Y-37200D02*
X44450Y-37200D01*
X58000Y-35500D02*
X54350Y-35500D01*
X44650Y-37000D02*
X44450Y-37200D01*
X35600Y-35100D02*
X39350Y-35100D01*
X40500Y-36250D02*
X39350Y-35100D01*
X64550Y-35300D02*
X65150Y-35300D01*
X44650Y-37000D02*
X52850Y-37000D01*
X44550Y-36800D02*
X52750Y-36800D01*
X35050Y-33800D02*
X34850Y-33800D01*
X64550Y-34800D02*
X63950Y-34800D01*
X57750Y-35250D02*
X58000Y-35000D01*
X35700Y-34900D02*
X39650Y-34900D01*
X41000Y-36250D02*
X41750Y-37000D01*
X44550Y-36800D02*
X44350Y-37000D01*
X52750Y-36800D02*
X54300Y-35250D01*
X34750Y-33700D02*
X34750Y-33250D01*
X35050Y-33800D02*
X35200Y-33950D01*
X41000Y-36250D02*
X39650Y-34900D01*
X54300Y-35250D02*
X57750Y-35250D01*
X35200Y-33950D02*
X35200Y-34400D01*
X44350Y-37000D02*
X41750Y-37000D01*
X35200Y-34400D02*
X35700Y-34900D01*
X34850Y-33800D02*
X34750Y-33700D01*
X52650Y-36600D02*
X44450Y-36600D01*
X35400Y-34350D02*
X35400Y-33750D01*
X41000Y-35750D02*
X42050Y-36800D01*
X58000Y-34500D02*
X57500Y-35000D01*
X42050Y-36800D02*
X44250Y-36800D01*
X35400Y-34350D02*
X35750Y-34700D01*
X54250Y-35000D02*
X57500Y-35000D01*
X35150Y-32950D02*
X35150Y-33500D01*
X35150Y-33500D02*
X35400Y-33750D01*
X52650Y-36600D02*
X54250Y-35000D01*
X44450Y-36600D02*
X44250Y-36800D01*
X34750Y-32550D02*
X34750Y-32250D01*
X64550Y-34300D02*
X63950Y-34300D01*
X35150Y-32950D02*
X34750Y-32550D01*
X41000Y-35750D02*
X39950Y-34700D01*
X35750Y-34700D02*
X39950Y-34700D01*
X51100Y-54400D02*
X59950Y-54400D01*
X39500Y-56250D02*
X40500Y-55250D01*
X40500Y-55250D02*
X49600Y-55250D01*
X64550Y-49400D02*
X65100Y-49400D01*
X60000Y-54450D02*
X65350Y-54450D01*
X59950Y-54400D02*
X60000Y-54450D01*
X49600Y-55250D02*
X50100Y-54750D01*
X50750Y-54750D02*
X50100Y-54750D01*
X65350Y-54450D02*
X65450Y-54550D01*
X65450Y-54550D02*
X65650Y-54550D01*
X50750Y-54750D02*
X51100Y-54400D01*
X64550Y-48900D02*
X65100Y-48900D01*
X42100Y-55650D02*
X41500Y-56250D01*
X51200Y-55300D02*
X50250Y-55300D01*
X54400Y-53200D02*
X56900Y-50700D01*
X51750Y-54750D02*
X51200Y-55300D01*
X52050Y-53450D02*
X52300Y-53200D01*
X56900Y-50700D02*
X58550Y-50700D01*
X59100Y-50700D02*
X58550Y-50700D01*
X50250Y-55300D02*
X49900Y-55650D01*
X49900Y-55650D02*
X42100Y-55650D01*
X52300Y-53200D02*
X54400Y-53200D01*
X58150Y-47950D02*
X58350Y-47750D01*
X48150Y-50900D02*
X50050Y-49000D01*
X58150Y-48250D02*
X58150Y-47950D01*
X50750Y-49000D02*
X50050Y-49000D01*
X60550Y-47900D02*
X60400Y-47750D01*
X38500Y-50000D02*
X39400Y-50900D01*
X50750Y-49000D02*
X50850Y-49100D01*
X53350Y-49100D02*
X53450Y-49000D01*
X53450Y-49000D02*
X57400Y-49000D01*
X50850Y-49100D02*
X53350Y-49100D01*
X58350Y-47750D02*
X60400Y-47750D01*
X64550Y-48400D02*
X65100Y-48400D01*
X57400Y-49000D02*
X58150Y-48250D01*
X39400Y-50900D02*
X48150Y-50900D01*
X64550Y-47900D02*
X65100Y-47900D01*
X49750Y-48000D02*
X49750Y-48700D01*
X41000Y-50500D02*
X47950Y-50500D01*
X53950Y-47600D02*
X53350Y-47000D01*
X58050Y-47600D02*
X53950Y-47600D01*
X53350Y-47000D02*
X50750Y-47000D01*
X47950Y-50500D02*
X49750Y-48700D01*
X50750Y-47000D02*
X49750Y-48000D01*
X40500Y-50000D02*
X41000Y-50500D01*
X36800Y-51300D02*
X48350Y-51300D01*
X51250Y-49750D02*
X51250Y-50250D01*
X35500Y-50000D02*
X36800Y-51300D01*
X51250Y-50250D02*
X51100Y-50400D01*
X48350Y-51300D02*
X49250Y-50400D01*
X64550Y-47400D02*
X65100Y-47400D01*
X49250Y-50400D02*
X51100Y-50400D01*
X58050Y-46650D02*
X51650Y-46650D01*
X54250Y-49750D02*
X54250Y-50250D01*
X57450Y-46900D02*
X57700Y-47150D01*
X48900Y-52550D02*
X39450Y-52550D01*
X54600Y-46900D02*
X57450Y-46900D01*
X38500Y-53500D02*
X39450Y-52550D01*
X54250Y-50250D02*
X52900Y-51600D01*
X64550Y-46900D02*
X64150Y-46900D01*
X58050Y-47150D02*
X57700Y-47150D01*
X49850Y-51600D02*
X48900Y-52550D01*
X49850Y-51600D02*
X52900Y-51600D01*
X54250Y-47250D02*
X54600Y-46900D01*
X64550Y-46400D02*
X65200Y-46400D01*
X56850Y-49700D02*
X53950Y-52600D01*
X53950Y-52600D02*
X50550Y-52600D01*
X48700Y-54450D02*
X37300Y-54450D01*
X35500Y-56250D02*
X37300Y-54450D01*
X48700Y-54450D02*
X50550Y-52600D01*
X37500Y-56250D02*
X38900Y-54850D01*
X48900Y-54850D02*
X38900Y-54850D01*
X54300Y-53000D02*
X50750Y-53000D01*
X50750Y-53000D02*
X48900Y-54850D01*
X56950Y-50350D02*
X54300Y-53000D01*
X64550Y-45900D02*
X65200Y-45900D01*
X58300Y-50350D02*
X56950Y-50350D01*
X63850Y-50550D02*
X64300Y-51000D01*
X72250Y-53050D02*
X71200Y-52000D01*
X63500Y-47600D02*
X63850Y-47950D01*
X66900Y-51000D02*
X67900Y-52000D01*
X63500Y-46500D02*
X63500Y-47600D01*
X64300Y-51000D02*
X66900Y-51000D01*
X67900Y-52000D02*
X71200Y-52000D01*
X63850Y-47950D02*
X63850Y-50550D01*
X62350Y-54050D02*
X64750Y-54050D01*
X64750Y-54050D02*
X65050Y-53750D01*
X75350Y-53900D02*
X75200Y-53750D01*
X75200Y-53750D02*
X67700Y-53750D01*
X67250Y-54250D02*
X66750Y-53750D01*
X60750Y-53000D02*
X61300Y-53000D01*
X61300Y-53000D02*
X62350Y-54050D01*
X67250Y-54250D02*
X67700Y-53750D01*
X66750Y-53750D02*
X65050Y-53750D01*
X61000Y-54900D02*
X65900Y-54900D01*
X70250Y-54250D02*
X69750Y-54750D01*
X66050Y-54750D02*
X69750Y-54750D01*
X65900Y-54900D02*
X66050Y-54750D01*
X72250Y-54250D02*
X71250Y-55250D01*
X71250Y-55250D02*
X66050Y-55250D01*
X66050Y-55250D02*
X65800Y-55500D01*
X59960Y-55500D02*
X65800Y-55500D01*
X61500Y-56550D02*
X57550Y-56550D01*
X66050Y-56600D02*
X65900Y-56450D01*
X66800Y-56600D02*
X66050Y-56600D01*
X65900Y-56450D02*
X61600Y-56450D01*
X67250Y-56150D02*
X66800Y-56600D01*
X61600Y-56450D02*
X61500Y-56550D01*
X57000Y-56000D02*
X57550Y-56550D01*
X36850Y-43250D02*
X37500Y-42550D01*
X110000Y-44250D02*
X110100Y-44350D01*
X63850Y-42450D02*
X64100Y-42200D01*
X127200Y-42950D02*
X129750Y-42950D01*
X40600Y-39900D02*
X38450Y-42050D01*
X42200Y-39900D02*
X42700Y-39400D01*
X37950Y-42550D02*
X37500Y-42550D01*
X66450Y-43350D02*
X67150Y-43350D01*
X127200Y-42950D02*
X126800Y-43350D01*
X126800Y-43350D02*
X122350Y-43350D01*
X69050Y-43700D02*
X69600Y-44250D01*
X110100Y-44350D02*
X110800Y-44350D01*
X53450Y-39400D02*
X54850Y-38000D01*
X40600Y-39900D02*
X42200Y-39900D01*
X64550Y-42200D02*
X65300Y-42200D01*
X36250Y-43250D02*
X36850Y-43250D01*
X65300Y-42200D02*
X66450Y-43350D01*
X69600Y-44250D02*
X110000Y-44250D01*
X61800Y-42200D02*
X62050Y-42450D01*
X42700Y-39400D02*
X53450Y-39400D01*
X118700Y-43300D02*
X118850Y-43150D01*
X61800Y-42200D02*
X61450Y-42200D01*
X110900Y-44250D02*
X115250Y-44250D01*
X38450Y-42050D02*
X37950Y-42550D01*
X118850Y-43150D02*
X122150Y-43150D01*
X115250Y-44250D02*
X115750Y-43750D01*
X62050Y-42450D02*
X63850Y-42450D01*
X64550Y-42200D02*
X64100Y-42200D01*
X115750Y-43750D02*
X118300Y-43750D01*
X122350Y-43350D02*
X122150Y-43150D01*
X110800Y-44350D02*
X110900Y-44250D01*
X118700Y-43300D02*
X118300Y-43750D01*
X56000Y-38500D02*
X55500Y-38000D01*
X54850Y-38000D02*
X55500Y-38000D01*
X61700Y-57150D02*
X61800Y-57050D01*
X54900Y-57150D02*
X61700Y-57150D01*
X61800Y-57050D02*
X65550Y-57050D01*
X65700Y-57200D02*
X69200Y-57200D01*
X65550Y-57050D02*
X65700Y-57200D01*
X70250Y-56150D02*
X69200Y-57200D01*
X53750Y-56000D02*
X54900Y-57150D01*
X65400Y-57450D02*
X65550Y-57600D01*
X53300Y-57550D02*
X61850Y-57550D01*
X61850Y-57550D02*
X61950Y-57450D01*
X61950Y-57450D02*
X65400Y-57450D01*
X72250Y-56150D02*
X70800Y-57600D01*
X65550Y-57600D02*
X70800Y-57600D01*
X51750Y-56000D02*
X53300Y-57550D01*
X94800Y-37550D02*
X125750Y-37550D01*
X127150Y-46150D02*
X126950Y-45950D01*
X56250Y-37250D02*
X54700Y-37250D01*
X53150Y-38800D02*
X54700Y-37250D01*
X127350Y-46750D02*
X127150Y-46550D01*
X68850Y-38900D02*
X70350Y-37400D01*
X57500Y-38500D02*
X56250Y-37250D01*
X131000Y-37400D02*
X131500Y-37400D01*
X125950Y-37750D02*
X125750Y-37550D01*
X53150Y-38800D02*
X42500Y-38800D01*
X129250Y-46250D02*
X130250Y-46250D01*
X38000Y-40250D02*
X38750Y-40250D01*
X39700Y-39300D02*
X42000Y-39300D01*
X131000Y-37400D02*
X130650Y-37750D01*
X38750Y-40250D02*
X39700Y-39300D01*
X94400Y-37150D02*
X94800Y-37550D01*
X36250Y-40250D02*
X38000Y-40250D01*
X38050Y-40250D02*
X38000Y-40250D01*
X127350Y-46750D02*
X128750Y-46750D01*
X130650Y-37750D02*
X125950Y-37750D01*
X128750Y-46750D02*
X129250Y-46250D01*
X64550Y-40700D02*
X66200Y-40700D01*
X64550Y-40700D02*
X62600Y-40700D01*
X85850Y-37150D02*
X94400Y-37150D01*
X126950Y-45950D02*
X126550Y-45950D01*
X85600Y-37400D02*
X70350Y-37400D01*
X66200Y-39050D02*
X66350Y-38900D01*
X85600Y-37400D02*
X85850Y-37150D01*
X66350Y-38900D02*
X68850Y-38900D01*
X127150Y-46150D02*
X127150Y-46550D01*
X42000Y-39300D02*
X42500Y-38800D01*
X58000Y-38000D02*
X56750Y-36750D01*
X45100Y-38000D02*
X44900Y-38200D01*
X36100Y-36350D02*
X36100Y-37900D01*
X64550Y-37800D02*
X64150Y-37800D01*
X53350Y-38000D02*
X54600Y-36750D01*
X64150Y-37800D02*
X64050Y-37900D01*
X40900Y-38200D02*
X44900Y-38200D01*
X38000Y-36250D02*
X39900Y-38150D01*
X34750Y-39250D02*
X36100Y-37900D01*
X40850Y-38150D02*
X40900Y-38200D01*
X39900Y-38150D02*
X40850Y-38150D01*
X56750Y-36750D02*
X54600Y-36750D01*
X38000Y-36250D02*
X36200Y-36250D01*
X36200Y-36250D02*
X36100Y-36350D01*
X45100Y-38000D02*
X53350Y-38000D01*
X40200Y-37950D02*
X40900Y-37950D01*
X35750Y-37250D02*
X35750Y-36250D01*
X58000Y-37500D02*
X57000Y-36500D01*
X64000Y-37300D02*
X63800Y-37500D01*
X45000Y-37800D02*
X53250Y-37800D01*
X38150Y-35900D02*
X36100Y-35900D01*
X53250Y-37800D02*
X54550Y-36500D01*
X40950Y-38000D02*
X44800Y-38000D01*
X38500Y-36250D02*
X38150Y-35900D01*
X36100Y-35900D02*
X35750Y-36250D01*
X40900Y-37950D02*
X40950Y-38000D01*
X34750Y-38250D02*
X35750Y-37250D01*
X57000Y-36500D02*
X54550Y-36500D01*
X38500Y-36250D02*
X40200Y-37950D01*
X45000Y-37800D02*
X44800Y-38000D01*
X63800Y-37500D02*
X63750Y-37500D01*
X64550Y-37300D02*
X64000Y-37300D01*
X139250Y-40250D02*
X139250Y-39050D01*
X128600Y-33100D02*
X128600Y-29200D01*
X128150Y-28750D02*
X127900Y-28750D01*
X128600Y-29200D02*
X128150Y-28750D01*
X128550Y-39350D02*
X128900Y-39000D01*
X134150Y-39000D02*
X134550Y-39400D01*
X134550Y-39400D02*
X138000Y-39400D01*
X128600Y-33100D02*
X128400Y-33300D01*
X128550Y-37050D02*
X128550Y-35050D01*
X138450Y-38950D02*
X139150Y-38950D01*
X128400Y-34900D02*
X128400Y-33300D01*
X128900Y-39000D02*
X134150Y-39000D01*
X139150Y-38950D02*
X139250Y-39050D01*
X138000Y-39400D02*
X138450Y-38950D01*
X128550Y-35050D02*
X128400Y-34900D01*
X127550Y-40350D02*
X127950Y-40750D01*
X133650Y-40550D02*
X133950Y-40850D01*
X125200Y-29600D02*
X125100Y-29500D01*
X127400Y-37050D02*
X127400Y-35700D01*
X139150Y-40850D02*
X139250Y-40950D01*
X133550Y-39800D02*
X129750Y-39800D01*
X133650Y-40550D02*
X133650Y-39900D01*
X127000Y-35300D02*
X126450Y-35300D01*
X125100Y-28650D02*
X125000Y-28550D01*
X125100Y-29500D02*
X125100Y-28650D01*
X133950Y-40850D02*
X139150Y-40850D01*
X126250Y-29600D02*
X125200Y-29600D01*
X133650Y-39900D02*
X133550Y-39800D01*
X127400Y-35700D02*
X127000Y-35300D01*
X126350Y-35200D02*
X126350Y-29700D01*
X129750Y-39800D02*
X128800Y-40750D01*
X126450Y-35300D02*
X126350Y-35200D01*
X126350Y-29700D02*
X126250Y-29600D01*
X127950Y-40750D02*
X128800Y-40750D01*
X139250Y-40950D02*
X139250Y-41250D01*
X133850Y-41000D02*
X133500Y-40650D01*
X128250Y-27550D02*
X129600Y-28900D01*
X129950Y-35600D02*
X129950Y-35200D01*
X129550Y-37050D02*
X129550Y-36000D01*
X129600Y-34850D02*
X129600Y-28900D01*
X128250Y-27550D02*
X127850Y-27550D01*
X128550Y-41350D02*
X128950Y-41350D01*
X128950Y-41350D02*
X129650Y-40650D01*
X129550Y-36000D02*
X129950Y-35600D01*
X133850Y-41450D02*
X133850Y-41000D01*
X134050Y-41650D02*
X137650Y-41650D01*
X133500Y-40650D02*
X129650Y-40650D01*
X129950Y-35200D02*
X129600Y-34850D01*
X133850Y-41450D02*
X134050Y-41650D01*
X138450Y-39250D02*
X138900Y-39250D01*
X125050Y-35500D02*
X125050Y-32100D01*
X125050Y-32100D02*
X124700Y-31750D01*
X128750Y-39750D02*
X129300Y-39200D01*
X128750Y-39750D02*
X127950Y-39750D01*
X134050Y-39200D02*
X134450Y-39600D01*
X134450Y-39600D02*
X138100Y-39600D01*
X138100Y-39600D02*
X138450Y-39250D01*
X129300Y-39200D02*
X134050Y-39200D01*
X127550Y-39350D02*
X127950Y-39750D01*
X133650Y-38350D02*
X133900Y-38100D01*
X133900Y-38100D02*
X136900Y-38100D01*
X136900Y-38100D02*
X137250Y-38450D01*
X125300Y-35300D02*
X125300Y-31950D01*
X138250Y-38350D02*
X140050Y-38350D01*
X125150Y-31600D02*
X125150Y-31800D01*
X140250Y-38550D02*
X140050Y-38350D01*
X137250Y-38450D02*
X138150Y-38450D01*
X138150Y-38450D02*
X138250Y-38350D01*
X125500Y-35500D02*
X125300Y-35300D01*
X140250Y-41250D02*
X140250Y-38550D01*
X125150Y-31800D02*
X125300Y-31950D01*
X127550Y-38350D02*
X133650Y-38350D01*
X63700Y-26050D02*
X64100Y-26450D01*
X52850Y-26350D02*
X53150Y-26050D01*
X52850Y-26350D02*
X51650Y-26350D01*
X95200Y-26450D02*
X64100Y-26450D01*
X95350Y-26300D02*
X121600Y-26300D01*
X121700Y-26400D02*
X121600Y-26300D01*
X121700Y-26400D02*
X121700Y-31850D01*
X95350Y-26300D02*
X95200Y-26450D01*
X53150Y-26050D02*
X63700Y-26050D01*
X52000Y-30550D02*
X51600Y-30950D01*
X37850Y-31500D02*
X38400Y-30950D01*
X51600Y-30950D02*
X38400Y-30950D01*
X115000Y-33400D02*
X113150Y-33400D01*
X115800Y-32000D02*
X115400Y-32400D01*
X53950Y-30350D02*
X56700Y-30350D01*
X61450Y-30400D02*
X63300Y-30400D01*
X73400Y-32850D02*
X73850Y-32400D01*
X72950Y-32850D02*
X73400Y-32850D01*
X64250Y-30100D02*
X63850Y-29700D01*
X78350Y-33000D02*
X78350Y-32500D01*
X57200Y-29850D02*
X59850Y-29850D01*
X61150Y-30100D02*
X61450Y-30400D01*
X63300Y-30400D02*
X63400Y-30300D01*
X56700Y-30350D02*
X57200Y-29850D01*
X37850Y-32300D02*
X37850Y-31500D01*
X115400Y-32400D02*
X115400Y-33000D01*
X63400Y-30300D02*
X63400Y-29700D01*
X78250Y-32400D02*
X73850Y-32400D01*
X72650Y-30100D02*
X64250Y-30100D01*
X72750Y-30200D02*
X72650Y-30100D01*
X59850Y-29850D02*
X60100Y-30100D01*
X99900Y-33300D02*
X99700Y-33100D01*
X113050Y-33300D02*
X99900Y-33300D01*
X116410Y-32000D02*
X115800Y-32000D01*
X53750Y-30550D02*
X53950Y-30350D01*
X115400Y-33000D02*
X115000Y-33400D01*
X99700Y-33100D02*
X78450Y-33100D01*
X113150Y-33400D02*
X113050Y-33300D01*
X78450Y-33100D02*
X78350Y-33000D01*
X63850Y-29700D02*
X63400Y-29700D01*
X72750Y-30200D02*
X72950Y-30200D01*
X53750Y-30550D02*
X52000Y-30550D01*
X60100Y-30100D02*
X61150Y-30100D01*
X78350Y-32500D02*
X78250Y-32400D01*
X140200Y-33150D02*
X140300Y-33250D01*
X140300Y-33250D02*
X142350Y-33250D01*
X140200Y-31950D02*
X140200Y-33150D01*
X140200Y-31950D02*
X139500Y-31950D01*
X62900Y-37450D02*
X62900Y-37050D01*
X65600Y-32800D02*
X65600Y-32650D01*
X63250Y-36700D02*
X63250Y-36150D01*
X63000Y-39150D02*
X63000Y-37550D01*
X62900Y-37050D02*
X63250Y-36700D01*
X63600Y-35800D02*
X63600Y-33950D01*
X64150Y-33400D02*
X63600Y-33950D01*
X65000Y-33400D02*
X64150Y-33400D01*
X65000Y-33400D02*
X65600Y-32800D01*
X63000Y-37550D02*
X62900Y-37450D01*
X63250Y-36150D02*
X63600Y-35800D01*
X61900Y-32450D02*
X61900Y-34900D01*
X62200Y-26900D02*
X63200Y-26900D01*
X61050Y-32050D02*
X61500Y-32050D01*
X61500Y-32050D02*
X61900Y-32450D01*
X61050Y-37100D02*
X61050Y-35750D01*
X63200Y-26900D02*
X63300Y-26800D01*
X61900Y-34900D02*
X61050Y-35750D01*
X129650Y-26650D02*
X129450Y-26850D01*
X126700Y-26500D02*
X127050Y-26850D01*
X132400Y-37950D02*
X132500Y-37850D01*
X132500Y-37850D02*
X132500Y-36050D01*
X131850Y-35400D02*
X131850Y-34000D01*
X127050Y-26850D02*
X129450Y-26850D01*
X132500Y-36050D02*
X131850Y-35400D01*
X28700Y-59750D02*
X26300Y-57350D01*
X37900Y-58100D02*
X36250Y-59750D01*
X64150Y-58550D02*
X62500Y-58550D01*
X124600Y-51950D02*
X125150Y-52500D01*
X26300Y-57350D02*
X26300Y-51000D01*
X36250Y-59750D02*
X28700Y-59750D01*
X23350Y-43600D02*
X25100Y-43600D01*
X26100Y-44850D02*
X26100Y-44900D01*
X25650Y-44850D02*
X26100Y-44850D01*
X25200Y-44750D02*
X25300Y-44850D01*
X123750Y-51950D02*
X124600Y-51950D01*
X79100Y-56500D02*
X80100Y-55500D01*
X80100Y-55500D02*
X80100Y-52950D01*
X80100Y-52950D02*
X80250Y-52800D01*
X80250Y-52800D02*
X80250Y-52600D01*
X80250Y-52600D02*
X80350Y-52500D01*
X40850Y-58400D02*
X40550Y-58100D01*
X74450Y-58450D02*
X76400Y-56500D01*
X134800Y-51550D02*
X134800Y-52500D01*
X23250Y-41250D02*
X23250Y-43500D01*
X23250Y-43500D02*
X23350Y-43600D01*
X25300Y-44850D02*
X25650Y-44850D01*
X25350Y-50050D02*
X25350Y-48450D01*
X26300Y-51000D02*
X25700Y-50400D01*
X25650Y-48150D02*
X25650Y-48100D01*
X25350Y-48450D02*
X25650Y-48150D01*
X25700Y-50400D02*
X25350Y-50050D01*
X64150Y-58550D02*
X64250Y-58450D01*
X25650Y-48100D02*
X25650Y-44850D01*
X40550Y-58100D02*
X37900Y-58100D01*
X140500Y-52500D02*
X134800Y-52500D01*
X134800Y-52500D02*
X125150Y-52500D01*
X123200Y-52500D02*
X80350Y-52500D01*
X123200Y-52500D02*
X123750Y-51950D01*
X79100Y-56500D02*
X76400Y-56500D01*
X74450Y-58450D02*
X64250Y-58450D01*
X62500Y-58550D02*
X62500Y-58400D01*
X141200Y-30750D02*
X140800Y-30750D01*
X140500Y-52500D02*
X141500Y-51500D01*
X25100Y-43600D02*
X25200Y-43700D01*
X25200Y-43700D02*
X25200Y-44750D01*
X40850Y-58950D02*
X40850Y-58400D01*
X38250Y-44750D02*
X39000Y-45500D01*
X47200Y-36050D02*
X47200Y-35550D01*
X47200Y-35550D02*
X47300Y-35450D01*
X39000Y-45500D02*
X47050Y-45500D01*
X47300Y-35450D02*
X47300Y-31950D01*
X122600Y-28050D02*
X122600Y-27900D01*
X127550Y-42350D02*
X122200Y-42350D01*
X123100Y-32500D02*
X123100Y-31200D01*
X122850Y-28300D02*
X122600Y-28050D01*
X122900Y-32700D02*
X123100Y-32500D01*
X123100Y-31200D02*
X122850Y-30950D01*
X122850Y-30950D02*
X122850Y-28300D01*
X122900Y-34300D02*
X122900Y-32700D01*
X130000Y-41850D02*
X133300Y-41850D01*
X123800Y-27050D02*
X123300Y-27550D01*
X123300Y-34100D02*
X123300Y-27550D01*
X128550Y-42350D02*
X129500Y-42350D01*
X127150Y-42150D02*
X123350Y-42150D01*
X122900Y-42050D02*
X123250Y-42050D01*
X127800Y-41950D02*
X127350Y-41950D01*
X128550Y-42350D02*
X128200Y-42350D01*
X123350Y-42150D02*
X123250Y-42050D01*
X133300Y-41850D02*
X134550Y-43100D01*
X128200Y-42350D02*
X127800Y-41950D01*
X127150Y-42150D02*
X127350Y-41950D01*
X129500Y-42350D02*
X130000Y-41850D01*
X122950Y-27000D02*
X122950Y-27100D01*
X122450Y-32150D02*
X122850Y-31750D01*
X122300Y-28300D02*
X122300Y-27550D01*
X122600Y-28600D02*
X122300Y-28300D01*
X123250Y-26700D02*
X122950Y-27000D01*
X122600Y-27450D02*
X122950Y-27100D01*
X122850Y-31750D02*
X122850Y-31300D01*
X122850Y-31300D02*
X122600Y-31050D01*
X123250Y-26700D02*
X123500Y-26700D01*
X122450Y-34350D02*
X122450Y-32150D01*
X122600Y-31050D02*
X122600Y-28600D01*
X122400Y-27450D02*
X122600Y-27450D01*
X127550Y-43350D02*
X127350Y-43550D01*
X127350Y-43550D02*
X121750Y-43550D01*
X121750Y-43550D02*
X121650Y-43450D01*
X122300Y-27550D02*
X122400Y-27450D01*
X129400Y-46850D02*
X129300Y-46950D01*
X129300Y-46950D02*
X129300Y-47650D01*
X130750Y-46850D02*
X129400Y-46850D01*
X117550Y-36900D02*
X117550Y-36550D01*
X129300Y-47650D02*
X129200Y-47750D01*
X129200Y-47750D02*
X127300Y-47750D01*
X120200Y-47200D02*
X119850Y-47550D01*
X119850Y-47550D02*
X118650Y-47550D01*
X130850Y-46750D02*
X130750Y-46850D01*
X130850Y-45950D02*
X130850Y-46750D01*
X122850Y-47200D02*
X122950Y-47300D01*
X120200Y-47200D02*
X122850Y-47200D01*
X131750Y-45850D02*
X130950Y-45850D01*
X138700Y-46650D02*
X137700Y-45650D01*
X137700Y-45650D02*
X131950Y-45650D01*
X122950Y-47300D02*
X126850Y-47300D01*
X118450Y-36400D02*
X119550Y-35300D01*
X120200Y-30600D02*
X120200Y-29650D01*
X131950Y-45650D02*
X131750Y-45850D01*
X139650Y-46650D02*
X138700Y-46650D01*
X117550Y-36550D02*
X117700Y-36400D01*
X119550Y-31250D02*
X120200Y-30600D01*
X126850Y-47300D02*
X127300Y-47750D01*
X119550Y-35300D02*
X119550Y-31250D01*
X140250Y-47250D02*
X139650Y-46650D01*
X117700Y-36400D02*
X118450Y-36400D01*
X130950Y-45850D02*
X130850Y-45950D01*
X125350Y-48400D02*
X125300Y-48350D01*
X119750Y-32550D02*
X120650Y-31650D01*
X127200Y-47950D02*
X127100Y-48050D01*
X132200Y-48300D02*
X131750Y-47850D01*
X120650Y-31650D02*
X120650Y-29500D01*
X119750Y-35400D02*
X119750Y-32550D01*
X118950Y-48250D02*
X119200Y-48250D01*
X129500Y-47850D02*
X129400Y-47950D01*
X138350Y-47250D02*
X137300Y-48300D01*
X131750Y-47850D02*
X129500Y-47850D01*
X127000Y-48400D02*
X125350Y-48400D01*
X127100Y-48300D02*
X127000Y-48400D01*
X118250Y-36600D02*
X118550Y-36600D01*
X118550Y-36600D02*
X119750Y-35400D01*
X127100Y-48050D02*
X127100Y-48300D01*
X125300Y-48350D02*
X119300Y-48350D01*
X137300Y-48300D02*
X132200Y-48300D01*
X119200Y-48250D02*
X119300Y-48350D01*
X139250Y-47250D02*
X138350Y-47250D01*
X118150Y-36950D02*
X118150Y-36700D01*
X118150Y-36700D02*
X118250Y-36600D01*
X129400Y-47950D02*
X127200Y-47950D01*
X139550Y-26050D02*
X139550Y-27700D01*
X139550Y-25100D02*
X139550Y-26050D01*
X139110Y-27850D02*
X140000Y-27850D01*
X136050Y-32260D02*
X136050Y-32300D01*
X136950Y-32260D02*
X136050Y-32260D01*
X139550Y-27700D02*
X139650Y-27800D01*
X127700Y-25350D02*
X127700Y-25450D01*
X139650Y-27800D02*
X140050Y-27800D01*
X139050Y-27910D02*
X139110Y-27850D01*
X140000Y-27850D02*
X140050Y-27800D01*
X127900Y-25450D02*
X127700Y-25450D01*
X136650Y-27200D02*
X136050Y-27200D01*
X137350Y-27900D02*
X136650Y-27200D01*
X126800Y-25350D02*
X127700Y-25350D01*
X128200Y-32900D02*
X127650Y-32900D01*
X60750Y-39350D02*
X60750Y-35650D01*
X60850Y-39450D02*
X60750Y-39350D01*
X61200Y-28150D02*
X62700Y-28150D01*
X61500Y-32400D02*
X61700Y-32600D01*
X61700Y-32600D02*
X61700Y-34700D01*
X61700Y-34700D02*
X60750Y-35650D01*
X60350Y-32400D02*
X61500Y-32400D01*
X139100Y-26900D02*
X137450Y-25250D01*
X126000Y-24150D02*
X125800Y-23950D01*
X140700Y-27800D02*
X141000Y-27800D01*
X123350Y-23150D02*
X124150Y-23950D01*
X122450Y-23150D02*
X123350Y-23150D01*
X140500Y-28300D02*
X140600Y-28200D01*
X137450Y-25250D02*
X134400Y-25250D01*
X125450Y-23950D02*
X125800Y-23950D01*
X133300Y-24150D02*
X134400Y-25250D01*
X138650Y-28200D02*
X138750Y-28300D01*
X138750Y-28300D02*
X140500Y-28300D01*
X139100Y-26900D02*
X138650Y-27350D01*
X140600Y-27900D02*
X140700Y-27800D01*
X126000Y-24150D02*
X133300Y-24150D01*
X124150Y-23950D02*
X125450Y-23950D01*
X140600Y-28200D02*
X140600Y-27900D01*
X138650Y-27350D02*
X138650Y-28200D01*
X135850Y-22870D02*
X135700Y-22850D01*
X136200Y-22870D02*
X135850Y-22870D01*
X53150Y-29400D02*
X52750Y-29400D01*
X132500Y-34550D02*
X132500Y-35000D01*
X51900Y-24350D02*
X51900Y-24250D01*
X51500Y-24750D02*
X51900Y-24350D01*
G54D32*
X54500Y-63450D02*
X54500Y-62400D01*
G54D33*
X49000Y-62400D02*
X49000Y-60250D01*
G54D32*
X55500Y-63450D02*
X55500Y-62400D01*
G54D11*
X125800Y-26000D02*
X126800Y-26000D01*
X126800Y-26000D02*
X126800Y-25860D01*
X53250Y-29500D02*
X53150Y-29400D01*
X52150Y-28800D02*
X52750Y-29400D01*
X53250Y-29750D02*
X53250Y-29500D01*
X50750Y-33500D02*
X50500Y-33500D01*
G54D33*
X55500Y-62400D02*
X55500Y-61000D01*
G54D32*
X61000Y-62400D02*
X61000Y-63450D01*
X65000Y-62400D02*
X65000Y-63450D01*
X52000Y-62400D02*
X52000Y-63450D01*
X49000Y-62400D02*
X49000Y-63450D01*
X58000Y-62400D02*
X58000Y-63450D01*
G54D11*
X57750Y-52000D02*
X57750Y-53500D01*
X45800Y-59000D02*
X45850Y-59050D01*
X45800Y-58450D02*
X45800Y-59000D01*
X122550Y-47900D02*
X122450Y-47750D01*
X45850Y-59050D02*
X45850Y-59900D01*
X50100Y-40900D02*
X50100Y-40750D01*
X50650Y-41000D02*
X50200Y-41000D01*
X50200Y-41000D02*
X50100Y-40900D01*
G54D33*
X55750Y-60250D02*
X55750Y-60750D01*
G54D11*
X37500Y-32800D02*
X37600Y-32900D01*
X37600Y-32900D02*
X38400Y-32900D01*
G54D33*
X54500Y-62400D02*
X54500Y-61000D01*
X55750Y-60750D02*
X55500Y-61000D01*
X58000Y-62400D02*
X58000Y-60250D01*
G54D11*
X37500Y-32000D02*
X37500Y-32800D01*
X37700Y-36550D02*
X37800Y-36650D01*
X37500Y-36550D02*
X37700Y-36550D01*
X61050Y-58250D02*
X60850Y-58450D01*
G54D33*
X54500Y-61000D02*
X54250Y-60750D01*
G54D11*
X52750Y-53750D02*
X53500Y-53750D01*
X59200Y-24150D02*
X59200Y-23250D01*
X32700Y-40450D02*
X33200Y-40450D01*
X28000Y-44900D02*
X28100Y-45000D01*
X64300Y-53750D02*
X64400Y-53650D01*
X64400Y-53650D02*
X64400Y-52650D01*
X136050Y-31240D02*
X136050Y-31000D01*
X136950Y-31240D02*
X136050Y-31240D01*
X65050Y-52000D02*
X64400Y-52650D01*
X140950Y-26050D02*
X140950Y-25050D01*
X29200Y-32750D02*
X29200Y-32900D01*
X31150Y-32650D02*
X31250Y-32750D01*
X27400Y-44900D02*
X28000Y-44900D01*
X26900Y-44900D02*
X27400Y-44900D01*
X26200Y-43050D02*
X26700Y-43050D01*
X26800Y-43150D02*
X26800Y-44800D01*
X26700Y-43050D02*
X26800Y-43150D01*
X24250Y-42950D02*
X24250Y-42250D01*
X24350Y-43050D02*
X24250Y-42950D01*
X26200Y-43050D02*
X24350Y-43050D01*
X29150Y-32950D02*
X28550Y-32950D01*
X28100Y-45000D02*
X28100Y-45350D01*
X33150Y-35550D02*
X32700Y-35550D01*
X31800Y-33650D02*
X31250Y-33100D01*
X30500Y-32650D02*
X31150Y-32650D01*
X26400Y-38950D02*
X25450Y-38950D01*
X32300Y-45250D02*
X32300Y-44050D01*
X30200Y-55050D02*
X30900Y-55050D01*
X26500Y-41200D02*
X26400Y-41100D01*
G54D33*
X46000Y-60750D02*
X46000Y-62400D01*
G54D11*
X63000Y-53750D02*
X64300Y-53750D01*
X65200Y-45400D02*
X64550Y-45400D01*
X65200Y-39700D02*
X64550Y-39700D01*
X65200Y-33800D02*
X64550Y-33800D01*
X26800Y-44800D02*
X26900Y-44900D01*
X29200Y-32900D02*
X29150Y-32950D01*
X29300Y-32650D02*
X29200Y-32750D01*
X137700Y-36650D02*
X137700Y-37750D01*
X30900Y-55050D02*
X31400Y-54550D01*
X31600Y-54550D02*
X31400Y-54550D01*
X32300Y-53850D02*
X31600Y-54550D01*
X31250Y-32750D02*
X31250Y-33100D01*
X29900Y-40250D02*
X29900Y-41200D01*
X121050Y-45750D02*
X122200Y-45750D01*
X122200Y-45750D02*
X122750Y-46300D01*
X120750Y-46050D02*
X121050Y-45750D01*
X33950Y-35550D02*
X34050Y-35450D01*
X34050Y-35450D02*
X34050Y-32300D01*
X34050Y-32300D02*
X33950Y-32200D01*
X33950Y-32200D02*
X33750Y-32200D01*
X33150Y-35550D02*
X33950Y-35550D01*
X28650Y-39550D02*
X26400Y-39550D01*
G54D33*
X52000Y-60250D02*
X52000Y-62400D01*
G54D11*
X122450Y-47750D02*
X122550Y-47850D01*
X61050Y-32950D02*
X61100Y-32950D01*
X61050Y-33500D02*
X61050Y-32950D01*
X37800Y-37150D02*
X37800Y-36650D01*
X37900Y-37250D02*
X37800Y-37150D01*
X54500Y-55000D02*
X55250Y-55000D01*
X57250Y-55000D02*
X56500Y-55000D01*
X54850Y-29450D02*
X54900Y-29450D01*
X54850Y-29000D02*
X54850Y-29450D01*
X52150Y-28800D02*
X52150Y-28750D01*
X52750Y-48500D02*
X52750Y-48000D01*
X58500Y-53500D02*
X57750Y-53500D01*
X65100Y-52000D02*
X65050Y-52000D01*
X58650Y-48800D02*
X58750Y-48900D01*
X58650Y-48400D02*
X58650Y-48800D01*
X49750Y-35750D02*
X50250Y-35750D01*
X42750Y-35750D02*
X42750Y-36250D01*
X30950Y-26650D02*
X30950Y-26550D01*
X60350Y-58450D02*
X60850Y-58450D01*
X38400Y-32850D02*
X38400Y-32900D01*
X40650Y-32750D02*
X40650Y-32900D01*
X41250Y-32750D02*
X40650Y-32750D01*
X122800Y-46350D02*
X122750Y-46350D01*
X137200Y-34550D02*
X137450Y-34300D01*
X136200Y-34550D02*
X137200Y-34550D01*
X132600Y-35100D02*
X132700Y-35100D01*
X132500Y-35000D02*
X132600Y-35100D01*
X132500Y-34550D02*
X132500Y-33350D01*
X31800Y-34650D02*
X32700Y-35550D01*
X55000Y-46000D02*
X56250Y-46000D01*
G54D33*
X65000Y-62400D02*
X65000Y-60250D01*
G54D11*
X46000Y-63450D02*
X46000Y-62400D01*
X57000Y-45250D02*
X56250Y-46000D01*
G54D33*
X61000Y-62400D02*
X61000Y-60250D01*
G54D11*
X32300Y-44050D02*
X32900Y-44050D01*
X136200Y-34550D02*
X136550Y-34900D01*
X136550Y-34900D02*
X136550Y-35400D01*
X137700Y-36000D02*
X137700Y-36650D01*
X137300Y-25850D02*
X136050Y-25850D01*
X136050Y-25850D02*
X136050Y-25900D01*
X137350Y-28420D02*
X137350Y-28300D01*
X128860Y-34900D02*
X128860Y-34400D01*
X58750Y-48900D02*
X58750Y-49250D01*
X29800Y-26550D02*
X30950Y-26550D01*
X29700Y-26450D02*
X29800Y-26550D01*
X29700Y-22900D02*
X29700Y-26450D01*
X29800Y-22800D02*
X29700Y-22900D01*
X31950Y-22800D02*
X29800Y-22800D01*
X52750Y-48000D02*
X52850Y-47900D01*
X52850Y-47900D02*
X53000Y-47900D01*
X122550Y-47850D02*
X122550Y-47900D01*
X129000Y-25450D02*
X129650Y-25450D01*
X132100Y-25550D02*
X131700Y-25550D01*
G54D33*
X54250Y-60750D02*
X54250Y-60250D01*
G54D11*
X128860Y-34400D02*
X128900Y-34350D01*
X132100Y-25550D02*
X133200Y-25550D01*
X122750Y-46350D02*
X122750Y-46300D01*
X125650Y-46600D02*
X125650Y-46200D01*
X132500Y-33350D02*
X132500Y-32650D01*
X136600Y-44000D02*
X136150Y-44000D01*
X26400Y-38950D02*
X26400Y-39550D01*
X32300Y-53850D02*
X32300Y-52650D01*
X38500Y-59750D02*
X38500Y-58950D01*
X24250Y-37750D02*
X25450Y-38950D01*
X30900Y-57450D02*
X30200Y-57450D01*
X30200Y-56250D02*
X30900Y-56250D01*
X137350Y-28300D02*
X137250Y-28200D01*
X45850Y-59900D02*
X45500Y-60250D01*
X26400Y-39550D02*
X26400Y-41100D01*
X30950Y-26550D02*
X34100Y-26550D01*
X29850Y-32650D02*
X29300Y-32650D01*
X30500Y-32650D02*
X29850Y-32650D01*
X31800Y-33650D02*
X31800Y-34650D01*
X31250Y-34650D02*
X31800Y-34650D01*
X29900Y-41200D02*
X26500Y-41200D01*
X31950Y-22800D02*
X32950Y-22800D01*
X34250Y-26700D02*
X34250Y-27250D01*
X34100Y-26550D02*
X34250Y-26700D01*
X63000Y-30000D02*
X62800Y-29800D01*
X62800Y-29800D02*
X62000Y-29800D01*
X50250Y-35750D02*
X50750Y-35250D01*
X125700Y-26900D02*
X125700Y-26100D01*
X125700Y-26100D02*
X125800Y-26000D01*
X120750Y-46050D02*
X120500Y-46050D01*
X120500Y-46050D02*
X120400Y-46150D01*
X120400Y-46150D02*
X120400Y-46350D01*
X127150Y-31500D02*
X127650Y-31500D01*
X127650Y-31500D02*
X127650Y-31600D01*
X137250Y-28200D02*
X136050Y-28200D01*
X50750Y-35000D02*
X50750Y-33500D01*
X29850Y-32200D02*
X29850Y-32650D01*
X140950Y-50250D02*
X141500Y-50250D01*
X136700Y-42750D02*
X136700Y-42700D01*
X136700Y-42700D02*
X136200Y-42700D01*
X125650Y-46600D02*
X126550Y-46600D01*
X38400Y-32900D02*
X40650Y-32900D01*
X59200Y-24150D02*
X63000Y-24150D01*
G54D33*
X45500Y-60250D02*
X46000Y-60750D01*
G54D11*
X50750Y-35250D02*
X50750Y-35000D01*
X62000Y-29800D02*
X62000Y-29900D01*
X30950Y-25350D02*
X32350Y-25350D01*
X29000Y-50550D02*
X29800Y-50550D01*
X29800Y-50550D02*
X29900Y-50650D01*
X28900Y-50450D02*
X29000Y-50550D01*
X29750Y-48900D02*
X29250Y-48900D01*
X29900Y-50650D02*
X29900Y-50950D01*
X28900Y-49250D02*
X28900Y-50450D01*
X29250Y-48900D02*
X28900Y-49250D01*
X29900Y-36550D02*
X29800Y-36450D01*
X28300Y-33400D02*
X27850Y-32950D01*
X27850Y-32950D02*
X27850Y-32900D01*
X29900Y-37650D02*
X29900Y-36550D01*
X28300Y-33400D02*
X29700Y-33400D01*
X29800Y-33500D02*
X29800Y-36450D01*
X29700Y-33400D02*
X29800Y-33500D01*
X31450Y-53150D02*
X31450Y-52000D01*
X31000Y-53850D02*
X31050Y-53850D01*
X31050Y-53550D02*
X31450Y-53150D01*
X31000Y-53850D02*
X30200Y-53850D01*
X31050Y-53850D02*
X31050Y-53550D01*
X31000Y-51550D02*
X31000Y-50950D01*
X31450Y-52000D02*
X31000Y-51550D01*
X31400Y-40450D02*
X31400Y-39150D01*
X30950Y-40450D02*
X31400Y-40450D01*
X27700Y-37650D02*
X29200Y-37650D01*
X27700Y-38950D02*
X27700Y-37650D01*
X27850Y-30100D02*
X32650Y-30100D01*
X32650Y-30100D02*
X32900Y-30350D01*
X32900Y-30350D02*
X32900Y-31000D01*
X26750Y-31200D02*
X27850Y-30100D01*
X32650Y-31250D02*
X32900Y-31000D01*
X26750Y-31200D02*
X26750Y-32900D01*
X31850Y-32150D02*
X31850Y-32650D01*
X33150Y-32750D02*
X33150Y-34150D01*
X31850Y-32650D02*
X31800Y-32650D01*
X33050Y-32650D02*
X31800Y-32650D01*
X33050Y-32650D02*
X33150Y-32750D01*
X30250Y-52650D02*
X29200Y-51600D01*
X29200Y-50950D02*
X29200Y-51600D01*
X30200Y-52650D02*
X30250Y-52650D01*
X31000Y-52650D02*
X30200Y-52650D01*
X31450Y-49350D02*
X31450Y-48900D01*
X31700Y-50950D02*
X31700Y-49600D01*
X31700Y-49600D02*
X31450Y-49350D01*
X30600Y-38100D02*
X30700Y-38200D01*
X28650Y-48550D02*
X29200Y-48000D01*
X30650Y-40900D02*
X30650Y-39600D01*
X29950Y-42450D02*
X29950Y-41600D01*
X29950Y-41600D02*
X30650Y-40900D01*
X30250Y-38100D02*
X30600Y-38100D01*
X30700Y-39550D02*
X30650Y-39600D01*
X29200Y-43200D02*
X29950Y-42450D01*
X29200Y-48000D02*
X29200Y-43200D01*
X30700Y-38200D02*
X30700Y-39550D01*
X26750Y-33650D02*
X26750Y-34200D01*
X30650Y-33500D02*
X31000Y-33500D01*
X30500Y-33650D02*
X30650Y-33500D01*
X30050Y-33200D02*
X29900Y-33050D01*
X30550Y-37600D02*
X30550Y-36850D01*
X30050Y-36350D02*
X30550Y-36850D01*
X30050Y-36350D02*
X30050Y-33200D01*
X31000Y-45250D02*
X31000Y-44050D01*
X31000Y-44050D02*
X31000Y-43450D01*
X31700Y-38050D02*
X31700Y-37650D01*
X31700Y-37650D02*
X30700Y-36650D01*
X30700Y-36650D02*
X30700Y-36150D01*
X31150Y-34200D02*
X30700Y-34650D01*
X30700Y-34650D02*
X30500Y-34650D01*
X29850Y-27250D02*
X29750Y-27350D01*
X29750Y-27350D02*
X29750Y-28750D01*
X32250Y-27250D02*
X29850Y-27250D01*
X28850Y-34550D02*
X28850Y-34800D01*
X29150Y-34250D02*
X28850Y-34550D01*
X135700Y-33350D02*
X136200Y-33350D01*
X135350Y-33950D02*
X135700Y-33600D01*
X133800Y-34550D02*
X133800Y-34050D01*
X133800Y-34050D02*
X133900Y-33950D01*
X133900Y-33950D02*
X135350Y-33950D01*
X135700Y-33600D02*
X135700Y-33350D01*
X136150Y-29200D02*
X136050Y-29300D01*
X139050Y-29190D02*
X140000Y-29190D01*
X135400Y-29500D02*
X136050Y-29500D01*
X140000Y-29190D02*
X140050Y-29100D01*
X137250Y-29200D02*
X136150Y-29200D01*
X136050Y-29300D02*
X136050Y-29500D01*
X134250Y-33350D02*
X133800Y-33350D01*
X139000Y-37750D02*
X138550Y-37750D01*
X137100Y-36100D02*
X137500Y-35700D01*
X133650Y-35300D02*
X134450Y-36100D01*
X137500Y-35700D02*
X138350Y-35700D01*
X138550Y-37750D02*
X138450Y-37650D01*
X140750Y-38200D02*
X140800Y-38200D01*
X140650Y-37900D02*
X140750Y-38000D01*
X139900Y-37900D02*
X139000Y-37900D01*
X139000Y-37900D02*
X139000Y-37750D01*
X139900Y-37900D02*
X140650Y-37900D01*
X140750Y-38000D02*
X140750Y-38200D01*
X134450Y-36100D02*
X137100Y-36100D01*
X138350Y-35700D02*
X138450Y-35800D01*
X138450Y-35800D02*
X138450Y-37650D01*
X137000Y-35610D02*
X136810Y-35810D01*
X140700Y-36600D02*
X140800Y-36500D01*
X139900Y-36600D02*
X140700Y-36600D01*
X139000Y-36600D02*
X139000Y-36650D01*
X134750Y-35810D02*
X136810Y-35810D01*
X134240Y-35300D02*
X134750Y-35810D01*
X137000Y-35610D02*
X137160Y-35450D01*
X139000Y-35450D02*
X139000Y-36600D01*
X140800Y-36500D02*
X140800Y-36200D01*
X137160Y-35450D02*
X139000Y-35450D01*
X139900Y-36600D02*
X139000Y-36600D01*
X136500Y-37650D02*
X136300Y-37650D01*
X136500Y-37100D02*
X136500Y-37650D01*
X138050Y-22840D02*
X138100Y-22850D01*
X137500Y-22840D02*
X138050Y-22840D01*
X139500Y-30750D02*
X140700Y-31950D01*
X140700Y-31950D02*
X140800Y-31950D01*
X141000Y-29100D02*
X141000Y-28750D01*
X134400Y-23300D02*
X134400Y-22850D01*
X136800Y-23300D02*
X136800Y-22850D01*
X134500Y-23400D02*
X136700Y-23400D01*
X134500Y-23400D02*
X134400Y-23300D01*
X136700Y-23400D02*
X136800Y-23300D01*
X135200Y-37650D02*
X135200Y-37200D01*
X135500Y-37200D02*
X135750Y-36950D01*
X135200Y-37200D02*
X135500Y-37200D01*
X135200Y-38950D02*
X136300Y-38950D01*
X137150Y-31650D02*
X137250Y-31550D01*
X135200Y-31650D02*
X137150Y-31650D01*
X135200Y-31650D02*
X134900Y-31950D01*
X134900Y-33350D02*
X134900Y-31950D01*
X34600Y-29750D02*
X35500Y-29750D01*
X45100Y-23700D02*
X45850Y-24450D01*
X45850Y-25450D02*
X45850Y-26600D01*
X45100Y-23700D02*
X44800Y-23700D01*
X45850Y-26600D02*
X43650Y-26600D01*
X44700Y-23800D02*
X44700Y-24450D01*
X44800Y-23700D02*
X44700Y-23800D01*
X45850Y-24450D02*
X45850Y-25450D01*
X43400Y-34250D02*
X43300Y-34150D01*
X43400Y-34700D02*
X43400Y-34250D01*
X43300Y-34150D02*
X43050Y-33900D01*
X43050Y-33900D02*
X43050Y-33600D01*
X47400Y-48150D02*
X47350Y-48200D01*
X47750Y-49500D02*
X47350Y-49100D01*
X47350Y-48200D02*
X47350Y-49100D01*
X47400Y-47500D02*
X47400Y-48150D01*
X46750Y-49400D02*
X46750Y-49500D01*
X45900Y-48500D02*
X45900Y-48550D01*
X45900Y-48550D02*
X46750Y-49400D01*
X63800Y-52000D02*
X62850Y-52000D01*
X62650Y-51350D02*
X62650Y-51800D01*
X63700Y-53000D02*
X63700Y-52200D01*
X63800Y-52100D02*
X63800Y-52000D01*
X62850Y-52000D02*
X62650Y-51800D01*
X63700Y-52200D02*
X63800Y-52100D01*
X48000Y-46900D02*
X44850Y-46900D01*
X44750Y-46800D02*
X44750Y-46500D01*
X44850Y-46900D02*
X44750Y-46800D01*
X48000Y-46900D02*
X48150Y-47050D01*
X48150Y-47050D02*
X48150Y-47850D01*
G54D32*
X39000Y-63450D02*
X39000Y-62400D01*
G54D11*
X39000Y-60250D02*
X39000Y-62400D01*
X121550Y-50350D02*
X122150Y-50950D01*
X124800Y-50950D02*
X122150Y-50950D01*
X130400Y-51350D02*
X130500Y-51450D01*
X127850Y-51350D02*
X130400Y-51350D01*
X127600Y-51600D02*
X127850Y-51350D01*
X130500Y-51450D02*
X130500Y-51600D01*
X125450Y-51600D02*
X127600Y-51600D01*
X125450Y-51600D02*
X124800Y-50950D01*
X123600Y-46200D02*
X123800Y-46000D01*
X123800Y-46000D02*
X125050Y-46000D01*
X125200Y-45850D02*
X126050Y-45850D01*
X123600Y-46600D02*
X123600Y-46200D01*
X125050Y-46000D02*
X125200Y-45850D01*
X126550Y-48050D02*
X126550Y-47900D01*
X123600Y-47900D02*
X124550Y-47900D01*
X124550Y-47900D02*
X125650Y-47900D01*
X117550Y-46350D02*
X119100Y-46350D01*
X124550Y-46600D02*
X124550Y-46750D01*
X139250Y-50250D02*
X140200Y-50250D01*
X139250Y-50250D02*
X140250Y-49250D01*
X139900Y-51200D02*
X139200Y-51200D01*
X138250Y-50250D02*
X139200Y-51200D01*
X140000Y-51850D02*
X140000Y-51300D01*
X140000Y-51300D02*
X139900Y-51200D01*
X137250Y-47400D02*
X136100Y-47400D01*
X136000Y-46300D02*
X136000Y-47400D01*
X136000Y-47400D02*
X136100Y-47400D01*
M02*
