M48
;DRILL file {Pcbnew (2012-apr-16-27)-stable} date Птн 04 Янв 2013 14:59:26
;FORMAT={-:-/ absolute / inch / decimal}
FMAT,2
INCH,TZ
T1C0.025
T2C0.032
T3C0.040
T4C0.060
T5C0.100
T6C0.120
%
G90
G05
M72
T1
X2.635Y-4.190
X2.675Y-3.365
X2.800Y-4.405
X2.805Y-3.045
X2.810Y-4.535
X2.835Y-3.220
X2.845Y-3.420
X2.855Y-3.295
X2.865Y-3.630
X2.875Y-4.085
X2.885Y-3.480
X2.905Y-3.670
X2.975Y-4.715
X2.985Y-3.220
X2.990Y-3.305
X2.995Y-4.160
X3.025Y-3.810
X3.055Y-3.760
X3.055Y-5.015
X3.070Y-3.615
X3.090Y-5.505
X3.090Y-5.625
X3.090Y-5.745
X3.095Y-4.045
X3.100Y-3.350
X3.100Y-4.345
X3.115Y-3.420
X3.125Y-3.465
X3.135Y-3.095
X3.145Y-4.710
X3.185Y-3.215
X3.235Y-2.535
X3.255Y-3.055
X3.265Y-3.125
X3.290Y-4.405
X3.320Y-4.045
X3.350Y-3.805
X3.350Y-4.125
X3.355Y-3.975
X3.360Y-5.705
X3.375Y-3.220
X3.395Y-4.130
X3.440Y-5.705
X3.445Y-4.190
X3.505Y-2.630
X3.515Y-3.980
X3.525Y-2.325
X3.525Y-2.500
X3.555Y-3.275
X3.670Y-3.780
X3.715Y-3.260
X3.715Y-3.305
X3.746Y-3.925
X3.750Y-3.200
X3.750Y-3.433
X3.750Y-3.655
X3.755Y-3.800
X3.785Y-3.230
X3.800Y-3.625
X3.805Y-4.025
X3.825Y-4.475
X3.840Y-3.435
X3.845Y-4.205
X3.850Y-3.625
X3.850Y-5.975
X3.875Y-2.750
X3.875Y-4.075
X3.880Y-3.170
X3.885Y-4.365
X3.900Y-3.625
X3.900Y-6.025
X3.910Y-2.815
X3.915Y-2.295
X3.925Y-3.180
X3.929Y-4.070
X3.950Y-3.625
X3.960Y-4.140
X3.975Y-2.305
X3.975Y-5.975
X4.000Y-3.625
X4.025Y-4.125
X4.037Y-3.200
X4.040Y-5.870
X4.050Y-3.625
X4.055Y-3.845
X4.055Y-3.900
X4.070Y-2.790
X4.075Y-4.125
X4.075Y-4.220
X4.085Y-5.895
X4.100Y-3.575
X4.100Y-3.625
X4.100Y-6.025
X4.110Y-5.705
X4.120Y-4.175
X4.135Y-2.320
X4.135Y-5.855
X4.140Y-3.165
X4.160Y-5.750
X4.175Y-4.275
X4.190Y-2.320
X4.190Y-3.210
X4.200Y-6.025
X4.215Y-5.720
X4.225Y-4.275
X4.240Y-2.730
X4.240Y-2.995
X4.250Y-3.230
X4.275Y-3.625
X4.275Y-4.275
X4.305Y-3.360
X4.325Y-4.275
X4.340Y-3.470
X4.345Y-2.875
X4.355Y-3.195
X4.375Y-4.275
X4.395Y-2.765
X4.400Y-3.425
X4.400Y-3.650
X4.421Y-3.325
X4.425Y-4.275
X4.428Y-3.385
X4.450Y-4.750
X4.450Y-5.975
X4.450Y-6.025
X4.460Y-4.035
X4.475Y-4.275
X4.500Y-2.950
X4.510Y-4.205
X4.550Y-5.925
X4.550Y-6.025
X4.555Y-3.830
X4.575Y-4.030
X4.605Y-3.830
X4.610Y-5.735
X4.625Y-5.975
X4.640Y-3.455
X4.640Y-3.595
X4.640Y-4.640
X4.675Y-5.925
X4.705Y-4.550
X4.720Y-3.605
X4.730Y-2.335
X4.730Y-3.195
X4.750Y-5.925
X4.750Y-5.975
X4.750Y-6.025
X4.775Y-3.215
X4.775Y-3.365
X4.775Y-3.830
X4.800Y-2.730
X4.805Y-4.050
X4.815Y-3.190
X4.815Y-4.785
X4.825Y-5.925
X4.830Y-3.830
X4.840Y-2.595
X4.850Y-3.500
X4.850Y-4.825
X4.850Y-4.875
X4.850Y-5.350
X4.870Y-4.785
X4.875Y-2.700
X4.880Y-3.220
X4.900Y-5.925
X4.900Y-5.975
X4.900Y-6.025
X4.905Y-4.030
X4.915Y-2.660
X4.915Y-2.785
X4.925Y-4.275
X4.940Y-2.535
X4.950Y-4.045
X4.975Y-4.275
X4.975Y-5.925
X5.000Y-2.375
X5.010Y-4.075
X5.025Y-2.835
X5.025Y-4.275
X5.050Y-2.520
X5.050Y-5.975
X5.055Y-3.125
X5.060Y-5.780
X5.075Y-2.985
X5.075Y-3.500
X5.075Y-4.600
X5.075Y-4.700
X5.075Y-4.800
X5.075Y-4.850
X5.075Y-4.900
X5.075Y-4.975
X5.075Y-5.375
X5.075Y-5.425
X5.075Y-5.475
X5.075Y-5.600
X5.085Y-3.630
X5.100Y-2.520
X5.100Y-2.655
X5.125Y-2.425
X5.125Y-2.985
X5.125Y-3.605
X5.125Y-4.325
X5.125Y-4.975
X5.125Y-5.475
X5.125Y-5.925
X5.125Y-6.025
X5.150Y-2.475
X5.160Y-3.330
X5.165Y-2.635
X5.165Y-3.835
X5.165Y-4.665
X5.175Y-2.985
X5.175Y-4.325
X5.175Y-4.975
X5.175Y-5.475
X5.175Y-5.600
X5.190Y-3.285
X5.190Y-3.595
X5.200Y-5.925
X5.200Y-6.025
X5.205Y-5.345
X5.220Y-2.985
X5.225Y-3.565
X5.225Y-4.325
X5.225Y-4.975
X5.240Y-2.520
X5.250Y-5.515
X5.270Y-2.480
X5.270Y-2.720
X5.270Y-3.240
X5.275Y-2.670
X5.275Y-3.530
X5.275Y-4.975
X5.275Y-5.600
X5.275Y-5.925
X5.275Y-5.975
X5.300Y-4.600
X5.300Y-4.790
X5.300Y-5.825
X5.315Y-3.500
X5.325Y-2.975
X5.325Y-4.325
X5.325Y-4.975
X5.325Y-5.545
X5.340Y-2.680
X5.350Y-5.375
X5.350Y-5.925
X5.350Y-5.975
X5.356Y-2.720
X5.360Y-3.500
X5.375Y-4.975
X5.375Y-5.600
X5.382Y-4.175
X5.395Y-4.225
X5.400Y-2.730
X5.400Y-3.470
X5.410Y-2.945
X5.425Y-4.725
X5.425Y-4.975
X5.425Y-5.925
X5.425Y-6.025
X5.435Y-3.435
X5.440Y-3.975
X5.475Y-5.600
X5.484Y-4.970
X5.490Y-2.945
X5.490Y-3.415
X5.500Y-3.875
X5.500Y-3.925
X5.500Y-5.925
X5.500Y-5.975
X5.525Y-5.500
X5.530Y-3.385
X5.535Y-3.975
X5.535Y-4.970
X5.550Y-3.850
X5.550Y-4.170
X5.570Y-4.395
X5.575Y-4.725
X5.575Y-5.925
X5.575Y-6.025
X5.580Y-3.375
X5.585Y-4.970
X5.600Y-3.850
X5.600Y-4.360
X5.600Y-5.600
X5.610Y-2.945
X5.625Y-4.600
X5.625Y-4.725
X5.630Y-4.320
X5.635Y-4.970
X5.650Y-3.850
X5.650Y-5.500
X5.650Y-5.975
X5.655Y-4.285
X5.675Y-4.725
X5.685Y-4.250
X5.685Y-4.970
X5.700Y-3.850
X5.700Y-5.600
X5.725Y-4.600
X5.725Y-4.725
X5.725Y-5.975
X5.735Y-4.970
X5.750Y-2.680
X5.750Y-3.850
X5.775Y-5.350
X5.780Y-2.475
X5.780Y-4.240
X5.790Y-5.610
X5.800Y-3.450
X5.800Y-3.500
X5.800Y-3.550
X5.800Y-3.600
X5.800Y-3.650
X5.800Y-3.700
X5.800Y-3.750
X5.800Y-3.800
X5.800Y-3.875
X5.800Y-4.200
X5.800Y-4.975
X5.800Y-5.925
X5.800Y-5.975
X5.800Y-6.025
X5.805Y-4.665
X5.805Y-4.715
X5.805Y-4.760
X5.820Y-2.930
X5.825Y-4.350
X5.825Y-4.580
X5.825Y-5.825
X5.830Y-5.035
X5.850Y-5.570
X5.875Y-4.725
X5.875Y-4.925
X5.875Y-5.925
X5.910Y-5.070
X5.920Y-2.325
X5.925Y-4.725
X5.930Y-5.575
X5.950Y-5.925
X5.950Y-5.975
X5.950Y-6.025
X5.955Y-3.050
X5.975Y-4.725
X5.975Y-5.050
X5.980Y-2.675
X5.980Y-4.635
X5.996Y-5.550
X6.025Y-2.980
X6.025Y-4.725
X6.025Y-5.075
X6.025Y-5.925
X6.035Y-3.240
X6.055Y-4.790
X6.075Y-4.725
X6.075Y-4.840
X6.075Y-5.100
X6.075Y-5.200
X6.075Y-5.300
X6.075Y-5.350
X6.085Y-3.945
X6.090Y-2.850
X6.090Y-5.580
X6.095Y-3.470
X6.095Y-5.390
X6.100Y-5.490
X6.100Y-5.925
X6.100Y-6.025
X6.105Y-3.205
X6.105Y-3.350
X6.105Y-3.710
X6.105Y-3.894
X6.105Y-5.825
X6.120Y-2.815
X6.140Y-4.065
X6.145Y-4.220
X6.145Y-4.270
X6.145Y-4.320
X6.145Y-4.370
X6.145Y-5.855
X6.150Y-4.500
X6.155Y-4.115
X6.175Y-2.690
X6.200Y-5.815
X6.220Y-2.690
X6.225Y-4.120
X6.225Y-4.175
X6.250Y-5.840
X6.255Y-2.280
X6.260Y-4.070
X6.265Y-5.135
X6.270Y-2.815
X6.275Y-3.970
X6.290Y-3.660
X6.300Y-2.415
X6.300Y-3.000
X6.300Y-3.200
X6.300Y-3.430
X6.300Y-3.915
X6.300Y-4.850
X6.300Y-5.375
X6.325Y-3.725
X6.325Y-4.215
X6.330Y-2.680
X6.330Y-5.825
X6.340Y-2.970
X6.350Y-4.650
X6.350Y-5.925
X6.350Y-5.975
X6.375Y-2.310
X6.375Y-3.630
X6.375Y-3.680
X6.375Y-3.750
X6.380Y-5.800
X6.395Y-3.430
X6.395Y-3.480
X6.405Y-3.790
X6.415Y-4.690
X6.425Y-2.400
X6.425Y-5.925
X6.425Y-5.975
X6.450Y-2.335
X6.465Y-2.555
X6.465Y-3.085
X6.465Y-3.129
X6.480Y-2.790
X6.500Y-5.925
X6.500Y-6.025
X6.510Y-2.515
X6.510Y-3.265
X6.510Y-4.740
X6.510Y-4.790
X6.510Y-4.840
X6.510Y-4.890
X6.510Y-4.940
X6.515Y-3.530
X6.515Y-3.580
X6.515Y-3.680
X6.520Y-3.380
X6.520Y-3.970
X6.520Y-4.540
X6.520Y-4.590
X6.520Y-4.640
X6.535Y-3.830
X6.545Y-5.300
X6.555Y-4.420
X6.555Y-4.990
X6.560Y-2.515
X6.560Y-3.265
X6.565Y-5.455
X6.575Y-5.925
X6.575Y-6.025
X6.585Y-3.780
X6.585Y-3.825
X6.590Y-3.870
X6.590Y-4.020
X6.595Y-4.170
X6.615Y-3.420
X6.615Y-4.510
X6.620Y-3.905
X6.620Y-4.070
X6.650Y-5.925
X6.650Y-6.025
X6.655Y-3.970
X6.655Y-4.120
X6.660Y-3.665
X6.700Y-3.530
X6.700Y-3.705
X6.715Y-4.335
X6.745Y-3.830
X6.745Y-4.420
X6.750Y-6.025
X6.765Y-4.990
X6.775Y-3.955
X6.780Y-3.335
X6.780Y-3.535
X6.785Y-3.780
X6.785Y-4.295
X6.785Y-4.370
X6.785Y-4.940
X6.800Y-6.025
X6.905Y-4.175
X6.905Y-4.370
X6.910Y-3.200
X6.920Y-3.370
X6.925Y-2.830
X6.990Y-3.470
X7.125Y-2.485
X7.135Y-4.260
X7.165Y-4.540
X7.195Y-3.155
X7.200Y-4.225
X7.200Y-4.910
X7.230Y-3.965
X7.240Y-4.155
X7.240Y-4.965
X7.250Y-3.150
X7.295Y-3.020
X7.295Y-3.285
X7.295Y-4.150
X7.315Y-5.220
X7.350Y-2.475
X7.350Y-2.825
X7.350Y-3.175
X7.350Y-3.525
X7.350Y-3.875
X7.350Y-4.225
X7.350Y-4.575
X7.350Y-4.925
X7.400Y-2.575
X7.400Y-2.925
X7.400Y-3.275
X7.400Y-3.625
X7.400Y-3.975
X7.400Y-4.325
X7.400Y-4.675
X7.400Y-5.025
X7.450Y-2.475
X7.450Y-2.825
X7.450Y-3.175
X7.450Y-3.525
X7.450Y-3.875
X7.450Y-4.225
X7.450Y-4.575
X7.450Y-4.925
X7.485Y-2.995
X7.485Y-3.825
X7.500Y-2.575
X7.500Y-2.925
X7.500Y-3.275
X7.500Y-3.625
X7.500Y-3.975
X7.500Y-4.325
X7.500Y-4.675
X7.500Y-5.025
X7.520Y-3.790
X7.525Y-5.690
X7.535Y-5.390
X7.540Y-2.965
X7.550Y-2.475
X7.550Y-2.825
X7.550Y-3.175
X7.550Y-3.525
X7.550Y-3.875
X7.550Y-4.225
X7.550Y-4.575
X7.550Y-4.925
X7.585Y-3.015
X7.600Y-2.575
X7.600Y-2.925
X7.600Y-3.275
X7.600Y-3.625
X7.600Y-3.975
X7.600Y-4.325
X7.600Y-4.675
X7.600Y-5.025
X7.605Y-3.810
X7.650Y-2.475
X7.650Y-2.825
X7.650Y-3.175
X7.650Y-3.525
X7.650Y-3.875
X7.650Y-4.225
X7.650Y-4.575
X7.650Y-4.925
X7.700Y-2.575
X7.700Y-2.925
X7.700Y-3.275
X7.700Y-3.625
X7.700Y-3.975
X7.700Y-4.325
X7.700Y-4.675
X7.700Y-5.025
X7.750Y-2.475
X7.750Y-2.825
X7.750Y-3.175
X7.750Y-3.525
X7.750Y-3.875
X7.750Y-4.225
X7.750Y-4.575
X7.750Y-4.925
X7.800Y-2.575
X7.800Y-2.925
X7.800Y-3.275
X7.800Y-3.625
X7.800Y-3.975
X7.800Y-4.325
X7.800Y-4.675
X7.800Y-5.025
X7.850Y-2.475
X7.850Y-2.825
X7.850Y-3.175
X7.850Y-3.525
X7.850Y-3.875
X7.850Y-4.225
X7.850Y-4.575
X7.850Y-4.925
X7.885Y-5.290
X7.900Y-2.575
X7.900Y-2.925
X7.900Y-3.275
X7.900Y-3.380
X7.900Y-3.625
X7.900Y-3.975
X7.900Y-4.325
X7.900Y-4.675
X7.900Y-5.025
X7.935Y-5.240
X7.950Y-2.475
X7.950Y-2.825
X7.950Y-3.175
X7.950Y-3.525
X7.950Y-3.875
X7.950Y-4.225
X7.950Y-4.575
X7.950Y-4.925
X8.000Y-2.575
X8.000Y-2.925
X8.000Y-3.275
X8.000Y-3.625
X8.000Y-3.975
X8.000Y-4.325
X8.000Y-4.675
X8.000Y-5.025
X8.030Y-5.665
X8.050Y-2.475
X8.050Y-2.825
X8.050Y-3.175
X8.050Y-3.460
X8.050Y-3.525
X8.050Y-3.875
X8.050Y-4.225
X8.050Y-4.575
X8.050Y-4.925
X8.100Y-2.575
X8.100Y-2.925
X8.100Y-3.275
X8.100Y-3.380
X8.100Y-3.625
X8.100Y-3.975
X8.100Y-4.325
X8.100Y-4.675
X8.100Y-5.025
X8.150Y-2.475
X8.150Y-2.825
X8.150Y-3.175
X8.150Y-3.380
X8.150Y-3.525
X8.150Y-3.875
X8.150Y-4.225
X8.150Y-4.575
X8.150Y-4.925
X8.180Y-3.415
X8.200Y-2.575
X8.200Y-2.925
X8.200Y-3.275
X8.200Y-3.625
X8.200Y-3.975
X8.200Y-4.325
X8.200Y-4.675
X8.200Y-5.025
X8.250Y-2.475
X8.250Y-2.825
X8.250Y-3.175
X8.250Y-3.380
X8.250Y-3.525
X8.250Y-3.875
X8.250Y-4.225
X8.250Y-4.575
X8.250Y-4.925
X8.300Y-2.575
X8.300Y-2.925
X8.300Y-3.275
X8.300Y-3.625
X8.300Y-3.975
X8.300Y-4.325
X8.300Y-4.675
X8.300Y-5.025
X8.350Y-2.475
X8.350Y-2.825
X8.350Y-3.175
X8.350Y-3.380
X8.350Y-3.525
X8.350Y-3.875
X8.350Y-4.225
X8.350Y-4.575
X8.350Y-4.925
X8.400Y-2.575
X8.400Y-2.925
X8.400Y-3.275
X8.400Y-3.625
X8.400Y-3.975
X8.400Y-4.325
X8.400Y-4.675
X8.400Y-5.025
X8.450Y-2.475
X8.450Y-2.825
X8.450Y-3.175
X8.450Y-3.360
X8.450Y-3.525
X8.450Y-3.875
X8.450Y-4.225
X8.450Y-4.575
X8.450Y-4.925
X8.500Y-2.575
X8.500Y-2.845
X8.500Y-2.925
X8.500Y-3.275
X8.500Y-3.625
X8.500Y-3.975
X8.500Y-4.325
X8.500Y-4.675
X8.500Y-5.025
X8.550Y-2.475
X8.550Y-2.825
X8.550Y-3.175
X8.550Y-3.525
X8.550Y-3.875
X8.550Y-4.225
X8.550Y-4.575
X8.550Y-4.925
X8.600Y-2.575
X8.600Y-2.925
X8.600Y-3.275
X8.600Y-3.440
X8.600Y-3.625
X8.600Y-3.975
X8.600Y-4.325
X8.600Y-4.675
X8.600Y-5.025
X8.650Y-2.475
X8.650Y-2.825
X8.650Y-3.175
X8.650Y-3.525
X8.650Y-3.875
X8.650Y-4.225
X8.650Y-4.575
X8.650Y-4.925
X8.700Y-2.575
X8.700Y-2.925
X8.700Y-3.200
X8.700Y-3.275
X8.700Y-3.625
X8.700Y-3.975
X8.700Y-4.325
X8.700Y-4.675
X8.700Y-5.025
X8.705Y-3.340
X8.750Y-2.475
X8.750Y-2.825
X8.750Y-3.175
X8.750Y-3.525
X8.750Y-3.875
X8.750Y-4.225
X8.750Y-4.575
X8.750Y-4.925
X8.800Y-2.575
X8.800Y-2.925
X8.800Y-3.275
X8.800Y-3.625
X8.800Y-3.975
X8.800Y-4.325
X8.800Y-4.675
X8.800Y-5.025
X8.850Y-2.475
X8.850Y-2.825
X8.850Y-3.175
X8.850Y-3.525
X8.850Y-3.875
X8.850Y-4.225
X8.850Y-4.575
X8.850Y-4.925
X8.900Y-2.575
X8.900Y-2.925
X8.900Y-3.275
X8.900Y-3.625
X8.900Y-3.975
X8.900Y-4.325
X8.900Y-4.675
X8.900Y-5.025
X8.950Y-2.475
X8.950Y-2.825
X8.950Y-3.175
X8.950Y-3.525
X8.950Y-3.875
X8.950Y-3.995
X8.950Y-4.225
X8.950Y-4.575
X8.950Y-4.925
X9.000Y-2.575
X9.000Y-2.925
X9.000Y-3.275
X9.000Y-3.625
X9.000Y-3.975
X9.000Y-4.325
X9.000Y-4.675
X9.000Y-5.025
X9.050Y-2.475
X9.050Y-2.825
X9.050Y-3.175
X9.050Y-3.525
X9.050Y-3.875
X9.050Y-4.225
X9.050Y-4.575
X9.050Y-4.925
X9.100Y-2.575
X9.100Y-2.925
X9.100Y-3.275
X9.100Y-3.625
X9.100Y-3.975
X9.100Y-4.325
X9.100Y-4.675
X9.100Y-5.025
X9.130Y-2.505
X9.340Y-2.545
X9.350Y-2.475
X9.350Y-2.825
X9.350Y-3.175
X9.350Y-3.525
X9.350Y-3.875
X9.350Y-4.225
X9.350Y-4.575
X9.350Y-4.925
X9.400Y-2.575
X9.400Y-2.925
X9.400Y-3.275
X9.400Y-3.625
X9.400Y-3.975
X9.400Y-4.325
X9.400Y-4.675
X9.400Y-5.025
X9.450Y-2.475
X9.450Y-2.825
X9.450Y-3.175
X9.450Y-3.525
X9.450Y-3.875
X9.450Y-4.225
X9.450Y-4.575
X9.450Y-4.925
X9.500Y-2.575
X9.500Y-2.925
X9.500Y-3.275
X9.500Y-3.625
X9.500Y-3.975
X9.500Y-4.325
X9.500Y-4.675
X9.500Y-5.025
X9.550Y-2.475
X9.550Y-2.685
X9.550Y-2.825
X9.550Y-3.175
X9.550Y-3.525
X9.550Y-3.875
X9.550Y-4.225
X9.550Y-4.575
X9.550Y-4.925
X9.600Y-2.575
X9.600Y-2.660
X9.600Y-2.925
X9.600Y-3.275
X9.600Y-3.625
X9.600Y-3.975
X9.600Y-4.325
X9.600Y-4.675
X9.600Y-5.025
X9.650Y-2.475
X9.650Y-2.825
X9.650Y-3.175
X9.650Y-3.525
X9.650Y-3.875
X9.650Y-4.225
X9.650Y-4.575
X9.650Y-4.925
X9.700Y-2.575
X9.700Y-2.925
X9.700Y-3.275
X9.700Y-3.625
X9.700Y-3.975
X9.700Y-4.325
X9.700Y-4.675
X9.700Y-5.025
X9.750Y-2.390
X9.750Y-2.475
X9.750Y-2.825
X9.750Y-3.175
X9.750Y-3.525
X9.750Y-3.875
X9.750Y-4.225
X9.750Y-4.575
X9.750Y-4.925
X9.800Y-2.575
X9.800Y-2.925
X9.800Y-3.275
X9.800Y-3.625
X9.800Y-3.975
X9.800Y-4.325
X9.800Y-4.675
X9.800Y-5.025
X9.850Y-2.475
X9.850Y-2.825
X9.850Y-3.175
X9.850Y-3.525
X9.850Y-3.875
X9.850Y-4.035
X9.850Y-4.225
X9.850Y-4.575
X9.850Y-4.925
X9.900Y-2.575
X9.900Y-2.925
X9.900Y-3.275
X9.900Y-3.340
X9.900Y-3.625
X9.900Y-3.975
X9.900Y-4.325
X9.900Y-4.675
X9.900Y-5.025
X9.950Y-2.475
X9.950Y-2.735
X9.950Y-2.825
X9.950Y-3.175
X9.950Y-3.525
X9.950Y-3.875
X9.950Y-4.040
X9.950Y-4.225
X9.950Y-4.575
X9.950Y-4.925
X9.995Y-2.510
X10.000Y-2.575
X10.000Y-2.925
X10.000Y-3.275
X10.000Y-3.625
X10.000Y-3.975
X10.000Y-4.325
X10.000Y-4.675
X10.000Y-4.825
X10.000Y-5.025
X10.050Y-2.475
X10.050Y-2.730
X10.050Y-2.825
X10.050Y-3.175
X10.050Y-3.525
X10.050Y-3.875
X10.050Y-4.040
X10.050Y-4.225
X10.050Y-4.575
X10.050Y-4.925
X10.090Y-2.705
X10.095Y-2.520
X10.100Y-2.575
X10.100Y-2.925
X10.100Y-3.275
X10.100Y-3.625
X10.100Y-3.975
X10.100Y-4.325
X10.100Y-4.675
X10.100Y-4.865
X10.100Y-5.025
X10.150Y-2.475
X10.150Y-2.710
X10.150Y-2.825
X10.150Y-3.175
X10.150Y-3.525
X10.150Y-3.875
X10.150Y-4.040
X10.150Y-4.225
X10.150Y-4.575
X10.150Y-4.925
X10.200Y-2.575
X10.200Y-2.660
X10.200Y-2.925
X10.200Y-3.275
X10.200Y-3.625
X10.200Y-3.975
X10.200Y-4.325
X10.200Y-4.675
X10.200Y-5.025
X10.250Y-2.395
X10.250Y-2.475
X10.250Y-2.825
X10.250Y-3.175
X10.250Y-3.525
X10.250Y-3.875
X10.250Y-4.225
X10.250Y-4.575
X10.250Y-4.925
X10.300Y-2.575
X10.300Y-2.925
X10.300Y-3.275
X10.300Y-3.625
X10.300Y-3.975
X10.300Y-4.325
X10.300Y-4.675
X10.300Y-5.025
X10.350Y-2.475
X10.350Y-2.825
X10.350Y-3.175
X10.350Y-3.525
X10.350Y-3.875
X10.350Y-4.225
X10.350Y-4.575
X10.350Y-4.925
X10.400Y-2.575
X10.400Y-2.925
X10.400Y-3.100
X10.400Y-3.275
X10.400Y-3.625
X10.400Y-3.975
X10.400Y-4.325
X10.400Y-4.675
X10.400Y-5.025
X10.450Y-2.475
X10.450Y-2.825
X10.450Y-3.175
X10.450Y-3.525
X10.450Y-3.875
X10.450Y-4.225
X10.450Y-4.575
X10.450Y-4.925
X10.500Y-2.575
X10.500Y-2.925
X10.500Y-3.275
X10.500Y-3.625
X10.500Y-3.975
X10.500Y-4.325
X10.500Y-4.675
X10.500Y-5.025
X10.550Y-2.475
X10.550Y-2.825
X10.550Y-3.175
X10.550Y-3.525
X10.550Y-3.875
X10.550Y-4.225
X10.550Y-4.575
X10.550Y-4.925
X10.600Y-2.390
X10.600Y-2.575
X10.600Y-2.925
X10.600Y-3.275
X10.600Y-3.625
X10.600Y-3.975
X10.600Y-4.325
X10.600Y-4.675
X10.600Y-5.025
X10.650Y-2.475
X10.650Y-2.825
X10.650Y-3.175
X10.650Y-3.525
X10.650Y-3.875
X10.650Y-4.225
X10.650Y-4.575
X10.650Y-4.925
X10.700Y-2.575
X10.700Y-2.925
X10.700Y-3.190
X10.700Y-3.275
X10.700Y-3.625
X10.700Y-3.975
X10.700Y-4.325
X10.700Y-4.675
X10.700Y-5.025
X10.750Y-2.475
X10.750Y-2.825
X10.750Y-3.175
X10.750Y-3.525
X10.750Y-3.875
X10.750Y-4.040
X10.750Y-4.225
X10.750Y-4.575
X10.750Y-4.925
X10.800Y-2.575
X10.800Y-2.925
X10.800Y-3.140
X10.800Y-3.275
X10.800Y-3.625
X10.800Y-3.975
X10.800Y-4.325
X10.800Y-4.675
X10.800Y-5.025
X10.850Y-2.475
X10.850Y-2.825
X10.850Y-3.175
X10.850Y-3.525
X10.850Y-3.875
X10.850Y-4.225
X10.850Y-4.575
X10.850Y-4.925
X10.900Y-2.575
X10.900Y-2.925
X10.900Y-3.100
X10.900Y-3.275
X10.900Y-3.625
X10.900Y-3.975
X10.900Y-4.325
X10.900Y-4.675
X10.900Y-5.025
X10.950Y-2.475
X10.950Y-2.825
X10.950Y-3.175
X10.950Y-3.525
X10.950Y-3.875
X10.950Y-4.225
X10.950Y-4.360
X10.950Y-4.575
X10.950Y-4.925
X11.000Y-2.575
X11.000Y-2.925
X11.000Y-3.100
X11.000Y-3.275
X11.000Y-3.625
X11.000Y-3.975
X11.000Y-4.325
X11.000Y-4.675
X11.000Y-5.025
X11.050Y-2.475
X11.050Y-2.825
X11.050Y-3.175
X11.050Y-3.525
X11.050Y-3.875
X11.050Y-4.225
X11.050Y-4.400
X11.050Y-4.575
X11.050Y-4.925
X11.100Y-2.575
X11.100Y-2.925
X11.100Y-3.275
X11.100Y-3.625
X11.100Y-3.975
X11.100Y-4.325
X11.100Y-4.675
X11.100Y-5.025
X11.220Y-3.930
X11.220Y-4.360
X11.320Y-2.510
X11.320Y-2.680
X11.320Y-4.095
X11.495Y-5.180
X11.540Y-4.860
X11.550Y-3.025
X11.555Y-4.930
X11.585Y-3.605
X11.605Y-2.865
X11.605Y-2.945
X11.605Y-4.975
X11.608Y-2.785
X11.630Y-3.075
X11.640Y-2.330
X11.640Y-3.155
X11.641Y-3.200
X11.645Y-2.733
X11.650Y-2.832
X11.650Y-2.990
X11.655Y-3.575
X11.690Y-3.610
X11.690Y-5.020
X11.735Y-3.625
X11.745Y-2.753
X11.745Y-2.970
X11.750Y-2.812
X11.750Y-2.855
X11.750Y-3.015
X11.750Y-3.085
X11.755Y-3.690
X11.769Y-3.180
X11.785Y-2.885
X11.790Y-2.460
X11.795Y-3.085
X11.795Y-3.545
X11.800Y-3.035
X11.800Y-3.420
X11.800Y-3.485
X11.805Y-3.355
X11.808Y-2.670
X11.815Y-3.695
X11.820Y-3.183
X11.820Y-4.830
X11.825Y-2.715
X11.825Y-2.850
X11.845Y-3.320
X11.845Y-3.385
X11.845Y-3.455
X11.845Y-3.515
X11.855Y-2.480
X11.855Y-2.925
X11.855Y-3.150
X11.865Y-4.755
X11.870Y-3.695
X11.880Y-2.305
X11.895Y-3.010
X11.895Y-4.825
X11.900Y-2.495
X11.930Y-3.050
X11.935Y-3.695
X11.935Y-4.535
X11.945Y-2.460
X11.970Y-4.710
X11.980Y-3.020
X11.985Y-3.700
X11.990Y-2.510
X11.990Y-3.180
X11.995Y-4.360
X12.005Y-2.555
X12.020Y-2.965
X12.025Y-2.715
X12.025Y-3.150
X12.055Y-2.785
X12.055Y-4.535
X12.055Y-4.785
X12.060Y-2.675
X12.065Y-2.950
X12.085Y-2.325
X12.095Y-4.175
X12.100Y-2.920
X12.105Y-2.855
X12.110Y-2.800
X12.110Y-3.350
X12.110Y-3.415
X12.120Y-2.510
X12.135Y-2.345
X12.135Y-2.760
X12.150Y-3.325
X12.150Y-3.440
X12.155Y-4.225
X12.165Y-4.345
X12.170Y-3.185
X12.185Y-2.435
X12.200Y-3.305
X12.200Y-3.435
X12.200Y-4.635
X12.215Y-2.545
X12.220Y-2.875
X12.220Y-2.920
X12.220Y-3.185
X12.220Y-4.235
X12.240Y-2.670
X12.240Y-2.715
X12.245Y-3.435
X12.250Y-3.150
X12.255Y-4.790
X12.260Y-2.790
X12.275Y-4.630
X12.280Y-3.235
X12.290Y-3.430
X12.290Y-4.205
X12.300Y-2.575
X12.305Y-2.445
X12.330Y-3.410
X12.350Y-2.670
X12.365Y-3.440
X12.380Y-2.705
X12.380Y-3.130
X12.400Y-3.410
X12.425Y-5.225
X12.435Y-3.245
X12.435Y-3.555
X12.445Y-4.000
X12.455Y-4.675
X12.470Y-3.175
X12.470Y-3.220
X12.470Y-3.525
X12.495Y-4.155
X12.500Y-2.855
X12.505Y-3.550
X12.515Y-2.612
X12.515Y-3.160
X12.535Y-4.305
X12.550Y-3.550
X12.565Y-4.620
X12.570Y-4.140
X12.575Y-3.755
X12.595Y-4.070
X12.605Y-4.585
X12.610Y-2.375
X12.625Y-4.035
X12.655Y-4.595
X12.655Y-4.805
X12.665Y-2.919
X12.665Y-3.405
X12.670Y-2.650
X12.675Y-2.325
X12.680Y-2.535
X12.680Y-2.586
X12.680Y-2.785
X12.685Y-3.485
X12.695Y-3.705
X12.695Y-4.100
X12.695Y-4.145
X12.710Y-3.375
X12.715Y-2.960
X12.715Y-3.150
X12.740Y-3.705
X12.745Y-5.130
X12.785Y-2.755
X12.785Y-3.715
X12.790Y-2.545
X12.790Y-2.820
X12.790Y-2.875
X12.795Y-3.525
X12.820Y-3.290
X12.830Y-2.625
X12.855Y-3.705
X12.870Y-2.745
X12.875Y-5.200
X12.885Y-2.620
X12.886Y-3.490
X12.905Y-3.705
X12.905Y-4.500
X12.925Y-2.475
X12.925Y-3.345
X12.925Y-4.430
X12.937Y-2.295
X12.955Y-3.705
X12.955Y-5.035
X12.963Y-3.540
X12.965Y-2.545
X12.965Y-2.665
X12.975Y-4.295
X13.015Y-2.625
X13.045Y-5.035
X13.050Y-5.160
X13.075Y-2.605
X13.080Y-2.485
X13.095Y-3.800
X13.105Y-2.695
X13.140Y-2.480
X13.142Y-3.490
X13.150Y-3.740
X13.170Y-2.555
X13.185Y-3.400
X13.190Y-3.795
X13.200Y-3.710
X13.235Y-3.540
X13.240Y-3.795
X13.250Y-3.265
X13.270Y-3.510
X13.280Y-3.725
X13.285Y-3.795
X13.320Y-2.555
X13.365Y-3.530
X13.390Y-2.525
X13.424Y-3.530
X13.425Y-3.335
X13.450Y-3.725
X13.455Y-4.310
X13.470Y-4.765
X13.475Y-5.085
X13.480Y-2.490
X13.480Y-5.155
X13.501Y-3.540
X13.530Y-4.240
X13.530Y-4.605
X13.540Y-2.950
X13.545Y-5.125
X13.570Y-3.335
X13.575Y-3.695
X13.575Y-5.185
X13.605Y-2.465
X13.615Y-4.400
X13.620Y-2.287
X13.620Y-4.270
X13.650Y-3.710
X13.655Y-3.540
X13.695Y-3.124
X13.695Y-3.226
X13.725Y-2.920
X13.725Y-3.155
X13.725Y-4.740
X13.730Y-2.585
X13.735Y-2.790
X13.735Y-2.842
X13.745Y-3.430
X13.750Y-2.284
X13.765Y-4.165
X13.770Y-3.600
X13.855Y-3.960
X13.890Y-3.925
X13.905Y-2.791
X13.905Y-2.919
X13.905Y-2.970
X13.905Y-3.265
X13.910Y-2.690
X13.955Y-2.510
X14.020Y-3.195
X14.095Y-2.505
X14.095Y-5.025
X14.100Y-2.875
X14.110Y-5.235
X14.120Y-3.075
X14.150Y-5.150
T2
X2.775Y-2.875
X2.865Y-3.855
X2.865Y-3.955
X2.865Y-4.655
X2.865Y-4.855
X2.975Y-2.875
X3.195Y-2.280
X3.225Y-2.725
X3.295Y-2.280
X3.350Y-5.000
X3.350Y-5.350
X3.350Y-5.625
X3.425Y-2.725
X3.450Y-5.000
X3.450Y-5.350
X3.450Y-5.625
X3.475Y-3.125
X3.475Y-3.225
X3.475Y-3.325
X3.475Y-3.425
X3.475Y-3.525
X3.475Y-3.625
X3.475Y-3.725
X3.475Y-3.825
X3.475Y-3.925
X3.500Y-5.825
X3.550Y-2.975
X3.550Y-5.000
X3.550Y-5.350
X3.550Y-5.625
X3.600Y-5.825
X3.625Y-3.925
X3.625Y-4.025
X3.625Y-4.125
X3.625Y-4.225
X3.625Y-4.325
X3.625Y-4.425
X3.625Y-4.525
X3.625Y-4.625
X3.625Y-4.725
X3.650Y-2.975
X3.650Y-5.000
X3.650Y-5.350
X3.650Y-5.625
X3.725Y-2.575
X3.725Y-2.875
X3.750Y-5.000
X3.750Y-5.350
X3.750Y-5.625
X3.825Y-2.575
X3.825Y-2.875
X3.850Y-5.000
X3.850Y-5.350
X3.850Y-5.625
X3.925Y-2.575
X3.925Y-2.875
X3.950Y-5.000
X3.950Y-5.350
X3.950Y-5.625
X4.025Y-2.575
X4.025Y-2.875
X4.050Y-5.000
X4.050Y-5.350
X4.050Y-5.625
X4.145Y-2.670
X4.145Y-2.770
X4.150Y-5.000
X4.150Y-5.350
X4.150Y-5.625
X4.235Y-2.545
X4.275Y-4.650
X4.275Y-4.950
X4.300Y-5.625
X4.300Y-5.725
X4.310Y-2.370
X4.335Y-2.545
X4.375Y-4.650
X4.375Y-4.950
X4.475Y-4.650
X4.475Y-4.950
X4.485Y-2.545
X4.510Y-2.370
X4.575Y-4.650
X4.575Y-4.950
X4.585Y-2.545
X4.675Y-4.850
X4.675Y-4.950
X4.775Y-4.850
X4.775Y-4.950
X6.625Y-5.305
X6.625Y-5.425
X6.625Y-5.615
X6.725Y-5.305
X6.725Y-5.425
X6.725Y-5.615
X6.825Y-5.305
X6.825Y-5.425
X6.825Y-5.615
X6.925Y-5.305
X6.925Y-5.425
X6.925Y-5.615
X7.025Y-5.305
X7.025Y-5.425
X7.025Y-5.615
X7.125Y-5.305
X7.125Y-5.425
X7.125Y-5.615
X7.225Y-5.305
X7.225Y-5.425
X7.225Y-5.615
X7.325Y-5.305
X7.325Y-5.425
X7.325Y-5.615
X7.425Y-5.305
X7.425Y-5.425
X7.425Y-5.615
X11.655Y-3.935
X11.655Y-4.035
X11.655Y-4.135
X11.655Y-4.235
X11.655Y-4.335
X11.655Y-4.435
X11.655Y-4.535
X11.655Y-4.635
X11.655Y-4.735
X11.655Y-4.835
X11.655Y-4.935
X11.755Y-3.835
X11.755Y-3.935
X11.755Y-4.035
X11.755Y-4.135
X11.755Y-4.235
X11.755Y-4.335
X11.755Y-4.435
X11.755Y-4.535
X11.755Y-4.635
X11.755Y-4.735
X11.755Y-4.835
X11.755Y-4.935
X11.755Y-5.035
X11.855Y-3.835
X11.855Y-3.935
X11.855Y-4.935
X11.855Y-5.035
X11.955Y-3.835
X11.955Y-3.935
X11.955Y-4.935
X11.955Y-5.035
X12.055Y-3.835
X12.055Y-3.935
X12.055Y-4.935
X12.055Y-5.035
X12.155Y-3.835
X12.155Y-3.935
X12.155Y-4.935
X12.155Y-5.035
X12.245Y-2.315
X12.245Y-2.395
X12.255Y-3.835
X12.255Y-3.935
X12.255Y-4.935
X12.255Y-5.035
X12.355Y-3.835
X12.355Y-3.935
X12.355Y-4.935
X12.355Y-5.035
X12.455Y-3.835
X12.455Y-3.935
X12.455Y-4.935
X12.455Y-5.035
X12.545Y-2.315
X12.545Y-2.395
X12.555Y-3.835
X12.555Y-3.935
X12.555Y-4.935
X12.555Y-5.035
X12.655Y-3.835
X12.655Y-3.935
X12.655Y-4.935
X12.655Y-5.035
X12.755Y-3.835
X12.755Y-3.935
X12.755Y-4.035
X12.755Y-4.135
X12.755Y-4.235
X12.755Y-4.335
X12.755Y-4.435
X12.755Y-4.535
X12.755Y-4.635
X12.755Y-4.735
X12.755Y-4.835
X12.755Y-4.935
X12.755Y-5.035
X12.855Y-3.935
X12.855Y-4.035
X12.855Y-4.135
X12.855Y-4.235
X12.855Y-4.335
X12.855Y-4.435
X12.855Y-4.535
X12.855Y-4.635
X12.855Y-4.735
X12.855Y-4.835
X12.855Y-4.935
X13.025Y-4.125
X13.025Y-4.225
X13.025Y-4.325
X13.025Y-4.425
X13.025Y-4.525
X13.025Y-4.625
X13.025Y-4.725
X13.025Y-4.825
X13.025Y-4.925
X13.125Y-4.025
X13.125Y-4.125
X13.125Y-4.225
X13.125Y-4.325
X13.125Y-4.425
X13.125Y-4.525
X13.125Y-4.625
X13.125Y-4.725
X13.125Y-4.825
X13.125Y-4.925
X13.125Y-5.025
X13.225Y-4.025
X13.225Y-4.125
X13.225Y-4.925
X13.225Y-5.025
X13.325Y-4.025
X13.325Y-4.125
X13.325Y-4.925
X13.325Y-5.025
X13.425Y-4.025
X13.425Y-4.125
X13.425Y-4.925
X13.425Y-5.025
X13.525Y-4.025
X13.525Y-4.125
X13.525Y-4.925
X13.525Y-5.025
X13.625Y-4.025
X13.625Y-4.125
X13.625Y-4.925
X13.625Y-5.025
X13.725Y-4.025
X13.725Y-4.125
X13.725Y-4.925
X13.725Y-5.025
X13.825Y-4.025
X13.825Y-4.125
X13.825Y-4.925
X13.825Y-5.025
X13.925Y-4.025
X13.925Y-4.125
X13.925Y-4.225
X13.925Y-4.325
X13.925Y-4.425
X13.925Y-4.525
X13.925Y-4.625
X13.925Y-4.725
X13.925Y-4.825
X13.925Y-4.925
X13.925Y-5.025
X13.935Y-3.325
X13.935Y-3.405
X14.025Y-4.125
X14.025Y-4.225
X14.025Y-4.325
X14.025Y-4.425
X14.025Y-4.525
X14.025Y-4.625
X14.025Y-4.725
X14.025Y-4.825
X14.025Y-4.925
X14.080Y-3.620
X14.080Y-3.820
X14.235Y-3.325
X14.235Y-3.405
T3
X2.325Y-3.225
X2.325Y-3.675
X2.325Y-4.125
X2.325Y-4.575
X2.675Y-5.295
X2.675Y-5.405
X2.675Y-5.510
X2.675Y-5.620
X2.775Y-5.240
X2.775Y-5.350
X2.775Y-5.460
X2.775Y-5.565
X2.775Y-5.675
X3.675Y-2.425
X3.775Y-2.425
X3.875Y-2.425
X3.975Y-2.425
X4.075Y-2.425
T4
X2.225Y-3.125
X2.225Y-3.325
X2.225Y-3.575
X2.225Y-3.775
X2.225Y-4.025
X2.225Y-4.225
X2.225Y-4.475
X2.225Y-4.675
X2.425Y-3.125
X2.425Y-3.325
X2.425Y-3.575
X2.425Y-3.775
X2.425Y-4.025
X2.425Y-4.225
X2.425Y-4.475
X2.425Y-4.675
T5
X7.025Y-2.525
X7.025Y-2.875
X7.025Y-3.225
X7.025Y-3.575
X7.025Y-3.925
X7.025Y-4.275
X7.025Y-4.625
X7.025Y-4.975
X9.225Y-2.525
X9.225Y-2.875
X9.225Y-3.225
X9.225Y-3.575
X9.225Y-3.925
X9.225Y-4.275
X9.225Y-4.625
X9.225Y-4.975
X11.425Y-2.525
X11.425Y-2.875
X11.425Y-3.225
X11.425Y-3.575
X11.425Y-3.925
X11.425Y-4.275
X11.425Y-4.625
X11.425Y-4.975
T6
X2.675Y-4.955
X2.675Y-5.955
T0
M30
