G04 (created by PCBNEW-RS274X (2012-apr-16-27)-stable) date Втр 01 Янв 2013 22:44:24*
G01*
G70*
G90*
%MOIN*%
G04 Gerber Fmt 3.4, Leading zero omitted, Abs format*
%FSLAX34Y34*%
G04 APERTURE LIST*
%ADD10C,0.006000*%
%ADD11C,0.005000*%
%ADD12C,0.008000*%
%ADD13C,0.007500*%
G04 APERTURE END LIST*
G54D10*
G54D11*
X65000Y-39450D02*
X67900Y-39450D01*
X67900Y-44450D02*
X65000Y-44450D01*
X65000Y-39450D02*
X65000Y-44450D01*
X67900Y-44450D02*
X67900Y-39450D01*
X66700Y-44450D02*
X66700Y-43950D01*
X66700Y-43950D02*
X66200Y-43950D01*
X66200Y-43950D02*
X66200Y-44450D01*
X65000Y-33550D02*
X67900Y-33550D01*
X67900Y-38550D02*
X65000Y-38550D01*
X65000Y-33550D02*
X65000Y-38550D01*
X67900Y-38550D02*
X67900Y-33550D01*
X66700Y-38550D02*
X66700Y-38050D01*
X66700Y-38050D02*
X66200Y-38050D01*
X66200Y-38050D02*
X66200Y-38550D01*
X65000Y-45150D02*
X67900Y-45150D01*
X67900Y-50150D02*
X65000Y-50150D01*
X65000Y-45150D02*
X65000Y-50150D01*
X67900Y-50150D02*
X67900Y-45150D01*
X66700Y-50150D02*
X66700Y-49650D01*
X66700Y-49650D02*
X66200Y-49650D01*
X66200Y-49650D02*
X66200Y-50150D01*
X30750Y-50700D02*
X31950Y-50700D01*
X31950Y-50700D02*
X31950Y-50400D01*
X31950Y-50400D02*
X30750Y-50400D01*
X30750Y-50400D02*
X30750Y-50700D01*
X28950Y-37400D02*
X30150Y-37400D01*
X30150Y-37400D02*
X30150Y-37100D01*
X30150Y-37100D02*
X28950Y-37100D01*
X28950Y-37100D02*
X28950Y-37400D01*
X28950Y-50700D02*
X30150Y-50700D01*
X30150Y-50700D02*
X30150Y-50400D01*
X30150Y-50400D02*
X28950Y-50400D01*
X28950Y-50400D02*
X28950Y-50700D01*
X30620Y-38400D02*
X30618Y-38413D01*
X30614Y-38426D01*
X30608Y-38438D01*
X30599Y-38449D01*
X30589Y-38458D01*
X30577Y-38464D01*
X30564Y-38468D01*
X30550Y-38469D01*
X30537Y-38468D01*
X30524Y-38464D01*
X30512Y-38458D01*
X30502Y-38450D01*
X30493Y-38439D01*
X30486Y-38427D01*
X30482Y-38414D01*
X30481Y-38400D01*
X30482Y-38388D01*
X30485Y-38375D01*
X30492Y-38363D01*
X30500Y-38352D01*
X30511Y-38343D01*
X30522Y-38336D01*
X30535Y-38332D01*
X30549Y-38331D01*
X30562Y-38332D01*
X30575Y-38335D01*
X30587Y-38341D01*
X30598Y-38350D01*
X30607Y-38360D01*
X30613Y-38372D01*
X30618Y-38385D01*
X30619Y-38399D01*
X30620Y-38400D01*
X30500Y-39900D02*
X30500Y-40650D01*
X30500Y-40650D02*
X29300Y-40650D01*
X29300Y-40650D02*
X29300Y-39900D01*
X29300Y-39250D02*
X29300Y-38450D01*
X29300Y-38450D02*
X30500Y-38450D01*
X30500Y-38450D02*
X30500Y-39250D01*
X139170Y-25400D02*
X139168Y-25413D01*
X139164Y-25426D01*
X139158Y-25438D01*
X139149Y-25449D01*
X139139Y-25458D01*
X139127Y-25464D01*
X139114Y-25468D01*
X139100Y-25469D01*
X139087Y-25468D01*
X139074Y-25464D01*
X139062Y-25458D01*
X139052Y-25450D01*
X139043Y-25439D01*
X139036Y-25427D01*
X139032Y-25414D01*
X139031Y-25400D01*
X139032Y-25388D01*
X139035Y-25375D01*
X139042Y-25363D01*
X139050Y-25352D01*
X139061Y-25343D01*
X139072Y-25336D01*
X139085Y-25332D01*
X139099Y-25331D01*
X139112Y-25332D01*
X139125Y-25335D01*
X139137Y-25341D01*
X139148Y-25350D01*
X139157Y-25360D01*
X139163Y-25372D01*
X139168Y-25385D01*
X139169Y-25399D01*
X139170Y-25400D01*
X140600Y-25450D02*
X141350Y-25450D01*
X141350Y-25450D02*
X141350Y-26650D01*
X141350Y-26650D02*
X140600Y-26650D01*
X139950Y-26650D02*
X139150Y-26650D01*
X139150Y-26650D02*
X139150Y-25450D01*
X139150Y-25450D02*
X139950Y-25450D01*
X134920Y-42100D02*
X134918Y-42113D01*
X134914Y-42126D01*
X134908Y-42138D01*
X134899Y-42149D01*
X134889Y-42158D01*
X134877Y-42164D01*
X134864Y-42168D01*
X134850Y-42169D01*
X134837Y-42168D01*
X134824Y-42164D01*
X134812Y-42158D01*
X134802Y-42150D01*
X134793Y-42139D01*
X134786Y-42127D01*
X134782Y-42114D01*
X134781Y-42100D01*
X134782Y-42088D01*
X134785Y-42075D01*
X134792Y-42063D01*
X134800Y-42052D01*
X134811Y-42043D01*
X134822Y-42036D01*
X134835Y-42032D01*
X134849Y-42031D01*
X134862Y-42032D01*
X134875Y-42035D01*
X134887Y-42041D01*
X134898Y-42050D01*
X134907Y-42060D01*
X134913Y-42072D01*
X134918Y-42085D01*
X134919Y-42099D01*
X134920Y-42100D01*
X136350Y-42150D02*
X137100Y-42150D01*
X137100Y-42150D02*
X137100Y-43350D01*
X137100Y-43350D02*
X136350Y-43350D01*
X135700Y-43350D02*
X134900Y-43350D01*
X134900Y-43350D02*
X134900Y-42150D01*
X134900Y-42150D02*
X135700Y-42150D01*
X33870Y-33700D02*
X33868Y-33713D01*
X33864Y-33726D01*
X33858Y-33738D01*
X33849Y-33749D01*
X33839Y-33758D01*
X33827Y-33764D01*
X33814Y-33768D01*
X33800Y-33769D01*
X33787Y-33768D01*
X33774Y-33764D01*
X33762Y-33758D01*
X33752Y-33750D01*
X33743Y-33739D01*
X33736Y-33727D01*
X33732Y-33714D01*
X33731Y-33700D01*
X33732Y-33688D01*
X33735Y-33675D01*
X33742Y-33663D01*
X33750Y-33652D01*
X33761Y-33643D01*
X33772Y-33636D01*
X33785Y-33632D01*
X33799Y-33631D01*
X33812Y-33632D01*
X33825Y-33635D01*
X33837Y-33641D01*
X33848Y-33650D01*
X33857Y-33660D01*
X33863Y-33672D01*
X33868Y-33685D01*
X33869Y-33699D01*
X33870Y-33700D01*
X33750Y-35200D02*
X33750Y-35950D01*
X33750Y-35950D02*
X32550Y-35950D01*
X32550Y-35950D02*
X32550Y-35200D01*
X32550Y-34550D02*
X32550Y-33750D01*
X32550Y-33750D02*
X33750Y-33750D01*
X33750Y-33750D02*
X33750Y-34550D01*
X57420Y-23500D02*
X57418Y-23513D01*
X57414Y-23526D01*
X57408Y-23538D01*
X57399Y-23549D01*
X57389Y-23558D01*
X57377Y-23564D01*
X57364Y-23568D01*
X57350Y-23569D01*
X57337Y-23568D01*
X57324Y-23564D01*
X57312Y-23558D01*
X57302Y-23550D01*
X57293Y-23539D01*
X57286Y-23527D01*
X57282Y-23514D01*
X57281Y-23500D01*
X57282Y-23488D01*
X57285Y-23475D01*
X57292Y-23463D01*
X57300Y-23452D01*
X57311Y-23443D01*
X57322Y-23436D01*
X57335Y-23432D01*
X57349Y-23431D01*
X57362Y-23432D01*
X57375Y-23435D01*
X57387Y-23441D01*
X57398Y-23450D01*
X57407Y-23460D01*
X57413Y-23472D01*
X57418Y-23485D01*
X57419Y-23499D01*
X57420Y-23500D01*
X58850Y-23550D02*
X59600Y-23550D01*
X59600Y-23550D02*
X59600Y-24750D01*
X59600Y-24750D02*
X58850Y-24750D01*
X58200Y-24750D02*
X57400Y-24750D01*
X57400Y-24750D02*
X57400Y-23550D01*
X57400Y-23550D02*
X58200Y-23550D01*
X134320Y-46750D02*
X134318Y-46763D01*
X134314Y-46776D01*
X134308Y-46788D01*
X134299Y-46799D01*
X134289Y-46808D01*
X134277Y-46814D01*
X134264Y-46818D01*
X134250Y-46819D01*
X134237Y-46818D01*
X134224Y-46814D01*
X134212Y-46808D01*
X134202Y-46800D01*
X134193Y-46789D01*
X134186Y-46777D01*
X134182Y-46764D01*
X134181Y-46750D01*
X134182Y-46738D01*
X134185Y-46725D01*
X134192Y-46713D01*
X134200Y-46702D01*
X134211Y-46693D01*
X134222Y-46686D01*
X134235Y-46682D01*
X134249Y-46681D01*
X134262Y-46682D01*
X134275Y-46685D01*
X134287Y-46691D01*
X134298Y-46700D01*
X134307Y-46710D01*
X134313Y-46722D01*
X134318Y-46735D01*
X134319Y-46749D01*
X134320Y-46750D01*
X135750Y-46800D02*
X136500Y-46800D01*
X136500Y-46800D02*
X136500Y-48000D01*
X136500Y-48000D02*
X135750Y-48000D01*
X135100Y-48000D02*
X134300Y-48000D01*
X134300Y-48000D02*
X134300Y-46800D01*
X134300Y-46800D02*
X135100Y-46800D01*
X60320Y-52800D02*
X60318Y-52813D01*
X60314Y-52826D01*
X60308Y-52838D01*
X60299Y-52849D01*
X60289Y-52858D01*
X60277Y-52864D01*
X60264Y-52868D01*
X60250Y-52869D01*
X60237Y-52868D01*
X60224Y-52864D01*
X60212Y-52858D01*
X60202Y-52850D01*
X60193Y-52839D01*
X60186Y-52827D01*
X60182Y-52814D01*
X60181Y-52800D01*
X60182Y-52788D01*
X60185Y-52775D01*
X60192Y-52763D01*
X60200Y-52752D01*
X60211Y-52743D01*
X60222Y-52736D01*
X60235Y-52732D01*
X60249Y-52731D01*
X60262Y-52732D01*
X60275Y-52735D01*
X60287Y-52741D01*
X60298Y-52750D01*
X60307Y-52760D01*
X60313Y-52772D01*
X60318Y-52785D01*
X60319Y-52799D01*
X60320Y-52800D01*
X58200Y-52750D02*
X57300Y-52750D01*
X57300Y-52750D02*
X57300Y-51250D01*
X57300Y-51250D02*
X58200Y-51250D01*
X59300Y-51250D02*
X60200Y-51250D01*
X60200Y-51250D02*
X60200Y-52750D01*
X60200Y-52750D02*
X59300Y-52750D01*
X48070Y-32700D02*
X48068Y-32713D01*
X48064Y-32726D01*
X48058Y-32738D01*
X48049Y-32749D01*
X48039Y-32758D01*
X48027Y-32764D01*
X48014Y-32768D01*
X48000Y-32769D01*
X47987Y-32768D01*
X47974Y-32764D01*
X47962Y-32758D01*
X47952Y-32750D01*
X47943Y-32739D01*
X47936Y-32727D01*
X47932Y-32714D01*
X47931Y-32700D01*
X47932Y-32688D01*
X47935Y-32675D01*
X47942Y-32663D01*
X47950Y-32652D01*
X47961Y-32643D01*
X47972Y-32636D01*
X47985Y-32632D01*
X47999Y-32631D01*
X48012Y-32632D01*
X48025Y-32635D01*
X48037Y-32641D01*
X48048Y-32650D01*
X48057Y-32660D01*
X48063Y-32672D01*
X48068Y-32685D01*
X48069Y-32699D01*
X48070Y-32700D01*
X50050Y-32750D02*
X50950Y-32750D01*
X50950Y-32750D02*
X50950Y-34250D01*
X50950Y-34250D02*
X50050Y-34250D01*
X48950Y-34250D02*
X48050Y-34250D01*
X48050Y-34250D02*
X48050Y-32750D01*
X48050Y-32750D02*
X48950Y-32750D01*
X125200Y-46250D02*
X126100Y-46250D01*
X126100Y-46250D02*
X126100Y-46900D01*
X125200Y-47600D02*
X125200Y-48250D01*
X125200Y-48250D02*
X126100Y-48250D01*
X126100Y-48250D02*
X126100Y-47600D01*
X125200Y-46900D02*
X125200Y-46250D01*
X29600Y-34600D02*
X28700Y-34600D01*
X28700Y-34600D02*
X28700Y-33950D01*
X29600Y-33250D02*
X29600Y-32600D01*
X29600Y-32600D02*
X28700Y-32600D01*
X28700Y-32600D02*
X28700Y-33250D01*
X29600Y-33950D02*
X29600Y-34600D01*
X123150Y-46250D02*
X124050Y-46250D01*
X124050Y-46250D02*
X124050Y-46900D01*
X123150Y-47600D02*
X123150Y-48250D01*
X123150Y-48250D02*
X124050Y-48250D01*
X124050Y-48250D02*
X124050Y-47600D01*
X123150Y-46900D02*
X123150Y-46250D01*
X30150Y-33100D02*
X30150Y-32200D01*
X30150Y-32200D02*
X30800Y-32200D01*
X31500Y-33100D02*
X32150Y-33100D01*
X32150Y-33100D02*
X32150Y-32200D01*
X32150Y-32200D02*
X31500Y-32200D01*
X30800Y-33100D02*
X30150Y-33100D01*
X30150Y-35100D02*
X30150Y-34200D01*
X30150Y-34200D02*
X30800Y-34200D01*
X31500Y-35100D02*
X32150Y-35100D01*
X32150Y-35100D02*
X32150Y-34200D01*
X32150Y-34200D02*
X31500Y-34200D01*
X30800Y-35100D02*
X30150Y-35100D01*
X30650Y-44500D02*
X30650Y-43600D01*
X30650Y-43600D02*
X31300Y-43600D01*
X32000Y-44500D02*
X32650Y-44500D01*
X32650Y-44500D02*
X32650Y-43600D01*
X32650Y-43600D02*
X32000Y-43600D01*
X31300Y-44500D02*
X30650Y-44500D01*
X30150Y-34100D02*
X30150Y-33200D01*
X30150Y-33200D02*
X30800Y-33200D01*
X31500Y-34100D02*
X32150Y-34100D01*
X32150Y-34100D02*
X32150Y-33200D01*
X32150Y-33200D02*
X31500Y-33200D01*
X30800Y-34100D02*
X30150Y-34100D01*
X138350Y-52300D02*
X138350Y-51400D01*
X138350Y-51400D02*
X139000Y-51400D01*
X139700Y-52300D02*
X140350Y-52300D01*
X140350Y-52300D02*
X140350Y-51400D01*
X140350Y-51400D02*
X139700Y-51400D01*
X139000Y-52300D02*
X138350Y-52300D01*
X30650Y-45700D02*
X30650Y-44800D01*
X30650Y-44800D02*
X31300Y-44800D01*
X32000Y-45700D02*
X32650Y-45700D01*
X32650Y-45700D02*
X32650Y-44800D01*
X32650Y-44800D02*
X32000Y-44800D01*
X31300Y-45700D02*
X30650Y-45700D01*
X31350Y-38500D02*
X31350Y-37600D01*
X31350Y-37600D02*
X32000Y-37600D01*
X32700Y-38500D02*
X33350Y-38500D01*
X33350Y-38500D02*
X33350Y-37600D01*
X33350Y-37600D02*
X32700Y-37600D01*
X32000Y-38500D02*
X31350Y-38500D01*
X134350Y-46750D02*
X134350Y-45850D01*
X134350Y-45850D02*
X135000Y-45850D01*
X135700Y-46750D02*
X136350Y-46750D01*
X136350Y-46750D02*
X136350Y-45850D01*
X136350Y-45850D02*
X135700Y-45850D01*
X135000Y-46750D02*
X134350Y-46750D01*
X134950Y-44450D02*
X134950Y-43550D01*
X134950Y-43550D02*
X135600Y-43550D01*
X136300Y-44450D02*
X136950Y-44450D01*
X136950Y-44450D02*
X136950Y-43550D01*
X136950Y-43550D02*
X136300Y-43550D01*
X135600Y-44450D02*
X134950Y-44450D01*
X137350Y-37100D02*
X137350Y-36200D01*
X137350Y-36200D02*
X138000Y-36200D01*
X138700Y-37100D02*
X139350Y-37100D01*
X139350Y-37100D02*
X139350Y-36200D01*
X139350Y-36200D02*
X138700Y-36200D01*
X138000Y-37100D02*
X137350Y-37100D01*
X137350Y-38200D02*
X137350Y-37300D01*
X137350Y-37300D02*
X138000Y-37300D01*
X138700Y-38200D02*
X139350Y-38200D01*
X139350Y-38200D02*
X139350Y-37300D01*
X139350Y-37300D02*
X138700Y-37300D01*
X138000Y-38200D02*
X137350Y-38200D01*
X50250Y-24700D02*
X50250Y-23800D01*
X50250Y-23800D02*
X50900Y-23800D01*
X51600Y-24700D02*
X52250Y-24700D01*
X52250Y-24700D02*
X52250Y-23800D01*
X52250Y-23800D02*
X51600Y-23800D01*
X50900Y-24700D02*
X50250Y-24700D01*
X134150Y-32900D02*
X134150Y-33800D01*
X134150Y-33800D02*
X133500Y-33800D01*
X132800Y-32900D02*
X132150Y-32900D01*
X132150Y-32900D02*
X132150Y-33800D01*
X132150Y-33800D02*
X132800Y-33800D01*
X133500Y-32900D02*
X134150Y-32900D01*
X127250Y-34800D02*
X127250Y-33900D01*
X127250Y-33900D02*
X127900Y-33900D01*
X128600Y-34800D02*
X129250Y-34800D01*
X129250Y-34800D02*
X129250Y-33900D01*
X129250Y-33900D02*
X128600Y-33900D01*
X127900Y-34800D02*
X127250Y-34800D01*
X128100Y-33250D02*
X127200Y-33250D01*
X127200Y-33250D02*
X127200Y-32600D01*
X128100Y-31900D02*
X128100Y-31250D01*
X128100Y-31250D02*
X127200Y-31250D01*
X127200Y-31250D02*
X127200Y-31900D01*
X128100Y-32600D02*
X128100Y-33250D01*
X127350Y-25900D02*
X127350Y-25000D01*
X127350Y-25000D02*
X128000Y-25000D01*
X128700Y-25900D02*
X129350Y-25900D01*
X129350Y-25900D02*
X129350Y-25000D01*
X129350Y-25000D02*
X128700Y-25000D01*
X128000Y-25900D02*
X127350Y-25900D01*
X136500Y-32650D02*
X135600Y-32650D01*
X135600Y-32650D02*
X135600Y-32000D01*
X136500Y-31300D02*
X136500Y-30650D01*
X136500Y-30650D02*
X135600Y-30650D01*
X135600Y-30650D02*
X135600Y-31300D01*
X136500Y-32000D02*
X136500Y-32650D01*
X126150Y-28550D02*
X125250Y-28550D01*
X125250Y-28550D02*
X125250Y-27900D01*
X126150Y-27200D02*
X126150Y-26550D01*
X126150Y-26550D02*
X125250Y-26550D01*
X125250Y-26550D02*
X125250Y-27200D01*
X126150Y-27900D02*
X126150Y-28550D01*
X141850Y-49800D02*
X141850Y-50700D01*
X141850Y-50700D02*
X141200Y-50700D01*
X140500Y-49800D02*
X139850Y-49800D01*
X139850Y-49800D02*
X139850Y-50700D01*
X139850Y-50700D02*
X140500Y-50700D01*
X141200Y-49800D02*
X141850Y-49800D01*
X26300Y-32550D02*
X27200Y-32550D01*
X27200Y-32550D02*
X27200Y-33200D01*
X26300Y-33900D02*
X26300Y-34550D01*
X26300Y-34550D02*
X27200Y-34550D01*
X27200Y-34550D02*
X27200Y-33900D01*
X26300Y-33200D02*
X26300Y-32550D01*
X30650Y-54300D02*
X30650Y-53400D01*
X30650Y-53400D02*
X31300Y-53400D01*
X32000Y-54300D02*
X32650Y-54300D01*
X32650Y-54300D02*
X32650Y-53400D01*
X32650Y-53400D02*
X32000Y-53400D01*
X31300Y-54300D02*
X30650Y-54300D01*
X30650Y-53100D02*
X30650Y-52200D01*
X30650Y-52200D02*
X31300Y-52200D01*
X32000Y-53100D02*
X32650Y-53100D01*
X32650Y-53100D02*
X32650Y-52200D01*
X32650Y-52200D02*
X32000Y-52200D01*
X31300Y-53100D02*
X30650Y-53100D01*
X136500Y-27550D02*
X135600Y-27550D01*
X135600Y-27550D02*
X135600Y-26900D01*
X136500Y-26200D02*
X136500Y-25550D01*
X136500Y-25550D02*
X135600Y-25550D01*
X135600Y-25550D02*
X135600Y-26200D01*
X136500Y-26900D02*
X136500Y-27550D01*
X134550Y-33800D02*
X134550Y-32900D01*
X134550Y-32900D02*
X135200Y-32900D01*
X135900Y-33800D02*
X136550Y-33800D01*
X136550Y-33800D02*
X136550Y-32900D01*
X136550Y-32900D02*
X135900Y-32900D01*
X135200Y-33800D02*
X134550Y-33800D01*
X139150Y-31200D02*
X139150Y-30300D01*
X139150Y-30300D02*
X139800Y-30300D01*
X140500Y-31200D02*
X141150Y-31200D01*
X141150Y-31200D02*
X141150Y-30300D01*
X141150Y-30300D02*
X140500Y-30300D01*
X139800Y-31200D02*
X139150Y-31200D01*
X135850Y-37300D02*
X136750Y-37300D01*
X136750Y-37300D02*
X136750Y-37950D01*
X135850Y-38650D02*
X135850Y-39300D01*
X135850Y-39300D02*
X136750Y-39300D01*
X136750Y-39300D02*
X136750Y-38650D01*
X135850Y-37950D02*
X135850Y-37300D01*
X136500Y-29850D02*
X135600Y-29850D01*
X135600Y-29850D02*
X135600Y-29200D01*
X136500Y-28500D02*
X136500Y-27850D01*
X136500Y-27850D02*
X135600Y-27850D01*
X135600Y-27850D02*
X135600Y-28500D01*
X136500Y-29200D02*
X136500Y-29850D01*
X134550Y-35000D02*
X134550Y-34100D01*
X134550Y-34100D02*
X135200Y-34100D01*
X135900Y-35000D02*
X136550Y-35000D01*
X136550Y-35000D02*
X136550Y-34100D01*
X136550Y-34100D02*
X135900Y-34100D01*
X135200Y-35000D02*
X134550Y-35000D01*
X140350Y-38250D02*
X139450Y-38250D01*
X139450Y-38250D02*
X139450Y-37600D01*
X140350Y-36900D02*
X140350Y-36250D01*
X140350Y-36250D02*
X139450Y-36250D01*
X139450Y-36250D02*
X139450Y-36900D01*
X140350Y-37600D02*
X140350Y-38250D01*
X134150Y-34100D02*
X134150Y-35000D01*
X134150Y-35000D02*
X133500Y-35000D01*
X132800Y-34100D02*
X132150Y-34100D01*
X132150Y-34100D02*
X132150Y-35000D01*
X132150Y-35000D02*
X132800Y-35000D01*
X133500Y-34100D02*
X134150Y-34100D01*
X130450Y-26000D02*
X130450Y-25100D01*
X130450Y-25100D02*
X131100Y-25100D01*
X131800Y-26000D02*
X132450Y-26000D01*
X132450Y-26000D02*
X132450Y-25100D01*
X132450Y-25100D02*
X131800Y-25100D01*
X131100Y-26000D02*
X130450Y-26000D01*
X139150Y-32400D02*
X139150Y-31500D01*
X139150Y-31500D02*
X139800Y-31500D01*
X140500Y-32400D02*
X141150Y-32400D01*
X141150Y-32400D02*
X141150Y-31500D01*
X141150Y-31500D02*
X140500Y-31500D01*
X139800Y-32400D02*
X139150Y-32400D01*
X140550Y-27450D02*
X141450Y-27450D01*
X141450Y-27450D02*
X141450Y-28100D01*
X140550Y-28800D02*
X140550Y-29450D01*
X140550Y-29450D02*
X141450Y-29450D01*
X141450Y-29450D02*
X141450Y-28800D01*
X140550Y-28100D02*
X140550Y-27450D01*
X41650Y-34600D02*
X41650Y-33700D01*
X41650Y-33700D02*
X42300Y-33700D01*
X43000Y-34600D02*
X43650Y-34600D01*
X43650Y-34600D02*
X43650Y-33700D01*
X43650Y-33700D02*
X43000Y-33700D01*
X42300Y-34600D02*
X41650Y-34600D01*
X140500Y-29450D02*
X139600Y-29450D01*
X139600Y-29450D02*
X139600Y-28800D01*
X140500Y-28100D02*
X140500Y-27450D01*
X140500Y-27450D02*
X139600Y-27450D01*
X139600Y-27450D02*
X139600Y-28100D01*
X140500Y-28800D02*
X140500Y-29450D01*
X126100Y-46250D02*
X127000Y-46250D01*
X127000Y-46250D02*
X127000Y-46900D01*
X126100Y-47600D02*
X126100Y-48250D01*
X126100Y-48250D02*
X127000Y-48250D01*
X127000Y-48250D02*
X127000Y-47600D01*
X126100Y-46900D02*
X126100Y-46250D01*
X31900Y-49250D02*
X31000Y-49250D01*
X31000Y-49250D02*
X31000Y-48600D01*
X31900Y-47900D02*
X31900Y-47250D01*
X31900Y-47250D02*
X31000Y-47250D01*
X31000Y-47250D02*
X31000Y-47900D01*
X31900Y-48600D02*
X31900Y-49250D01*
X30200Y-49250D02*
X29300Y-49250D01*
X29300Y-49250D02*
X29300Y-48600D01*
X30200Y-47900D02*
X30200Y-47250D01*
X30200Y-47250D02*
X29300Y-47250D01*
X29300Y-47250D02*
X29300Y-47900D01*
X30200Y-48600D02*
X30200Y-49250D01*
X27400Y-32550D02*
X28300Y-32550D01*
X28300Y-32550D02*
X28300Y-33200D01*
X27400Y-33900D02*
X27400Y-34550D01*
X27400Y-34550D02*
X28300Y-34550D01*
X28300Y-34550D02*
X28300Y-33900D01*
X27400Y-33200D02*
X27400Y-32550D01*
X135650Y-39300D02*
X134750Y-39300D01*
X134750Y-39300D02*
X134750Y-38650D01*
X135650Y-37950D02*
X135650Y-37300D01*
X135650Y-37300D02*
X134750Y-37300D01*
X134750Y-37300D02*
X134750Y-37950D01*
X135650Y-38650D02*
X135650Y-39300D01*
X134050Y-23300D02*
X134050Y-22400D01*
X134050Y-22400D02*
X134700Y-22400D01*
X135400Y-23300D02*
X136050Y-23300D01*
X136050Y-23300D02*
X136050Y-22400D01*
X136050Y-22400D02*
X135400Y-22400D01*
X134700Y-23300D02*
X134050Y-23300D01*
X33050Y-40000D02*
X33050Y-40900D01*
X33050Y-40900D02*
X32400Y-40900D01*
X31700Y-40000D02*
X31050Y-40000D01*
X31050Y-40000D02*
X31050Y-40900D01*
X31050Y-40900D02*
X31700Y-40900D01*
X32400Y-40000D02*
X33050Y-40000D01*
X122800Y-47300D02*
X122800Y-48200D01*
X122800Y-48200D02*
X122150Y-48200D01*
X121450Y-47300D02*
X120800Y-47300D01*
X120800Y-47300D02*
X120800Y-48200D01*
X120800Y-48200D02*
X121450Y-48200D01*
X122150Y-47300D02*
X122800Y-47300D01*
X118750Y-46800D02*
X118750Y-45900D01*
X118750Y-45900D02*
X119400Y-45900D01*
X120100Y-46800D02*
X120750Y-46800D01*
X120750Y-46800D02*
X120750Y-45900D01*
X120750Y-45900D02*
X120100Y-45900D01*
X119400Y-46800D02*
X118750Y-46800D01*
X25750Y-45350D02*
X25750Y-44450D01*
X25750Y-44450D02*
X26400Y-44450D01*
X27100Y-45350D02*
X27750Y-45350D01*
X27750Y-45350D02*
X27750Y-44450D01*
X27750Y-44450D02*
X27100Y-44450D01*
X26400Y-45350D02*
X25750Y-45350D01*
X31050Y-39600D02*
X31050Y-38700D01*
X31050Y-38700D02*
X31700Y-38700D01*
X32400Y-39600D02*
X33050Y-39600D01*
X33050Y-39600D02*
X33050Y-38700D01*
X33050Y-38700D02*
X32400Y-38700D01*
X31700Y-39600D02*
X31050Y-39600D01*
X28550Y-54300D02*
X28550Y-53400D01*
X28550Y-53400D02*
X29200Y-53400D01*
X29900Y-54300D02*
X30550Y-54300D01*
X30550Y-54300D02*
X30550Y-53400D01*
X30550Y-53400D02*
X29900Y-53400D01*
X29200Y-54300D02*
X28550Y-54300D01*
X138450Y-22400D02*
X138450Y-23300D01*
X138450Y-23300D02*
X137800Y-23300D01*
X137100Y-22400D02*
X136450Y-22400D01*
X136450Y-22400D02*
X136450Y-23300D01*
X136450Y-23300D02*
X137100Y-23300D01*
X137800Y-22400D02*
X138450Y-22400D01*
X30550Y-52200D02*
X30550Y-53100D01*
X30550Y-53100D02*
X29900Y-53100D01*
X29200Y-52200D02*
X28550Y-52200D01*
X28550Y-52200D02*
X28550Y-53100D01*
X28550Y-53100D02*
X29200Y-53100D01*
X29900Y-52200D02*
X30550Y-52200D01*
X28050Y-38500D02*
X28050Y-39400D01*
X28050Y-39400D02*
X27400Y-39400D01*
X26700Y-38500D02*
X26050Y-38500D01*
X26050Y-38500D02*
X26050Y-39400D01*
X26050Y-39400D02*
X26700Y-39400D01*
X27400Y-38500D02*
X28050Y-38500D01*
X125000Y-48250D02*
X124100Y-48250D01*
X124100Y-48250D02*
X124100Y-47600D01*
X125000Y-46900D02*
X125000Y-46250D01*
X125000Y-46250D02*
X124100Y-46250D01*
X124100Y-46250D02*
X124100Y-46900D01*
X125000Y-47600D02*
X125000Y-48250D01*
X26050Y-38100D02*
X26050Y-37200D01*
X26050Y-37200D02*
X26700Y-37200D01*
X27400Y-38100D02*
X28050Y-38100D01*
X28050Y-38100D02*
X28050Y-37200D01*
X28050Y-37200D02*
X27400Y-37200D01*
X26700Y-38100D02*
X26050Y-38100D01*
X30550Y-57000D02*
X30550Y-57900D01*
X30550Y-57900D02*
X29900Y-57900D01*
X29200Y-57000D02*
X28550Y-57000D01*
X28550Y-57000D02*
X28550Y-57900D01*
X28550Y-57900D02*
X29200Y-57900D01*
X29900Y-57000D02*
X30550Y-57000D01*
X30550Y-55800D02*
X30550Y-56700D01*
X30550Y-56700D02*
X29900Y-56700D01*
X29200Y-55800D02*
X28550Y-55800D01*
X28550Y-55800D02*
X28550Y-56700D01*
X28550Y-56700D02*
X29200Y-56700D01*
X29900Y-55800D02*
X30550Y-55800D01*
X25750Y-41400D02*
X26650Y-41400D01*
X26650Y-41400D02*
X26650Y-42050D01*
X25750Y-42750D02*
X25750Y-43400D01*
X25750Y-43400D02*
X26650Y-43400D01*
X26650Y-43400D02*
X26650Y-42750D01*
X25750Y-42050D02*
X25750Y-41400D01*
X30550Y-54600D02*
X30550Y-55500D01*
X30550Y-55500D02*
X29900Y-55500D01*
X29200Y-54600D02*
X28550Y-54600D01*
X28550Y-54600D02*
X28550Y-55500D01*
X28550Y-55500D02*
X29200Y-55500D01*
X29900Y-54600D02*
X30550Y-54600D01*
X65450Y-51550D02*
X65450Y-52450D01*
X65450Y-52450D02*
X64800Y-52450D01*
X64100Y-51550D02*
X63450Y-51550D01*
X63450Y-51550D02*
X63450Y-52450D01*
X63450Y-52450D02*
X64100Y-52450D01*
X64800Y-51550D02*
X65450Y-51550D01*
X48100Y-36200D02*
X48100Y-35300D01*
X48100Y-35300D02*
X48750Y-35300D01*
X49450Y-36200D02*
X50100Y-36200D01*
X50100Y-36200D02*
X50100Y-35300D01*
X50100Y-35300D02*
X49450Y-35300D01*
X48750Y-36200D02*
X48100Y-36200D01*
X49000Y-41450D02*
X49000Y-40550D01*
X49000Y-40550D02*
X49650Y-40550D01*
X50350Y-41450D02*
X51000Y-41450D01*
X51000Y-41450D02*
X51000Y-40550D01*
X51000Y-40550D02*
X50350Y-40550D01*
X49650Y-41450D02*
X49000Y-41450D01*
X52850Y-55450D02*
X52850Y-54550D01*
X52850Y-54550D02*
X53500Y-54550D01*
X54200Y-55450D02*
X54850Y-55450D01*
X54850Y-55450D02*
X54850Y-54550D01*
X54850Y-54550D02*
X54200Y-54550D01*
X53500Y-55450D02*
X52850Y-55450D01*
X58900Y-54550D02*
X58900Y-55450D01*
X58900Y-55450D02*
X58250Y-55450D01*
X57550Y-54550D02*
X56900Y-54550D01*
X56900Y-54550D02*
X56900Y-55450D01*
X56900Y-55450D02*
X57550Y-55450D01*
X58250Y-54550D02*
X58900Y-54550D01*
X60150Y-53050D02*
X60150Y-53950D01*
X60150Y-53950D02*
X59500Y-53950D01*
X58800Y-53050D02*
X58150Y-53050D01*
X58150Y-53050D02*
X58150Y-53950D01*
X58150Y-53950D02*
X58800Y-53950D01*
X59500Y-53050D02*
X60150Y-53050D01*
X60300Y-47950D02*
X60300Y-48850D01*
X60300Y-48850D02*
X59650Y-48850D01*
X58950Y-47950D02*
X58300Y-47950D01*
X58300Y-47950D02*
X58300Y-48850D01*
X58300Y-48850D02*
X58950Y-48850D01*
X59650Y-47950D02*
X60300Y-47950D01*
X58650Y-44800D02*
X58650Y-45700D01*
X58650Y-45700D02*
X58000Y-45700D01*
X57300Y-44800D02*
X56650Y-44800D01*
X56650Y-44800D02*
X56650Y-45700D01*
X56650Y-45700D02*
X57300Y-45700D01*
X58000Y-44800D02*
X58650Y-44800D01*
X53350Y-46450D02*
X53350Y-45550D01*
X53350Y-45550D02*
X54000Y-45550D01*
X54700Y-46450D02*
X55350Y-46450D01*
X55350Y-46450D02*
X55350Y-45550D01*
X55350Y-45550D02*
X54700Y-45550D01*
X54000Y-46450D02*
X53350Y-46450D01*
X51100Y-48950D02*
X51100Y-48050D01*
X51100Y-48050D02*
X51750Y-48050D01*
X52450Y-48950D02*
X53100Y-48950D01*
X53100Y-48950D02*
X53100Y-48050D01*
X53100Y-48050D02*
X52450Y-48050D01*
X51750Y-48950D02*
X51100Y-48950D01*
X51100Y-54200D02*
X51100Y-53300D01*
X51100Y-53300D02*
X51750Y-53300D01*
X52450Y-54200D02*
X53100Y-54200D01*
X53100Y-54200D02*
X53100Y-53300D01*
X53100Y-53300D02*
X52450Y-53300D01*
X51750Y-54200D02*
X51100Y-54200D01*
X47450Y-58000D02*
X47450Y-58900D01*
X47450Y-58900D02*
X46800Y-58900D01*
X46100Y-58000D02*
X45450Y-58000D01*
X45450Y-58000D02*
X45450Y-58900D01*
X45450Y-58900D02*
X46100Y-58900D01*
X46800Y-58000D02*
X47450Y-58000D01*
X50500Y-29200D02*
X50500Y-28300D01*
X50500Y-28300D02*
X51150Y-28300D01*
X51850Y-29200D02*
X52500Y-29200D01*
X52500Y-29200D02*
X52500Y-28300D01*
X52500Y-28300D02*
X51850Y-28300D01*
X51150Y-29200D02*
X50500Y-29200D01*
X56500Y-28550D02*
X56500Y-29450D01*
X56500Y-29450D02*
X55850Y-29450D01*
X55150Y-28550D02*
X54500Y-28550D01*
X54500Y-28550D02*
X54500Y-29450D01*
X54500Y-29450D02*
X55150Y-29450D01*
X55850Y-28550D02*
X56500Y-28550D01*
X58700Y-58900D02*
X58700Y-58000D01*
X58700Y-58000D02*
X59350Y-58000D01*
X60050Y-58900D02*
X60700Y-58900D01*
X60700Y-58900D02*
X60700Y-58000D01*
X60700Y-58000D02*
X60050Y-58000D01*
X59350Y-58900D02*
X58700Y-58900D01*
X121150Y-46800D02*
X121150Y-45900D01*
X121150Y-45900D02*
X121800Y-45900D01*
X122500Y-46800D02*
X123150Y-46800D01*
X123150Y-46800D02*
X123150Y-45900D01*
X123150Y-45900D02*
X122500Y-45900D01*
X121800Y-46800D02*
X121150Y-46800D01*
X40150Y-58500D02*
X40150Y-59400D01*
X40150Y-59400D02*
X39500Y-59400D01*
X38800Y-58500D02*
X38150Y-58500D01*
X38150Y-58500D02*
X38150Y-59400D01*
X38150Y-59400D02*
X38800Y-59400D01*
X39500Y-58500D02*
X40150Y-58500D01*
X30500Y-25000D02*
X31400Y-25000D01*
X31400Y-25000D02*
X31400Y-25650D01*
X30500Y-26350D02*
X30500Y-27000D01*
X30500Y-27000D02*
X31400Y-27000D01*
X31400Y-27000D02*
X31400Y-26350D01*
X30500Y-25650D02*
X30500Y-25000D01*
X36250Y-37700D02*
X36250Y-36800D01*
X36250Y-36800D02*
X36900Y-36800D01*
X37600Y-37700D02*
X38250Y-37700D01*
X38250Y-37700D02*
X38250Y-36800D01*
X38250Y-36800D02*
X37600Y-36800D01*
X36900Y-37700D02*
X36250Y-37700D01*
X38850Y-34500D02*
X37950Y-34500D01*
X37950Y-34500D02*
X37950Y-33850D01*
X38850Y-33150D02*
X38850Y-32500D01*
X38850Y-32500D02*
X37950Y-32500D01*
X37950Y-32500D02*
X37950Y-33150D01*
X38850Y-33850D02*
X38850Y-34500D01*
X42900Y-32300D02*
X42900Y-33200D01*
X42900Y-33200D02*
X42250Y-33200D01*
X41550Y-32300D02*
X40900Y-32300D01*
X40900Y-32300D02*
X40900Y-33200D01*
X40900Y-33200D02*
X41550Y-33200D01*
X42250Y-32300D02*
X42900Y-32300D01*
X44400Y-35300D02*
X44400Y-36200D01*
X44400Y-36200D02*
X43750Y-36200D01*
X43050Y-35300D02*
X42400Y-35300D01*
X42400Y-35300D02*
X42400Y-36200D01*
X42400Y-36200D02*
X43050Y-36200D01*
X43750Y-35300D02*
X44400Y-35300D01*
X61550Y-28250D02*
X62450Y-28250D01*
X62450Y-28250D02*
X62450Y-28900D01*
X61550Y-29600D02*
X61550Y-30250D01*
X61550Y-30250D02*
X62450Y-30250D01*
X62450Y-30250D02*
X62450Y-29600D01*
X61550Y-28900D02*
X61550Y-28250D01*
X61550Y-34600D02*
X60650Y-34600D01*
X60650Y-34600D02*
X60650Y-33950D01*
X61550Y-33250D02*
X61550Y-32600D01*
X61550Y-32600D02*
X60650Y-32600D01*
X60650Y-32600D02*
X60650Y-33250D01*
X61550Y-33950D02*
X61550Y-34600D01*
X63350Y-53450D02*
X63350Y-52550D01*
X63350Y-52550D02*
X64000Y-52550D01*
X64700Y-53450D02*
X65350Y-53450D01*
X65350Y-53450D02*
X65350Y-52550D01*
X65350Y-52550D02*
X64700Y-52550D01*
X64000Y-53450D02*
X63350Y-53450D01*
X46250Y-48050D02*
X46250Y-48950D01*
X46250Y-48950D02*
X45600Y-48950D01*
X44900Y-48050D02*
X44250Y-48050D01*
X44250Y-48050D02*
X44250Y-48950D01*
X44250Y-48950D02*
X44900Y-48950D01*
X45600Y-48050D02*
X46250Y-48050D01*
X47750Y-47050D02*
X47750Y-47950D01*
X47750Y-47950D02*
X47100Y-47950D01*
X46400Y-47050D02*
X45750Y-47050D01*
X45750Y-47050D02*
X45750Y-47950D01*
X45750Y-47950D02*
X46400Y-47950D01*
X47100Y-47050D02*
X47750Y-47050D01*
X32950Y-30200D02*
X32950Y-29300D01*
X32950Y-29300D02*
X33600Y-29300D01*
X34300Y-30200D02*
X34950Y-30200D01*
X34950Y-30200D02*
X34950Y-29300D01*
X34950Y-29300D02*
X34300Y-29300D01*
X33600Y-30200D02*
X32950Y-30200D01*
X43050Y-24900D02*
X43050Y-24000D01*
X43050Y-24000D02*
X43700Y-24000D01*
X44400Y-24900D02*
X45050Y-24900D01*
X45050Y-24900D02*
X45050Y-24000D01*
X45050Y-24000D02*
X44400Y-24000D01*
X43700Y-24900D02*
X43050Y-24900D01*
X44000Y-26150D02*
X44000Y-27050D01*
X44000Y-27050D02*
X43350Y-27050D01*
X42650Y-26150D02*
X42000Y-26150D01*
X42000Y-26150D02*
X42000Y-27050D01*
X42000Y-27050D02*
X42650Y-27050D01*
X43350Y-26150D02*
X44000Y-26150D01*
G54D12*
X65593Y-41645D02*
X66079Y-41645D01*
X66136Y-41664D01*
X66164Y-41683D01*
X66193Y-41721D01*
X66193Y-41798D01*
X66164Y-41836D01*
X66136Y-41855D01*
X66079Y-41874D01*
X65593Y-41874D01*
X65593Y-42026D02*
X65593Y-42274D01*
X65821Y-42140D01*
X65821Y-42198D01*
X65850Y-42236D01*
X65879Y-42255D01*
X65936Y-42274D01*
X66079Y-42274D01*
X66136Y-42255D01*
X66164Y-42236D01*
X66193Y-42198D01*
X66193Y-42083D01*
X66164Y-42045D01*
X66136Y-42026D01*
X66593Y-40702D02*
X66593Y-40969D01*
X67193Y-40797D01*
X66793Y-41293D02*
X67193Y-41293D01*
X66564Y-41197D02*
X66993Y-41102D01*
X66993Y-41350D01*
X67193Y-41693D02*
X67193Y-41502D01*
X66593Y-41502D01*
X67164Y-41807D02*
X67193Y-41864D01*
X67193Y-41960D01*
X67164Y-41998D01*
X67136Y-42017D01*
X67079Y-42036D01*
X67021Y-42036D01*
X66964Y-42017D01*
X66936Y-41998D01*
X66907Y-41960D01*
X66879Y-41883D01*
X66850Y-41845D01*
X66821Y-41826D01*
X66764Y-41807D01*
X66707Y-41807D01*
X66650Y-41826D01*
X66621Y-41845D01*
X66593Y-41883D01*
X66593Y-41979D01*
X66621Y-42036D01*
X66650Y-42188D02*
X66621Y-42207D01*
X66593Y-42245D01*
X66593Y-42341D01*
X66621Y-42379D01*
X66650Y-42398D01*
X66707Y-42417D01*
X66764Y-42417D01*
X66850Y-42398D01*
X67193Y-42169D01*
X67193Y-42417D01*
X66793Y-42760D02*
X67193Y-42760D01*
X66564Y-42664D02*
X66993Y-42569D01*
X66993Y-42817D01*
X66593Y-43160D02*
X66593Y-42969D01*
X66879Y-42950D01*
X66850Y-42969D01*
X66821Y-43007D01*
X66821Y-43103D01*
X66850Y-43141D01*
X66879Y-43160D01*
X66936Y-43179D01*
X67079Y-43179D01*
X67136Y-43160D01*
X67164Y-43141D01*
X67193Y-43103D01*
X67193Y-43007D01*
X67164Y-42969D01*
X67136Y-42950D01*
X65593Y-35745D02*
X66079Y-35745D01*
X66136Y-35764D01*
X66164Y-35783D01*
X66193Y-35821D01*
X66193Y-35898D01*
X66164Y-35936D01*
X66136Y-35955D01*
X66079Y-35974D01*
X65593Y-35974D01*
X65793Y-36336D02*
X66193Y-36336D01*
X65564Y-36240D02*
X65993Y-36145D01*
X65993Y-36393D01*
X66593Y-34802D02*
X66593Y-35069D01*
X67193Y-34897D01*
X66793Y-35393D02*
X67193Y-35393D01*
X66564Y-35297D02*
X66993Y-35202D01*
X66993Y-35450D01*
X67193Y-35793D02*
X67193Y-35602D01*
X66593Y-35602D01*
X67164Y-35907D02*
X67193Y-35964D01*
X67193Y-36060D01*
X67164Y-36098D01*
X67136Y-36117D01*
X67079Y-36136D01*
X67021Y-36136D01*
X66964Y-36117D01*
X66936Y-36098D01*
X66907Y-36060D01*
X66879Y-35983D01*
X66850Y-35945D01*
X66821Y-35926D01*
X66764Y-35907D01*
X66707Y-35907D01*
X66650Y-35926D01*
X66621Y-35945D01*
X66593Y-35983D01*
X66593Y-36079D01*
X66621Y-36136D01*
X66650Y-36288D02*
X66621Y-36307D01*
X66593Y-36345D01*
X66593Y-36441D01*
X66621Y-36479D01*
X66650Y-36498D01*
X66707Y-36517D01*
X66764Y-36517D01*
X66850Y-36498D01*
X67193Y-36269D01*
X67193Y-36517D01*
X66793Y-36860D02*
X67193Y-36860D01*
X66564Y-36764D02*
X66993Y-36669D01*
X66993Y-36917D01*
X66593Y-37260D02*
X66593Y-37069D01*
X66879Y-37050D01*
X66850Y-37069D01*
X66821Y-37107D01*
X66821Y-37203D01*
X66850Y-37241D01*
X66879Y-37260D01*
X66936Y-37279D01*
X67079Y-37279D01*
X67136Y-37260D01*
X67164Y-37241D01*
X67193Y-37203D01*
X67193Y-37107D01*
X67164Y-37069D01*
X67136Y-37050D01*
X65593Y-47345D02*
X66079Y-47345D01*
X66136Y-47364D01*
X66164Y-47383D01*
X66193Y-47421D01*
X66193Y-47498D01*
X66164Y-47536D01*
X66136Y-47555D01*
X66079Y-47574D01*
X65593Y-47574D01*
X65593Y-47955D02*
X65593Y-47764D01*
X65879Y-47745D01*
X65850Y-47764D01*
X65821Y-47802D01*
X65821Y-47898D01*
X65850Y-47936D01*
X65879Y-47955D01*
X65936Y-47974D01*
X66079Y-47974D01*
X66136Y-47955D01*
X66164Y-47936D01*
X66193Y-47898D01*
X66193Y-47802D01*
X66164Y-47764D01*
X66136Y-47745D01*
X66593Y-46402D02*
X66593Y-46669D01*
X67193Y-46497D01*
X66793Y-46993D02*
X67193Y-46993D01*
X66564Y-46897D02*
X66993Y-46802D01*
X66993Y-47050D01*
X67193Y-47393D02*
X67193Y-47202D01*
X66593Y-47202D01*
X67164Y-47507D02*
X67193Y-47564D01*
X67193Y-47660D01*
X67164Y-47698D01*
X67136Y-47717D01*
X67079Y-47736D01*
X67021Y-47736D01*
X66964Y-47717D01*
X66936Y-47698D01*
X66907Y-47660D01*
X66879Y-47583D01*
X66850Y-47545D01*
X66821Y-47526D01*
X66764Y-47507D01*
X66707Y-47507D01*
X66650Y-47526D01*
X66621Y-47545D01*
X66593Y-47583D01*
X66593Y-47679D01*
X66621Y-47736D01*
X66650Y-47888D02*
X66621Y-47907D01*
X66593Y-47945D01*
X66593Y-48041D01*
X66621Y-48079D01*
X66650Y-48098D01*
X66707Y-48117D01*
X66764Y-48117D01*
X66850Y-48098D01*
X67193Y-47869D01*
X67193Y-48117D01*
X66793Y-48460D02*
X67193Y-48460D01*
X66564Y-48364D02*
X66993Y-48269D01*
X66993Y-48517D01*
X66593Y-48860D02*
X66593Y-48669D01*
X66879Y-48650D01*
X66850Y-48669D01*
X66821Y-48707D01*
X66821Y-48803D01*
X66850Y-48841D01*
X66879Y-48860D01*
X66936Y-48879D01*
X67079Y-48879D01*
X67136Y-48860D01*
X67164Y-48841D01*
X67193Y-48803D01*
X67193Y-48707D01*
X67164Y-48669D01*
X67136Y-48650D01*
G54D13*
X31379Y-49750D02*
X31407Y-49736D01*
X31436Y-49707D01*
X31479Y-49664D01*
X31507Y-49650D01*
X31536Y-49650D01*
X31521Y-49721D02*
X31550Y-49707D01*
X31579Y-49679D01*
X31593Y-49621D01*
X31593Y-49521D01*
X31579Y-49464D01*
X31550Y-49436D01*
X31521Y-49421D01*
X31464Y-49421D01*
X31436Y-49436D01*
X31407Y-49464D01*
X31393Y-49521D01*
X31393Y-49621D01*
X31407Y-49679D01*
X31436Y-49707D01*
X31464Y-49721D01*
X31521Y-49721D01*
X31107Y-49721D02*
X31279Y-49721D01*
X31193Y-49721D02*
X31193Y-49421D01*
X31222Y-49464D01*
X31250Y-49493D01*
X31279Y-49507D01*
X29579Y-36450D02*
X29607Y-36436D01*
X29636Y-36407D01*
X29679Y-36364D01*
X29707Y-36350D01*
X29736Y-36350D01*
X29721Y-36421D02*
X29750Y-36407D01*
X29779Y-36379D01*
X29793Y-36321D01*
X29793Y-36221D01*
X29779Y-36164D01*
X29750Y-36136D01*
X29721Y-36121D01*
X29664Y-36121D01*
X29636Y-36136D01*
X29607Y-36164D01*
X29593Y-36221D01*
X29593Y-36321D01*
X29607Y-36379D01*
X29636Y-36407D01*
X29664Y-36421D01*
X29721Y-36421D01*
X29493Y-36121D02*
X29307Y-36121D01*
X29407Y-36236D01*
X29365Y-36236D01*
X29336Y-36250D01*
X29322Y-36264D01*
X29307Y-36293D01*
X29307Y-36364D01*
X29322Y-36393D01*
X29336Y-36407D01*
X29365Y-36421D01*
X29450Y-36421D01*
X29479Y-36407D01*
X29493Y-36393D01*
X29579Y-49750D02*
X29607Y-49736D01*
X29636Y-49707D01*
X29679Y-49664D01*
X29707Y-49650D01*
X29736Y-49650D01*
X29721Y-49721D02*
X29750Y-49707D01*
X29779Y-49679D01*
X29793Y-49621D01*
X29793Y-49521D01*
X29779Y-49464D01*
X29750Y-49436D01*
X29721Y-49421D01*
X29664Y-49421D01*
X29636Y-49436D01*
X29607Y-49464D01*
X29593Y-49521D01*
X29593Y-49621D01*
X29607Y-49679D01*
X29636Y-49707D01*
X29664Y-49721D01*
X29721Y-49721D01*
X29479Y-49450D02*
X29465Y-49436D01*
X29436Y-49421D01*
X29365Y-49421D01*
X29336Y-49436D01*
X29322Y-49450D01*
X29307Y-49479D01*
X29307Y-49507D01*
X29322Y-49550D01*
X29493Y-49721D01*
X29307Y-49721D01*
G54D11*
X30061Y-39627D02*
X30073Y-39639D01*
X30108Y-39651D01*
X30132Y-39651D01*
X30168Y-39639D01*
X30192Y-39615D01*
X30203Y-39592D01*
X30215Y-39544D01*
X30215Y-39508D01*
X30203Y-39461D01*
X30192Y-39437D01*
X30168Y-39413D01*
X30132Y-39401D01*
X30108Y-39401D01*
X30073Y-39413D01*
X30061Y-39425D01*
X29834Y-39401D02*
X29953Y-39401D01*
X29965Y-39520D01*
X29953Y-39508D01*
X29930Y-39496D01*
X29870Y-39496D01*
X29846Y-39508D01*
X29834Y-39520D01*
X29823Y-39544D01*
X29823Y-39604D01*
X29834Y-39627D01*
X29846Y-39639D01*
X29870Y-39651D01*
X29930Y-39651D01*
X29953Y-39639D01*
X29965Y-39627D01*
X29596Y-39401D02*
X29715Y-39401D01*
X29727Y-39520D01*
X29715Y-39508D01*
X29692Y-39496D01*
X29632Y-39496D01*
X29608Y-39508D01*
X29596Y-39520D01*
X29585Y-39544D01*
X29585Y-39604D01*
X29596Y-39627D01*
X29608Y-39639D01*
X29632Y-39651D01*
X29692Y-39651D01*
X29715Y-39639D01*
X29727Y-39627D01*
X140327Y-25889D02*
X140339Y-25877D01*
X140351Y-25842D01*
X140351Y-25818D01*
X140339Y-25782D01*
X140315Y-25758D01*
X140292Y-25747D01*
X140244Y-25735D01*
X140208Y-25735D01*
X140161Y-25747D01*
X140137Y-25758D01*
X140113Y-25782D01*
X140101Y-25818D01*
X140101Y-25842D01*
X140113Y-25877D01*
X140125Y-25889D01*
X140101Y-26104D02*
X140101Y-26056D01*
X140113Y-26032D01*
X140125Y-26020D01*
X140161Y-25997D01*
X140208Y-25985D01*
X140304Y-25985D01*
X140327Y-25997D01*
X140339Y-26008D01*
X140351Y-26032D01*
X140351Y-26080D01*
X140339Y-26104D01*
X140327Y-26116D01*
X140304Y-26127D01*
X140244Y-26127D01*
X140220Y-26116D01*
X140208Y-26104D01*
X140196Y-26080D01*
X140196Y-26032D01*
X140208Y-26008D01*
X140220Y-25997D01*
X140244Y-25985D01*
X140125Y-26223D02*
X140113Y-26235D01*
X140101Y-26258D01*
X140101Y-26318D01*
X140113Y-26342D01*
X140125Y-26354D01*
X140149Y-26365D01*
X140173Y-26365D01*
X140208Y-26354D01*
X140351Y-26211D01*
X140351Y-26365D01*
X136077Y-42589D02*
X136089Y-42577D01*
X136101Y-42542D01*
X136101Y-42518D01*
X136089Y-42482D01*
X136065Y-42458D01*
X136042Y-42447D01*
X135994Y-42435D01*
X135958Y-42435D01*
X135911Y-42447D01*
X135887Y-42458D01*
X135863Y-42482D01*
X135851Y-42518D01*
X135851Y-42542D01*
X135863Y-42577D01*
X135875Y-42589D01*
X135851Y-42816D02*
X135851Y-42697D01*
X135970Y-42685D01*
X135958Y-42697D01*
X135946Y-42720D01*
X135946Y-42780D01*
X135958Y-42804D01*
X135970Y-42816D01*
X135994Y-42827D01*
X136054Y-42827D01*
X136077Y-42816D01*
X136089Y-42804D01*
X136101Y-42780D01*
X136101Y-42720D01*
X136089Y-42697D01*
X136077Y-42685D01*
X136101Y-43065D02*
X136101Y-42923D01*
X136101Y-42994D02*
X135851Y-42994D01*
X135887Y-42970D01*
X135911Y-42946D01*
X135923Y-42923D01*
X33311Y-34927D02*
X33323Y-34939D01*
X33358Y-34951D01*
X33382Y-34951D01*
X33418Y-34939D01*
X33442Y-34915D01*
X33453Y-34892D01*
X33465Y-34844D01*
X33465Y-34808D01*
X33453Y-34761D01*
X33442Y-34737D01*
X33418Y-34713D01*
X33382Y-34701D01*
X33358Y-34701D01*
X33323Y-34713D01*
X33311Y-34725D01*
X33096Y-34701D02*
X33144Y-34701D01*
X33168Y-34713D01*
X33180Y-34725D01*
X33203Y-34761D01*
X33215Y-34808D01*
X33215Y-34904D01*
X33203Y-34927D01*
X33192Y-34939D01*
X33168Y-34951D01*
X33120Y-34951D01*
X33096Y-34939D01*
X33084Y-34927D01*
X33073Y-34904D01*
X33073Y-34844D01*
X33084Y-34820D01*
X33096Y-34808D01*
X33120Y-34796D01*
X33168Y-34796D01*
X33192Y-34808D01*
X33203Y-34820D01*
X33215Y-34844D01*
X32858Y-34785D02*
X32858Y-34951D01*
X32918Y-34689D02*
X32977Y-34868D01*
X32823Y-34868D01*
X58577Y-23989D02*
X58589Y-23977D01*
X58601Y-23942D01*
X58601Y-23918D01*
X58589Y-23882D01*
X58565Y-23858D01*
X58542Y-23847D01*
X58494Y-23835D01*
X58458Y-23835D01*
X58411Y-23847D01*
X58387Y-23858D01*
X58363Y-23882D01*
X58351Y-23918D01*
X58351Y-23942D01*
X58363Y-23977D01*
X58375Y-23989D01*
X58351Y-24216D02*
X58351Y-24097D01*
X58470Y-24085D01*
X58458Y-24097D01*
X58446Y-24120D01*
X58446Y-24180D01*
X58458Y-24204D01*
X58470Y-24216D01*
X58494Y-24227D01*
X58554Y-24227D01*
X58577Y-24216D01*
X58589Y-24204D01*
X58601Y-24180D01*
X58601Y-24120D01*
X58589Y-24097D01*
X58577Y-24085D01*
X58351Y-24311D02*
X58351Y-24477D01*
X58601Y-24370D01*
X135477Y-47239D02*
X135489Y-47227D01*
X135501Y-47192D01*
X135501Y-47168D01*
X135489Y-47132D01*
X135465Y-47108D01*
X135442Y-47097D01*
X135394Y-47085D01*
X135358Y-47085D01*
X135311Y-47097D01*
X135287Y-47108D01*
X135263Y-47132D01*
X135251Y-47168D01*
X135251Y-47192D01*
X135263Y-47227D01*
X135275Y-47239D01*
X135335Y-47454D02*
X135501Y-47454D01*
X135239Y-47394D02*
X135418Y-47335D01*
X135418Y-47489D01*
X135275Y-47573D02*
X135263Y-47585D01*
X135251Y-47608D01*
X135251Y-47668D01*
X135263Y-47692D01*
X135275Y-47704D01*
X135299Y-47715D01*
X135323Y-47715D01*
X135358Y-47704D01*
X135501Y-47561D01*
X135501Y-47715D01*
X59106Y-51807D02*
X59123Y-51793D01*
X59140Y-51750D01*
X59140Y-51721D01*
X59123Y-51678D01*
X59090Y-51650D01*
X59056Y-51635D01*
X58990Y-51621D01*
X58940Y-51621D01*
X58873Y-51635D01*
X58840Y-51650D01*
X58806Y-51678D01*
X58790Y-51721D01*
X58790Y-51750D01*
X58806Y-51793D01*
X58823Y-51807D01*
X58790Y-51907D02*
X58790Y-52093D01*
X58923Y-51993D01*
X58923Y-52035D01*
X58940Y-52064D01*
X58956Y-52078D01*
X58990Y-52093D01*
X59073Y-52093D01*
X59106Y-52078D01*
X59123Y-52064D01*
X59140Y-52035D01*
X59140Y-51950D01*
X59123Y-51921D01*
X59106Y-51907D01*
X58940Y-52264D02*
X58923Y-52236D01*
X58906Y-52221D01*
X58873Y-52207D01*
X58856Y-52207D01*
X58823Y-52221D01*
X58806Y-52236D01*
X58790Y-52264D01*
X58790Y-52321D01*
X58806Y-52350D01*
X58823Y-52364D01*
X58856Y-52379D01*
X58873Y-52379D01*
X58906Y-52364D01*
X58923Y-52350D01*
X58940Y-52321D01*
X58940Y-52264D01*
X58956Y-52236D01*
X58973Y-52221D01*
X59006Y-52207D01*
X59073Y-52207D01*
X59106Y-52221D01*
X59123Y-52236D01*
X59140Y-52264D01*
X59140Y-52321D01*
X59123Y-52350D01*
X59106Y-52364D01*
X59073Y-52379D01*
X59006Y-52379D01*
X58973Y-52364D01*
X58956Y-52350D01*
X58940Y-52321D01*
X58408Y-51579D02*
X58642Y-51579D01*
X58275Y-51508D02*
X58525Y-51436D01*
X58525Y-51622D01*
X58625Y-51751D02*
X58642Y-51751D01*
X58675Y-51736D01*
X58692Y-51722D01*
X58292Y-51851D02*
X58292Y-52051D01*
X58642Y-51922D01*
X58408Y-52294D02*
X58642Y-52294D01*
X58408Y-52165D02*
X58592Y-52165D01*
X58625Y-52180D01*
X58642Y-52208D01*
X58642Y-52251D01*
X58625Y-52280D01*
X58608Y-52294D01*
X58458Y-52536D02*
X58458Y-52436D01*
X58642Y-52436D02*
X58292Y-52436D01*
X58292Y-52579D01*
X49360Y-33307D02*
X49377Y-33293D01*
X49394Y-33250D01*
X49394Y-33221D01*
X49377Y-33178D01*
X49344Y-33150D01*
X49310Y-33135D01*
X49244Y-33121D01*
X49194Y-33121D01*
X49127Y-33135D01*
X49094Y-33150D01*
X49060Y-33178D01*
X49044Y-33221D01*
X49044Y-33250D01*
X49060Y-33293D01*
X49077Y-33307D01*
X49044Y-33578D02*
X49044Y-33435D01*
X49210Y-33421D01*
X49194Y-33435D01*
X49177Y-33464D01*
X49177Y-33535D01*
X49194Y-33564D01*
X49210Y-33578D01*
X49244Y-33593D01*
X49327Y-33593D01*
X49360Y-33578D01*
X49377Y-33564D01*
X49394Y-33535D01*
X49394Y-33464D01*
X49377Y-33435D01*
X49360Y-33421D01*
X49044Y-33850D02*
X49044Y-33793D01*
X49060Y-33764D01*
X49077Y-33750D01*
X49127Y-33721D01*
X49194Y-33707D01*
X49327Y-33707D01*
X49360Y-33721D01*
X49377Y-33736D01*
X49394Y-33764D01*
X49394Y-33821D01*
X49377Y-33850D01*
X49360Y-33864D01*
X49327Y-33879D01*
X49244Y-33879D01*
X49210Y-33864D01*
X49194Y-33850D01*
X49177Y-33821D01*
X49177Y-33764D01*
X49194Y-33736D01*
X49210Y-33721D01*
X49244Y-33707D01*
X49658Y-33079D02*
X49892Y-33079D01*
X49525Y-33008D02*
X49775Y-32936D01*
X49775Y-33122D01*
X49875Y-33251D02*
X49892Y-33251D01*
X49925Y-33236D01*
X49942Y-33222D01*
X49542Y-33351D02*
X49542Y-33551D01*
X49892Y-33422D01*
X49658Y-33794D02*
X49892Y-33794D01*
X49658Y-33665D02*
X49842Y-33665D01*
X49875Y-33680D01*
X49892Y-33708D01*
X49892Y-33751D01*
X49875Y-33780D01*
X49858Y-33794D01*
X49708Y-34036D02*
X49708Y-33936D01*
X49892Y-33936D02*
X49542Y-33936D01*
X49542Y-34079D01*
X125778Y-47343D02*
X125788Y-47357D01*
X125816Y-47371D01*
X125835Y-47371D01*
X125864Y-47357D01*
X125883Y-47329D01*
X125892Y-47300D01*
X125902Y-47243D01*
X125902Y-47200D01*
X125892Y-47143D01*
X125883Y-47114D01*
X125864Y-47086D01*
X125835Y-47071D01*
X125816Y-47071D01*
X125788Y-47086D01*
X125778Y-47100D01*
X125711Y-47071D02*
X125588Y-47071D01*
X125654Y-47186D01*
X125626Y-47186D01*
X125607Y-47200D01*
X125597Y-47214D01*
X125588Y-47243D01*
X125588Y-47314D01*
X125597Y-47343D01*
X125607Y-47357D01*
X125626Y-47371D01*
X125683Y-47371D01*
X125702Y-47357D01*
X125711Y-47343D01*
X125521Y-47071D02*
X125388Y-47071D01*
X125474Y-47371D01*
X29278Y-33693D02*
X29288Y-33707D01*
X29316Y-33721D01*
X29335Y-33721D01*
X29364Y-33707D01*
X29383Y-33679D01*
X29392Y-33650D01*
X29402Y-33593D01*
X29402Y-33550D01*
X29392Y-33493D01*
X29383Y-33464D01*
X29364Y-33436D01*
X29335Y-33421D01*
X29316Y-33421D01*
X29288Y-33436D01*
X29278Y-33450D01*
X29107Y-33521D02*
X29107Y-33721D01*
X29154Y-33407D02*
X29202Y-33621D01*
X29078Y-33621D01*
X28917Y-33521D02*
X28917Y-33721D01*
X28964Y-33407D02*
X29012Y-33621D01*
X28888Y-33621D01*
X123728Y-47343D02*
X123738Y-47357D01*
X123766Y-47371D01*
X123785Y-47371D01*
X123814Y-47357D01*
X123833Y-47329D01*
X123842Y-47300D01*
X123852Y-47243D01*
X123852Y-47200D01*
X123842Y-47143D01*
X123833Y-47114D01*
X123814Y-47086D01*
X123785Y-47071D01*
X123766Y-47071D01*
X123738Y-47086D01*
X123728Y-47100D01*
X123661Y-47071D02*
X123538Y-47071D01*
X123604Y-47186D01*
X123576Y-47186D01*
X123557Y-47200D01*
X123547Y-47214D01*
X123538Y-47243D01*
X123538Y-47314D01*
X123547Y-47343D01*
X123557Y-47357D01*
X123576Y-47371D01*
X123633Y-47371D01*
X123652Y-47357D01*
X123661Y-47343D01*
X123367Y-47071D02*
X123405Y-47071D01*
X123424Y-47086D01*
X123433Y-47100D01*
X123452Y-47143D01*
X123462Y-47200D01*
X123462Y-47314D01*
X123452Y-47343D01*
X123443Y-47357D01*
X123424Y-47371D01*
X123386Y-47371D01*
X123367Y-47357D01*
X123357Y-47343D01*
X123348Y-47314D01*
X123348Y-47243D01*
X123357Y-47214D01*
X123367Y-47200D01*
X123386Y-47186D01*
X123424Y-47186D01*
X123443Y-47200D01*
X123452Y-47214D01*
X123462Y-47243D01*
X31243Y-32522D02*
X31257Y-32512D01*
X31271Y-32484D01*
X31271Y-32465D01*
X31257Y-32436D01*
X31229Y-32417D01*
X31200Y-32408D01*
X31143Y-32398D01*
X31100Y-32398D01*
X31043Y-32408D01*
X31014Y-32417D01*
X30986Y-32436D01*
X30971Y-32465D01*
X30971Y-32484D01*
X30986Y-32512D01*
X31000Y-32522D01*
X31071Y-32693D02*
X31271Y-32693D01*
X30957Y-32646D02*
X31171Y-32598D01*
X31171Y-32722D01*
X31100Y-32826D02*
X31086Y-32807D01*
X31071Y-32798D01*
X31043Y-32788D01*
X31029Y-32788D01*
X31000Y-32798D01*
X30986Y-32807D01*
X30971Y-32826D01*
X30971Y-32864D01*
X30986Y-32883D01*
X31000Y-32893D01*
X31029Y-32902D01*
X31043Y-32902D01*
X31071Y-32893D01*
X31086Y-32883D01*
X31100Y-32864D01*
X31100Y-32826D01*
X31114Y-32807D01*
X31129Y-32798D01*
X31157Y-32788D01*
X31214Y-32788D01*
X31243Y-32798D01*
X31257Y-32807D01*
X31271Y-32826D01*
X31271Y-32864D01*
X31257Y-32883D01*
X31243Y-32893D01*
X31214Y-32902D01*
X31157Y-32902D01*
X31129Y-32893D01*
X31114Y-32883D01*
X31100Y-32864D01*
X31243Y-34522D02*
X31257Y-34512D01*
X31271Y-34484D01*
X31271Y-34465D01*
X31257Y-34436D01*
X31229Y-34417D01*
X31200Y-34408D01*
X31143Y-34398D01*
X31100Y-34398D01*
X31043Y-34408D01*
X31014Y-34417D01*
X30986Y-34436D01*
X30971Y-34465D01*
X30971Y-34484D01*
X30986Y-34512D01*
X31000Y-34522D01*
X31071Y-34693D02*
X31271Y-34693D01*
X30957Y-34646D02*
X31171Y-34598D01*
X31171Y-34722D01*
X30971Y-34779D02*
X30971Y-34902D01*
X31086Y-34836D01*
X31086Y-34864D01*
X31100Y-34883D01*
X31114Y-34893D01*
X31143Y-34902D01*
X31214Y-34902D01*
X31243Y-34893D01*
X31257Y-34883D01*
X31271Y-34864D01*
X31271Y-34807D01*
X31257Y-34788D01*
X31243Y-34779D01*
X31743Y-43922D02*
X31757Y-43912D01*
X31771Y-43884D01*
X31771Y-43865D01*
X31757Y-43836D01*
X31729Y-43817D01*
X31700Y-43808D01*
X31643Y-43798D01*
X31600Y-43798D01*
X31543Y-43808D01*
X31514Y-43817D01*
X31486Y-43836D01*
X31471Y-43865D01*
X31471Y-43884D01*
X31486Y-43912D01*
X31500Y-43922D01*
X31471Y-44103D02*
X31471Y-44008D01*
X31614Y-43998D01*
X31600Y-44008D01*
X31586Y-44027D01*
X31586Y-44074D01*
X31600Y-44093D01*
X31614Y-44103D01*
X31643Y-44112D01*
X31714Y-44112D01*
X31743Y-44103D01*
X31757Y-44093D01*
X31771Y-44074D01*
X31771Y-44027D01*
X31757Y-44008D01*
X31743Y-43998D01*
X31471Y-44179D02*
X31471Y-44302D01*
X31586Y-44236D01*
X31586Y-44264D01*
X31600Y-44283D01*
X31614Y-44293D01*
X31643Y-44302D01*
X31714Y-44302D01*
X31743Y-44293D01*
X31757Y-44283D01*
X31771Y-44264D01*
X31771Y-44207D01*
X31757Y-44188D01*
X31743Y-44179D01*
X31243Y-33522D02*
X31257Y-33512D01*
X31271Y-33484D01*
X31271Y-33465D01*
X31257Y-33436D01*
X31229Y-33417D01*
X31200Y-33408D01*
X31143Y-33398D01*
X31100Y-33398D01*
X31043Y-33408D01*
X31014Y-33417D01*
X30986Y-33436D01*
X30971Y-33465D01*
X30971Y-33484D01*
X30986Y-33512D01*
X31000Y-33522D01*
X31071Y-33693D02*
X31271Y-33693D01*
X30957Y-33646D02*
X31171Y-33598D01*
X31171Y-33722D01*
X30971Y-33893D02*
X30971Y-33798D01*
X31114Y-33788D01*
X31100Y-33798D01*
X31086Y-33817D01*
X31086Y-33864D01*
X31100Y-33883D01*
X31114Y-33893D01*
X31143Y-33902D01*
X31214Y-33902D01*
X31243Y-33893D01*
X31257Y-33883D01*
X31271Y-33864D01*
X31271Y-33817D01*
X31257Y-33798D01*
X31243Y-33788D01*
X139443Y-51722D02*
X139457Y-51712D01*
X139471Y-51684D01*
X139471Y-51665D01*
X139457Y-51636D01*
X139429Y-51617D01*
X139400Y-51608D01*
X139343Y-51598D01*
X139300Y-51598D01*
X139243Y-51608D01*
X139214Y-51617D01*
X139186Y-51636D01*
X139171Y-51665D01*
X139171Y-51684D01*
X139186Y-51712D01*
X139200Y-51722D01*
X139171Y-51789D02*
X139171Y-51912D01*
X139286Y-51846D01*
X139286Y-51874D01*
X139300Y-51893D01*
X139314Y-51903D01*
X139343Y-51912D01*
X139414Y-51912D01*
X139443Y-51903D01*
X139457Y-51893D01*
X139471Y-51874D01*
X139471Y-51817D01*
X139457Y-51798D01*
X139443Y-51789D01*
X139171Y-52093D02*
X139171Y-51998D01*
X139314Y-51988D01*
X139300Y-51998D01*
X139286Y-52017D01*
X139286Y-52064D01*
X139300Y-52083D01*
X139314Y-52093D01*
X139343Y-52102D01*
X139414Y-52102D01*
X139443Y-52093D01*
X139457Y-52083D01*
X139471Y-52064D01*
X139471Y-52017D01*
X139457Y-51998D01*
X139443Y-51988D01*
X31743Y-45122D02*
X31757Y-45112D01*
X31771Y-45084D01*
X31771Y-45065D01*
X31757Y-45036D01*
X31729Y-45017D01*
X31700Y-45008D01*
X31643Y-44998D01*
X31600Y-44998D01*
X31543Y-45008D01*
X31514Y-45017D01*
X31486Y-45036D01*
X31471Y-45065D01*
X31471Y-45084D01*
X31486Y-45112D01*
X31500Y-45122D01*
X31571Y-45293D02*
X31771Y-45293D01*
X31457Y-45246D02*
X31671Y-45198D01*
X31671Y-45322D01*
X31471Y-45483D02*
X31471Y-45445D01*
X31486Y-45426D01*
X31500Y-45417D01*
X31543Y-45398D01*
X31600Y-45388D01*
X31714Y-45388D01*
X31743Y-45398D01*
X31757Y-45407D01*
X31771Y-45426D01*
X31771Y-45464D01*
X31757Y-45483D01*
X31743Y-45493D01*
X31714Y-45502D01*
X31643Y-45502D01*
X31614Y-45493D01*
X31600Y-45483D01*
X31586Y-45464D01*
X31586Y-45426D01*
X31600Y-45407D01*
X31614Y-45398D01*
X31643Y-45388D01*
X32443Y-37922D02*
X32457Y-37912D01*
X32471Y-37884D01*
X32471Y-37865D01*
X32457Y-37836D01*
X32429Y-37817D01*
X32400Y-37808D01*
X32343Y-37798D01*
X32300Y-37798D01*
X32243Y-37808D01*
X32214Y-37817D01*
X32186Y-37836D01*
X32171Y-37865D01*
X32171Y-37884D01*
X32186Y-37912D01*
X32200Y-37922D01*
X32171Y-38103D02*
X32171Y-38008D01*
X32314Y-37998D01*
X32300Y-38008D01*
X32286Y-38027D01*
X32286Y-38074D01*
X32300Y-38093D01*
X32314Y-38103D01*
X32343Y-38112D01*
X32414Y-38112D01*
X32443Y-38103D01*
X32457Y-38093D01*
X32471Y-38074D01*
X32471Y-38027D01*
X32457Y-38008D01*
X32443Y-37998D01*
X32471Y-38207D02*
X32471Y-38245D01*
X32457Y-38264D01*
X32443Y-38274D01*
X32400Y-38293D01*
X32343Y-38302D01*
X32229Y-38302D01*
X32200Y-38293D01*
X32186Y-38283D01*
X32171Y-38264D01*
X32171Y-38226D01*
X32186Y-38207D01*
X32200Y-38198D01*
X32229Y-38188D01*
X32300Y-38188D01*
X32329Y-38198D01*
X32343Y-38207D01*
X32357Y-38226D01*
X32357Y-38264D01*
X32343Y-38283D01*
X32329Y-38293D01*
X32300Y-38302D01*
X135443Y-46172D02*
X135457Y-46162D01*
X135471Y-46134D01*
X135471Y-46115D01*
X135457Y-46086D01*
X135429Y-46067D01*
X135400Y-46058D01*
X135343Y-46048D01*
X135300Y-46048D01*
X135243Y-46058D01*
X135214Y-46067D01*
X135186Y-46086D01*
X135171Y-46115D01*
X135171Y-46134D01*
X135186Y-46162D01*
X135200Y-46172D01*
X135171Y-46239D02*
X135171Y-46362D01*
X135286Y-46296D01*
X135286Y-46324D01*
X135300Y-46343D01*
X135314Y-46353D01*
X135343Y-46362D01*
X135414Y-46362D01*
X135443Y-46353D01*
X135457Y-46343D01*
X135471Y-46324D01*
X135471Y-46267D01*
X135457Y-46248D01*
X135443Y-46239D01*
X135271Y-46533D02*
X135471Y-46533D01*
X135157Y-46486D02*
X135371Y-46438D01*
X135371Y-46562D01*
X136043Y-43872D02*
X136057Y-43862D01*
X136071Y-43834D01*
X136071Y-43815D01*
X136057Y-43786D01*
X136029Y-43767D01*
X136000Y-43758D01*
X135943Y-43748D01*
X135900Y-43748D01*
X135843Y-43758D01*
X135814Y-43767D01*
X135786Y-43786D01*
X135771Y-43815D01*
X135771Y-43834D01*
X135786Y-43862D01*
X135800Y-43872D01*
X135771Y-43939D02*
X135771Y-44062D01*
X135886Y-43996D01*
X135886Y-44024D01*
X135900Y-44043D01*
X135914Y-44053D01*
X135943Y-44062D01*
X136014Y-44062D01*
X136043Y-44053D01*
X136057Y-44043D01*
X136071Y-44024D01*
X136071Y-43967D01*
X136057Y-43948D01*
X136043Y-43939D01*
X135771Y-44129D02*
X135771Y-44252D01*
X135886Y-44186D01*
X135886Y-44214D01*
X135900Y-44233D01*
X135914Y-44243D01*
X135943Y-44252D01*
X136014Y-44252D01*
X136043Y-44243D01*
X136057Y-44233D01*
X136071Y-44214D01*
X136071Y-44157D01*
X136057Y-44138D01*
X136043Y-44129D01*
X138443Y-36522D02*
X138457Y-36512D01*
X138471Y-36484D01*
X138471Y-36465D01*
X138457Y-36436D01*
X138429Y-36417D01*
X138400Y-36408D01*
X138343Y-36398D01*
X138300Y-36398D01*
X138243Y-36408D01*
X138214Y-36417D01*
X138186Y-36436D01*
X138171Y-36465D01*
X138171Y-36484D01*
X138186Y-36512D01*
X138200Y-36522D01*
X138171Y-36693D02*
X138171Y-36655D01*
X138186Y-36636D01*
X138200Y-36627D01*
X138243Y-36608D01*
X138300Y-36598D01*
X138414Y-36598D01*
X138443Y-36608D01*
X138457Y-36617D01*
X138471Y-36636D01*
X138471Y-36674D01*
X138457Y-36693D01*
X138443Y-36703D01*
X138414Y-36712D01*
X138343Y-36712D01*
X138314Y-36703D01*
X138300Y-36693D01*
X138286Y-36674D01*
X138286Y-36636D01*
X138300Y-36617D01*
X138314Y-36608D01*
X138343Y-36598D01*
X138171Y-36893D02*
X138171Y-36798D01*
X138314Y-36788D01*
X138300Y-36798D01*
X138286Y-36817D01*
X138286Y-36864D01*
X138300Y-36883D01*
X138314Y-36893D01*
X138343Y-36902D01*
X138414Y-36902D01*
X138443Y-36893D01*
X138457Y-36883D01*
X138471Y-36864D01*
X138471Y-36817D01*
X138457Y-36798D01*
X138443Y-36788D01*
X138443Y-37622D02*
X138457Y-37612D01*
X138471Y-37584D01*
X138471Y-37565D01*
X138457Y-37536D01*
X138429Y-37517D01*
X138400Y-37508D01*
X138343Y-37498D01*
X138300Y-37498D01*
X138243Y-37508D01*
X138214Y-37517D01*
X138186Y-37536D01*
X138171Y-37565D01*
X138171Y-37584D01*
X138186Y-37612D01*
X138200Y-37622D01*
X138171Y-37793D02*
X138171Y-37755D01*
X138186Y-37736D01*
X138200Y-37727D01*
X138243Y-37708D01*
X138300Y-37698D01*
X138414Y-37698D01*
X138443Y-37708D01*
X138457Y-37717D01*
X138471Y-37736D01*
X138471Y-37774D01*
X138457Y-37793D01*
X138443Y-37803D01*
X138414Y-37812D01*
X138343Y-37812D01*
X138314Y-37803D01*
X138300Y-37793D01*
X138286Y-37774D01*
X138286Y-37736D01*
X138300Y-37717D01*
X138314Y-37708D01*
X138343Y-37698D01*
X138171Y-37983D02*
X138171Y-37945D01*
X138186Y-37926D01*
X138200Y-37917D01*
X138243Y-37898D01*
X138300Y-37888D01*
X138414Y-37888D01*
X138443Y-37898D01*
X138457Y-37907D01*
X138471Y-37926D01*
X138471Y-37964D01*
X138457Y-37983D01*
X138443Y-37993D01*
X138414Y-38002D01*
X138343Y-38002D01*
X138314Y-37993D01*
X138300Y-37983D01*
X138286Y-37964D01*
X138286Y-37926D01*
X138300Y-37907D01*
X138314Y-37898D01*
X138343Y-37888D01*
X51343Y-24122D02*
X51357Y-24112D01*
X51371Y-24084D01*
X51371Y-24065D01*
X51357Y-24036D01*
X51329Y-24017D01*
X51300Y-24008D01*
X51243Y-23998D01*
X51200Y-23998D01*
X51143Y-24008D01*
X51114Y-24017D01*
X51086Y-24036D01*
X51071Y-24065D01*
X51071Y-24084D01*
X51086Y-24112D01*
X51100Y-24122D01*
X51100Y-24198D02*
X51086Y-24208D01*
X51071Y-24227D01*
X51071Y-24274D01*
X51086Y-24293D01*
X51100Y-24303D01*
X51129Y-24312D01*
X51157Y-24312D01*
X51200Y-24303D01*
X51371Y-24189D01*
X51371Y-24312D01*
X51071Y-24379D02*
X51071Y-24502D01*
X51186Y-24436D01*
X51186Y-24464D01*
X51200Y-24483D01*
X51214Y-24493D01*
X51243Y-24502D01*
X51314Y-24502D01*
X51343Y-24493D01*
X51357Y-24483D01*
X51371Y-24464D01*
X51371Y-24407D01*
X51357Y-24388D01*
X51343Y-24379D01*
X133243Y-33222D02*
X133257Y-33212D01*
X133271Y-33184D01*
X133271Y-33165D01*
X133257Y-33136D01*
X133229Y-33117D01*
X133200Y-33108D01*
X133143Y-33098D01*
X133100Y-33098D01*
X133043Y-33108D01*
X133014Y-33117D01*
X132986Y-33136D01*
X132971Y-33165D01*
X132971Y-33184D01*
X132986Y-33212D01*
X133000Y-33222D01*
X133271Y-33412D02*
X133271Y-33298D01*
X133271Y-33355D02*
X132971Y-33355D01*
X133014Y-33336D01*
X133043Y-33317D01*
X133057Y-33298D01*
X132971Y-33583D02*
X132971Y-33545D01*
X132986Y-33526D01*
X133000Y-33517D01*
X133043Y-33498D01*
X133100Y-33488D01*
X133214Y-33488D01*
X133243Y-33498D01*
X133257Y-33507D01*
X133271Y-33526D01*
X133271Y-33564D01*
X133257Y-33583D01*
X133243Y-33593D01*
X133214Y-33602D01*
X133143Y-33602D01*
X133114Y-33593D01*
X133100Y-33583D01*
X133086Y-33564D01*
X133086Y-33526D01*
X133100Y-33507D01*
X133114Y-33498D01*
X133143Y-33488D01*
X128343Y-34222D02*
X128357Y-34212D01*
X128371Y-34184D01*
X128371Y-34165D01*
X128357Y-34136D01*
X128329Y-34117D01*
X128300Y-34108D01*
X128243Y-34098D01*
X128200Y-34098D01*
X128143Y-34108D01*
X128114Y-34117D01*
X128086Y-34136D01*
X128071Y-34165D01*
X128071Y-34184D01*
X128086Y-34212D01*
X128100Y-34222D01*
X128371Y-34412D02*
X128371Y-34298D01*
X128371Y-34355D02*
X128071Y-34355D01*
X128114Y-34336D01*
X128143Y-34317D01*
X128157Y-34298D01*
X128071Y-34593D02*
X128071Y-34498D01*
X128214Y-34488D01*
X128200Y-34498D01*
X128186Y-34517D01*
X128186Y-34564D01*
X128200Y-34583D01*
X128214Y-34593D01*
X128243Y-34602D01*
X128314Y-34602D01*
X128343Y-34593D01*
X128357Y-34583D01*
X128371Y-34564D01*
X128371Y-34517D01*
X128357Y-34498D01*
X128343Y-34488D01*
X127778Y-32343D02*
X127788Y-32357D01*
X127816Y-32371D01*
X127835Y-32371D01*
X127864Y-32357D01*
X127883Y-32329D01*
X127892Y-32300D01*
X127902Y-32243D01*
X127902Y-32200D01*
X127892Y-32143D01*
X127883Y-32114D01*
X127864Y-32086D01*
X127835Y-32071D01*
X127816Y-32071D01*
X127788Y-32086D01*
X127778Y-32100D01*
X127588Y-32371D02*
X127702Y-32371D01*
X127645Y-32371D02*
X127645Y-32071D01*
X127664Y-32114D01*
X127683Y-32143D01*
X127702Y-32157D01*
X127417Y-32171D02*
X127417Y-32371D01*
X127464Y-32057D02*
X127512Y-32271D01*
X127388Y-32271D01*
X128443Y-25322D02*
X128457Y-25312D01*
X128471Y-25284D01*
X128471Y-25265D01*
X128457Y-25236D01*
X128429Y-25217D01*
X128400Y-25208D01*
X128343Y-25198D01*
X128300Y-25198D01*
X128243Y-25208D01*
X128214Y-25217D01*
X128186Y-25236D01*
X128171Y-25265D01*
X128171Y-25284D01*
X128186Y-25312D01*
X128200Y-25322D01*
X128471Y-25512D02*
X128471Y-25398D01*
X128471Y-25455D02*
X128171Y-25455D01*
X128214Y-25436D01*
X128243Y-25417D01*
X128257Y-25398D01*
X128171Y-25579D02*
X128171Y-25702D01*
X128286Y-25636D01*
X128286Y-25664D01*
X128300Y-25683D01*
X128314Y-25693D01*
X128343Y-25702D01*
X128414Y-25702D01*
X128443Y-25693D01*
X128457Y-25683D01*
X128471Y-25664D01*
X128471Y-25607D01*
X128457Y-25588D01*
X128443Y-25579D01*
X136178Y-31743D02*
X136188Y-31757D01*
X136216Y-31771D01*
X136235Y-31771D01*
X136264Y-31757D01*
X136283Y-31729D01*
X136292Y-31700D01*
X136302Y-31643D01*
X136302Y-31600D01*
X136292Y-31543D01*
X136283Y-31514D01*
X136264Y-31486D01*
X136235Y-31471D01*
X136216Y-31471D01*
X136188Y-31486D01*
X136178Y-31500D01*
X135988Y-31771D02*
X136102Y-31771D01*
X136045Y-31771D02*
X136045Y-31471D01*
X136064Y-31514D01*
X136083Y-31543D01*
X136102Y-31557D01*
X135912Y-31500D02*
X135902Y-31486D01*
X135883Y-31471D01*
X135836Y-31471D01*
X135817Y-31486D01*
X135807Y-31500D01*
X135798Y-31529D01*
X135798Y-31557D01*
X135807Y-31600D01*
X135921Y-31771D01*
X135798Y-31771D01*
X125828Y-27643D02*
X125838Y-27657D01*
X125866Y-27671D01*
X125885Y-27671D01*
X125914Y-27657D01*
X125933Y-27629D01*
X125942Y-27600D01*
X125952Y-27543D01*
X125952Y-27500D01*
X125942Y-27443D01*
X125933Y-27414D01*
X125914Y-27386D01*
X125885Y-27371D01*
X125866Y-27371D01*
X125838Y-27386D01*
X125828Y-27400D01*
X125638Y-27671D02*
X125752Y-27671D01*
X125695Y-27671D02*
X125695Y-27371D01*
X125714Y-27414D01*
X125733Y-27443D01*
X125752Y-27457D01*
X125448Y-27671D02*
X125562Y-27671D01*
X125505Y-27671D02*
X125505Y-27371D01*
X125524Y-27414D01*
X125543Y-27443D01*
X125562Y-27457D01*
X140943Y-50122D02*
X140957Y-50112D01*
X140971Y-50084D01*
X140971Y-50065D01*
X140957Y-50036D01*
X140929Y-50017D01*
X140900Y-50008D01*
X140843Y-49998D01*
X140800Y-49998D01*
X140743Y-50008D01*
X140714Y-50017D01*
X140686Y-50036D01*
X140671Y-50065D01*
X140671Y-50084D01*
X140686Y-50112D01*
X140700Y-50122D01*
X140671Y-50189D02*
X140671Y-50312D01*
X140786Y-50246D01*
X140786Y-50274D01*
X140800Y-50293D01*
X140814Y-50303D01*
X140843Y-50312D01*
X140914Y-50312D01*
X140943Y-50303D01*
X140957Y-50293D01*
X140971Y-50274D01*
X140971Y-50217D01*
X140957Y-50198D01*
X140943Y-50189D01*
X140700Y-50388D02*
X140686Y-50398D01*
X140671Y-50417D01*
X140671Y-50464D01*
X140686Y-50483D01*
X140700Y-50493D01*
X140729Y-50502D01*
X140757Y-50502D01*
X140800Y-50493D01*
X140971Y-50379D01*
X140971Y-50502D01*
X26783Y-33671D02*
X26850Y-33529D01*
X26897Y-33671D02*
X26897Y-33371D01*
X26821Y-33371D01*
X26802Y-33386D01*
X26793Y-33400D01*
X26783Y-33429D01*
X26783Y-33471D01*
X26793Y-33500D01*
X26802Y-33514D01*
X26821Y-33529D01*
X26897Y-33529D01*
X26688Y-33671D02*
X26650Y-33671D01*
X26631Y-33657D01*
X26621Y-33643D01*
X26602Y-33600D01*
X26593Y-33543D01*
X26593Y-33429D01*
X26602Y-33400D01*
X26612Y-33386D01*
X26631Y-33371D01*
X26669Y-33371D01*
X26688Y-33386D01*
X26697Y-33400D01*
X26707Y-33429D01*
X26707Y-33500D01*
X26697Y-33529D01*
X26688Y-33543D01*
X26669Y-33557D01*
X26631Y-33557D01*
X26612Y-33543D01*
X26602Y-33529D01*
X26593Y-33500D01*
X31771Y-53722D02*
X31629Y-53655D01*
X31771Y-53608D02*
X31471Y-53608D01*
X31471Y-53684D01*
X31486Y-53703D01*
X31500Y-53712D01*
X31529Y-53722D01*
X31571Y-53722D01*
X31600Y-53712D01*
X31614Y-53703D01*
X31629Y-53684D01*
X31629Y-53608D01*
X31471Y-53789D02*
X31471Y-53912D01*
X31586Y-53846D01*
X31586Y-53874D01*
X31600Y-53893D01*
X31614Y-53903D01*
X31643Y-53912D01*
X31714Y-53912D01*
X31743Y-53903D01*
X31757Y-53893D01*
X31771Y-53874D01*
X31771Y-53817D01*
X31757Y-53798D01*
X31743Y-53789D01*
X31500Y-53988D02*
X31486Y-53998D01*
X31471Y-54017D01*
X31471Y-54064D01*
X31486Y-54083D01*
X31500Y-54093D01*
X31529Y-54102D01*
X31557Y-54102D01*
X31600Y-54093D01*
X31771Y-53979D01*
X31771Y-54102D01*
X31771Y-52522D02*
X31629Y-52455D01*
X31771Y-52408D02*
X31471Y-52408D01*
X31471Y-52484D01*
X31486Y-52503D01*
X31500Y-52512D01*
X31529Y-52522D01*
X31571Y-52522D01*
X31600Y-52512D01*
X31614Y-52503D01*
X31629Y-52484D01*
X31629Y-52408D01*
X31471Y-52589D02*
X31471Y-52712D01*
X31586Y-52646D01*
X31586Y-52674D01*
X31600Y-52693D01*
X31614Y-52703D01*
X31643Y-52712D01*
X31714Y-52712D01*
X31743Y-52703D01*
X31757Y-52693D01*
X31771Y-52674D01*
X31771Y-52617D01*
X31757Y-52598D01*
X31743Y-52589D01*
X31471Y-52779D02*
X31471Y-52902D01*
X31586Y-52836D01*
X31586Y-52864D01*
X31600Y-52883D01*
X31614Y-52893D01*
X31643Y-52902D01*
X31714Y-52902D01*
X31743Y-52893D01*
X31757Y-52883D01*
X31771Y-52864D01*
X31771Y-52807D01*
X31757Y-52788D01*
X31743Y-52779D01*
X136083Y-26643D02*
X136093Y-26657D01*
X136121Y-26671D01*
X136140Y-26671D01*
X136169Y-26657D01*
X136188Y-26629D01*
X136197Y-26600D01*
X136207Y-26543D01*
X136207Y-26500D01*
X136197Y-26443D01*
X136188Y-26414D01*
X136169Y-26386D01*
X136140Y-26371D01*
X136121Y-26371D01*
X136093Y-26386D01*
X136083Y-26400D01*
X136007Y-26400D02*
X135997Y-26386D01*
X135978Y-26371D01*
X135931Y-26371D01*
X135912Y-26386D01*
X135902Y-26400D01*
X135893Y-26429D01*
X135893Y-26457D01*
X135902Y-26500D01*
X136016Y-26671D01*
X135893Y-26671D01*
X135671Y-33222D02*
X135529Y-33155D01*
X135671Y-33108D02*
X135371Y-33108D01*
X135371Y-33184D01*
X135386Y-33203D01*
X135400Y-33212D01*
X135429Y-33222D01*
X135471Y-33222D01*
X135500Y-33212D01*
X135514Y-33203D01*
X135529Y-33184D01*
X135529Y-33108D01*
X135400Y-33298D02*
X135386Y-33308D01*
X135371Y-33327D01*
X135371Y-33374D01*
X135386Y-33393D01*
X135400Y-33403D01*
X135429Y-33412D01*
X135457Y-33412D01*
X135500Y-33403D01*
X135671Y-33289D01*
X135671Y-33412D01*
X135371Y-33479D02*
X135371Y-33612D01*
X135671Y-33526D01*
X140243Y-30717D02*
X140257Y-30707D01*
X140271Y-30679D01*
X140271Y-30660D01*
X140257Y-30631D01*
X140229Y-30612D01*
X140200Y-30603D01*
X140143Y-30593D01*
X140100Y-30593D01*
X140043Y-30603D01*
X140014Y-30612D01*
X139986Y-30631D01*
X139971Y-30660D01*
X139971Y-30679D01*
X139986Y-30707D01*
X140000Y-30717D01*
X140071Y-30888D02*
X140271Y-30888D01*
X139957Y-30841D02*
X140171Y-30793D01*
X140171Y-30917D01*
X136333Y-38393D02*
X136343Y-38407D01*
X136371Y-38421D01*
X136390Y-38421D01*
X136419Y-38407D01*
X136438Y-38379D01*
X136447Y-38350D01*
X136457Y-38293D01*
X136457Y-38250D01*
X136447Y-38193D01*
X136438Y-38164D01*
X136419Y-38136D01*
X136390Y-38121D01*
X136371Y-38121D01*
X136343Y-38136D01*
X136333Y-38150D01*
X136152Y-38121D02*
X136247Y-38121D01*
X136257Y-38264D01*
X136247Y-38250D01*
X136228Y-38236D01*
X136181Y-38236D01*
X136162Y-38250D01*
X136152Y-38264D01*
X136143Y-38293D01*
X136143Y-38364D01*
X136152Y-38393D01*
X136162Y-38407D01*
X136181Y-38421D01*
X136228Y-38421D01*
X136247Y-38407D01*
X136257Y-38393D01*
X136083Y-28943D02*
X136093Y-28957D01*
X136121Y-28971D01*
X136140Y-28971D01*
X136169Y-28957D01*
X136188Y-28929D01*
X136197Y-28900D01*
X136207Y-28843D01*
X136207Y-28800D01*
X136197Y-28743D01*
X136188Y-28714D01*
X136169Y-28686D01*
X136140Y-28671D01*
X136121Y-28671D01*
X136093Y-28686D01*
X136083Y-28700D01*
X135912Y-28671D02*
X135950Y-28671D01*
X135969Y-28686D01*
X135978Y-28700D01*
X135997Y-28743D01*
X136007Y-28800D01*
X136007Y-28914D01*
X135997Y-28943D01*
X135988Y-28957D01*
X135969Y-28971D01*
X135931Y-28971D01*
X135912Y-28957D01*
X135902Y-28943D01*
X135893Y-28914D01*
X135893Y-28843D01*
X135902Y-28814D01*
X135912Y-28800D01*
X135931Y-28786D01*
X135969Y-28786D01*
X135988Y-28800D01*
X135997Y-28814D01*
X136007Y-28843D01*
X135643Y-34422D02*
X135657Y-34412D01*
X135671Y-34384D01*
X135671Y-34365D01*
X135657Y-34336D01*
X135629Y-34317D01*
X135600Y-34308D01*
X135543Y-34298D01*
X135500Y-34298D01*
X135443Y-34308D01*
X135414Y-34317D01*
X135386Y-34336D01*
X135371Y-34365D01*
X135371Y-34384D01*
X135386Y-34412D01*
X135400Y-34422D01*
X135671Y-34612D02*
X135671Y-34498D01*
X135671Y-34555D02*
X135371Y-34555D01*
X135414Y-34536D01*
X135443Y-34517D01*
X135457Y-34498D01*
X135371Y-34736D02*
X135371Y-34755D01*
X135386Y-34774D01*
X135400Y-34783D01*
X135429Y-34793D01*
X135486Y-34802D01*
X135557Y-34802D01*
X135614Y-34793D01*
X135643Y-34783D01*
X135657Y-34774D01*
X135671Y-34755D01*
X135671Y-34736D01*
X135657Y-34717D01*
X135643Y-34707D01*
X135614Y-34698D01*
X135557Y-34688D01*
X135486Y-34688D01*
X135429Y-34698D01*
X135400Y-34707D01*
X135386Y-34717D01*
X135371Y-34736D01*
X140028Y-37371D02*
X140095Y-37229D01*
X140142Y-37371D02*
X140142Y-37071D01*
X140066Y-37071D01*
X140047Y-37086D01*
X140038Y-37100D01*
X140028Y-37129D01*
X140028Y-37171D01*
X140038Y-37200D01*
X140047Y-37214D01*
X140066Y-37229D01*
X140142Y-37229D01*
X139952Y-37100D02*
X139942Y-37086D01*
X139923Y-37071D01*
X139876Y-37071D01*
X139857Y-37086D01*
X139847Y-37100D01*
X139838Y-37129D01*
X139838Y-37157D01*
X139847Y-37200D01*
X139961Y-37371D01*
X139838Y-37371D01*
X139657Y-37071D02*
X139752Y-37071D01*
X139762Y-37214D01*
X139752Y-37200D01*
X139733Y-37186D01*
X139686Y-37186D01*
X139667Y-37200D01*
X139657Y-37214D01*
X139648Y-37243D01*
X139648Y-37314D01*
X139657Y-37343D01*
X139667Y-37357D01*
X139686Y-37371D01*
X139733Y-37371D01*
X139752Y-37357D01*
X139762Y-37343D01*
X133243Y-34517D02*
X133257Y-34507D01*
X133271Y-34479D01*
X133271Y-34460D01*
X133257Y-34431D01*
X133229Y-34412D01*
X133200Y-34403D01*
X133143Y-34393D01*
X133100Y-34393D01*
X133043Y-34403D01*
X133014Y-34412D01*
X132986Y-34431D01*
X132971Y-34460D01*
X132971Y-34479D01*
X132986Y-34507D01*
X133000Y-34517D01*
X132971Y-34584D02*
X132971Y-34717D01*
X133271Y-34631D01*
X131543Y-25517D02*
X131557Y-25507D01*
X131571Y-25479D01*
X131571Y-25460D01*
X131557Y-25431D01*
X131529Y-25412D01*
X131500Y-25403D01*
X131443Y-25393D01*
X131400Y-25393D01*
X131343Y-25403D01*
X131314Y-25412D01*
X131286Y-25431D01*
X131271Y-25460D01*
X131271Y-25479D01*
X131286Y-25507D01*
X131300Y-25517D01*
X131571Y-25612D02*
X131571Y-25650D01*
X131557Y-25669D01*
X131543Y-25679D01*
X131500Y-25698D01*
X131443Y-25707D01*
X131329Y-25707D01*
X131300Y-25698D01*
X131286Y-25688D01*
X131271Y-25669D01*
X131271Y-25631D01*
X131286Y-25612D01*
X131300Y-25603D01*
X131329Y-25593D01*
X131400Y-25593D01*
X131429Y-25603D01*
X131443Y-25612D01*
X131457Y-25631D01*
X131457Y-25669D01*
X131443Y-25688D01*
X131429Y-25698D01*
X131400Y-25707D01*
X140271Y-31917D02*
X140129Y-31850D01*
X140271Y-31803D02*
X139971Y-31803D01*
X139971Y-31879D01*
X139986Y-31898D01*
X140000Y-31907D01*
X140029Y-31917D01*
X140071Y-31917D01*
X140100Y-31907D01*
X140114Y-31898D01*
X140129Y-31879D01*
X140129Y-31803D01*
X140000Y-31993D02*
X139986Y-32003D01*
X139971Y-32022D01*
X139971Y-32069D01*
X139986Y-32088D01*
X140000Y-32098D01*
X140029Y-32107D01*
X140057Y-32107D01*
X140100Y-32098D01*
X140271Y-31984D01*
X140271Y-32107D01*
X141033Y-28571D02*
X141100Y-28429D01*
X141147Y-28571D02*
X141147Y-28271D01*
X141071Y-28271D01*
X141052Y-28286D01*
X141043Y-28300D01*
X141033Y-28329D01*
X141033Y-28371D01*
X141043Y-28400D01*
X141052Y-28414D01*
X141071Y-28429D01*
X141147Y-28429D01*
X140966Y-28271D02*
X140843Y-28271D01*
X140909Y-28386D01*
X140881Y-28386D01*
X140862Y-28400D01*
X140852Y-28414D01*
X140843Y-28443D01*
X140843Y-28514D01*
X140852Y-28543D01*
X140862Y-28557D01*
X140881Y-28571D01*
X140938Y-28571D01*
X140957Y-28557D01*
X140966Y-28543D01*
X42771Y-34022D02*
X42629Y-33955D01*
X42771Y-33908D02*
X42471Y-33908D01*
X42471Y-33984D01*
X42486Y-34003D01*
X42500Y-34012D01*
X42529Y-34022D01*
X42571Y-34022D01*
X42600Y-34012D01*
X42614Y-34003D01*
X42629Y-33984D01*
X42629Y-33908D01*
X42571Y-34193D02*
X42771Y-34193D01*
X42457Y-34146D02*
X42671Y-34098D01*
X42671Y-34222D01*
X42600Y-34326D02*
X42586Y-34307D01*
X42571Y-34298D01*
X42543Y-34288D01*
X42529Y-34288D01*
X42500Y-34298D01*
X42486Y-34307D01*
X42471Y-34326D01*
X42471Y-34364D01*
X42486Y-34383D01*
X42500Y-34393D01*
X42529Y-34402D01*
X42543Y-34402D01*
X42571Y-34393D01*
X42586Y-34383D01*
X42600Y-34364D01*
X42600Y-34326D01*
X42614Y-34307D01*
X42629Y-34298D01*
X42657Y-34288D01*
X42714Y-34288D01*
X42743Y-34298D01*
X42757Y-34307D01*
X42771Y-34326D01*
X42771Y-34364D01*
X42757Y-34383D01*
X42743Y-34393D01*
X42714Y-34402D01*
X42657Y-34402D01*
X42629Y-34393D01*
X42614Y-34383D01*
X42600Y-34364D01*
X140178Y-28571D02*
X140245Y-28429D01*
X140292Y-28571D02*
X140292Y-28271D01*
X140216Y-28271D01*
X140197Y-28286D01*
X140188Y-28300D01*
X140178Y-28329D01*
X140178Y-28371D01*
X140188Y-28400D01*
X140197Y-28414D01*
X140216Y-28429D01*
X140292Y-28429D01*
X139988Y-28571D02*
X140102Y-28571D01*
X140045Y-28571D02*
X140045Y-28271D01*
X140064Y-28314D01*
X140083Y-28343D01*
X140102Y-28357D01*
X139912Y-28300D02*
X139902Y-28286D01*
X139883Y-28271D01*
X139836Y-28271D01*
X139817Y-28286D01*
X139807Y-28300D01*
X139798Y-28329D01*
X139798Y-28357D01*
X139807Y-28400D01*
X139921Y-28571D01*
X139798Y-28571D01*
X126678Y-47371D02*
X126745Y-47229D01*
X126792Y-47371D02*
X126792Y-47071D01*
X126716Y-47071D01*
X126697Y-47086D01*
X126688Y-47100D01*
X126678Y-47129D01*
X126678Y-47171D01*
X126688Y-47200D01*
X126697Y-47214D01*
X126716Y-47229D01*
X126792Y-47229D01*
X126488Y-47371D02*
X126602Y-47371D01*
X126545Y-47371D02*
X126545Y-47071D01*
X126564Y-47114D01*
X126583Y-47143D01*
X126602Y-47157D01*
X126307Y-47071D02*
X126402Y-47071D01*
X126412Y-47214D01*
X126402Y-47200D01*
X126383Y-47186D01*
X126336Y-47186D01*
X126317Y-47200D01*
X126307Y-47214D01*
X126298Y-47243D01*
X126298Y-47314D01*
X126307Y-47343D01*
X126317Y-47357D01*
X126336Y-47371D01*
X126383Y-47371D01*
X126402Y-47357D01*
X126412Y-47343D01*
X31578Y-48371D02*
X31645Y-48229D01*
X31692Y-48371D02*
X31692Y-48071D01*
X31616Y-48071D01*
X31597Y-48086D01*
X31588Y-48100D01*
X31578Y-48129D01*
X31578Y-48171D01*
X31588Y-48200D01*
X31597Y-48214D01*
X31616Y-48229D01*
X31692Y-48229D01*
X31388Y-48371D02*
X31502Y-48371D01*
X31445Y-48371D02*
X31445Y-48071D01*
X31464Y-48114D01*
X31483Y-48143D01*
X31502Y-48157D01*
X31217Y-48071D02*
X31255Y-48071D01*
X31274Y-48086D01*
X31283Y-48100D01*
X31302Y-48143D01*
X31312Y-48200D01*
X31312Y-48314D01*
X31302Y-48343D01*
X31293Y-48357D01*
X31274Y-48371D01*
X31236Y-48371D01*
X31217Y-48357D01*
X31207Y-48343D01*
X31198Y-48314D01*
X31198Y-48243D01*
X31207Y-48214D01*
X31217Y-48200D01*
X31236Y-48186D01*
X31274Y-48186D01*
X31293Y-48200D01*
X31302Y-48214D01*
X31312Y-48243D01*
X29878Y-48371D02*
X29945Y-48229D01*
X29992Y-48371D02*
X29992Y-48071D01*
X29916Y-48071D01*
X29897Y-48086D01*
X29888Y-48100D01*
X29878Y-48129D01*
X29878Y-48171D01*
X29888Y-48200D01*
X29897Y-48214D01*
X29916Y-48229D01*
X29992Y-48229D01*
X29688Y-48371D02*
X29802Y-48371D01*
X29745Y-48371D02*
X29745Y-48071D01*
X29764Y-48114D01*
X29783Y-48143D01*
X29802Y-48157D01*
X29621Y-48071D02*
X29488Y-48071D01*
X29574Y-48371D01*
X27978Y-33671D02*
X28045Y-33529D01*
X28092Y-33671D02*
X28092Y-33371D01*
X28016Y-33371D01*
X27997Y-33386D01*
X27988Y-33400D01*
X27978Y-33429D01*
X27978Y-33471D01*
X27988Y-33500D01*
X27997Y-33514D01*
X28016Y-33529D01*
X28092Y-33529D01*
X27788Y-33671D02*
X27902Y-33671D01*
X27845Y-33671D02*
X27845Y-33371D01*
X27864Y-33414D01*
X27883Y-33443D01*
X27902Y-33457D01*
X27674Y-33500D02*
X27693Y-33486D01*
X27702Y-33471D01*
X27712Y-33443D01*
X27712Y-33429D01*
X27702Y-33400D01*
X27693Y-33386D01*
X27674Y-33371D01*
X27636Y-33371D01*
X27617Y-33386D01*
X27607Y-33400D01*
X27598Y-33429D01*
X27598Y-33443D01*
X27607Y-33471D01*
X27617Y-33486D01*
X27636Y-33500D01*
X27674Y-33500D01*
X27693Y-33514D01*
X27702Y-33529D01*
X27712Y-33557D01*
X27712Y-33614D01*
X27702Y-33643D01*
X27693Y-33657D01*
X27674Y-33671D01*
X27636Y-33671D01*
X27617Y-33657D01*
X27607Y-33643D01*
X27598Y-33614D01*
X27598Y-33557D01*
X27607Y-33529D01*
X27617Y-33514D01*
X27636Y-33500D01*
X135328Y-38421D02*
X135395Y-38279D01*
X135442Y-38421D02*
X135442Y-38121D01*
X135366Y-38121D01*
X135347Y-38136D01*
X135338Y-38150D01*
X135328Y-38179D01*
X135328Y-38221D01*
X135338Y-38250D01*
X135347Y-38264D01*
X135366Y-38279D01*
X135442Y-38279D01*
X135138Y-38421D02*
X135252Y-38421D01*
X135195Y-38421D02*
X135195Y-38121D01*
X135214Y-38164D01*
X135233Y-38193D01*
X135252Y-38207D01*
X135043Y-38421D02*
X135005Y-38421D01*
X134986Y-38407D01*
X134976Y-38393D01*
X134957Y-38350D01*
X134948Y-38293D01*
X134948Y-38179D01*
X134957Y-38150D01*
X134967Y-38136D01*
X134986Y-38121D01*
X135024Y-38121D01*
X135043Y-38136D01*
X135052Y-38150D01*
X135062Y-38179D01*
X135062Y-38250D01*
X135052Y-38279D01*
X135043Y-38293D01*
X135024Y-38307D01*
X134986Y-38307D01*
X134967Y-38293D01*
X134957Y-38279D01*
X134948Y-38250D01*
X135171Y-22722D02*
X135029Y-22655D01*
X135171Y-22608D02*
X134871Y-22608D01*
X134871Y-22684D01*
X134886Y-22703D01*
X134900Y-22712D01*
X134929Y-22722D01*
X134971Y-22722D01*
X135000Y-22712D01*
X135014Y-22703D01*
X135029Y-22684D01*
X135029Y-22608D01*
X134900Y-22798D02*
X134886Y-22808D01*
X134871Y-22827D01*
X134871Y-22874D01*
X134886Y-22893D01*
X134900Y-22903D01*
X134929Y-22912D01*
X134957Y-22912D01*
X135000Y-22903D01*
X135171Y-22789D01*
X135171Y-22912D01*
X134871Y-23036D02*
X134871Y-23055D01*
X134886Y-23074D01*
X134900Y-23083D01*
X134929Y-23093D01*
X134986Y-23102D01*
X135057Y-23102D01*
X135114Y-23093D01*
X135143Y-23083D01*
X135157Y-23074D01*
X135171Y-23055D01*
X135171Y-23036D01*
X135157Y-23017D01*
X135143Y-23007D01*
X135114Y-22998D01*
X135057Y-22988D01*
X134986Y-22988D01*
X134929Y-22998D01*
X134900Y-23007D01*
X134886Y-23017D01*
X134871Y-23036D01*
X32171Y-40322D02*
X32029Y-40255D01*
X32171Y-40208D02*
X31871Y-40208D01*
X31871Y-40284D01*
X31886Y-40303D01*
X31900Y-40312D01*
X31929Y-40322D01*
X31971Y-40322D01*
X32000Y-40312D01*
X32014Y-40303D01*
X32029Y-40284D01*
X32029Y-40208D01*
X31871Y-40389D02*
X31871Y-40512D01*
X31986Y-40446D01*
X31986Y-40474D01*
X32000Y-40493D01*
X32014Y-40503D01*
X32043Y-40512D01*
X32114Y-40512D01*
X32143Y-40503D01*
X32157Y-40493D01*
X32171Y-40474D01*
X32171Y-40417D01*
X32157Y-40398D01*
X32143Y-40389D01*
X32171Y-40702D02*
X32171Y-40588D01*
X32171Y-40645D02*
X31871Y-40645D01*
X31914Y-40626D01*
X31943Y-40607D01*
X31957Y-40588D01*
X121921Y-47622D02*
X121779Y-47555D01*
X121921Y-47508D02*
X121621Y-47508D01*
X121621Y-47584D01*
X121636Y-47603D01*
X121650Y-47612D01*
X121679Y-47622D01*
X121721Y-47622D01*
X121750Y-47612D01*
X121764Y-47603D01*
X121779Y-47584D01*
X121779Y-47508D01*
X121621Y-47689D02*
X121621Y-47812D01*
X121736Y-47746D01*
X121736Y-47774D01*
X121750Y-47793D01*
X121764Y-47803D01*
X121793Y-47812D01*
X121864Y-47812D01*
X121893Y-47803D01*
X121907Y-47793D01*
X121921Y-47774D01*
X121921Y-47717D01*
X121907Y-47698D01*
X121893Y-47689D01*
X121621Y-47879D02*
X121621Y-48012D01*
X121921Y-47926D01*
X119871Y-46222D02*
X119729Y-46155D01*
X119871Y-46108D02*
X119571Y-46108D01*
X119571Y-46184D01*
X119586Y-46203D01*
X119600Y-46212D01*
X119629Y-46222D01*
X119671Y-46222D01*
X119700Y-46212D01*
X119714Y-46203D01*
X119729Y-46184D01*
X119729Y-46108D01*
X119571Y-46289D02*
X119571Y-46412D01*
X119686Y-46346D01*
X119686Y-46374D01*
X119700Y-46393D01*
X119714Y-46403D01*
X119743Y-46412D01*
X119814Y-46412D01*
X119843Y-46403D01*
X119857Y-46393D01*
X119871Y-46374D01*
X119871Y-46317D01*
X119857Y-46298D01*
X119843Y-46289D01*
X119700Y-46526D02*
X119686Y-46507D01*
X119671Y-46498D01*
X119643Y-46488D01*
X119629Y-46488D01*
X119600Y-46498D01*
X119586Y-46507D01*
X119571Y-46526D01*
X119571Y-46564D01*
X119586Y-46583D01*
X119600Y-46593D01*
X119629Y-46602D01*
X119643Y-46602D01*
X119671Y-46593D01*
X119686Y-46583D01*
X119700Y-46564D01*
X119700Y-46526D01*
X119714Y-46507D01*
X119729Y-46498D01*
X119757Y-46488D01*
X119814Y-46488D01*
X119843Y-46498D01*
X119857Y-46507D01*
X119871Y-46526D01*
X119871Y-46564D01*
X119857Y-46583D01*
X119843Y-46593D01*
X119814Y-46602D01*
X119757Y-46602D01*
X119729Y-46593D01*
X119714Y-46583D01*
X119700Y-46564D01*
X26871Y-44772D02*
X26729Y-44705D01*
X26871Y-44658D02*
X26571Y-44658D01*
X26571Y-44734D01*
X26586Y-44753D01*
X26600Y-44762D01*
X26629Y-44772D01*
X26671Y-44772D01*
X26700Y-44762D01*
X26714Y-44753D01*
X26729Y-44734D01*
X26729Y-44658D01*
X26671Y-44943D02*
X26871Y-44943D01*
X26557Y-44896D02*
X26771Y-44848D01*
X26771Y-44972D01*
X26571Y-45029D02*
X26571Y-45162D01*
X26871Y-45076D01*
X32171Y-39022D02*
X32029Y-38955D01*
X32171Y-38908D02*
X31871Y-38908D01*
X31871Y-38984D01*
X31886Y-39003D01*
X31900Y-39012D01*
X31929Y-39022D01*
X31971Y-39022D01*
X32000Y-39012D01*
X32014Y-39003D01*
X32029Y-38984D01*
X32029Y-38908D01*
X31871Y-39089D02*
X31871Y-39212D01*
X31986Y-39146D01*
X31986Y-39174D01*
X32000Y-39193D01*
X32014Y-39203D01*
X32043Y-39212D01*
X32114Y-39212D01*
X32143Y-39203D01*
X32157Y-39193D01*
X32171Y-39174D01*
X32171Y-39117D01*
X32157Y-39098D01*
X32143Y-39089D01*
X31871Y-39336D02*
X31871Y-39355D01*
X31886Y-39374D01*
X31900Y-39383D01*
X31929Y-39393D01*
X31986Y-39402D01*
X32057Y-39402D01*
X32114Y-39393D01*
X32143Y-39383D01*
X32157Y-39374D01*
X32171Y-39355D01*
X32171Y-39336D01*
X32157Y-39317D01*
X32143Y-39307D01*
X32114Y-39298D01*
X32057Y-39288D01*
X31986Y-39288D01*
X31929Y-39298D01*
X31900Y-39307D01*
X31886Y-39317D01*
X31871Y-39336D01*
X29671Y-53722D02*
X29529Y-53655D01*
X29671Y-53608D02*
X29371Y-53608D01*
X29371Y-53684D01*
X29386Y-53703D01*
X29400Y-53712D01*
X29429Y-53722D01*
X29471Y-53722D01*
X29500Y-53712D01*
X29514Y-53703D01*
X29529Y-53684D01*
X29529Y-53608D01*
X29371Y-53789D02*
X29371Y-53912D01*
X29486Y-53846D01*
X29486Y-53874D01*
X29500Y-53893D01*
X29514Y-53903D01*
X29543Y-53912D01*
X29614Y-53912D01*
X29643Y-53903D01*
X29657Y-53893D01*
X29671Y-53874D01*
X29671Y-53817D01*
X29657Y-53798D01*
X29643Y-53789D01*
X29671Y-54007D02*
X29671Y-54045D01*
X29657Y-54064D01*
X29643Y-54074D01*
X29600Y-54093D01*
X29543Y-54102D01*
X29429Y-54102D01*
X29400Y-54093D01*
X29386Y-54083D01*
X29371Y-54064D01*
X29371Y-54026D01*
X29386Y-54007D01*
X29400Y-53998D01*
X29429Y-53988D01*
X29500Y-53988D01*
X29529Y-53998D01*
X29543Y-54007D01*
X29557Y-54026D01*
X29557Y-54064D01*
X29543Y-54083D01*
X29529Y-54093D01*
X29500Y-54102D01*
X137543Y-22817D02*
X137557Y-22807D01*
X137571Y-22779D01*
X137571Y-22760D01*
X137557Y-22731D01*
X137529Y-22712D01*
X137500Y-22703D01*
X137443Y-22693D01*
X137400Y-22693D01*
X137343Y-22703D01*
X137314Y-22712D01*
X137286Y-22731D01*
X137271Y-22760D01*
X137271Y-22779D01*
X137286Y-22807D01*
X137300Y-22817D01*
X137400Y-22931D02*
X137386Y-22912D01*
X137371Y-22903D01*
X137343Y-22893D01*
X137329Y-22893D01*
X137300Y-22903D01*
X137286Y-22912D01*
X137271Y-22931D01*
X137271Y-22969D01*
X137286Y-22988D01*
X137300Y-22998D01*
X137329Y-23007D01*
X137343Y-23007D01*
X137371Y-22998D01*
X137386Y-22988D01*
X137400Y-22969D01*
X137400Y-22931D01*
X137414Y-22912D01*
X137429Y-22903D01*
X137457Y-22893D01*
X137514Y-22893D01*
X137543Y-22903D01*
X137557Y-22912D01*
X137571Y-22931D01*
X137571Y-22969D01*
X137557Y-22988D01*
X137543Y-22998D01*
X137514Y-23007D01*
X137457Y-23007D01*
X137429Y-22998D01*
X137414Y-22988D01*
X137400Y-22969D01*
X29671Y-52522D02*
X29529Y-52455D01*
X29671Y-52408D02*
X29371Y-52408D01*
X29371Y-52484D01*
X29386Y-52503D01*
X29400Y-52512D01*
X29429Y-52522D01*
X29471Y-52522D01*
X29500Y-52512D01*
X29514Y-52503D01*
X29529Y-52484D01*
X29529Y-52408D01*
X29471Y-52693D02*
X29671Y-52693D01*
X29357Y-52646D02*
X29571Y-52598D01*
X29571Y-52722D01*
X29371Y-52836D02*
X29371Y-52855D01*
X29386Y-52874D01*
X29400Y-52883D01*
X29429Y-52893D01*
X29486Y-52902D01*
X29557Y-52902D01*
X29614Y-52893D01*
X29643Y-52883D01*
X29657Y-52874D01*
X29671Y-52855D01*
X29671Y-52836D01*
X29657Y-52817D01*
X29643Y-52807D01*
X29614Y-52798D01*
X29557Y-52788D01*
X29486Y-52788D01*
X29429Y-52798D01*
X29400Y-52807D01*
X29386Y-52817D01*
X29371Y-52836D01*
X27171Y-38822D02*
X27029Y-38755D01*
X27171Y-38708D02*
X26871Y-38708D01*
X26871Y-38784D01*
X26886Y-38803D01*
X26900Y-38812D01*
X26929Y-38822D01*
X26971Y-38822D01*
X27000Y-38812D01*
X27014Y-38803D01*
X27029Y-38784D01*
X27029Y-38708D01*
X26871Y-38889D02*
X26871Y-39012D01*
X26986Y-38946D01*
X26986Y-38974D01*
X27000Y-38993D01*
X27014Y-39003D01*
X27043Y-39012D01*
X27114Y-39012D01*
X27143Y-39003D01*
X27157Y-38993D01*
X27171Y-38974D01*
X27171Y-38917D01*
X27157Y-38898D01*
X27143Y-38889D01*
X26971Y-39183D02*
X27171Y-39183D01*
X26857Y-39136D02*
X27071Y-39088D01*
X27071Y-39212D01*
X124678Y-47371D02*
X124745Y-47229D01*
X124792Y-47371D02*
X124792Y-47071D01*
X124716Y-47071D01*
X124697Y-47086D01*
X124688Y-47100D01*
X124678Y-47129D01*
X124678Y-47171D01*
X124688Y-47200D01*
X124697Y-47214D01*
X124716Y-47229D01*
X124792Y-47229D01*
X124611Y-47071D02*
X124488Y-47071D01*
X124554Y-47186D01*
X124526Y-47186D01*
X124507Y-47200D01*
X124497Y-47214D01*
X124488Y-47243D01*
X124488Y-47314D01*
X124497Y-47343D01*
X124507Y-47357D01*
X124526Y-47371D01*
X124583Y-47371D01*
X124602Y-47357D01*
X124611Y-47343D01*
X124317Y-47071D02*
X124355Y-47071D01*
X124374Y-47086D01*
X124383Y-47100D01*
X124402Y-47143D01*
X124412Y-47200D01*
X124412Y-47314D01*
X124402Y-47343D01*
X124393Y-47357D01*
X124374Y-47371D01*
X124336Y-47371D01*
X124317Y-47357D01*
X124307Y-47343D01*
X124298Y-47314D01*
X124298Y-47243D01*
X124307Y-47214D01*
X124317Y-47200D01*
X124336Y-47186D01*
X124374Y-47186D01*
X124393Y-47200D01*
X124402Y-47214D01*
X124412Y-47243D01*
X27171Y-37522D02*
X27029Y-37455D01*
X27171Y-37408D02*
X26871Y-37408D01*
X26871Y-37484D01*
X26886Y-37503D01*
X26900Y-37512D01*
X26929Y-37522D01*
X26971Y-37522D01*
X27000Y-37512D01*
X27014Y-37503D01*
X27029Y-37484D01*
X27029Y-37408D01*
X26971Y-37693D02*
X27171Y-37693D01*
X26857Y-37646D02*
X27071Y-37598D01*
X27071Y-37722D01*
X27171Y-37902D02*
X27171Y-37788D01*
X27171Y-37845D02*
X26871Y-37845D01*
X26914Y-37826D01*
X26943Y-37807D01*
X26957Y-37788D01*
X29671Y-57322D02*
X29529Y-57255D01*
X29671Y-57208D02*
X29371Y-57208D01*
X29371Y-57284D01*
X29386Y-57303D01*
X29400Y-57312D01*
X29429Y-57322D01*
X29471Y-57322D01*
X29500Y-57312D01*
X29514Y-57303D01*
X29529Y-57284D01*
X29529Y-57208D01*
X29471Y-57493D02*
X29671Y-57493D01*
X29357Y-57446D02*
X29571Y-57398D01*
X29571Y-57522D01*
X29400Y-57588D02*
X29386Y-57598D01*
X29371Y-57617D01*
X29371Y-57664D01*
X29386Y-57683D01*
X29400Y-57693D01*
X29429Y-57702D01*
X29457Y-57702D01*
X29500Y-57693D01*
X29671Y-57579D01*
X29671Y-57702D01*
X29671Y-56122D02*
X29529Y-56055D01*
X29671Y-56008D02*
X29371Y-56008D01*
X29371Y-56084D01*
X29386Y-56103D01*
X29400Y-56112D01*
X29429Y-56122D01*
X29471Y-56122D01*
X29500Y-56112D01*
X29514Y-56103D01*
X29529Y-56084D01*
X29529Y-56008D01*
X29471Y-56293D02*
X29671Y-56293D01*
X29357Y-56246D02*
X29571Y-56198D01*
X29571Y-56322D01*
X29371Y-56379D02*
X29371Y-56502D01*
X29486Y-56436D01*
X29486Y-56464D01*
X29500Y-56483D01*
X29514Y-56493D01*
X29543Y-56502D01*
X29614Y-56502D01*
X29643Y-56493D01*
X29657Y-56483D01*
X29671Y-56464D01*
X29671Y-56407D01*
X29657Y-56388D01*
X29643Y-56379D01*
X26328Y-42521D02*
X26395Y-42379D01*
X26442Y-42521D02*
X26442Y-42221D01*
X26366Y-42221D01*
X26347Y-42236D01*
X26338Y-42250D01*
X26328Y-42279D01*
X26328Y-42321D01*
X26338Y-42350D01*
X26347Y-42364D01*
X26366Y-42379D01*
X26442Y-42379D01*
X26157Y-42321D02*
X26157Y-42521D01*
X26204Y-42207D02*
X26252Y-42421D01*
X26128Y-42421D01*
X25967Y-42221D02*
X26005Y-42221D01*
X26024Y-42236D01*
X26033Y-42250D01*
X26052Y-42293D01*
X26062Y-42350D01*
X26062Y-42464D01*
X26052Y-42493D01*
X26043Y-42507D01*
X26024Y-42521D01*
X25986Y-42521D01*
X25967Y-42507D01*
X25957Y-42493D01*
X25948Y-42464D01*
X25948Y-42393D01*
X25957Y-42364D01*
X25967Y-42350D01*
X25986Y-42336D01*
X26024Y-42336D01*
X26043Y-42350D01*
X26052Y-42364D01*
X26062Y-42393D01*
X29671Y-54922D02*
X29529Y-54855D01*
X29671Y-54808D02*
X29371Y-54808D01*
X29371Y-54884D01*
X29386Y-54903D01*
X29400Y-54912D01*
X29429Y-54922D01*
X29471Y-54922D01*
X29500Y-54912D01*
X29514Y-54903D01*
X29529Y-54884D01*
X29529Y-54808D01*
X29471Y-55093D02*
X29671Y-55093D01*
X29357Y-55046D02*
X29571Y-54998D01*
X29571Y-55122D01*
X29471Y-55283D02*
X29671Y-55283D01*
X29357Y-55236D02*
X29571Y-55188D01*
X29571Y-55312D01*
X64271Y-51820D02*
X64571Y-51867D01*
X64357Y-51905D01*
X64571Y-51943D01*
X64271Y-51991D01*
X64571Y-52172D02*
X64571Y-52058D01*
X64571Y-52115D02*
X64271Y-52115D01*
X64314Y-52096D01*
X64343Y-52077D01*
X64357Y-52058D01*
X49193Y-35622D02*
X49207Y-35612D01*
X49221Y-35584D01*
X49221Y-35565D01*
X49207Y-35536D01*
X49179Y-35517D01*
X49150Y-35508D01*
X49093Y-35498D01*
X49050Y-35498D01*
X48993Y-35508D01*
X48964Y-35517D01*
X48936Y-35536D01*
X48921Y-35565D01*
X48921Y-35584D01*
X48936Y-35612D01*
X48950Y-35622D01*
X48950Y-35698D02*
X48936Y-35708D01*
X48921Y-35727D01*
X48921Y-35774D01*
X48936Y-35793D01*
X48950Y-35803D01*
X48979Y-35812D01*
X49007Y-35812D01*
X49050Y-35803D01*
X49221Y-35689D01*
X49221Y-35812D01*
X49221Y-36002D02*
X49221Y-35888D01*
X49221Y-35945D02*
X48921Y-35945D01*
X48964Y-35926D01*
X48993Y-35907D01*
X49007Y-35888D01*
X50093Y-40872D02*
X50107Y-40862D01*
X50121Y-40834D01*
X50121Y-40815D01*
X50107Y-40786D01*
X50079Y-40767D01*
X50050Y-40758D01*
X49993Y-40748D01*
X49950Y-40748D01*
X49893Y-40758D01*
X49864Y-40767D01*
X49836Y-40786D01*
X49821Y-40815D01*
X49821Y-40834D01*
X49836Y-40862D01*
X49850Y-40872D01*
X49850Y-40948D02*
X49836Y-40958D01*
X49821Y-40977D01*
X49821Y-41024D01*
X49836Y-41043D01*
X49850Y-41053D01*
X49879Y-41062D01*
X49907Y-41062D01*
X49950Y-41053D01*
X50121Y-40939D01*
X50121Y-41062D01*
X49850Y-41138D02*
X49836Y-41148D01*
X49821Y-41167D01*
X49821Y-41214D01*
X49836Y-41233D01*
X49850Y-41243D01*
X49879Y-41252D01*
X49907Y-41252D01*
X49950Y-41243D01*
X50121Y-41129D01*
X50121Y-41252D01*
X53943Y-54872D02*
X53957Y-54862D01*
X53971Y-54834D01*
X53971Y-54815D01*
X53957Y-54786D01*
X53929Y-54767D01*
X53900Y-54758D01*
X53843Y-54748D01*
X53800Y-54748D01*
X53743Y-54758D01*
X53714Y-54767D01*
X53686Y-54786D01*
X53671Y-54815D01*
X53671Y-54834D01*
X53686Y-54862D01*
X53700Y-54872D01*
X53671Y-54939D02*
X53671Y-55062D01*
X53786Y-54996D01*
X53786Y-55024D01*
X53800Y-55043D01*
X53814Y-55053D01*
X53843Y-55062D01*
X53914Y-55062D01*
X53943Y-55053D01*
X53957Y-55043D01*
X53971Y-55024D01*
X53971Y-54967D01*
X53957Y-54948D01*
X53943Y-54939D01*
X53671Y-55186D02*
X53671Y-55205D01*
X53686Y-55224D01*
X53700Y-55233D01*
X53729Y-55243D01*
X53786Y-55252D01*
X53857Y-55252D01*
X53914Y-55243D01*
X53943Y-55233D01*
X53957Y-55224D01*
X53971Y-55205D01*
X53971Y-55186D01*
X53957Y-55167D01*
X53943Y-55157D01*
X53914Y-55148D01*
X53857Y-55138D01*
X53786Y-55138D01*
X53729Y-55148D01*
X53700Y-55157D01*
X53686Y-55167D01*
X53671Y-55186D01*
X57993Y-54872D02*
X58007Y-54862D01*
X58021Y-54834D01*
X58021Y-54815D01*
X58007Y-54786D01*
X57979Y-54767D01*
X57950Y-54758D01*
X57893Y-54748D01*
X57850Y-54748D01*
X57793Y-54758D01*
X57764Y-54767D01*
X57736Y-54786D01*
X57721Y-54815D01*
X57721Y-54834D01*
X57736Y-54862D01*
X57750Y-54872D01*
X57750Y-54948D02*
X57736Y-54958D01*
X57721Y-54977D01*
X57721Y-55024D01*
X57736Y-55043D01*
X57750Y-55053D01*
X57779Y-55062D01*
X57807Y-55062D01*
X57850Y-55053D01*
X58021Y-54939D01*
X58021Y-55062D01*
X58021Y-55157D02*
X58021Y-55195D01*
X58007Y-55214D01*
X57993Y-55224D01*
X57950Y-55243D01*
X57893Y-55252D01*
X57779Y-55252D01*
X57750Y-55243D01*
X57736Y-55233D01*
X57721Y-55214D01*
X57721Y-55176D01*
X57736Y-55157D01*
X57750Y-55148D01*
X57779Y-55138D01*
X57850Y-55138D01*
X57879Y-55148D01*
X57893Y-55157D01*
X57907Y-55176D01*
X57907Y-55214D01*
X57893Y-55233D01*
X57879Y-55243D01*
X57850Y-55252D01*
X59243Y-53372D02*
X59257Y-53362D01*
X59271Y-53334D01*
X59271Y-53315D01*
X59257Y-53286D01*
X59229Y-53267D01*
X59200Y-53258D01*
X59143Y-53248D01*
X59100Y-53248D01*
X59043Y-53258D01*
X59014Y-53267D01*
X58986Y-53286D01*
X58971Y-53315D01*
X58971Y-53334D01*
X58986Y-53362D01*
X59000Y-53372D01*
X59000Y-53448D02*
X58986Y-53458D01*
X58971Y-53477D01*
X58971Y-53524D01*
X58986Y-53543D01*
X59000Y-53553D01*
X59029Y-53562D01*
X59057Y-53562D01*
X59100Y-53553D01*
X59271Y-53439D01*
X59271Y-53562D01*
X59100Y-53676D02*
X59086Y-53657D01*
X59071Y-53648D01*
X59043Y-53638D01*
X59029Y-53638D01*
X59000Y-53648D01*
X58986Y-53657D01*
X58971Y-53676D01*
X58971Y-53714D01*
X58986Y-53733D01*
X59000Y-53743D01*
X59029Y-53752D01*
X59043Y-53752D01*
X59071Y-53743D01*
X59086Y-53733D01*
X59100Y-53714D01*
X59100Y-53676D01*
X59114Y-53657D01*
X59129Y-53648D01*
X59157Y-53638D01*
X59214Y-53638D01*
X59243Y-53648D01*
X59257Y-53657D01*
X59271Y-53676D01*
X59271Y-53714D01*
X59257Y-53733D01*
X59243Y-53743D01*
X59214Y-53752D01*
X59157Y-53752D01*
X59129Y-53743D01*
X59114Y-53733D01*
X59100Y-53714D01*
X59393Y-48272D02*
X59407Y-48262D01*
X59421Y-48234D01*
X59421Y-48215D01*
X59407Y-48186D01*
X59379Y-48167D01*
X59350Y-48158D01*
X59293Y-48148D01*
X59250Y-48148D01*
X59193Y-48158D01*
X59164Y-48167D01*
X59136Y-48186D01*
X59121Y-48215D01*
X59121Y-48234D01*
X59136Y-48262D01*
X59150Y-48272D01*
X59150Y-48348D02*
X59136Y-48358D01*
X59121Y-48377D01*
X59121Y-48424D01*
X59136Y-48443D01*
X59150Y-48453D01*
X59179Y-48462D01*
X59207Y-48462D01*
X59250Y-48453D01*
X59421Y-48339D01*
X59421Y-48462D01*
X59121Y-48633D02*
X59121Y-48595D01*
X59136Y-48576D01*
X59150Y-48567D01*
X59193Y-48548D01*
X59250Y-48538D01*
X59364Y-48538D01*
X59393Y-48548D01*
X59407Y-48557D01*
X59421Y-48576D01*
X59421Y-48614D01*
X59407Y-48633D01*
X59393Y-48643D01*
X59364Y-48652D01*
X59293Y-48652D01*
X59264Y-48643D01*
X59250Y-48633D01*
X59236Y-48614D01*
X59236Y-48576D01*
X59250Y-48557D01*
X59264Y-48548D01*
X59293Y-48538D01*
X57743Y-45122D02*
X57757Y-45112D01*
X57771Y-45084D01*
X57771Y-45065D01*
X57757Y-45036D01*
X57729Y-45017D01*
X57700Y-45008D01*
X57643Y-44998D01*
X57600Y-44998D01*
X57543Y-45008D01*
X57514Y-45017D01*
X57486Y-45036D01*
X57471Y-45065D01*
X57471Y-45084D01*
X57486Y-45112D01*
X57500Y-45122D01*
X57500Y-45198D02*
X57486Y-45208D01*
X57471Y-45227D01*
X57471Y-45274D01*
X57486Y-45293D01*
X57500Y-45303D01*
X57529Y-45312D01*
X57557Y-45312D01*
X57600Y-45303D01*
X57771Y-45189D01*
X57771Y-45312D01*
X57471Y-45493D02*
X57471Y-45398D01*
X57614Y-45388D01*
X57600Y-45398D01*
X57586Y-45417D01*
X57586Y-45464D01*
X57600Y-45483D01*
X57614Y-45493D01*
X57643Y-45502D01*
X57714Y-45502D01*
X57743Y-45493D01*
X57757Y-45483D01*
X57771Y-45464D01*
X57771Y-45417D01*
X57757Y-45398D01*
X57743Y-45388D01*
X54443Y-45872D02*
X54457Y-45862D01*
X54471Y-45834D01*
X54471Y-45815D01*
X54457Y-45786D01*
X54429Y-45767D01*
X54400Y-45758D01*
X54343Y-45748D01*
X54300Y-45748D01*
X54243Y-45758D01*
X54214Y-45767D01*
X54186Y-45786D01*
X54171Y-45815D01*
X54171Y-45834D01*
X54186Y-45862D01*
X54200Y-45872D01*
X54200Y-45948D02*
X54186Y-45958D01*
X54171Y-45977D01*
X54171Y-46024D01*
X54186Y-46043D01*
X54200Y-46053D01*
X54229Y-46062D01*
X54257Y-46062D01*
X54300Y-46053D01*
X54471Y-45939D01*
X54471Y-46062D01*
X54271Y-46233D02*
X54471Y-46233D01*
X54157Y-46186D02*
X54371Y-46138D01*
X54371Y-46262D01*
X52193Y-48372D02*
X52207Y-48362D01*
X52221Y-48334D01*
X52221Y-48315D01*
X52207Y-48286D01*
X52179Y-48267D01*
X52150Y-48258D01*
X52093Y-48248D01*
X52050Y-48248D01*
X51993Y-48258D01*
X51964Y-48267D01*
X51936Y-48286D01*
X51921Y-48315D01*
X51921Y-48334D01*
X51936Y-48362D01*
X51950Y-48372D01*
X51950Y-48448D02*
X51936Y-48458D01*
X51921Y-48477D01*
X51921Y-48524D01*
X51936Y-48543D01*
X51950Y-48553D01*
X51979Y-48562D01*
X52007Y-48562D01*
X52050Y-48553D01*
X52221Y-48439D01*
X52221Y-48562D01*
X51921Y-48629D02*
X51921Y-48762D01*
X52221Y-48676D01*
X52193Y-53622D02*
X52207Y-53612D01*
X52221Y-53584D01*
X52221Y-53565D01*
X52207Y-53536D01*
X52179Y-53517D01*
X52150Y-53508D01*
X52093Y-53498D01*
X52050Y-53498D01*
X51993Y-53508D01*
X51964Y-53517D01*
X51936Y-53536D01*
X51921Y-53565D01*
X51921Y-53584D01*
X51936Y-53612D01*
X51950Y-53622D01*
X51921Y-53689D02*
X51921Y-53812D01*
X52036Y-53746D01*
X52036Y-53774D01*
X52050Y-53793D01*
X52064Y-53803D01*
X52093Y-53812D01*
X52164Y-53812D01*
X52193Y-53803D01*
X52207Y-53793D01*
X52221Y-53774D01*
X52221Y-53717D01*
X52207Y-53698D01*
X52193Y-53689D01*
X52221Y-54002D02*
X52221Y-53888D01*
X52221Y-53945D02*
X51921Y-53945D01*
X51964Y-53926D01*
X51993Y-53907D01*
X52007Y-53888D01*
X46543Y-58322D02*
X46557Y-58312D01*
X46571Y-58284D01*
X46571Y-58265D01*
X46557Y-58236D01*
X46529Y-58217D01*
X46500Y-58208D01*
X46443Y-58198D01*
X46400Y-58198D01*
X46343Y-58208D01*
X46314Y-58217D01*
X46286Y-58236D01*
X46271Y-58265D01*
X46271Y-58284D01*
X46286Y-58312D01*
X46300Y-58322D01*
X46271Y-58493D02*
X46271Y-58455D01*
X46286Y-58436D01*
X46300Y-58427D01*
X46343Y-58408D01*
X46400Y-58398D01*
X46514Y-58398D01*
X46543Y-58408D01*
X46557Y-58417D01*
X46571Y-58436D01*
X46571Y-58474D01*
X46557Y-58493D01*
X46543Y-58503D01*
X46514Y-58512D01*
X46443Y-58512D01*
X46414Y-58503D01*
X46400Y-58493D01*
X46386Y-58474D01*
X46386Y-58436D01*
X46400Y-58417D01*
X46414Y-58408D01*
X46443Y-58398D01*
X46400Y-58626D02*
X46386Y-58607D01*
X46371Y-58598D01*
X46343Y-58588D01*
X46329Y-58588D01*
X46300Y-58598D01*
X46286Y-58607D01*
X46271Y-58626D01*
X46271Y-58664D01*
X46286Y-58683D01*
X46300Y-58693D01*
X46329Y-58702D01*
X46343Y-58702D01*
X46371Y-58693D01*
X46386Y-58683D01*
X46400Y-58664D01*
X46400Y-58626D01*
X46414Y-58607D01*
X46429Y-58598D01*
X46457Y-58588D01*
X46514Y-58588D01*
X46543Y-58598D01*
X46557Y-58607D01*
X46571Y-58626D01*
X46571Y-58664D01*
X46557Y-58683D01*
X46543Y-58693D01*
X46514Y-58702D01*
X46457Y-58702D01*
X46429Y-58693D01*
X46414Y-58683D01*
X46400Y-58664D01*
X51593Y-28622D02*
X51607Y-28612D01*
X51621Y-28584D01*
X51621Y-28565D01*
X51607Y-28536D01*
X51579Y-28517D01*
X51550Y-28508D01*
X51493Y-28498D01*
X51450Y-28498D01*
X51393Y-28508D01*
X51364Y-28517D01*
X51336Y-28536D01*
X51321Y-28565D01*
X51321Y-28584D01*
X51336Y-28612D01*
X51350Y-28622D01*
X51350Y-28698D02*
X51336Y-28708D01*
X51321Y-28727D01*
X51321Y-28774D01*
X51336Y-28793D01*
X51350Y-28803D01*
X51379Y-28812D01*
X51407Y-28812D01*
X51450Y-28803D01*
X51621Y-28689D01*
X51621Y-28812D01*
X51321Y-28936D02*
X51321Y-28955D01*
X51336Y-28974D01*
X51350Y-28983D01*
X51379Y-28993D01*
X51436Y-29002D01*
X51507Y-29002D01*
X51564Y-28993D01*
X51593Y-28983D01*
X51607Y-28974D01*
X51621Y-28955D01*
X51621Y-28936D01*
X51607Y-28917D01*
X51593Y-28907D01*
X51564Y-28898D01*
X51507Y-28888D01*
X51436Y-28888D01*
X51379Y-28898D01*
X51350Y-28907D01*
X51336Y-28917D01*
X51321Y-28936D01*
X55593Y-28872D02*
X55607Y-28862D01*
X55621Y-28834D01*
X55621Y-28815D01*
X55607Y-28786D01*
X55579Y-28767D01*
X55550Y-28758D01*
X55493Y-28748D01*
X55450Y-28748D01*
X55393Y-28758D01*
X55364Y-28767D01*
X55336Y-28786D01*
X55321Y-28815D01*
X55321Y-28834D01*
X55336Y-28862D01*
X55350Y-28872D01*
X55621Y-29062D02*
X55621Y-28948D01*
X55621Y-29005D02*
X55321Y-29005D01*
X55364Y-28986D01*
X55393Y-28967D01*
X55407Y-28948D01*
X55621Y-29157D02*
X55621Y-29195D01*
X55607Y-29214D01*
X55593Y-29224D01*
X55550Y-29243D01*
X55493Y-29252D01*
X55379Y-29252D01*
X55350Y-29243D01*
X55336Y-29233D01*
X55321Y-29214D01*
X55321Y-29176D01*
X55336Y-29157D01*
X55350Y-29148D01*
X55379Y-29138D01*
X55450Y-29138D01*
X55479Y-29148D01*
X55493Y-29157D01*
X55507Y-29176D01*
X55507Y-29214D01*
X55493Y-29233D01*
X55479Y-29243D01*
X55450Y-29252D01*
X59793Y-58322D02*
X59807Y-58312D01*
X59821Y-58284D01*
X59821Y-58265D01*
X59807Y-58236D01*
X59779Y-58217D01*
X59750Y-58208D01*
X59693Y-58198D01*
X59650Y-58198D01*
X59593Y-58208D01*
X59564Y-58217D01*
X59536Y-58236D01*
X59521Y-58265D01*
X59521Y-58284D01*
X59536Y-58312D01*
X59550Y-58322D01*
X59521Y-58493D02*
X59521Y-58455D01*
X59536Y-58436D01*
X59550Y-58427D01*
X59593Y-58408D01*
X59650Y-58398D01*
X59764Y-58398D01*
X59793Y-58408D01*
X59807Y-58417D01*
X59821Y-58436D01*
X59821Y-58474D01*
X59807Y-58493D01*
X59793Y-58503D01*
X59764Y-58512D01*
X59693Y-58512D01*
X59664Y-58503D01*
X59650Y-58493D01*
X59636Y-58474D01*
X59636Y-58436D01*
X59650Y-58417D01*
X59664Y-58408D01*
X59693Y-58398D01*
X59821Y-58607D02*
X59821Y-58645D01*
X59807Y-58664D01*
X59793Y-58674D01*
X59750Y-58693D01*
X59693Y-58702D01*
X59579Y-58702D01*
X59550Y-58693D01*
X59536Y-58683D01*
X59521Y-58664D01*
X59521Y-58626D01*
X59536Y-58607D01*
X59550Y-58598D01*
X59579Y-58588D01*
X59650Y-58588D01*
X59679Y-58598D01*
X59693Y-58607D01*
X59707Y-58626D01*
X59707Y-58664D01*
X59693Y-58683D01*
X59679Y-58693D01*
X59650Y-58702D01*
X122243Y-46222D02*
X122257Y-46212D01*
X122271Y-46184D01*
X122271Y-46165D01*
X122257Y-46136D01*
X122229Y-46117D01*
X122200Y-46108D01*
X122143Y-46098D01*
X122100Y-46098D01*
X122043Y-46108D01*
X122014Y-46117D01*
X121986Y-46136D01*
X121971Y-46165D01*
X121971Y-46184D01*
X121986Y-46212D01*
X122000Y-46222D01*
X121971Y-46403D02*
X121971Y-46308D01*
X122114Y-46298D01*
X122100Y-46308D01*
X122086Y-46327D01*
X122086Y-46374D01*
X122100Y-46393D01*
X122114Y-46403D01*
X122143Y-46412D01*
X122214Y-46412D01*
X122243Y-46403D01*
X122257Y-46393D01*
X122271Y-46374D01*
X122271Y-46327D01*
X122257Y-46308D01*
X122243Y-46298D01*
X122000Y-46488D02*
X121986Y-46498D01*
X121971Y-46517D01*
X121971Y-46564D01*
X121986Y-46583D01*
X122000Y-46593D01*
X122029Y-46602D01*
X122057Y-46602D01*
X122100Y-46593D01*
X122271Y-46479D01*
X122271Y-46602D01*
X39243Y-58822D02*
X39257Y-58812D01*
X39271Y-58784D01*
X39271Y-58765D01*
X39257Y-58736D01*
X39229Y-58717D01*
X39200Y-58708D01*
X39143Y-58698D01*
X39100Y-58698D01*
X39043Y-58708D01*
X39014Y-58717D01*
X38986Y-58736D01*
X38971Y-58765D01*
X38971Y-58784D01*
X38986Y-58812D01*
X39000Y-58822D01*
X38971Y-58993D02*
X38971Y-58955D01*
X38986Y-58936D01*
X39000Y-58927D01*
X39043Y-58908D01*
X39100Y-58898D01*
X39214Y-58898D01*
X39243Y-58908D01*
X39257Y-58917D01*
X39271Y-58936D01*
X39271Y-58974D01*
X39257Y-58993D01*
X39243Y-59003D01*
X39214Y-59012D01*
X39143Y-59012D01*
X39114Y-59003D01*
X39100Y-58993D01*
X39086Y-58974D01*
X39086Y-58936D01*
X39100Y-58917D01*
X39114Y-58908D01*
X39143Y-58898D01*
X38971Y-59079D02*
X38971Y-59212D01*
X39271Y-59126D01*
X31078Y-26093D02*
X31088Y-26107D01*
X31116Y-26121D01*
X31135Y-26121D01*
X31164Y-26107D01*
X31183Y-26079D01*
X31192Y-26050D01*
X31202Y-25993D01*
X31202Y-25950D01*
X31192Y-25893D01*
X31183Y-25864D01*
X31164Y-25836D01*
X31135Y-25821D01*
X31116Y-25821D01*
X31088Y-25836D01*
X31078Y-25850D01*
X30897Y-25821D02*
X30992Y-25821D01*
X31002Y-25964D01*
X30992Y-25950D01*
X30973Y-25936D01*
X30926Y-25936D01*
X30907Y-25950D01*
X30897Y-25964D01*
X30888Y-25993D01*
X30888Y-26064D01*
X30897Y-26093D01*
X30907Y-26107D01*
X30926Y-26121D01*
X30973Y-26121D01*
X30992Y-26107D01*
X31002Y-26093D01*
X30717Y-25921D02*
X30717Y-26121D01*
X30764Y-25807D02*
X30812Y-26021D01*
X30688Y-26021D01*
X37343Y-37122D02*
X37357Y-37112D01*
X37371Y-37084D01*
X37371Y-37065D01*
X37357Y-37036D01*
X37329Y-37017D01*
X37300Y-37008D01*
X37243Y-36998D01*
X37200Y-36998D01*
X37143Y-37008D01*
X37114Y-37017D01*
X37086Y-37036D01*
X37071Y-37065D01*
X37071Y-37084D01*
X37086Y-37112D01*
X37100Y-37122D01*
X37071Y-37189D02*
X37071Y-37322D01*
X37371Y-37236D01*
X37071Y-37379D02*
X37071Y-37502D01*
X37186Y-37436D01*
X37186Y-37464D01*
X37200Y-37483D01*
X37214Y-37493D01*
X37243Y-37502D01*
X37314Y-37502D01*
X37343Y-37493D01*
X37357Y-37483D01*
X37371Y-37464D01*
X37371Y-37407D01*
X37357Y-37388D01*
X37343Y-37379D01*
X38528Y-33593D02*
X38538Y-33607D01*
X38566Y-33621D01*
X38585Y-33621D01*
X38614Y-33607D01*
X38633Y-33579D01*
X38642Y-33550D01*
X38652Y-33493D01*
X38652Y-33450D01*
X38642Y-33393D01*
X38633Y-33364D01*
X38614Y-33336D01*
X38585Y-33321D01*
X38566Y-33321D01*
X38538Y-33336D01*
X38528Y-33350D01*
X38461Y-33321D02*
X38328Y-33321D01*
X38414Y-33621D01*
X38214Y-33321D02*
X38195Y-33321D01*
X38176Y-33336D01*
X38167Y-33350D01*
X38157Y-33379D01*
X38148Y-33436D01*
X38148Y-33507D01*
X38157Y-33564D01*
X38167Y-33593D01*
X38176Y-33607D01*
X38195Y-33621D01*
X38214Y-33621D01*
X38233Y-33607D01*
X38243Y-33593D01*
X38252Y-33564D01*
X38262Y-33507D01*
X38262Y-33436D01*
X38252Y-33379D01*
X38243Y-33350D01*
X38233Y-33336D01*
X38214Y-33321D01*
X41993Y-32622D02*
X42007Y-32612D01*
X42021Y-32584D01*
X42021Y-32565D01*
X42007Y-32536D01*
X41979Y-32517D01*
X41950Y-32508D01*
X41893Y-32498D01*
X41850Y-32498D01*
X41793Y-32508D01*
X41764Y-32517D01*
X41736Y-32536D01*
X41721Y-32565D01*
X41721Y-32584D01*
X41736Y-32612D01*
X41750Y-32622D01*
X41721Y-32689D02*
X41721Y-32822D01*
X42021Y-32736D01*
X42021Y-33002D02*
X42021Y-32888D01*
X42021Y-32945D02*
X41721Y-32945D01*
X41764Y-32926D01*
X41793Y-32907D01*
X41807Y-32888D01*
X43493Y-35622D02*
X43507Y-35612D01*
X43521Y-35584D01*
X43521Y-35565D01*
X43507Y-35536D01*
X43479Y-35517D01*
X43450Y-35508D01*
X43393Y-35498D01*
X43350Y-35498D01*
X43293Y-35508D01*
X43264Y-35517D01*
X43236Y-35536D01*
X43221Y-35565D01*
X43221Y-35584D01*
X43236Y-35612D01*
X43250Y-35622D01*
X43221Y-35689D02*
X43221Y-35822D01*
X43521Y-35736D01*
X43250Y-35888D02*
X43236Y-35898D01*
X43221Y-35917D01*
X43221Y-35964D01*
X43236Y-35983D01*
X43250Y-35993D01*
X43279Y-36002D01*
X43307Y-36002D01*
X43350Y-35993D01*
X43521Y-35879D01*
X43521Y-36002D01*
X62128Y-29343D02*
X62138Y-29357D01*
X62166Y-29371D01*
X62185Y-29371D01*
X62214Y-29357D01*
X62233Y-29329D01*
X62242Y-29300D01*
X62252Y-29243D01*
X62252Y-29200D01*
X62242Y-29143D01*
X62233Y-29114D01*
X62214Y-29086D01*
X62185Y-29071D01*
X62166Y-29071D01*
X62138Y-29086D01*
X62128Y-29100D01*
X61938Y-29371D02*
X62052Y-29371D01*
X61995Y-29371D02*
X61995Y-29071D01*
X62014Y-29114D01*
X62033Y-29143D01*
X62052Y-29157D01*
X61824Y-29200D02*
X61843Y-29186D01*
X61852Y-29171D01*
X61862Y-29143D01*
X61862Y-29129D01*
X61852Y-29100D01*
X61843Y-29086D01*
X61824Y-29071D01*
X61786Y-29071D01*
X61767Y-29086D01*
X61757Y-29100D01*
X61748Y-29129D01*
X61748Y-29143D01*
X61757Y-29171D01*
X61767Y-29186D01*
X61786Y-29200D01*
X61824Y-29200D01*
X61843Y-29214D01*
X61852Y-29229D01*
X61862Y-29257D01*
X61862Y-29314D01*
X61852Y-29343D01*
X61843Y-29357D01*
X61824Y-29371D01*
X61786Y-29371D01*
X61767Y-29357D01*
X61757Y-29343D01*
X61748Y-29314D01*
X61748Y-29257D01*
X61757Y-29229D01*
X61767Y-29214D01*
X61786Y-29200D01*
X61228Y-33693D02*
X61238Y-33707D01*
X61266Y-33721D01*
X61285Y-33721D01*
X61314Y-33707D01*
X61333Y-33679D01*
X61342Y-33650D01*
X61352Y-33593D01*
X61352Y-33550D01*
X61342Y-33493D01*
X61333Y-33464D01*
X61314Y-33436D01*
X61285Y-33421D01*
X61266Y-33421D01*
X61238Y-33436D01*
X61228Y-33450D01*
X61038Y-33721D02*
X61152Y-33721D01*
X61095Y-33721D02*
X61095Y-33421D01*
X61114Y-33464D01*
X61133Y-33493D01*
X61152Y-33507D01*
X60971Y-33421D02*
X60838Y-33421D01*
X60924Y-33721D01*
X64471Y-52967D02*
X64329Y-52900D01*
X64471Y-52853D02*
X64171Y-52853D01*
X64171Y-52929D01*
X64186Y-52948D01*
X64200Y-52957D01*
X64229Y-52967D01*
X64271Y-52967D01*
X64300Y-52957D01*
X64314Y-52948D01*
X64329Y-52929D01*
X64329Y-52853D01*
X64171Y-53148D02*
X64171Y-53053D01*
X64314Y-53043D01*
X64300Y-53053D01*
X64286Y-53072D01*
X64286Y-53119D01*
X64300Y-53138D01*
X64314Y-53148D01*
X64343Y-53157D01*
X64414Y-53157D01*
X64443Y-53148D01*
X64457Y-53138D01*
X64471Y-53119D01*
X64471Y-53072D01*
X64457Y-53053D01*
X64443Y-53043D01*
X45371Y-48467D02*
X45229Y-48400D01*
X45371Y-48353D02*
X45071Y-48353D01*
X45071Y-48429D01*
X45086Y-48448D01*
X45100Y-48457D01*
X45129Y-48467D01*
X45171Y-48467D01*
X45200Y-48457D01*
X45214Y-48448D01*
X45229Y-48429D01*
X45229Y-48353D01*
X45071Y-48638D02*
X45071Y-48600D01*
X45086Y-48581D01*
X45100Y-48572D01*
X45143Y-48553D01*
X45200Y-48543D01*
X45314Y-48543D01*
X45343Y-48553D01*
X45357Y-48562D01*
X45371Y-48581D01*
X45371Y-48619D01*
X45357Y-48638D01*
X45343Y-48648D01*
X45314Y-48657D01*
X45243Y-48657D01*
X45214Y-48648D01*
X45200Y-48638D01*
X45186Y-48619D01*
X45186Y-48581D01*
X45200Y-48562D01*
X45214Y-48553D01*
X45243Y-48543D01*
X46871Y-47467D02*
X46729Y-47400D01*
X46871Y-47353D02*
X46571Y-47353D01*
X46571Y-47429D01*
X46586Y-47448D01*
X46600Y-47457D01*
X46629Y-47467D01*
X46671Y-47467D01*
X46700Y-47457D01*
X46714Y-47448D01*
X46729Y-47429D01*
X46729Y-47353D01*
X46571Y-47534D02*
X46571Y-47667D01*
X46871Y-47581D01*
X34071Y-29622D02*
X33929Y-29555D01*
X34071Y-29508D02*
X33771Y-29508D01*
X33771Y-29584D01*
X33786Y-29603D01*
X33800Y-29612D01*
X33829Y-29622D01*
X33871Y-29622D01*
X33900Y-29612D01*
X33914Y-29603D01*
X33929Y-29584D01*
X33929Y-29508D01*
X34071Y-29812D02*
X34071Y-29698D01*
X34071Y-29755D02*
X33771Y-29755D01*
X33814Y-29736D01*
X33843Y-29717D01*
X33857Y-29698D01*
X33771Y-29879D02*
X33771Y-30002D01*
X33886Y-29936D01*
X33886Y-29964D01*
X33900Y-29983D01*
X33914Y-29993D01*
X33943Y-30002D01*
X34014Y-30002D01*
X34043Y-29993D01*
X34057Y-29983D01*
X34071Y-29964D01*
X34071Y-29907D01*
X34057Y-29888D01*
X34043Y-29879D01*
X44171Y-24322D02*
X44029Y-24255D01*
X44171Y-24208D02*
X43871Y-24208D01*
X43871Y-24284D01*
X43886Y-24303D01*
X43900Y-24312D01*
X43929Y-24322D01*
X43971Y-24322D01*
X44000Y-24312D01*
X44014Y-24303D01*
X44029Y-24284D01*
X44029Y-24208D01*
X43900Y-24398D02*
X43886Y-24408D01*
X43871Y-24427D01*
X43871Y-24474D01*
X43886Y-24493D01*
X43900Y-24503D01*
X43929Y-24512D01*
X43957Y-24512D01*
X44000Y-24503D01*
X44171Y-24389D01*
X44171Y-24512D01*
X43871Y-24683D02*
X43871Y-24645D01*
X43886Y-24626D01*
X43900Y-24617D01*
X43943Y-24598D01*
X44000Y-24588D01*
X44114Y-24588D01*
X44143Y-24598D01*
X44157Y-24607D01*
X44171Y-24626D01*
X44171Y-24664D01*
X44157Y-24683D01*
X44143Y-24693D01*
X44114Y-24702D01*
X44043Y-24702D01*
X44014Y-24693D01*
X44000Y-24683D01*
X43986Y-24664D01*
X43986Y-24626D01*
X44000Y-24607D01*
X44014Y-24598D01*
X44043Y-24588D01*
X43121Y-26472D02*
X42979Y-26405D01*
X43121Y-26358D02*
X42821Y-26358D01*
X42821Y-26434D01*
X42836Y-26453D01*
X42850Y-26462D01*
X42879Y-26472D01*
X42921Y-26472D01*
X42950Y-26462D01*
X42964Y-26453D01*
X42979Y-26434D01*
X42979Y-26358D01*
X42850Y-26548D02*
X42836Y-26558D01*
X42821Y-26577D01*
X42821Y-26624D01*
X42836Y-26643D01*
X42850Y-26653D01*
X42879Y-26662D01*
X42907Y-26662D01*
X42950Y-26653D01*
X43121Y-26539D01*
X43121Y-26662D01*
X43121Y-26852D02*
X43121Y-26738D01*
X43121Y-26795D02*
X42821Y-26795D01*
X42864Y-26776D01*
X42893Y-26757D01*
X42907Y-26738D01*
M02*
