G04 (created by PCBNEW-RS274X (2012-apr-16-27)-stable) date Втр 01 Янв 2013 22:44:24*
G01*
G70*
G90*
%MOIN*%
G04 Gerber Fmt 3.4, Leading zero omitted, Abs format*
%FSLAX34Y34*%
G04 APERTURE LIST*
%ADD10C,0.006000*%
%ADD11C,0.008000*%
G04 APERTURE END LIST*
G54D10*
G54D11*
X68350Y-61000D02*
X73000Y-61000D01*
X80650Y-57300D02*
X80650Y-52900D01*
X80650Y-52900D02*
X85050Y-52900D01*
X114550Y-52900D02*
X85050Y-52900D01*
X143950Y-52900D02*
X143950Y-22250D01*
X141950Y-52900D02*
X143950Y-52900D01*
X73000Y-61000D02*
X76700Y-57300D01*
X76700Y-57300D02*
X80650Y-57300D01*
X114550Y-52900D02*
X141950Y-52900D01*
X88250Y-22250D02*
X143950Y-22250D01*
X21100Y-64250D02*
X27000Y-64250D01*
X21100Y-22250D02*
X88250Y-22250D01*
X21100Y-64250D02*
X21100Y-22250D01*
X27000Y-61000D02*
X37150Y-61000D01*
X27000Y-64250D02*
X27000Y-61000D01*
X68350Y-64250D02*
X62600Y-64250D01*
X68350Y-61000D02*
X68350Y-64250D01*
X37150Y-64250D02*
X61900Y-64250D01*
X37150Y-61000D02*
X37150Y-64250D01*
X62600Y-61000D02*
X62600Y-64250D01*
X61900Y-61000D02*
X62600Y-61000D01*
X61900Y-64250D02*
X61900Y-61000D01*
M02*
